<svg width="459" height="512" viewBox="0 0 459 512" fill="none" xmlns="http://www.w3.org/2000/svg">
<g filter="url(#filter0_d_105_5300)">
<path d="M66.6172 362.629C90.9481 376.876 111.961 399.321 134.275 446.097C134.275 446.097 184.564 530.932 315.977 460.735C359.434 437.509 400.745 402.769 432.947 362.629H66.6172Z" fill="#CCE9FF"/>
<path d="M126.274 332.247C126.274 332.247 153.402 374.209 129.982 396.198C106.562 418.123 104.09 393.401 104.09 393.401C104.09 393.401 91.6638 394.116 116.58 366.077C128.355 352.87 126.274 332.247 126.274 332.247Z" fill="#0E538C"/>
<path d="M69.0896 258.407C69.0896 258.407 41.4409 290.936 78.3926 335.89C115.344 380.91 109.619 404.721 109.619 404.721C109.619 404.721 161.144 326.457 69.0896 258.407Z" fill="#2A94F4"/>
<path d="M104.155 402.639C121.329 406.087 107.407 356.058 81.6453 340.834C55.818 325.611 32.7882 324.115 18.2808 309.412C18.3458 309.412 19.4518 385.529 104.155 402.639Z" fill="#FFBE55"/>
<path d="M388.579 332.377H188.532C186.255 332.377 184.369 330.491 184.369 328.214V32.919C184.369 30.642 186.255 28.7554 188.532 28.7554H388.579C390.856 28.7554 392.743 30.642 392.743 32.919V328.214C392.743 330.556 390.856 332.377 388.579 332.377Z" fill="#0E538C"/>
<path d="M388.579 332.377H188.532L392.743 32.9189V328.214C392.743 330.556 390.856 332.377 388.579 332.377Z" fill="#0E538C"/>
<path d="M359.759 225.358H370.559V307.525H359.759V225.358Z" fill="#CCE9FF"/>
<path d="M338.486 234.531H349.285V307.46H338.486V234.531Z" fill="#FFBE55"/>
<path d="M315.261 246.502H326.061V307.46H315.261V246.502Z" fill="#CCE9FF"/>
<path d="M291.515 261.595H302.315V307.46H291.515V261.595ZM242.658 267.515L240.316 266.669L260.679 209.549L304.852 197.904L320.726 135.189L354.75 120.16L362.426 71.4326L364.833 71.823L357.027 121.917L322.807 137.01L306.869 199.921L262.631 211.631L242.658 267.515Z" fill="#FFBE55"/>
<path d="M311.033 194.716C313.375 197.579 312.919 201.742 310.122 204.019C307.259 206.361 303.096 205.906 300.819 203.109C298.477 200.311 298.932 196.082 301.73 193.805C304.527 191.463 308.691 191.854 311.033 194.716Z" fill="white"/>
<path d="M310.837 204.995C307.454 207.728 302.51 207.272 299.778 203.889C297.045 200.506 297.501 195.562 300.884 192.83C304.266 190.097 309.211 190.553 311.943 193.936C314.74 197.253 314.22 202.263 310.837 204.995ZM302.445 194.716C300.168 196.603 299.778 199.986 301.664 202.263C303.551 204.54 306.934 204.93 309.211 203.044C311.488 201.157 311.878 197.774 309.991 195.497C308.17 193.22 304.787 192.83 302.445 194.716Z" fill="#FFBE55"/>
<path d="M327.101 132.261C329.443 135.124 328.988 139.288 326.191 141.565C323.328 143.907 319.165 143.451 316.888 140.654C314.546 137.791 315.001 133.628 317.798 131.351C320.596 129.008 324.759 129.464 327.101 132.261Z" fill="white"/>
<path d="M326.906 142.54C323.523 145.273 318.579 144.817 315.846 141.434C313.114 138.051 313.569 133.107 316.952 130.375C320.335 127.642 325.28 128.098 328.012 131.481C330.809 134.864 330.289 139.808 326.906 142.54ZM318.514 132.326C316.237 134.213 315.846 137.596 317.733 139.873C319.62 142.15 323.003 142.54 325.28 140.654C327.556 138.767 327.947 135.384 326.06 133.107C324.239 130.765 320.856 130.44 318.514 132.326Z" fill="#FFBE55"/>
<path d="M360.605 116.843C362.947 119.705 362.491 123.869 359.694 126.146C356.832 128.488 352.668 128.033 350.391 125.235C348.049 122.373 348.504 118.209 351.302 115.932C354.099 113.59 358.328 113.98 360.605 116.843Z" fill="white"/>
<path d="M360.475 127.122C357.092 129.854 352.148 129.399 349.415 126.016C346.683 122.633 347.138 117.688 350.521 114.956C353.904 112.223 358.848 112.679 361.581 116.062C364.313 119.38 363.858 124.389 360.475 127.122ZM352.083 116.842C349.806 118.729 349.415 122.112 351.302 124.389C353.189 126.666 356.571 127.056 358.848 125.17C361.125 123.283 361.516 119.9 359.629 117.623C357.807 115.281 354.36 114.956 352.083 116.842Z" fill="#FFBE55"/>
<path d="M267.055 206.947C269.397 209.809 268.941 213.973 266.144 216.25C263.282 218.592 259.118 218.137 256.841 215.339C254.564 212.542 254.954 208.313 257.752 206.036C260.549 203.694 264.713 204.149 267.055 206.947Z" fill="white"/>
<path d="M266.86 217.226C263.477 219.958 258.532 219.503 255.8 216.12C253.068 212.737 253.523 207.793 256.906 205.06C260.289 202.328 265.233 202.783 267.965 206.166C270.763 209.549 270.242 214.494 266.86 217.226ZM258.467 207.012C256.19 208.899 255.8 212.282 257.687 214.559C259.573 216.836 262.956 217.226 265.233 215.339C267.51 213.453 267.9 210.07 266.014 207.793C264.192 205.451 260.809 205.125 258.467 207.012Z" fill="#FFBE55"/>
<path d="M271.934 129.204H207.398C206.878 129.204 206.487 128.813 206.487 128.293V116.322C206.487 115.802 206.878 115.412 207.398 115.412H271.934C272.454 115.412 272.844 115.802 272.844 116.322V128.293C272.844 128.748 272.454 129.204 271.934 129.204Z" fill="#CCE9FF"/>
<path d="M271.934 105.132H207.398C206.878 105.132 206.487 104.742 206.487 104.222V92.2511C206.487 91.7307 206.878 91.3403 207.398 91.3403H271.934C272.454 91.3403 272.844 91.7307 272.844 92.2511V104.222C272.844 104.742 272.454 105.132 271.934 105.132Z" fill="#2A94F4"/>
<path d="M194.517 139.678C194.517 139.678 192.566 158.674 196.079 163.424C196.079 163.424 186.776 161.407 184.629 158.219C182.547 154.966 194.517 139.678 194.517 139.678Z" fill="#FFBE55"/>
<path d="M252.482 200.246C252.482 200.246 255.865 197.969 256.386 197.644C256.906 197.318 258.663 197.383 260.614 197.579C262.566 197.839 265.168 199.01 265.298 199.335C265.428 199.66 265.754 199.856 265.624 200.766C265.493 201.612 264.908 202.328 264.908 202.328C264.908 202.328 265.233 203.499 264.453 204.214C264.453 204.214 264.713 205.32 263.672 206.036C263.672 206.036 263.932 207.142 263.151 207.597C263.151 207.597 261.395 207.532 260.744 207.728C260.094 207.923 256.516 207.532 253.133 206.687C253.133 206.622 249.36 205.841 252.482 200.246Z" fill="#FFE3CA"/>
<path d="M250.465 200.571C250.465 200.571 252.612 200.311 253.913 199.725C255.215 199.14 253.653 206.296 253.653 206.296C253.653 206.296 250.465 204.084 248.384 204.019C246.367 204.019 250.465 200.571 250.465 200.571Z" fill="#FFE3CA"/>
<path d="M162.77 392.23C162.77 392.23 169.406 401.923 171.682 403.94C171.682 403.94 176.301 406.347 176.432 408.234C176.692 411.877 176.887 413.959 170.837 414.154C164.787 414.349 160.948 414.154 159.842 410.446C158.736 406.738 156.785 403.875 156.785 403.875L156.329 413.438H154.963C154.963 413.438 154.378 403.81 154.247 402.444C154.182 401.078 153.272 395.808 156.134 393.466C159.062 391.254 162.77 392.23 162.77 392.23Z" fill="#0B4870"/>
<path d="M172.529 404.46C172.529 404.46 169.276 405.371 165.307 404.395C161.404 403.42 157.631 394.051 156.525 393.271L155.484 389.497H163.095C163.095 389.497 163.16 392.295 164.397 394.702C165.698 397.044 172.529 404.46 172.529 404.46Z" fill="#FFE3CA"/>
<path d="M205.707 388.587C205.707 388.587 206.683 390.929 208.569 393.401C209.936 395.222 214.229 402.574 216.116 403.094C218.002 403.615 223.792 404.656 224.313 407.909C224.833 411.161 225.094 413.438 219.369 413.699C213.644 413.959 209.87 414.284 207.138 410.251C204.406 406.217 200.047 403.289 200.047 403.289V413.764H197.77C197.77 413.764 196.729 402.834 196.144 402.053C195.558 401.273 193.997 392.88 199.331 388.522C204.666 384.228 205.707 388.587 205.707 388.587Z" fill="#0B4870"/>
<path d="M216.116 403.094C216.116 403.094 210.976 404.395 209.024 403.094C207.073 401.793 200.372 390.473 198.16 389.823C198.16 389.823 200.307 385.464 205.707 388.652C205.707 388.587 214.619 401.208 216.116 403.094Z" fill="#FFE3CA"/>
<path d="M159.843 231.473C159.843 231.473 152.621 240.907 150.67 252.032C148.718 263.221 151.841 300.694 151.776 306.159C151.711 311.689 146.896 328.864 147.937 339.273C148.978 349.682 154.313 393.076 154.313 393.076L166.869 392.815C166.869 392.815 164.331 345.974 164.982 341.615C165.633 337.256 167.649 318.715 167.91 316.894C168.17 315.072 182.222 267.58 182.222 259.513C182.222 251.446 177.278 218.332 159.843 231.473Z" fill="#FFBE55"/>
<path d="M196.209 235.182C196.209 235.182 208.114 280.592 209.48 286.837C210.911 293.148 213.709 301.345 213.579 302.516C213.449 303.687 212.082 323.074 212.082 323.074L208.699 389.042H196.144C196.144 389.042 192.11 347.08 191.46 338.623C190.809 330.165 196.079 317.089 194.777 313.445C193.476 309.867 174.09 268.426 174.09 268.426C174.09 268.426 159.517 221.975 196.209 235.182Z" fill="#FFBE55"/>
<path d="M192.501 167.197C192.501 167.197 197.25 167.652 200.828 171.491C204.406 175.329 207.789 181.509 208.765 183.526C209.675 185.608 222.882 204.605 223.597 205.06C224.313 205.515 230.038 203.954 234.657 203.564C242.203 202.913 253.458 199.075 253.458 199.075L255.149 207.597C255.149 207.597 227.436 216.575 220.995 214.949C213.188 212.997 195.168 189.902 195.168 189.902C195.168 189.902 181.701 174.223 192.501 167.197Z" fill="#2A94F4"/>
<path d="M184.238 163.879C184.238 163.879 190.419 166.806 192.565 167.197C194.712 167.652 202.974 178.387 204.471 182.355C205.902 186.258 204.471 192.179 201.478 199.14C198.486 206.101 201.283 208.378 199.917 215.339C198.551 222.235 198.551 241.167 198.811 245.005C199.071 248.844 159.192 256.13 151.255 249.104C151.255 249.104 156.655 231.343 163.03 224.707C164.396 223.276 164.266 213.648 163.29 211.24C162.379 208.833 151.71 190.943 151.71 190.943C151.71 190.943 150.93 172.792 155.549 169.214C159.582 166.091 170.511 164.985 172.528 164.269C174.48 163.619 180.205 163.293 184.238 163.879Z" fill="#2A94F4"/>
<path d="M186.19 177.606L189.963 173.247L186.711 161.732C186.646 161.667 185.605 168.108 186.19 177.606Z" fill="#0E538C"/>
<path d="M162.705 167.197C162.705 167.197 154.963 164.985 150.474 173.507C146.05 182.095 147.156 186.649 146.115 190.552C145.075 194.391 140.976 220.153 140.716 221.259C140.456 222.365 136.552 235.442 137.008 239.475C137.528 243.509 141.171 273.956 141.041 274.997C140.846 276.037 148.132 274.021 148.132 274.021C148.132 274.021 147.807 242.923 148.067 240.321C148.327 237.784 148.588 224.252 150.474 220.804C152.426 217.356 157.175 196.147 158.151 194C159.322 191.853 169.275 169.994 162.705 167.197Z" fill="#EEA886"/>
<path d="M187.166 156.788C187.166 156.788 185.93 168.108 186.19 171.751C186.19 171.751 179.815 178.192 172.528 164.27C172.528 164.27 175.586 158.545 173.309 150.738C170.967 142.931 187.166 156.788 187.166 156.788Z" fill="#FFE3CA"/>
<path d="M186.19 171.751V177.606L179.294 171.491L186.19 171.751Z" fill="#FFE3CA"/>
<path d="M186.19 177.606L183.132 173.833L172.788 163.554L168.95 165.31L186.19 177.606ZM189.898 173.247L194.647 174.548L186.645 161.667L189.898 173.247Z" fill="#0E538C"/>
<path d="M183.132 173.833L178.839 180.729L168.82 165.05L173.114 162.838L183.132 173.833ZM205.056 201.677C205.056 201.677 206.618 191.398 204.991 185.218C204.991 185.218 204.081 190.227 201.869 198.099L205.056 201.677ZM157.24 200.311C157.24 200.311 161.469 186.193 161.729 185.478C161.729 185.478 161.469 198.424 159.777 204.865C159.777 204.8 158.216 202.067 157.24 200.311Z" fill="#0E538C"/>
<path d="M181.961 118.339C181.961 118.339 193.281 118.014 195.363 131.481C197.445 144.882 192.631 156.723 190.744 158.609C188.857 160.496 177.538 159.065 174.87 152.104C172.203 145.143 168.3 140.068 168.885 134.018C169.471 127.967 168.039 118.079 181.961 118.339Z" fill="#FFE3CA"/>
<path d="M195.884 136.555C195.884 136.555 198.941 119.835 183.848 116.778C168.82 113.785 163.486 124.064 162.054 130.179C160.623 136.295 162.315 153.6 162.315 153.6C162.315 153.6 172.333 162.383 178.318 164.66C178.318 164.66 173.309 146.248 175.196 133.107C175.196 133.107 187.426 135.059 195.558 133.042C195.623 133.042 195.819 135.839 195.884 136.555Z" fill="#FFBE55"/>
<path d="M186.906 159.325C186.906 159.325 182.937 159.325 177.603 155.812C177.603 155.812 181.376 160.561 186.645 162.253C186.645 162.253 186.906 159.911 186.906 159.325Z" fill="#FCD2B1"/>
<path d="M120.731 252.881L164.518 245.723L169.818 278.147L126.031 285.305L120.731 252.881Z" fill="#0B4870"/>
<path d="M139.545 284.755C139.545 284.755 138.829 283.649 138.764 282.999C138.764 282.999 138.764 281.828 138.699 280.982C138.699 280.722 138.634 280.461 138.634 280.331C138.504 279.746 138.049 278.445 138.114 276.883C138.179 275.322 140.326 268.751 140.326 268.751L144.229 268.881L147.872 268.491C147.872 268.491 152.296 276.883 152.361 278.38V278.77C152.296 280.006 151.775 280.917 151.645 281.567C151.58 281.828 151.06 284.105 150.409 284.43C149.499 284.885 148.718 284.82 148.132 284.495C148.132 284.495 146.376 285.276 145.075 284.95C145.075 284.95 143.448 285.731 142.017 284.885C142.082 284.885 140.326 285.536 139.545 284.755Z" fill="#FFE3CA"/>
<path d="M162.705 167.197C162.705 167.197 154.963 164.985 150.474 173.507C146.05 182.095 146.05 185.738 145.465 189.902C144.879 193.87 139.48 217.291 139.22 218.397C138.959 219.503 137.203 234.141 137.073 239.475C137.008 243.509 137.918 270.117 137.788 271.158C137.593 272.199 150.084 269.337 150.084 269.337C150.084 269.337 148.718 244.81 148.978 242.273C149.238 239.735 149.759 226.919 151.06 223.146C152.556 218.722 158.346 196.472 159.387 194.261C160.298 192.114 169.275 169.994 162.705 167.197Z" fill="#2A94F4"/>
<path d="M290.995 165.44L293.923 180.273L296.85 195.106C296.85 195.106 280.001 189.837 260.874 193.61L259.573 187.039L258.272 180.469C277.463 176.695 290.995 165.44 290.995 165.44Z" fill="#FFBE55"/>
<path d="M263.606 209.81L265.298 209.029L257.621 192.83L253.328 194.846L259.833 208.573C260.549 210.135 262.045 210.525 263.606 209.81Z" fill="#2A94F4"/>
<mask id="mask0_105_5300" style="mask-type:luminance" maskUnits="userSpaceOnUse" x="253" y="192" width="13" height="19">
<path d="M263.606 209.81L265.298 209.029L257.621 192.83L253.328 194.846L259.833 208.573C260.549 210.135 262.045 210.525 263.606 209.81Z" fill="white"/>
</mask>
<g mask="url(#mask0_105_5300)">
<path d="M253.328 192.83H253.523V210.59H253.328V192.83ZM253.523 192.83H253.718V210.59H253.523V192.83ZM253.718 192.83H253.913V210.59H253.718V192.83ZM253.913 192.83H254.108V210.59H253.913V192.83ZM254.108 192.83H254.303V210.59H254.108V192.83Z" fill="#2A94F4"/>
</g>
<mask id="mask1_105_5300" style="mask-type:luminance" maskUnits="userSpaceOnUse" x="253" y="192" width="13" height="19">
<path d="M263.606 209.81L265.298 209.029L257.621 192.83L253.328 194.846L259.833 208.573C260.549 210.135 262.045 210.525 263.606 209.81Z" fill="white"/>
</mask>
<g mask="url(#mask1_105_5300)">
<path d="M254.304 192.83H254.499V210.59H254.304V192.83Z" fill="#2A94F4"/>
</g>
<mask id="mask2_105_5300" style="mask-type:luminance" maskUnits="userSpaceOnUse" x="253" y="192" width="13" height="19">
<path d="M263.606 209.81L265.298 209.029L257.621 192.83L253.328 194.846L259.833 208.573C260.549 210.135 262.045 210.525 263.606 209.81Z" fill="white"/>
</mask>
<g mask="url(#mask2_105_5300)">
<path d="M254.434 192.83H254.629V210.59H254.434V192.83Z" fill="#2A94F4"/>
</g>
<mask id="mask3_105_5300" style="mask-type:luminance" maskUnits="userSpaceOnUse" x="253" y="192" width="13" height="19">
<path d="M263.606 209.81L265.298 209.029L257.621 192.83L253.328 194.846L259.833 208.573C260.549 210.135 262.045 210.525 263.606 209.81Z" fill="white"/>
</mask>
<g mask="url(#mask3_105_5300)">
<path d="M254.629 192.83H254.824V210.59H254.629V192.83ZM254.824 192.83H255.019V210.59H254.824V192.83ZM255.019 192.83H255.214V210.59H255.019V192.83ZM255.214 192.83H255.41V210.59H255.214V192.83Z" fill="#2A94F4"/>
</g>
<mask id="mask4_105_5300" style="mask-type:luminance" maskUnits="userSpaceOnUse" x="253" y="192" width="13" height="19">
<path d="M263.606 209.81L265.298 209.029L257.621 192.83L253.328 194.846L259.833 208.573C260.549 210.135 262.045 210.525 263.606 209.81Z" fill="white"/>
</mask>
<g mask="url(#mask4_105_5300)">
<path d="M255.344 192.83H255.539V210.59H255.344V192.83ZM255.539 192.83H255.735V210.59H255.539V192.83ZM255.735 192.83H255.93V210.59H255.735V192.83Z" fill="#2A94F4"/>
</g>
<mask id="mask5_105_5300" style="mask-type:luminance" maskUnits="userSpaceOnUse" x="253" y="192" width="13" height="19">
<path d="M263.606 209.81L265.298 209.029L257.621 192.83L253.328 194.846L259.833 208.573C260.549 210.135 262.045 210.525 263.606 209.81Z" fill="white"/>
</mask>
<g mask="url(#mask5_105_5300)">
<path d="M255.93 192.83H256.125V210.59H255.93V192.83ZM256.125 192.83H256.32V210.59H256.125V192.83ZM256.32 192.83H256.515V210.59H256.32V192.83Z" fill="#2A94F4"/>
</g>
<mask id="mask6_105_5300" style="mask-type:luminance" maskUnits="userSpaceOnUse" x="253" y="192" width="13" height="19">
<path d="M263.606 209.81L265.298 209.029L257.621 192.83L253.328 194.846L259.833 208.573C260.549 210.135 262.045 210.525 263.606 209.81Z" fill="white"/>
</mask>
<g mask="url(#mask6_105_5300)">
<path d="M256.45 192.83H256.645V210.59H256.45V192.83ZM256.645 192.83H256.841V210.59H256.645V192.83ZM256.841 192.83H257.036V210.59H256.841V192.83ZM257.036 192.83H257.231V210.59H257.036V192.83Z" fill="#2A94F4"/>
</g>
<mask id="mask7_105_5300" style="mask-type:luminance" maskUnits="userSpaceOnUse" x="253" y="192" width="13" height="19">
<path d="M263.606 209.81L265.298 209.029L257.621 192.83L253.328 194.846L259.833 208.573C260.549 210.135 262.045 210.525 263.606 209.81Z" fill="white"/>
</mask>
<g mask="url(#mask7_105_5300)">
<path d="M257.231 192.83H257.426V210.59H257.231V192.83Z" fill="#2A94F4"/>
</g>
<mask id="mask8_105_5300" style="mask-type:luminance" maskUnits="userSpaceOnUse" x="253" y="192" width="13" height="19">
<path d="M263.606 209.81L265.298 209.029L257.621 192.83L253.328 194.846L259.833 208.573C260.549 210.135 262.045 210.525 263.606 209.81Z" fill="white"/>
</mask>
<g mask="url(#mask8_105_5300)">
<path d="M257.361 192.83H257.556V210.59H257.361V192.83Z" fill="#2A94F4"/>
</g>
<mask id="mask9_105_5300" style="mask-type:luminance" maskUnits="userSpaceOnUse" x="253" y="192" width="13" height="19">
<path d="M263.606 209.81L265.298 209.029L257.621 192.83L253.328 194.846L259.833 208.573C260.549 210.135 262.045 210.525 263.606 209.81Z" fill="white"/>
</mask>
<g mask="url(#mask9_105_5300)">
<path d="M257.556 192.83H257.751V210.59H257.556V192.83ZM257.751 192.83H257.946V210.59H257.751V192.83ZM257.946 192.83H258.142V210.59H257.946V192.83ZM258.142 192.83H258.337V210.59H258.142V192.83ZM258.337 192.83H258.532V210.59H258.337V192.83Z" fill="#2A94F4"/>
</g>
<mask id="mask10_105_5300" style="mask-type:luminance" maskUnits="userSpaceOnUse" x="253" y="192" width="13" height="19">
<path d="M263.606 209.81L265.298 209.029L257.621 192.83L253.328 194.846L259.833 208.573C260.549 210.135 262.045 210.525 263.606 209.81Z" fill="white"/>
</mask>
<g mask="url(#mask10_105_5300)">
<path d="M258.467 192.83H258.662V210.59H258.467V192.83ZM258.662 192.83H258.858V210.59H258.662V192.83Z" fill="#2A94F4"/>
</g>
<mask id="mask11_105_5300" style="mask-type:luminance" maskUnits="userSpaceOnUse" x="253" y="192" width="13" height="19">
<path d="M263.606 209.81L265.298 209.029L257.621 192.83L253.328 194.846L259.833 208.573C260.549 210.135 262.045 210.525 263.606 209.81Z" fill="white"/>
</mask>
<g mask="url(#mask11_105_5300)">
<path d="M258.857 192.83H259.053V210.59H258.857V192.83ZM259.053 192.83H259.248V210.59H259.053V192.83ZM259.248 192.83H259.443V210.59H259.248V192.83ZM259.443 192.83H259.638V210.59H259.443V192.83Z" fill="#2A94F4"/>
</g>
<mask id="mask12_105_5300" style="mask-type:luminance" maskUnits="userSpaceOnUse" x="253" y="192" width="13" height="19">
<path d="M263.606 209.81L265.298 209.029L257.621 192.83L253.328 194.846L259.833 208.573C260.549 210.135 262.045 210.525 263.606 209.81Z" fill="white"/>
</mask>
<g mask="url(#mask12_105_5300)">
<path d="M259.573 192.83H259.768V210.59H259.573V192.83ZM259.768 192.83H259.964V210.59H259.768V192.83ZM259.964 192.83H260.159V210.59H259.964V192.83Z" fill="#2A94F4"/>
</g>
<mask id="mask13_105_5300" style="mask-type:luminance" maskUnits="userSpaceOnUse" x="253" y="192" width="13" height="19">
<path d="M263.606 209.81L265.298 209.029L257.621 192.83L253.328 194.846L259.833 208.573C260.549 210.135 262.045 210.525 263.606 209.81Z" fill="white"/>
</mask>
<g mask="url(#mask13_105_5300)">
<path d="M260.159 192.83H260.354V210.59H260.159V192.83ZM260.354 192.83H260.549V210.59H260.354V192.83Z" fill="#2A94F4"/>
</g>
<mask id="mask14_105_5300" style="mask-type:luminance" maskUnits="userSpaceOnUse" x="253" y="192" width="13" height="19">
<path d="M263.606 209.81L265.298 209.029L257.621 192.83L253.328 194.846L259.833 208.573C260.549 210.135 262.045 210.525 263.606 209.81Z" fill="white"/>
</mask>
<g mask="url(#mask14_105_5300)">
<path d="M260.484 192.83H260.679V210.59H260.484V192.83ZM260.679 192.83H260.874V210.59H260.679V192.83ZM260.874 192.83H261.069V210.59H260.874V192.83ZM261.069 192.83H261.265V210.59H261.069V192.83ZM261.265 192.83H261.46V210.59H261.265V192.83Z" fill="#2A94F4"/>
</g>
<mask id="mask15_105_5300" style="mask-type:luminance" maskUnits="userSpaceOnUse" x="253" y="192" width="13" height="19">
<path d="M263.606 209.81L265.298 209.029L257.621 192.83L253.328 194.846L259.833 208.573C260.549 210.135 262.045 210.525 263.606 209.81Z" fill="white"/>
</mask>
<g mask="url(#mask15_105_5300)">
<path d="M261.459 192.83H261.655V210.59H261.459V192.83Z" fill="#2A94F4"/>
</g>
<mask id="mask16_105_5300" style="mask-type:luminance" maskUnits="userSpaceOnUse" x="253" y="192" width="13" height="19">
<path d="M263.606 209.81L265.298 209.029L257.621 192.83L253.328 194.846L259.833 208.573C260.549 210.135 262.045 210.525 263.606 209.81Z" fill="white"/>
</mask>
<g mask="url(#mask16_105_5300)">
<path d="M261.59 192.83H261.785V210.59H261.59V192.83Z" fill="#2A94F4"/>
</g>
<mask id="mask17_105_5300" style="mask-type:luminance" maskUnits="userSpaceOnUse" x="253" y="192" width="13" height="19">
<path d="M263.606 209.81L265.298 209.029L257.621 192.83L253.328 194.846L259.833 208.573C260.549 210.135 262.045 210.525 263.606 209.81Z" fill="white"/>
</mask>
<g mask="url(#mask17_105_5300)">
<path d="M261.785 192.83H261.98V210.59H261.785V192.83ZM261.98 192.83H262.175V210.59H261.98V192.83ZM262.175 192.83H262.371V210.59H262.175V192.83ZM262.371 192.83H262.566V210.59H262.371V192.83Z" fill="#2A94F4"/>
</g>
<mask id="mask18_105_5300" style="mask-type:luminance" maskUnits="userSpaceOnUse" x="253" y="192" width="13" height="19">
<path d="M263.606 209.81L265.298 209.029L257.621 192.83L253.328 194.846L259.833 208.573C260.549 210.135 262.045 210.525 263.606 209.81Z" fill="white"/>
</mask>
<g mask="url(#mask18_105_5300)">
<path d="M262.5 192.83H262.696V210.59H262.5V192.83ZM262.696 192.83H262.891V210.59H262.696V192.83ZM262.891 192.83H263.086V210.59H262.891V192.83Z" fill="#2A94F4"/>
</g>
<mask id="mask19_105_5300" style="mask-type:luminance" maskUnits="userSpaceOnUse" x="253" y="192" width="13" height="19">
<path d="M263.606 209.81L265.298 209.029L257.621 192.83L253.328 194.846L259.833 208.573C260.549 210.135 262.045 210.525 263.606 209.81Z" fill="white"/>
</mask>
<g mask="url(#mask19_105_5300)">
<path d="M263.086 192.83H263.281V210.59H263.086V192.83ZM263.281 192.83H263.476V210.59H263.281V192.83ZM263.476 192.83H263.671V210.59H263.476V192.83Z" fill="#2A94F4"/>
</g>
<mask id="mask20_105_5300" style="mask-type:luminance" maskUnits="userSpaceOnUse" x="253" y="192" width="13" height="19">
<path d="M263.606 209.81L265.298 209.029L257.621 192.83L253.328 194.846L259.833 208.573C260.549 210.135 262.045 210.525 263.606 209.81Z" fill="white"/>
</mask>
<g mask="url(#mask20_105_5300)">
<path d="M263.606 192.83H263.802V210.59H263.606V192.83ZM263.802 192.83H263.997V210.59H263.802V192.83ZM263.997 192.83H264.192V210.59H263.997V192.83ZM264.192 192.83H264.387V210.59H264.192V192.83Z" fill="#2A94F4"/>
</g>
<mask id="mask21_105_5300" style="mask-type:luminance" maskUnits="userSpaceOnUse" x="253" y="192" width="13" height="19">
<path d="M263.606 209.81L265.298 209.029L257.621 192.83L253.328 194.846L259.833 208.573C260.549 210.135 262.045 210.525 263.606 209.81Z" fill="white"/>
</mask>
<g mask="url(#mask21_105_5300)">
<path d="M264.387 192.83H264.582V210.59H264.387V192.83Z" fill="#2A94F4"/>
</g>
<mask id="mask22_105_5300" style="mask-type:luminance" maskUnits="userSpaceOnUse" x="253" y="192" width="13" height="19">
<path d="M263.606 209.81L265.298 209.029L257.621 192.83L253.328 194.846L259.833 208.573C260.549 210.135 262.045 210.525 263.606 209.81Z" fill="white"/>
</mask>
<g mask="url(#mask22_105_5300)">
<path d="M264.517 192.83H264.712V210.59H264.517V192.83Z" fill="#2A94F4"/>
</g>
<mask id="mask23_105_5300" style="mask-type:luminance" maskUnits="userSpaceOnUse" x="253" y="192" width="13" height="19">
<path d="M263.606 209.81L265.298 209.029L257.621 192.83L253.328 194.846L259.833 208.573C260.549 210.135 262.045 210.525 263.606 209.81Z" fill="white"/>
</mask>
<g mask="url(#mask23_105_5300)">
<path d="M264.712 192.83H264.908V210.59H264.712V192.83ZM264.908 192.83H265.103V210.59H264.908V192.83ZM265.103 192.83H265.298V210.59H265.103V192.83Z" fill="#2A94F4"/>
</g>
<path d="M247.733 196.343L264.583 193.22L261.85 179.363L245.131 183.201L247.733 196.343Z" fill="#2A94F4"/>
<mask id="mask24_105_5300" style="mask-type:luminance" maskUnits="userSpaceOnUse" x="245" y="179" width="20" height="18">
<path d="M247.733 196.343L264.583 193.22L261.85 179.363L245.131 183.201L247.733 196.343Z" fill="white"/>
</mask>
<g mask="url(#mask24_105_5300)">
<path d="M245.131 179.363H245.456V196.343H245.131V179.363Z" fill="#2A94F4"/>
</g>
<mask id="mask25_105_5300" style="mask-type:luminance" maskUnits="userSpaceOnUse" x="245" y="179" width="20" height="18">
<path d="M247.733 196.343L264.583 193.22L261.85 179.363L245.131 183.201L247.733 196.343Z" fill="white"/>
</mask>
<g mask="url(#mask25_105_5300)">
<path d="M245.391 179.363H245.716V196.343H245.391V179.363ZM245.716 179.363H246.042V196.343H245.716V179.363Z" fill="#2A94F4"/>
</g>
<mask id="mask26_105_5300" style="mask-type:luminance" maskUnits="userSpaceOnUse" x="245" y="179" width="20" height="18">
<path d="M247.733 196.343L264.583 193.22L261.85 179.363L245.131 183.201L247.733 196.343Z" fill="white"/>
</mask>
<g mask="url(#mask26_105_5300)">
<path d="M245.977 179.363H246.302V196.343H245.977V179.363ZM246.302 179.363H246.627V196.343H246.302V179.363ZM246.627 179.363H246.952V196.343H246.627V179.363Z" fill="#2A94F4"/>
</g>
<mask id="mask27_105_5300" style="mask-type:luminance" maskUnits="userSpaceOnUse" x="245" y="179" width="20" height="18">
<path d="M247.733 196.343L264.583 193.22L261.85 179.363L245.131 183.201L247.733 196.343Z" fill="white"/>
</mask>
<g mask="url(#mask27_105_5300)">
<path d="M246.887 179.363H247.212V196.343H246.887V179.363ZM247.212 179.363H247.538V196.343H247.212V179.363Z" fill="#2A94F4"/>
</g>
<mask id="mask28_105_5300" style="mask-type:luminance" maskUnits="userSpaceOnUse" x="245" y="179" width="20" height="18">
<path d="M247.733 196.343L264.583 193.22L261.85 179.363L245.131 183.201L247.733 196.343Z" fill="white"/>
</mask>
<g mask="url(#mask28_105_5300)">
<path d="M247.473 179.363H247.798V196.343H247.473V179.363ZM247.798 179.363H248.123V196.343H247.798V179.363ZM248.123 179.363H248.448V196.343H248.123V179.363Z" fill="#2A94F4"/>
</g>
<mask id="mask29_105_5300" style="mask-type:luminance" maskUnits="userSpaceOnUse" x="245" y="179" width="20" height="18">
<path d="M247.733 196.343L264.583 193.22L261.85 179.363L245.131 183.201L247.733 196.343Z" fill="white"/>
</mask>
<g mask="url(#mask29_105_5300)">
<path d="M248.384 179.363H248.709V196.343H248.384V179.363ZM248.709 179.363H249.034V196.343H248.709V179.363Z" fill="#2A94F4"/>
</g>
<mask id="mask30_105_5300" style="mask-type:luminance" maskUnits="userSpaceOnUse" x="245" y="179" width="20" height="18">
<path d="M247.733 196.343L264.583 193.22L261.85 179.363L245.131 183.201L247.733 196.343Z" fill="white"/>
</mask>
<g mask="url(#mask30_105_5300)">
<path d="M248.969 179.363H249.295V196.343H248.969V179.363ZM249.295 179.363H249.62V196.343H249.295V179.363ZM249.62 179.363H249.945V196.343H249.62V179.363Z" fill="#2A94F4"/>
</g>
<mask id="mask31_105_5300" style="mask-type:luminance" maskUnits="userSpaceOnUse" x="245" y="179" width="20" height="18">
<path d="M247.733 196.343L264.583 193.22L261.85 179.363L245.131 183.201L247.733 196.343Z" fill="white"/>
</mask>
<g mask="url(#mask31_105_5300)">
<path d="M249.88 179.363H250.205V196.343H249.88V179.363ZM250.205 179.363H250.53V196.343H250.205V179.363Z" fill="#2A94F4"/>
</g>
<mask id="mask32_105_5300" style="mask-type:luminance" maskUnits="userSpaceOnUse" x="245" y="179" width="20" height="18">
<path d="M247.733 196.343L264.583 193.22L261.85 179.363L245.131 183.201L247.733 196.343Z" fill="white"/>
</mask>
<g mask="url(#mask32_105_5300)">
<path d="M250.465 179.363H250.791V196.343H250.465V179.363ZM250.791 179.363H251.116V196.343H250.791V179.363ZM251.116 179.363H251.441V196.343H251.116V179.363Z" fill="#2A94F4"/>
</g>
<mask id="mask33_105_5300" style="mask-type:luminance" maskUnits="userSpaceOnUse" x="245" y="179" width="20" height="18">
<path d="M247.733 196.343L264.583 193.22L261.85 179.363L245.131 183.201L247.733 196.343Z" fill="white"/>
</mask>
<g mask="url(#mask33_105_5300)">
<path d="M251.376 179.363H251.702V196.343H251.376V179.363ZM251.702 179.363H252.027V196.343H251.702V179.363Z" fill="#2A94F4"/>
</g>
<mask id="mask34_105_5300" style="mask-type:luminance" maskUnits="userSpaceOnUse" x="245" y="179" width="20" height="18">
<path d="M247.733 196.343L264.583 193.22L261.85 179.363L245.131 183.201L247.733 196.343Z" fill="white"/>
</mask>
<g mask="url(#mask34_105_5300)">
<path d="M251.962 179.363H252.287V196.343H251.962V179.363ZM252.287 179.363H252.612V196.343H252.287V179.363ZM252.612 179.363H252.938V196.343H252.612V179.363Z" fill="#2A94F4"/>
</g>
<mask id="mask35_105_5300" style="mask-type:luminance" maskUnits="userSpaceOnUse" x="245" y="179" width="20" height="18">
<path d="M247.733 196.343L264.583 193.22L261.85 179.363L245.131 183.201L247.733 196.343Z" fill="white"/>
</mask>
<g mask="url(#mask35_105_5300)">
<path d="M252.873 179.363H253.198V196.343H252.873V179.363ZM253.198 179.363H253.523V196.343H253.198V179.363Z" fill="#2A94F4"/>
</g>
<mask id="mask36_105_5300" style="mask-type:luminance" maskUnits="userSpaceOnUse" x="245" y="179" width="20" height="18">
<path d="M247.733 196.343L264.583 193.22L261.85 179.363L245.131 183.201L247.733 196.343Z" fill="white"/>
</mask>
<g mask="url(#mask36_105_5300)">
<path d="M253.458 179.363H253.783V196.343H253.458V179.363ZM253.783 179.363H254.109V196.343H253.783V179.363ZM254.109 179.363H254.434V196.343H254.109V179.363Z" fill="#2A94F4"/>
</g>
<mask id="mask37_105_5300" style="mask-type:luminance" maskUnits="userSpaceOnUse" x="245" y="179" width="20" height="18">
<path d="M247.733 196.343L264.583 193.22L261.85 179.363L245.131 183.201L247.733 196.343Z" fill="white"/>
</mask>
<g mask="url(#mask37_105_5300)">
<path d="M254.369 179.363H254.694V196.343H254.369V179.363ZM254.694 179.363H255.019V196.343H254.694V179.363ZM255.019 179.363H255.344V196.343H255.019V179.363Z" fill="#2A94F4"/>
</g>
<mask id="mask38_105_5300" style="mask-type:luminance" maskUnits="userSpaceOnUse" x="245" y="179" width="20" height="18">
<path d="M247.733 196.343L264.583 193.22L261.85 179.363L245.131 183.201L247.733 196.343Z" fill="white"/>
</mask>
<g mask="url(#mask38_105_5300)">
<path d="M255.28 179.363H255.605V196.343H255.28V179.363ZM255.605 179.363H255.93V196.343H255.605V179.363Z" fill="#2A94F4"/>
</g>
<mask id="mask39_105_5300" style="mask-type:luminance" maskUnits="userSpaceOnUse" x="245" y="179" width="20" height="18">
<path d="M247.733 196.343L264.583 193.22L261.85 179.363L245.131 183.201L247.733 196.343Z" fill="white"/>
</mask>
<g mask="url(#mask39_105_5300)">
<path d="M255.865 179.363H256.191V196.343H255.865V179.363ZM256.191 179.363H256.516V196.343H256.191V179.363ZM256.516 179.363H256.841V196.343H256.516V179.363Z" fill="#2A94F4"/>
</g>
<mask id="mask40_105_5300" style="mask-type:luminance" maskUnits="userSpaceOnUse" x="245" y="179" width="20" height="18">
<path d="M247.733 196.343L264.583 193.22L261.85 179.363L245.131 183.201L247.733 196.343Z" fill="white"/>
</mask>
<g mask="url(#mask40_105_5300)">
<path d="M256.776 179.363H257.101V196.343H256.776V179.363ZM257.101 179.363H257.426V196.343H257.101V179.363Z" fill="#2A94F4"/>
</g>
<mask id="mask41_105_5300" style="mask-type:luminance" maskUnits="userSpaceOnUse" x="245" y="179" width="20" height="18">
<path d="M247.733 196.343L264.583 193.22L261.85 179.363L245.131 183.201L247.733 196.343Z" fill="white"/>
</mask>
<g mask="url(#mask41_105_5300)">
<path d="M257.361 179.363H257.687V196.343H257.361V179.363ZM257.687 179.363H258.012V196.343H257.687V179.363ZM258.012 179.363H258.337V196.343H258.012V179.363Z" fill="#2A94F4"/>
</g>
<mask id="mask42_105_5300" style="mask-type:luminance" maskUnits="userSpaceOnUse" x="245" y="179" width="20" height="18">
<path d="M247.733 196.343L264.583 193.22L261.85 179.363L245.131 183.201L247.733 196.343Z" fill="white"/>
</mask>
<g mask="url(#mask42_105_5300)">
<path d="M258.272 179.363H258.597V196.343H258.272V179.363ZM258.597 179.363H258.923V196.343H258.597V179.363Z" fill="#2A94F4"/>
</g>
<mask id="mask43_105_5300" style="mask-type:luminance" maskUnits="userSpaceOnUse" x="245" y="179" width="20" height="18">
<path d="M247.733 196.343L264.583 193.22L261.85 179.363L245.131 183.201L247.733 196.343Z" fill="white"/>
</mask>
<g mask="url(#mask43_105_5300)">
<path d="M258.858 179.363H259.183V196.343H258.858V179.363ZM259.183 179.363H259.508V196.343H259.183V179.363ZM259.508 179.363H259.834V196.343H259.508V179.363Z" fill="#2A94F4"/>
</g>
<mask id="mask44_105_5300" style="mask-type:luminance" maskUnits="userSpaceOnUse" x="245" y="179" width="20" height="18">
<path d="M247.733 196.343L264.583 193.22L261.85 179.363L245.131 183.201L247.733 196.343Z" fill="white"/>
</mask>
<g mask="url(#mask44_105_5300)">
<path d="M259.769 179.363H260.094V196.343H259.769V179.363ZM260.094 179.363H260.419V196.343H260.094V179.363Z" fill="#2A94F4"/>
</g>
<mask id="mask45_105_5300" style="mask-type:luminance" maskUnits="userSpaceOnUse" x="245" y="179" width="20" height="18">
<path d="M247.733 196.343L264.583 193.22L261.85 179.363L245.131 183.201L247.733 196.343Z" fill="white"/>
</mask>
<g mask="url(#mask45_105_5300)">
<path d="M260.354 179.363H260.679V196.343H260.354V179.363ZM260.679 179.363H261.005V196.343H260.679V179.363ZM261.005 179.363H261.33V196.343H261.005V179.363Z" fill="#2A94F4"/>
</g>
<mask id="mask46_105_5300" style="mask-type:luminance" maskUnits="userSpaceOnUse" x="245" y="179" width="20" height="18">
<path d="M247.733 196.343L264.583 193.22L261.85 179.363L245.131 183.201L247.733 196.343Z" fill="white"/>
</mask>
<g mask="url(#mask46_105_5300)">
<path d="M261.265 179.363H261.59V196.343H261.265V179.363ZM261.59 179.363H261.915V196.343H261.59V179.363Z" fill="#2A94F4"/>
</g>
<mask id="mask47_105_5300" style="mask-type:luminance" maskUnits="userSpaceOnUse" x="245" y="179" width="20" height="18">
<path d="M247.733 196.343L264.583 193.22L261.85 179.363L245.131 183.201L247.733 196.343Z" fill="white"/>
</mask>
<g mask="url(#mask47_105_5300)">
<path d="M261.85 179.363H262.175V196.343H261.85V179.363ZM262.175 179.363H262.501V196.343H262.175V179.363ZM262.501 179.363H262.826V196.343H262.501V179.363Z" fill="#2A94F4"/>
</g>
<mask id="mask48_105_5300" style="mask-type:luminance" maskUnits="userSpaceOnUse" x="245" y="179" width="20" height="18">
<path d="M247.733 196.343L264.583 193.22L261.85 179.363L245.131 183.201L247.733 196.343Z" fill="white"/>
</mask>
<g mask="url(#mask48_105_5300)">
<path d="M262.761 179.363H263.087V196.343H262.761V179.363ZM263.087 179.363H263.412V196.343H263.087V179.363Z" fill="#2A94F4"/>
</g>
<mask id="mask49_105_5300" style="mask-type:luminance" maskUnits="userSpaceOnUse" x="245" y="179" width="20" height="18">
<path d="M247.733 196.343L264.583 193.22L261.85 179.363L245.131 183.201L247.733 196.343Z" fill="white"/>
</mask>
<g mask="url(#mask49_105_5300)">
<path d="M263.347 179.363H263.672V196.343H263.347V179.363ZM263.672 179.363H263.997V196.343H263.672V179.363ZM263.997 179.363H264.323V196.343H263.997V179.363Z" fill="#2A94F4"/>
</g>
<mask id="mask50_105_5300" style="mask-type:luminance" maskUnits="userSpaceOnUse" x="245" y="179" width="20" height="18">
<path d="M247.733 196.343L264.583 193.22L261.85 179.363L245.131 183.201L247.733 196.343Z" fill="white"/>
</mask>
<g mask="url(#mask50_105_5300)">
<path d="M264.257 179.363H264.583V196.343H264.257V179.363Z" fill="#2A94F4"/>
</g>
<path d="M264.778 199.27C264.778 199.27 259.768 198.815 259.573 199.596C259.378 200.376 259.833 200.767 259.833 200.767L257.687 201.482C257.687 201.482 256.516 202.783 258.272 203.629C258.272 203.629 257.101 204.735 258.858 205.386C258.858 205.386 258.402 206.492 259.183 206.882C259.964 207.337 263.216 207.467 263.216 207.467C263.216 207.467 263.932 207.207 263.737 205.906C263.737 205.906 264.778 205.255 264.517 204.084C264.517 204.084 265.233 203.434 264.973 202.198C264.973 202.198 266.534 200.636 265.363 199.205C265.298 199.335 264.973 199.27 264.778 199.27Z" fill="#FFE3CA"/>
</g>
<defs>
<filter id="filter0_d_105_5300" x="-4" y="0" width="466.645" height="520" filterUnits="userSpaceOnUse" color-interpolation-filters="sRGB">
<feFlood flood-opacity="0" result="BackgroundImageFix"/>
<feColorMatrix in="SourceAlpha" type="matrix" values="0 0 0 0 0 0 0 0 0 0 0 0 0 0 0 0 0 0 127 0" result="hardAlpha"/>
<feOffset dy="4"/>
<feGaussianBlur stdDeviation="2"/>
<feComposite in2="hardAlpha" operator="out"/>
<feColorMatrix type="matrix" values="0 0 0 0 0 0 0 0 0 0 0 0 0 0 0 0 0 0 0.25 0"/>
<feBlend mode="normal" in2="BackgroundImageFix" result="effect1_dropShadow_105_5300"/>
<feBlend mode="normal" in="SourceGraphic" in2="effect1_dropShadow_105_5300" result="shape"/>
</filter>
</defs>
</svg>
