<svg width="192" height="160" viewBox="0 0 192 160" fill="none" xmlns="http://www.w3.org/2000/svg">
<path d="M57.8565 94.3905C76.6499 94.3905 91.885 78.9787 91.885 59.9672C91.885 40.9558 76.6499 25.5439 57.8565 25.5439C39.0632 25.5439 23.8281 40.9558 23.8281 59.9672C23.8281 78.9787 39.0632 94.3905 57.8565 94.3905Z" fill="#FFCA03"/>
<path d="M146 128.438C158.426 128.438 168.5 116.439 168.5 101.638C168.5 86.8367 158.426 74.8379 146 74.8379C133.574 74.8379 123.5 86.8367 123.5 101.638C123.5 116.439 133.574 128.438 146 128.438Z" fill="#FFCA03"/>
<path d="M166.805 44.2628V124.978C166.805 128.274 164.17 130.94 160.912 130.94H41.6886C38.936 130.94 36.6186 129.036 35.9833 126.442C35.8539 125.978 35.7949 125.49 35.7949 124.978V44.2628C35.7949 40.9666 38.4418 38.3013 41.6881 38.3013H160.911C164.17 38.3013 166.805 40.9666 166.805 44.2628Z" fill="#F9F5ED"/>
<path d="M158.674 41.6978H43.9339C41.2934 41.6978 39.1523 43.8631 39.1523 46.5343V122.714C39.1523 125.386 41.2934 127.551 43.9339 127.551H158.674C161.315 127.551 163.455 125.385 163.455 122.714V46.5343C163.455 43.8631 161.315 41.6978 158.674 41.6978Z" fill="white"/>
<path d="M126.566 82.5322H111.569C110.922 82.5322 110.398 83.0625 110.398 83.7163V95.3871C110.398 96.0409 110.922 96.5712 111.569 96.5712H126.566C127.212 96.5712 127.737 96.0409 127.737 95.3871V83.7163C127.737 83.0625 127.212 82.5322 126.566 82.5322ZM83.4128 97.2372H54.7418C53.506 97.2372 52.5039 98.251 52.5039 99.5011V111.51C52.5039 112.76 53.506 113.774 54.7418 113.774H83.4128C84.6486 113.774 85.6507 112.76 85.6507 111.51V99.5011C85.6513 98.251 84.6492 97.2372 83.4128 97.2372ZM146.437 82.5322H131.44C130.793 82.5322 130.269 83.0625 130.269 83.7163V95.3871C130.269 96.0409 130.793 96.5712 131.44 96.5712H146.437C147.083 96.5712 147.608 96.0409 147.608 95.3871V83.7163C147.608 83.0625 147.083 82.5322 146.437 82.5322Z" fill="#F9F5ED"/>
<path d="M106.51 82.5322H91.5123C90.866 82.5322 90.3418 83.0625 90.3418 83.7163V95.3871C90.3418 96.0409 90.866 96.5712 91.5123 96.5712H106.51C107.156 96.5712 107.68 96.0409 107.68 95.3871V83.7163C107.68 83.0625 107.156 82.5322 106.51 82.5322Z" fill="#F4EDE1"/>
<path d="M98.2676 85.3848H99.7523V93.7177H98.2676V85.3848Z" fill="white"/>
<path d="M94.8906 90.3022V88.8003H103.128V90.3022H94.8906Z" fill="white"/>
<path d="M126.566 99.4177H111.569C110.923 99.4177 110.398 99.948 110.398 100.602V112.273C110.398 112.926 110.923 113.457 111.569 113.457H126.566C127.213 113.457 127.737 112.926 127.737 112.273V100.602C127.737 99.948 127.213 99.4177 126.566 99.4177ZM146.437 99.4177H131.44C130.794 99.4177 130.269 99.948 130.269 100.602V112.273C130.269 112.926 130.794 113.457 131.44 113.457H146.437C147.084 113.457 147.608 112.926 147.608 112.273V100.602C147.608 99.948 147.084 99.4177 146.437 99.4177ZM106.509 99.4177H91.512C90.8657 99.4177 90.3415 99.948 90.3415 100.602V112.273C90.3415 112.926 90.8657 113.457 91.512 113.457H106.509C107.156 113.457 107.68 112.926 107.68 112.273V100.602C107.68 99.948 107.156 99.4177 106.509 99.4177ZM50.942 51.8595C50.942 52.5112 50.4199 53.0394 49.7757 53.0394C49.1315 53.0394 48.6094 52.5112 48.6094 51.8595C48.6094 51.2079 49.1315 50.6797 49.7757 50.6797C50.4199 50.6797 50.942 51.2079 50.942 51.8595ZM56.241 51.8595C56.241 52.5112 55.7189 53.0394 55.0746 53.0394C54.4304 53.0394 53.9083 52.5112 53.9083 51.8595C53.9083 51.2079 54.4304 50.6797 55.0746 50.6797C55.7189 50.6797 56.241 51.2079 56.241 51.8595ZM61.5399 51.8595C61.5399 52.5112 61.0178 53.0394 60.3736 53.0394C59.7294 53.0394 59.2073 52.5112 59.2073 51.8595C59.2073 51.2079 59.7294 50.6797 60.3736 50.6797C61.0178 50.6797 61.5399 51.2079 61.5399 51.8595Z" fill="#F9F5ED"/>
<path d="M100.783 67.3239C100.158 67.3532 91.0723 73.7551 91.0723 73.7551L93.4623 67.2393L100.783 67.3239Z" fill="#F9D980"/>
<path d="M147.226 46.6587L88.6523 46.6704C87.3839 46.6704 86.3555 47.7113 86.3555 48.9944L86.3586 66.1315C86.3592 67.4147 87.3876 68.455 88.656 68.4545L147.23 68.4428C148.498 68.4428 149.527 67.4019 149.526 66.1188L149.523 48.9817C149.523 47.6985 148.495 46.6582 147.226 46.6587Z" fill="#F9D980"/>
<g opacity="0.5">
<path d="M91.9144 59.1153L93.6344 59.1159C94.0991 59.1159 94.476 59.4971 94.476 59.9678C94.476 60.4379 94.0991 60.8191 93.6338 60.8191L91.9138 60.8186C91.4491 60.8186 91.0723 60.4374 91.0723 59.9672C91.0723 59.4966 91.4496 59.1153 91.9144 59.1153ZM112.78 59.1196L114.5 59.1201C114.965 59.1201 115.342 59.5014 115.342 59.972C115.342 60.4421 114.965 60.8234 114.5 60.8234L112.78 60.8228C112.315 60.8228 111.938 60.4416 111.938 59.9715C111.938 59.5008 112.315 59.1196 112.78 59.1196ZM96.7691 59.1164L109.563 59.1191C110.029 59.1191 110.405 59.5003 110.405 59.971C110.405 60.4411 110.028 60.8223 109.563 60.8223L96.7686 60.8196C96.3038 60.8196 95.927 60.4384 95.927 59.9683C95.927 59.4976 96.3038 59.1164 96.7691 59.1164ZM108.329 55.9964L91.9149 55.9932C91.4502 55.9932 91.0733 55.612 91.0733 55.1419C91.0733 54.6717 91.4502 54.2905 91.9154 54.2905L108.329 54.2937C108.794 54.2937 109.171 54.6749 109.171 55.1456C109.17 55.6157 108.793 55.9969 108.329 55.9964ZM117.821 55.9985L111.462 55.9975C110.997 55.9975 110.62 55.6163 110.62 55.1461C110.62 54.676 110.997 54.2948 111.462 54.2948L117.821 54.2959C118.286 54.2959 118.663 54.6771 118.663 55.1477C118.663 55.6179 118.286 55.9985 117.821 55.9985Z" fill="#F5B501"/>
</g>
<path d="M143.812 130.694C143.812 130.694 142.492 128.798 142.727 128.537C142.963 128.277 143.627 127.946 143.84 128.024C144.054 128.101 144.868 130.353 144.715 130.75C144.561 131.146 144.18 131.187 143.812 130.694Z" fill="#F4CABA"/>
<path opacity="0.2" d="M144.222 129.996C143.917 129.779 143.625 129.545 143.337 129.306C143.198 129.191 143.06 129.074 142.914 128.968C142.857 128.927 142.8 128.886 142.744 128.845C142.952 129.458 143.812 130.694 143.812 130.694C144.18 131.187 144.562 131.146 144.715 130.75C144.743 130.678 144.739 130.545 144.713 130.376C144.552 130.245 144.39 130.116 144.222 129.996Z" fill="white"/>
<path d="M143.395 129.359C143.26 129.384 143.121 129.394 142.984 129.415C143.333 130.368 143.803 130.719 143.803 130.719C144.189 131.235 144.588 131.191 144.748 130.777C144.842 130.536 144.59 129.631 144.32 128.904C144.11 129.169 143.69 129.304 143.395 129.359Z" fill="#F9D980"/>
<path d="M140.588 133.521L140.387 133.641C140.387 133.641 140.41 133.94 140.553 134.025C140.695 134.111 141.707 134.059 143.441 133.331C145.176 132.602 145.868 131.994 145.711 131.693C145.554 131.393 141.62 133.967 140.588 133.521Z" fill="#FFCA03"/>
<path d="M145.712 131.693C143.685 133.368 139.98 134.135 140.412 133.535C140.507 133.403 140.7 133.246 140.942 133.074C141.802 132.465 143.277 131.672 143.135 131.171C142.953 130.53 143.243 130.314 143.326 130.308C143.347 130.307 143.407 130.307 143.488 130.303C143.724 130.293 144.14 130.246 144.312 129.993C144.544 129.654 144.58 129.611 144.772 129.7C145.334 129.962 145.457 130.319 145.712 131.693Z" fill="#47271F"/>
<path d="M143.488 130.304C143.512 130.461 143.511 130.65 143.488 130.814C143.43 131.225 143.751 131.318 143.425 132.137C143.099 132.957 141.609 133.179 141.161 133.201C140.897 133.213 140.897 133.138 140.942 133.074C141.802 132.465 143.277 131.672 143.135 131.172C142.954 130.53 143.244 130.314 143.327 130.308C143.348 130.306 143.407 130.307 143.488 130.304Z" fill="#FFCA03"/>
<path d="M152.883 131.878C152.883 131.878 152.363 129.619 152.677 129.467C152.992 129.315 153.731 129.261 153.9 129.413C154.069 129.565 153.989 131.963 153.7 132.271C153.411 132.581 153.043 132.475 152.883 131.878Z" fill="#F4CABA"/>
<path opacity="0.2" d="M153.522 131.385C153.32 131.069 153.136 130.742 152.958 130.411C152.871 130.251 152.787 130.091 152.69 129.937C152.653 129.877 152.616 129.817 152.579 129.758C152.543 130.405 152.883 131.877 152.883 131.877C153.042 132.474 153.411 132.58 153.7 132.271C153.752 132.215 153.798 132.091 153.836 131.924C153.736 131.742 153.634 131.561 153.522 131.385Z" fill="white"/>
<path d="M152.992 130.482C152.857 130.453 152.725 130.411 152.59 130.379C152.56 131.395 152.866 131.898 152.866 131.898C153.033 132.522 153.418 132.633 153.72 132.311C153.897 132.122 153.998 131.187 154.017 130.411C153.724 130.577 153.285 130.543 152.992 130.482Z" fill="#F9D980"/>
<path d="M148.848 133.277L148.616 133.312C148.616 133.312 148.528 133.598 148.628 133.732C148.728 133.865 149.686 134.2 151.564 134.182C153.442 134.165 154.309 133.863 154.275 133.524C154.24 133.186 149.639 134.081 148.848 133.277Z" fill="#FFCA03"/>
<path d="M154.275 133.524C151.775 134.309 148.056 133.615 148.679 133.222C148.816 133.136 149.053 133.064 149.341 132.996C150.364 132.758 152.025 132.581 152.079 132.063C152.149 131.4 152.498 131.309 152.576 131.335C152.596 131.342 152.652 131.365 152.728 131.392C152.95 131.472 153.353 131.586 153.606 131.418C153.946 131.191 153.996 131.165 154.141 131.321C154.566 131.776 154.548 132.154 154.275 133.524Z" fill="#47271F"/>
<path d="M152.729 131.393C152.692 131.548 152.621 131.723 152.54 131.866C152.334 132.224 152.597 132.433 151.991 133.069C151.385 133.705 149.921 133.346 149.498 133.197C149.249 133.108 149.277 133.039 149.342 132.996C150.365 132.758 152.027 132.582 152.08 132.064C152.15 131.4 152.499 131.31 152.578 131.335C152.598 131.342 152.653 131.365 152.729 131.393Z" fill="#FFCA03"/>
<path d="M146.627 66.2656C146.627 66.2656 145.949 67.8102 146.175 68.0386C146.401 68.2675 146.938 68.382 146.938 68.382L146.627 66.2656Z" fill="#E8AD80"/>
<path d="M146.769 70.5523C146.795 70.5725 146.825 70.5863 146.855 70.5965C147.167 70.7024 147.478 70.7285 147.759 70.7147C147.84 71.1331 147.759 73.1553 147.759 73.1553L150.365 71.8354L150.514 70.4463C150.514 70.4463 152.386 65.2712 151.165 64.3762C148.73 62.5904 146.465 65.5033 146.465 65.5033C146.465 65.5571 145.907 69.9757 146.769 70.5523Z" fill="#F4CABA"/>
<path opacity="0.5" d="M146.533 67.7118C146.533 67.887 146.658 68.0286 146.812 68.0286C146.965 68.0286 147.09 67.8865 147.09 67.7118C147.09 67.5372 146.965 67.395 146.812 67.395C146.658 67.3945 146.533 67.5366 146.533 67.7118Z" fill="#E8AD80"/>
<path d="M146.708 68.9215L146.303 68.9503C146.303 68.9503 146.284 69.2953 146.348 69.3315C146.413 69.3682 146.605 69.1452 146.708 68.9215ZM146.274 66.7317C146.274 66.8467 146.354 66.9404 146.453 66.9404C146.552 66.9404 146.634 66.8467 146.634 66.7317C146.634 66.7088 146.63 66.6864 146.624 66.6667C146.605 66.6944 146.573 66.712 146.536 66.712C146.476 66.712 146.426 66.6619 146.426 66.6002C146.426 66.5693 146.437 66.5437 146.457 66.524H146.454C146.354 66.5246 146.274 66.6167 146.274 66.7317ZM146.668 66.3457C146.65 66.1934 146.255 66.2041 146.212 66.3409C146.169 66.4777 146.687 66.498 146.668 66.3457ZM147.528 67.2391C147.546 67.2391 147.561 67.2279 147.567 67.2103C147.579 67.1709 147.678 66.8222 147.52 66.7115C147.431 66.6492 147.349 66.6284 147.276 66.6492C147.177 66.6769 147.135 66.769 147.134 66.7732C147.125 66.7934 147.134 66.8174 147.154 66.8265C147.174 66.836 147.197 66.827 147.206 66.8062C147.207 66.8041 147.237 66.7434 147.298 66.7269C147.347 66.7131 147.407 66.7306 147.475 66.778C147.568 66.8435 147.516 67.1017 147.49 67.1869C147.484 67.2082 147.496 67.2311 147.517 67.2375C147.52 67.238 147.525 67.2391 147.528 67.2391ZM151.814 63.1698C151.814 63.1698 151.191 61.3574 148.933 61.7993C148.933 61.7993 148.025 60.7813 147.369 61.2424C146.713 61.7035 147.129 62.1465 147.129 62.1465C147.129 62.1465 146.105 61.5885 145.536 62.3568C144.966 63.125 145.116 65.5705 146.465 65.7307C147.814 65.8905 152.187 64.4636 151.814 63.1698Z" fill="#47271F"/>
<path d="M146.939 66.5563C146.95 66.5659 146.96 66.5771 146.97 66.5872C147.143 66.4823 147.547 66.2981 147.759 66.715C147.923 67.0366 147.764 67.454 147.499 67.7271C147.129 67.9353 147.409 68.3171 147.257 68.6551C146.887 69.4815 147.927 70.8588 149.536 70.8588C151.146 70.8588 153.276 67.8533 153.004 65.9733C152.731 64.0949 152.162 62.2906 149.758 62.0403C147.356 61.7895 146.498 63.4693 146.217 64.5203C146.072 65.0645 146.27 65.9052 146.939 66.5563Z" fill="#47271F"/>
<path d="M146.77 70.5525C146.795 70.5727 146.825 70.5865 146.855 70.5967C147.167 70.7026 147.478 70.7287 147.759 70.7149L147.525 70.2767C147.525 70.2767 147.228 70.0403 146.783 70.5349C146.777 70.5402 146.772 70.5461 146.77 70.5525Z" fill="#E8AD80"/>
<path d="M156.042 93.0273L154.196 130.001H152.217L146.393 98.1263C146.392 98.1263 149.07 92.8846 156.042 93.0273Z" fill="#47271F"/>
<path d="M154.77 93.0271C157.487 97.6442 143.7 111.374 143.7 111.374L144.642 129.388L142.984 129.758C142.984 129.758 137.366 117.378 138.083 109.563C138.8 101.748 142.851 93.6463 142.851 93.6463C142.851 93.6463 153.243 90.4336 154.77 93.0271Z" fill="#5E3F35"/>
<path d="M154.471 74.9683C154.471 74.9683 158.408 81.3632 158.598 83.9891C158.801 86.787 154.471 90.3878 154.471 90.3878V74.9683Z" fill="#F4CABA"/>
<path d="M153.567 81.1888C153.698 81.2373 157.125 80.1303 157.169 79.4249C157.213 78.7194 154.622 73.1764 152.204 72.35C149.786 71.5227 153.567 81.1888 153.567 81.1888Z" fill="#F5B501"/>
<path d="M156.419 94.4091C154.906 97.5871 143.04 93.7419 142.853 93.6466C142.664 93.5513 140.309 72.2975 149.024 71.5351C157.738 70.7721 158 91.0894 156.419 94.4091Z" fill="#FFCA03"/>
<path d="M141.188 74.839L135.535 76.4911L129.593 69.3774L128.875 70.5083C128.875 70.5083 130.824 78.1433 133.651 80.0493C136.477 81.9554 142.424 79.5409 142.424 79.5409L141.188 74.839Z" fill="#F4CABA"/>
<path d="M140.244 79.7316C139.429 78.9437 138.622 76.4493 139.302 75.5399C140.981 73.2941 146.757 71.7847 148.217 72.2932C149.677 72.8011 143.291 82.6781 140.244 79.7316Z" fill="#F5B501"/>
<path d="M129.816 65.4165L130.363 65.6557L129.159 68.4731L128.612 68.2339L129.816 65.4165Z" fill="#F5B501"/>
<path d="M129.615 66.652C129.266 66.4992 128.86 66.6621 128.709 67.0151L127.348 70.2022C127.197 70.5557 127.358 70.9657 127.707 71.1185C128.056 71.2713 128.461 71.1084 128.612 70.7554L129.974 67.5683C130.125 67.2153 129.965 66.8048 129.615 66.652ZM131.822 61.487C130.648 60.9732 129.285 61.5205 128.777 62.7089C128.27 63.8962 128.81 65.2757 129.984 65.7889C131.158 66.3022 132.521 65.7554 133.029 64.5681C133.537 63.3797 132.996 62.0002 131.822 61.487ZM130.186 65.3162C129.27 64.9158 128.848 63.8392 129.244 62.9128C129.64 61.9858 130.704 61.5594 131.62 61.9598C132.537 62.3601 132.958 63.4367 132.561 64.3636C132.166 65.2901 131.102 65.7171 130.186 65.3162Z" fill="#5E3F35"/>
<path d="M127.463 69.423C127.531 69.5045 127.639 69.6093 127.814 69.7478C127.814 69.7478 127.813 69.7462 127.811 69.744C127.896 69.8159 127.989 69.8857 128.086 69.9496C128.252 70.0608 128.38 70.1327 128.472 70.179C128.473 70.179 128.473 70.1796 128.473 70.1796C128.611 70.2472 128.672 70.2584 128.672 70.2584C128.672 70.2584 129.9 71.7901 130.114 71.9291C130.383 71.9866 130.926 71.1981 130.926 71.1981C130.934 70.9564 129.659 69.7611 129.592 69.3772C129.514 68.9294 129.867 67.9322 129.529 67.9886C129.191 68.0451 129.179 68.774 129.179 68.774C129.179 68.774 129.175 68.766 129.166 68.7516C129.114 68.6638 128.91 68.3368 128.632 68.1148V68.1143C128.555 68.0531 128.472 67.9998 128.385 67.962C128.37 67.9556 128.354 67.9492 128.339 67.9434C128.311 67.9333 128.283 67.9248 128.254 67.9184L128.24 67.9152C128.226 67.912 128.211 67.9093 128.197 67.9077H128.195L128.194 67.9082C128.155 67.9141 128.11 67.9333 128.062 67.9775C127.908 68.1202 127.999 68.2607 127.999 68.2607C127.999 68.2607 127.849 68.1958 127.742 68.3305C127.628 68.4732 127.737 68.5546 127.737 68.5546C127.737 68.5546 127.561 68.5386 127.476 68.6547C127.386 68.7772 127.514 68.8693 127.514 68.8693C127.514 68.8693 127.391 68.84 127.284 68.9821C127.188 69.1099 127.463 69.423 127.463 69.423Z" fill="#F4CABA"/>
<path opacity="0.2" d="M127.868 68.7383C127.865 68.7379 127.861 68.7384 127.859 68.7398C127.856 68.7412 127.853 68.7435 127.852 68.7463C127.806 68.8251 127.759 68.898 127.674 68.9369C127.645 68.9497 127.613 68.9646 127.601 68.996C127.595 69.0104 127.596 69.0258 127.594 69.0407C127.592 69.0609 127.584 69.0769 127.573 69.094C127.538 69.1499 127.491 69.1983 127.44 69.2398C127.417 69.259 127.392 69.2771 127.367 69.2936C127.299 69.1919 127.23 69.0562 127.286 68.9821C127.394 68.84 127.516 68.8693 127.516 68.8693C127.516 68.8693 127.388 68.7772 127.478 68.6547C127.564 68.5386 127.739 68.5546 127.739 68.5546C127.739 68.5546 127.629 68.4732 127.744 68.3305C127.85 68.1958 128.001 68.2607 128.001 68.2607C128.001 68.2607 127.91 68.1202 128.064 67.9775C128.112 67.9333 128.157 67.9141 128.196 67.9082C128.197 67.9082 128.197 67.9082 128.197 67.9077H128.198C128.212 67.9098 128.227 67.912 128.241 67.9152C128.246 67.9162 128.251 67.9173 128.256 67.9184C128.284 67.9248 128.312 67.9333 128.34 67.9434C128.356 67.9492 128.371 67.9556 128.387 67.962C128.341 67.9833 128.299 68.0185 128.264 68.0525C128.224 68.0914 128.185 68.1377 128.176 68.1947C128.166 68.2543 128.191 68.3118 128.187 68.3715C128.182 68.4338 128.134 68.4854 128.08 68.5104C128.033 68.5323 127.982 68.5333 127.945 68.5738C127.904 68.619 127.888 68.6797 127.868 68.7356C127.868 68.7372 127.868 68.7378 127.868 68.7383ZM129.597 68.0536C129.597 68.0536 129.535 68.3187 129.566 68.356C129.597 68.3933 129.648 68.3645 129.648 68.3645C129.648 68.3645 129.668 68.1036 129.597 68.0536Z" fill="white"/>
<path d="M75.0764 83.7637C75.0764 83.7637 78.8058 91.1297 76.1385 93.3292C74.5353 94.6512 72.2648 86.3933 72.2443 85.5036C72.2237 84.614 75.0764 83.7637 75.0764 83.7637Z" fill="#F4CABA"/>
<path opacity="0.35" d="M75.349 93.3115C75.4221 93.056 75.4558 92.7892 75.4579 92.5235C75.46 92.1844 75.3727 91.8697 75.3258 91.5364C75.2706 91.1414 75.2774 90.7405 75.2321 90.3443C75.1832 89.9189 75.0658 89.5122 74.9574 89.1001C74.7674 88.3738 74.7321 87.4559 75.3748 86.9336C75.6311 86.7255 75.9411 86.6504 76.2627 86.6264C75.7058 85.0089 75.0764 83.7646 75.0764 83.7646C75.0764 83.7646 72.2237 84.6144 72.2443 85.5046C72.2621 86.2543 73.8806 92.2488 75.349 93.3115Z" fill="#E8AD80"/>
<path d="M67.045 66.8685C61.0397 67.3136 64.6076 70.5715 60.3281 73.0632C56.0486 75.555 52.1597 72.7054 53.445 77.3535C51.2513 78.5988 48.6486 80.6018 50.5939 82.5377C53.625 85.5544 55.3618 85.0422 55.3618 85.0422C55.3618 85.0422 53.5707 94.0412 62.4418 91.4877C69.1276 89.5636 68.0655 84.4794 68.3418 81.6517C69.4302 81.3046 70.0992 80.5896 70.086 79.3911C70.0281 74.0967 71.7402 66.5208 67.045 66.8685Z" fill="#47271F"/>
<path d="M74.983 82.0588C76.3814 83.7652 73.0683 86.6946 72.362 86.2287C71.6556 85.7629 68.3262 77.7925 68.3262 77.7925C68.3262 77.7925 71.5662 77.8888 74.983 82.0588Z" fill="#F5B501"/>
<path d="M67.2965 113.579L67.3386 113.817H75.6881C75.4507 107.157 75.0444 100.79 75.0444 100.79H65.207L67.2723 113.454L67.2965 113.579Z" fill="#5E3F35"/>
<path d="M67.2979 113.578L67.34 113.816H71.2242C71.2485 113.693 71.2732 113.569 71.2885 113.443C71.4506 112.091 71.0485 110.808 70.7253 109.515C70.5837 108.948 70.3911 108.326 70.49 107.735C70.5585 107.327 70.7837 107.006 71.1 106.752C71.5064 106.425 71.9774 106.19 72.3927 105.875C72.9653 105.442 73.5137 104.977 74.0579 104.508C74.44 104.178 74.8227 103.848 75.2085 103.523C75.1132 101.835 75.0464 100.789 75.0464 100.789H65.209L67.2742 113.453L67.2979 113.578Z" fill="#47271F"/>
<path d="M67.5953 113.817L70.0184 100.657H57.4727L58.4179 113.817H67.5953Z" fill="#5E3F35"/>
<path d="M67.1001 77.4526C72.5596 77.4484 77.4122 98.2022 75.4406 101.251C73.4691 104.3 57.4701 105.873 57.1669 101.251C56.8638 96.6289 59.9175 77.458 67.1001 77.4526Z" fill="#FFCA03"/>
<path d="M64.6816 78.4745C64.6785 78.958 65.619 80.5132 66.6959 80.5196C67.7727 80.5259 68.578 78.9819 68.5806 78.4985C68.5838 78.015 67.7127 77.6173 66.6364 77.6109C65.5595 77.604 64.6848 77.9906 64.6816 78.4745Z" fill="#F5B501"/>
<path d="M65.2969 78.3483C65.2969 78.3483 65.9127 80.1927 66.7542 80.198C67.5963 80.2033 67.9695 78.3904 67.9695 78.3904C67.9695 78.3904 67.8532 77.554 67.7685 76.9353C67.7185 76.5605 67.6774 76.2533 67.6727 76.2032L65.5642 76.1904L65.4458 77.1435L65.2969 78.3483Z" fill="#F4CABA"/>
<path opacity="0.35" d="M65.4473 77.1435C65.7825 77.4917 66.1773 77.7313 66.4962 77.7329C66.8836 77.735 67.3873 77.3948 67.7694 76.9353C67.7194 76.5605 67.6783 76.2533 67.6736 76.2032L65.5652 76.1904L65.4473 77.1435Z" fill="#E8AD80"/>
<path d="M70.0627 72.4165C69.8253 71.948 69.3937 72.0822 69.149 72.2099C69.1379 71.2063 69.0206 70.4407 69.0206 70.4407C69.0122 70.3871 68.9951 70.3353 68.9701 70.2874C68.4769 69.3854 64.8716 69.3514 64.1401 70.1825C64.0701 70.2591 64.028 70.347 64.0137 70.4407C64.0137 70.4407 63.9037 71.2106 63.9011 72.2179C63.6595 72.088 63.2158 71.9389 62.9737 72.4171C62.6358 73.0842 63.3958 74.0766 64.0374 74.0495C64.2864 75.5227 65.8816 76.8867 66.5169 76.8867C67.3332 76.8867 68.7806 75.5232 69.0232 74.0505C69.6601 74.0511 70.3958 73.0746 70.0627 72.4165Z" fill="#F4CABA"/>
<path opacity="0.35" d="M68.3235 74.1461C68.3504 74.308 68.1761 74.4725 67.9346 74.5135C67.693 74.5545 67.4751 74.457 67.4483 74.2952C67.4214 74.1333 67.5956 73.9693 67.8372 73.9278C68.0788 73.8868 68.2967 73.9843 68.3235 74.1461ZM64.7156 74.1461C64.6888 74.308 64.863 74.4725 65.1046 74.5135C65.3461 74.5545 65.564 74.457 65.5909 74.2952C65.6177 74.1333 65.4435 73.9693 65.2019 73.9278C64.9604 73.8868 64.743 73.9843 64.7156 74.1461Z" fill="#E8AD80"/>
<path d="M66.5037 75.908C66.2263 75.908 66.0642 75.6721 66.0616 75.6684C66.0363 75.6306 66.0369 75.5693 66.0626 75.5321C66.0884 75.4948 66.9905 75.5049 67.01 75.5502C67.029 75.5954 67.0195 75.6545 66.9884 75.6827C66.8026 75.8515 66.6395 75.908 66.5037 75.908Z" fill="#EAEFEE"/>
<path d="M66.3959 73.9734C66.3085 73.7732 66.4369 73.5464 66.4427 73.5363C66.4488 73.5257 66.4569 73.5164 66.4666 73.509C66.4762 73.5015 66.4873 73.4961 66.499 73.493C66.5107 73.4898 66.523 73.4891 66.535 73.4908C66.547 73.4925 66.5586 73.4965 66.569 73.5028C66.6133 73.5283 66.628 73.5858 66.6027 73.6305C66.5775 73.6747 66.5259 73.8084 66.5675 73.9026C66.6001 73.9708 66.6848 74.015 66.8185 74.0346C66.8421 74.039 66.8631 74.0524 66.8772 74.072C66.8912 74.0917 66.8971 74.1161 66.8937 74.1401C66.8903 74.1641 66.8778 74.1859 66.8589 74.2008C66.8399 74.2156 66.816 74.2225 66.7922 74.2199C66.5933 74.1906 66.4617 74.1108 66.4006 73.983L66.3959 73.9734ZM68.1285 72.7648C68.1285 72.9283 68.0175 73.0608 67.8811 73.0608C67.7448 73.0608 67.6338 72.9288 67.6338 72.7648C67.6338 72.6014 67.7448 72.4683 67.8811 72.4683C67.9196 72.4683 67.9554 72.4784 67.988 72.4981C67.9396 72.5125 67.9038 72.5652 67.9038 72.628C67.9038 72.702 67.9543 72.7622 68.0164 72.7622C68.0617 72.7622 68.1017 72.7291 68.119 72.6823C68.1248 72.7094 68.1285 72.7361 68.1285 72.7648ZM65.5833 72.727C65.5833 72.8905 65.4722 73.0225 65.3359 73.0225C65.1996 73.0225 65.0885 72.8905 65.0885 72.727C65.0885 72.5636 65.1996 72.4305 65.3359 72.4305C65.3743 72.4305 65.4101 72.4406 65.4427 72.4603C65.3943 72.4746 65.3585 72.5274 65.3585 72.5902C65.3585 72.6642 65.409 72.7244 65.4711 72.7244C65.5164 72.7244 65.5564 72.6913 65.5738 72.6445C65.5801 72.6716 65.5833 72.6988 65.5833 72.727ZM69.8664 72.997C69.8843 72.997 69.9017 72.9858 69.9085 72.9682C70.0622 72.5705 69.669 72.3352 69.6648 72.333C69.6545 72.327 69.6422 72.3254 69.6307 72.3285C69.6192 72.3316 69.6093 72.3391 69.6033 72.3495C69.5906 72.3714 69.598 72.399 69.6196 72.4118C69.6333 72.4198 69.9496 72.6109 69.8243 72.9347C69.8154 72.9581 69.8269 72.9847 69.8496 72.9938C69.8554 72.9959 69.8611 72.997 69.8664 72.997ZM63.1148 73.0007C63.0969 73.0007 63.0796 72.9895 63.0727 72.9719C62.919 72.5742 63.3122 72.3394 63.3164 72.3368C63.338 72.324 63.3654 72.332 63.378 72.3533C63.3906 72.3751 63.3833 72.4028 63.3617 72.4155C63.348 72.4235 63.0317 72.6147 63.1569 72.9384C63.1659 72.9618 63.1543 72.9884 63.1317 72.9975C63.1259 72.9996 63.1201 73.0007 63.1148 73.0007ZM65.9075 72.1664C65.9075 72.1664 64.9664 72.1185 64.8717 72.0248C64.7769 71.931 65.0717 71.733 65.4864 71.8395C65.9011 71.9454 66.0154 72.1632 65.9075 72.1664ZM67.3733 72.1664C67.3733 72.1664 68.3143 72.1185 68.409 72.0248C68.5038 71.931 68.209 71.733 67.7943 71.8395C67.3796 71.9454 67.2654 72.1632 67.3733 72.1664ZM67.2201 69.7651C67.2201 69.7651 65.7175 71.5743 63.879 71.5562C63.3033 70.3551 63.8201 69.1795 65.3364 68.4815C66.8527 67.7835 68.5469 69.0911 69.0211 69.7646C69.4948 70.4381 69.2106 71.8081 69.2106 71.8081C69.2106 71.8081 67.359 71.5993 67.2201 69.7651Z" fill="#47271F"/>
<path d="M78.6609 89.2322L53.5283 96.7314C51.2088 97.4236 49.8783 99.8961 50.5625 102.243C51.2467 104.589 53.6909 105.935 56.0104 105.243L81.143 97.7435C83.4635 97.0514 84.793 94.5788 84.1088 92.2324C83.424 89.886 80.9809 88.5395 78.6609 89.2322ZM81.0019 97.2622L55.8693 104.761C54.8393 105.069 53.7835 104.924 52.9093 104.443C52.0351 103.961 51.3419 103.142 51.0383 102.1C50.4304 100.015 51.6077 97.8277 53.6683 97.2127L78.8009 89.7135C79.8319 89.4058 80.8877 89.5506 81.7614 90.0319C82.6351 90.5132 83.3283 91.3321 83.6325 92.3746C84.2404 94.4585 83.063 96.6473 81.0019 97.2622Z" fill="#F4EDE1"/>
<path d="M83.6312 92.3742C84.2391 94.4581 83.0617 96.6469 81.0006 97.2618L55.868 104.761C54.838 105.068 53.7822 104.924 52.908 104.443C52.0338 103.96 51.3406 103.142 51.037 102.1C50.4291 100.015 51.6064 97.8272 53.667 97.2123L78.7996 89.7131C79.8306 89.4054 80.8864 89.5502 81.7601 90.0315C82.6343 90.5128 83.327 91.3311 83.6312 92.3742Z" fill="#F9D980"/>
<path d="M57.4934 100.339C57.4463 100.326 57.397 100.322 57.3484 100.328C57.2998 100.334 57.2529 100.35 57.2104 100.374C57.1678 100.399 57.1304 100.431 57.1003 100.47C57.0702 100.509 57.048 100.554 57.035 100.602L56.5408 102.412C56.5278 102.46 56.5242 102.51 56.5302 102.559C56.5362 102.608 56.5517 102.655 56.5758 102.698C56.6 102.741 56.6323 102.779 56.6709 102.81C56.7095 102.84 56.7536 102.863 56.8008 102.876C56.848 102.889 56.8972 102.893 56.9458 102.887C56.9944 102.88 57.0413 102.865 57.0839 102.84C57.1264 102.816 57.1638 102.783 57.1939 102.744C57.224 102.705 57.2462 102.661 57.2592 102.613L57.7534 100.803C57.7665 100.755 57.7701 100.705 57.7641 100.656C57.758 100.607 57.7425 100.559 57.7184 100.516C57.6942 100.473 57.6619 100.435 57.6233 100.405C57.5847 100.374 57.5406 100.352 57.4934 100.339Z" fill="#F5B501"/>
<path d="M57.1472 85.1548C57.1472 85.1548 54.4372 91.932 56.1225 94.0926C57.2056 95.4811 63.3656 101.689 63.3656 101.689L64.2625 101.015L58.6588 91.4134L60.5504 85.9918L57.1472 85.1548Z" fill="#F4CABA"/>
<path d="M56.9583 84.3915C55.861 86.3104 59.6888 87.8092 60.2741 87.1947C60.8594 86.5803 64.5315 78.3145 64.5315 78.3145C64.5315 78.3145 60.4336 78.3145 56.9583 84.3915Z" fill="#F5B501"/>
<path d="M63.9396 103.036C63.8806 102.958 63.808 102.84 63.7196 102.654C63.7196 102.654 63.7206 102.655 63.7222 102.657C63.6743 102.566 63.6311 102.468 63.5927 102.368C63.5264 102.195 63.4869 102.065 63.4643 101.971C63.4643 101.971 63.4643 101.97 63.4638 101.97C63.4306 101.832 63.4322 101.775 63.4322 101.775C63.4322 101.775 62.3101 100.361 62.2285 100.139C62.2296 99.8831 63.0354 99.5435 63.0354 99.5435C63.2517 99.5823 64.0654 100.975 64.3938 101.11C64.7764 101.267 65.7311 101.141 65.6154 101.437C65.4996 101.733 64.8496 101.602 64.8496 101.602C64.8496 101.602 64.8559 101.608 64.8669 101.618C64.9348 101.683 65.1854 101.932 65.3285 102.227V102.228C65.368 102.31 65.399 102.396 65.4159 102.482L65.4238 102.528C65.4275 102.555 65.4296 102.583 65.4296 102.61V102.624C65.4296 102.638 65.429 102.651 65.428 102.665V102.666C65.4275 102.666 65.4275 102.666 65.4275 102.667C65.4148 102.701 65.3885 102.738 65.3401 102.773C65.1833 102.885 65.0764 102.776 65.0764 102.776C65.0764 102.776 65.1048 102.925 64.9643 102.996C64.8154 103.072 64.7643 102.957 64.7643 102.957C64.7643 102.957 64.7443 103.119 64.6243 103.175C64.498 103.233 64.4411 103.098 64.4411 103.098C64.4411 103.098 64.4433 103.216 64.2964 103.286C64.1643 103.347 63.9396 103.036 63.9396 103.036Z" fill="#F4CABA"/>
<path opacity="0.2" d="M64.6282 102.803C64.6276 102.808 64.625 102.813 64.6176 102.815C64.5387 102.842 64.4645 102.871 64.4134 102.94C64.3966 102.964 64.3771 102.99 64.3466 102.995C64.3329 102.997 64.3192 102.994 64.3055 102.993C64.2871 102.99 64.2713 102.995 64.2545 103.002C64.1982 103.023 64.1455 103.056 64.0992 103.094C64.0776 103.112 64.0571 103.131 64.0371 103.151C64.114 103.232 64.2219 103.321 64.2982 103.284C64.4455 103.215 64.4429 103.097 64.4429 103.097C64.4429 103.097 64.4997 103.232 64.6261 103.173C64.7455 103.118 64.7655 102.955 64.7655 102.955C64.7655 102.955 64.8166 103.07 64.9655 102.995C65.1061 102.923 65.0776 102.774 65.0776 102.774C65.0776 102.774 65.1845 102.885 65.3418 102.772C65.3903 102.737 65.4161 102.7 65.4292 102.666C65.4297 102.666 65.4297 102.666 65.4297 102.665V102.664C65.4308 102.65 65.4313 102.636 65.4313 102.623V102.609C65.4313 102.582 65.4292 102.555 65.4255 102.527C65.4234 102.512 65.4208 102.497 65.4176 102.481C65.3897 102.519 65.3503 102.55 65.3134 102.576C65.2713 102.604 65.2224 102.63 65.1703 102.627C65.1155 102.625 65.0692 102.591 65.0155 102.583C64.9592 102.575 64.904 102.609 64.8713 102.653C64.8429 102.692 64.8318 102.738 64.7887 102.763C64.7408 102.792 64.6834 102.795 64.6297 102.802C64.6292 102.802 64.6287 102.803 64.6282 102.803ZM65.5724 101.363C65.5724 101.363 65.3245 101.369 65.2976 101.333C65.2703 101.297 65.3061 101.256 65.3061 101.256C65.3061 101.256 65.5418 101.289 65.5724 101.363Z" fill="white"/>
<path d="M74.7105 81.9914L75.1441 83.2751L74.7389 83.6606L75.2773 85.0098C75.2773 85.0098 76.0768 85.2903 75.7741 85.8116C75.4715 86.3328 74.2136 86.3153 74.2136 86.3153C74.2136 86.3153 72.4789 81.8759 72.6757 81.6102C72.872 81.3451 74.7105 81.9914 74.7105 81.9914Z" fill="#E8DDC5"/>
<path d="M74.6592 83.7798C74.6592 83.7798 74.5487 83.8879 74.6287 84.0348C74.7092 84.1818 74.8124 84.1674 74.8124 84.1674C74.8124 84.1674 74.8024 84.243 74.8334 84.4102C74.8645 84.5774 75.0118 84.5566 75.0118 84.5566C75.0118 84.5566 75.0581 84.653 75.0539 84.6956C75.0497 84.7381 74.9855 84.9256 75.0892 84.9538C75.1934 84.9815 75.2555 84.9586 75.2555 84.9586L75.0303 84.3894L74.8224 83.874L74.6592 83.7798Z" fill="url(#paint0_linear_494_21624)"/>
<path d="M74.3392 81.8879L74.8013 83.2435L74.3723 83.6492L74.9455 85.074C74.9455 85.074 75.7939 85.3711 75.4739 85.9205C75.1539 86.47 73.8192 86.4492 73.8192 86.4492C73.8192 86.4492 73.4486 83.4873 72.1797 81.4828C72.3881 81.2027 74.3392 81.8879 74.3392 81.8879Z" fill="#E8AD80"/>
<path opacity="0.1" d="M73.7413 84.9622C73.7039 84.6896 73.6455 84.4223 73.5728 84.1572C73.4986 83.8878 73.4139 83.6216 73.3397 83.3516C73.3123 83.2515 73.2828 83.1514 73.2665 83.0487C73.2497 82.9454 73.2428 82.8341 73.2781 82.7335C73.3418 82.5514 73.5234 82.4912 73.6955 82.4651C73.8755 82.438 74.0571 82.4444 74.2381 82.43C74.3323 82.4225 74.4265 82.4236 74.5207 82.4209L74.3386 81.8875C74.3386 81.8875 72.3876 81.2022 72.1797 81.4823C73.1897 83.078 73.6302 85.2801 73.7681 86.1122C73.8044 85.73 73.7934 85.3424 73.7413 84.9622Z" fill="#47271F"/>
<path d="M74.8346 84.0966C74.7661 84.1195 74.6835 84.0561 74.6503 83.9549C74.6172 83.8538 74.6467 83.7532 74.7156 83.7303C74.7846 83.7074 74.8667 83.7707 74.8998 83.8719C74.9325 83.9731 74.9035 84.0737 74.8346 84.0966ZM75.0188 84.5065C74.9498 84.5294 74.8677 84.4661 74.8346 84.3649C74.8019 84.2638 74.8309 84.1631 74.8998 84.1402C74.9688 84.1173 75.0509 84.1807 75.084 84.2819C75.1167 84.3835 75.0877 84.4836 75.0188 84.5065ZM75.203 84.917C75.134 84.9399 75.0519 84.8766 75.0188 84.7754C74.9861 84.6743 75.0151 84.5736 75.084 84.5507C75.153 84.5278 75.2351 84.5912 75.2682 84.6923C75.3009 84.7935 75.2719 84.8941 75.203 84.917Z" fill="#E8AD80"/>
<path opacity="0.26" d="M74.765 83.7668C74.7966 83.7344 74.875 83.811 74.8739 83.9117C74.8729 84.0123 74.8324 84.1108 74.7834 84.0661C74.7339 84.0213 74.8287 83.9883 74.8124 83.9154C74.7961 83.843 74.7376 83.7945 74.765 83.7668ZM74.975 84.2103C75.0018 84.1827 75.0682 84.2476 75.0671 84.3333C75.0661 84.419 75.0324 84.5021 74.9903 84.4643C74.9482 84.4265 75.0282 84.3983 75.015 84.3365C75.0013 84.2742 74.9518 84.2338 74.975 84.2103ZM75.1476 84.6166C75.1745 84.5894 75.2408 84.6538 75.2397 84.7396C75.2387 84.8253 75.2045 84.9083 75.1629 84.8705C75.1213 84.8327 75.2008 84.8045 75.1876 84.7428C75.1745 84.6815 75.1245 84.6405 75.1476 84.6166Z" fill="#F9F9F9"/>
<path d="M71.3929 80.8964C71.6466 81.4932 71.6271 82.0757 71.3487 82.1965C71.0703 82.3174 70.6392 81.9319 70.385 81.3346C70.1313 80.7377 70.1513 80.1558 70.4292 80.0344C70.7076 79.9135 71.1387 80.299 71.3929 80.8964Z" fill="#E8DDC5"/>
<path d="M71.9178 80.6682C72.3026 81.5733 72.3547 82.4193 72.0347 82.5588C71.7147 82.6983 71.1431 82.0775 70.7583 81.1729C70.3736 80.2678 70.321 79.4218 70.6415 79.2823C70.9615 79.1428 71.5326 79.7631 71.9178 80.6682Z" fill="white"/>
<path d="M75.2484 76.7388L70.9163 78.6235C70.5963 78.763 70.7353 79.8124 71.2263 80.9683C71.7174 82.1242 72.3753 82.9479 72.6958 82.8084L77.0279 80.9236L75.2484 76.7388Z" fill="#E8DDC5"/>
<path d="M76.7179 78.5791C77.209 79.735 77.3479 80.7844 77.0279 80.9239C76.7079 81.0634 76.0501 80.2392 75.5585 79.0838C75.0669 77.9279 74.9285 76.8785 75.2485 76.739C75.569 76.5995 76.2269 77.4232 76.7179 78.5791Z" fill="#E8AD80"/>
<path d="M80.2583 71.5804C78.3619 74.5886 75.3783 76.854 75.3783 76.854L75.3846 76.8695C75.1725 77.0164 75.3483 77.9439 75.7904 78.9827C76.2446 80.0512 76.8083 80.8323 77.0488 80.728C77.0604 80.7232 77.0704 80.7157 77.0798 80.7072C77.5619 80.6305 80.9535 80.1332 84.1614 80.7599C87.6246 81.4361 88.4514 81.1779 88.4514 81.1779L85.844 75.0454L85.5167 74.2755L82.9093 68.1431C82.9083 68.1425 82.1546 68.5722 80.2583 71.5804Z" fill="#F9F5ED"/>
<path opacity="0.1" d="M86.7671 77.2137C86.6476 77.251 86.5266 77.2829 86.4029 77.3053C86.0208 77.3756 85.6355 77.3415 85.2697 77.2111C84.9629 77.1014 84.6671 76.9496 84.3755 76.8043C84.1645 76.6994 83.9618 76.5785 83.7408 76.496C83.5308 76.4172 83.2682 76.3512 83.1197 76.57C82.9734 76.7867 82.9445 77.0593 82.6966 77.1935C82.5508 77.2723 82.3887 77.3159 82.2297 77.3569C82.0576 77.4011 81.8887 77.4592 81.715 77.4964C81.3582 77.5736 81.0034 77.6769 80.6371 77.7067C79.8345 77.7712 79.9734 78.1029 79.9745 78.2136C79.9766 78.4394 80.1755 79.049 80.0845 79.1214C80.0129 79.1784 79.9413 79.2364 79.8582 79.2742C79.794 79.3035 79.7287 79.329 79.6624 79.353C79.5071 79.4094 79.3461 79.4573 79.1824 79.4818C79.0639 79.4994 77.2976 80.7266 76.734 79.5452C76.6518 79.3732 76.3866 79.4802 76.2666 79.3429C76.2076 79.2753 76.1582 79.1991 76.1155 79.1198C76.0624 79.0208 76.0245 78.9148 75.9618 78.8206C75.8797 78.6971 75.7624 78.598 75.625 78.5592C75.6755 78.697 75.7308 78.8387 75.7924 78.9824C76.2466 80.051 76.8103 80.8321 77.0508 80.7277C77.0624 80.7229 77.0724 80.7155 77.0818 80.7069C77.564 80.6303 80.9555 80.133 84.1634 80.7597C87.6266 81.4358 88.4534 81.1776 88.4534 81.1776L86.7671 77.2137Z" fill="#47271F"/>
<path d="M86.7922 74.1729C88.3217 77.7705 89.0375 80.9155 88.3912 81.1966C87.7444 81.4777 85.9801 78.7895 84.4501 75.1919C82.9207 71.5944 82.2049 68.4493 82.8512 68.1682C83.498 67.8866 85.2622 70.5753 86.7922 74.1729Z" fill="#E8AD80"/>
<path d="M88.2725 80.8427C87.7741 81.0599 86.4288 79.0527 85.1178 76.2058C84.9557 75.8534 84.7931 75.4881 84.6336 75.1122C84.4801 74.7513 84.3316 74.3881 84.1883 74.0229C83.0425 71.0935 82.5246 68.7162 83.0241 68.4985C83.5846 68.2546 85.2136 70.8204 86.6631 74.2289C88.1131 77.6375 88.8331 80.5983 88.2725 80.8427Z" fill="#E7D8BC"/>
<path opacity="0.1" d="M85.1426 71.0688C85.2652 71.343 85.3863 71.6183 85.5042 71.8952C85.8105 72.6145 86.0905 73.3412 86.3557 74.0728C86.5484 74.6031 86.7321 75.1366 86.8863 75.6685C87.0336 76.1774 87.1563 76.6918 87.2105 77.1688C87.2615 77.6219 87.2436 78.0324 87.131 78.3274C87.0057 78.6559 86.7747 78.8284 86.5152 78.9056C87.2926 80.2159 87.9547 80.9815 88.2726 80.8431C88.8331 80.5992 88.1126 77.6379 86.6631 74.2293C86.1605 73.0468 85.6363 71.9665 85.1426 71.0688Z" fill="#47271F"/>
<path d="M86.537 75.4069L85.117 76.2055C84.9549 75.8531 84.7922 75.4878 84.6328 75.1119C84.4793 74.751 84.3308 74.3878 84.1875 74.0226L85.747 73.5498L86.537 75.4069Z" fill="#F9F5ED"/>
<path d="M86.4285 74.3545C86.6464 74.8672 86.6953 75.3389 86.5379 75.4071C86.38 75.4757 86.0758 75.1158 85.8579 74.6031C85.64 74.0904 85.5911 73.6192 85.7485 73.5505C85.9058 73.4813 86.2106 73.8417 86.4285 74.3545Z" fill="#E8AD80"/>
<path d="M86.3332 74.396C86.5021 74.7932 86.5537 75.152 86.449 75.1978C86.3442 75.2436 86.1221 74.9582 85.9532 74.5615C85.7842 74.1644 85.7327 73.8055 85.8374 73.7597C85.9421 73.7139 86.1642 73.9988 86.3332 74.396Z" fill="#F4EDE1"/>
<path d="M76.316 85.5677C75.8254 85.8323 74.2944 86.1991 74.0928 85.6353C73.9986 85.3717 74.1812 85.2029 74.3554 85.1321C74.1354 85.1646 73.8818 85.1859 73.827 84.8462C73.7881 84.604 73.8939 84.481 74.2607 84.3676C74.1181 84.391 73.7597 84.4059 73.716 84.1567C73.6412 83.734 73.9712 83.6387 74.097 83.5886C74.0102 83.6004 73.9386 83.4752 73.9265 83.3107C73.9112 83.1063 73.8354 82.9082 74.4196 82.765C74.6139 82.7176 74.6523 82.584 74.9218 82.5792C75.1297 82.5754 75.3449 82.5483 75.5139 82.6287C76.3281 83.0163 76.7518 85.3323 76.316 85.5677Z" fill="#F4CABA"/>
<path d="M75.0361 84.945C74.7276 84.9962 74.4129 85.0872 74.3955 85.0925C74.3787 85.0973 74.3692 85.1149 74.374 85.1319C74.3787 85.149 74.3961 85.1586 74.4129 85.1538C74.4182 85.1522 74.9555 84.9962 75.3076 84.9775C75.325 84.977 75.3382 84.9616 75.3371 84.944C75.3369 84.9398 75.3359 84.9357 75.3341 84.932C75.3323 84.9282 75.3298 84.9249 75.3267 84.9221C75.3236 84.9193 75.32 84.9172 75.3161 84.9158C75.3122 84.9145 75.3081 84.9139 75.304 84.9142C75.2219 84.9179 75.1292 84.9296 75.0361 84.945ZM74.9134 84.1821C74.605 84.2332 74.2903 84.3248 74.2729 84.3296C74.2561 84.3344 74.2466 84.3519 74.2513 84.369C74.2561 84.386 74.2734 84.3951 74.2903 84.3908C74.2955 84.3892 74.8329 84.2332 75.185 84.2146C75.2024 84.2135 75.2155 84.1986 75.2145 84.181C75.2143 84.1769 75.2132 84.1728 75.2114 84.169C75.2096 84.1653 75.2071 84.1619 75.204 84.1591C75.201 84.1564 75.1974 84.1542 75.1935 84.1529C75.1896 84.1515 75.1854 84.151 75.1813 84.1512C75.0987 84.1549 75.0061 84.1666 74.9134 84.1821ZM74.7898 83.4191C74.4819 83.4702 74.1666 83.5613 74.1498 83.5666C74.1329 83.5714 74.1234 83.589 74.1282 83.606C74.1329 83.623 74.1503 83.6326 74.1671 83.6278C74.1724 83.6262 74.7098 83.4702 75.0619 83.4516C75.0792 83.4505 75.0924 83.4356 75.0913 83.4181C75.0911 83.4139 75.0901 83.4098 75.0883 83.4061C75.0865 83.4023 75.084 83.3989 75.0809 83.3962C75.0778 83.3934 75.0742 83.3913 75.0703 83.3899C75.0664 83.3886 75.0623 83.388 75.0582 83.3882C74.9755 83.392 74.8829 83.4037 74.7898 83.4191Z" fill="#E8AD80"/>
<path d="M72.8438 83.8151C72.8601 83.7395 73.1238 82.5964 73.5733 82.6225C74.0227 82.6481 73.5764 84.4599 73.6159 84.4732C73.6554 84.4865 73.6669 86.0034 73.6669 85.9778C73.6669 85.9523 72.6738 84.6047 72.8438 83.8151Z" fill="#F4CABA"/>
<path opacity="0.5" d="M73.1309 83.0432C73.1309 83.0432 73.3198 83.1002 73.3288 83.0917C73.3377 83.0831 73.4698 82.7104 73.4703 82.6742C73.4703 82.638 73.2793 82.7339 73.1309 83.0432Z" fill="white"/>
<path d="M48.4783 85.3514L45.6125 84.5469C45.3099 84.4617 44.9872 84.5836 44.8136 84.8488L43.1714 87.3575C43.0246 87.5817 43.0109 87.8687 43.1351 88.1061L47.0509 95.5931C47.1334 95.7506 47.2697 95.8724 47.4344 95.9358C47.5992 95.9992 47.781 95.9998 47.9462 95.9375L50.4351 94.9968C50.6002 94.9343 50.7372 94.8132 50.8205 94.656C50.9038 94.4989 50.9277 94.3164 50.8878 94.1427L48.9904 85.8928C48.9612 85.7643 48.8982 85.6461 48.8081 85.5508C48.7179 85.4554 48.604 85.3865 48.4783 85.3514Z" fill="#F9D980"/>
<path d="M45.9299 89.0873C46.2478 88.9669 46.5578 89.0734 46.6968 89.4493C46.8357 89.8252 46.6704 90.1111 46.3525 90.2314C46.0347 90.3518 45.721 90.2463 45.582 89.8704C45.4436 89.4951 45.612 89.2076 45.9299 89.0873ZM45.9773 89.7214C46.0362 89.8806 46.1225 89.929 46.2231 89.8907C46.3236 89.8529 46.361 89.7576 46.302 89.5984C46.242 89.436 46.152 89.3886 46.0515 89.4269C45.951 89.4653 45.9173 89.559 45.9773 89.7214ZM47.1052 88.6853L47.6573 88.4766L47.2494 91.3474L46.6973 91.5561L47.1052 88.6853ZM48.0052 89.7996C48.3231 89.6793 48.632 89.7826 48.772 90.1617C48.911 90.5376 48.7457 90.8235 48.4278 90.9438C48.1099 91.0641 47.7999 90.9577 47.661 90.5818C47.521 90.2027 47.6873 89.92 48.0052 89.7996ZM48.0525 90.4343C48.1115 90.5935 48.1978 90.6419 48.2983 90.6036C48.3989 90.5658 48.4362 90.4705 48.3773 90.3113C48.3183 90.1521 48.2273 90.1015 48.1268 90.1399C48.0262 90.1777 47.9936 90.2751 48.0525 90.4343Z" fill="#F5B501"/>
<path d="M88.2513 96.71L86.755 95.2043C86.5971 95.0451 86.3556 95.0073 86.1571 95.11L84.2792 96.0849C84.1969 96.1276 84.1275 96.192 84.0783 96.2713C84.0291 96.3505 84.002 96.4418 83.9998 96.5353L83.8498 102.544C83.8434 102.806 84.0298 103.032 84.2856 103.072L86.1487 103.365C86.4045 103.406 86.6498 103.248 86.7219 102.996L88.3829 97.2248C88.4356 97.0417 88.385 96.8442 88.2513 96.71Z" fill="#F9D980"/>
<path d="M85.3917 98.1249C85.6296 98.1621 85.7849 98.3373 85.7417 98.6184C85.6985 98.8995 85.498 99.0188 85.2601 98.9815C85.0222 98.9442 84.8643 98.7686 84.9075 98.4874C84.9507 98.2058 85.1538 98.0876 85.3917 98.1249ZM85.2033 98.5338C85.1849 98.653 85.2217 98.7132 85.297 98.7249C85.3722 98.7366 85.428 98.6908 85.4464 98.5721C85.4654 98.4507 85.4259 98.39 85.3507 98.3778C85.2754 98.366 85.2217 98.4124 85.2033 98.5338ZM86.257 98.2894L86.6701 98.3543L85.4312 99.9867L85.018 99.9218L86.257 98.2894ZM86.4307 99.2956C86.6686 99.3329 86.8243 99.5054 86.7807 99.7892C86.7375 100.07 86.537 100.19 86.2991 100.152C86.0612 100.115 85.9059 99.9399 85.9491 99.6588C85.9928 99.3745 86.1928 99.2578 86.4307 99.2956ZM86.2417 99.7046C86.2233 99.8238 86.2601 99.884 86.3354 99.8957C86.4107 99.9074 86.4664 99.8616 86.4849 99.7429C86.5033 99.6236 86.4643 99.5608 86.3891 99.5486C86.3138 99.5368 86.2601 99.5853 86.2417 99.7046Z" fill="#F5B501"/>
<path d="M52.4615 69.7213C52.8979 71.8329 54.9442 73.1868 57.0315 72.7449C59.1189 72.3035 60.4573 70.2335 60.0205 68.1219C59.5842 66.0103 57.5379 64.6563 55.4505 65.0982C53.3631 65.5402 52.0247 67.6097 52.4615 69.7213Z" fill="#F9D980"/>
<path d="M54.3145 68.6113L55.4209 68.3739L55.8661 70.4974L54.7597 70.7348L54.3145 68.6113Z" fill="#F5B501"/>
<path d="M58.247 68.4852L58.2365 68.4874L58.1597 68.1216C58.1501 68.0754 58.1315 68.0316 58.1051 67.9927C58.0788 67.9538 58.045 67.9205 58.0059 67.8948C57.9668 67.8691 57.9231 67.8514 57.8772 67.8428C57.8313 67.8342 57.7842 67.8349 57.7386 67.8447L56.7634 68.054C56.7634 68.054 57.0428 67.4092 56.9676 67.0503C56.9002 66.7293 56.797 66.3071 56.3286 66.4077C56.3286 66.4077 56.1807 66.5504 56.2818 67.0322C56.3749 67.4774 55.6055 68.3319 55.6055 68.3319L56.066 70.5271C56.066 70.5271 56.3039 70.6708 56.6155 70.6043L58.0265 70.3013C58.2265 70.2582 58.3539 70.0596 58.3113 69.8578L58.2644 69.6353C58.2924 69.6293 58.3188 69.6178 58.3424 69.6014C58.3659 69.5851 58.386 69.5642 58.4016 69.5399C58.4171 69.5157 58.4278 69.4886 58.433 69.4602C58.4382 69.4318 58.4378 69.4026 58.4318 69.3744L58.3776 69.1162C58.4481 69.1012 58.4934 69.031 58.4781 68.9596L58.3997 68.5864C58.3865 68.5156 58.3176 68.4698 58.247 68.4852Z" fill="#F5B501"/>
<path d="M79.3635 67.721C79.3635 68.1981 78.9814 68.5846 78.5098 68.5846C78.0383 68.5846 77.6562 68.1981 77.6562 67.721C77.6562 67.244 78.0383 66.8574 78.5098 66.8574C78.9809 66.8569 79.3635 67.244 79.3635 67.721ZM76.1956 71.9224C76.1956 72.8392 75.4609 73.5819 74.5551 73.5819C73.6488 73.5819 72.9141 72.8387 72.9141 71.9224C72.9141 71.0061 73.6488 70.2623 74.5551 70.2623C75.4609 70.2628 76.1956 71.0055 76.1956 71.9224Z" fill="#F9D980"/>
<path d="M164.458 70.9808C166.664 70.0564 167.712 67.4978 166.798 65.2661C165.884 63.0343 163.355 61.9745 161.149 62.899C158.943 63.8234 157.895 66.3819 158.809 68.6137C159.723 70.8454 162.252 71.9052 164.458 70.9808Z" fill="#F9D980"/>
<path d="M163.279 69.0881L160.884 65.5235C160.86 65.4883 160.843 65.4488 160.835 65.4071C160.826 65.3655 160.826 65.3226 160.834 65.2808C160.842 65.239 160.858 65.1992 160.881 65.1636C160.904 65.1281 160.934 65.0975 160.968 65.0736C161.003 65.0497 161.042 65.0329 161.083 65.0242C161.124 65.0156 161.167 65.0153 161.208 65.0232C161.25 65.0312 161.289 65.0473 161.324 65.0706C161.359 65.094 161.389 65.1241 161.413 65.1593L163.431 68.1622L169.376 63.6456C169.41 63.62 169.448 63.6014 169.489 63.5908C169.53 63.5802 169.572 63.5778 169.614 63.5838C169.655 63.5898 169.695 63.604 169.732 63.6257C169.768 63.6473 169.799 63.676 169.825 63.7101C169.931 63.8527 169.902 64.0561 169.761 64.1631L163.279 69.0881Z" fill="#FFCA03"/>
<path d="M71.3858 119.629C71.279 119.383 71.1458 119.111 70.9932 118.847C70.6153 118.196 70.1153 117.596 69.5395 117.586C69.2537 117.58 68.4111 117.578 67.2716 117.576C65.4163 117.572 62.78 117.574 60.5185 117.578C59.4827 117.578 58.5237 117.58 57.7553 117.583C54.2742 117.576 46.9321 117.566 45.9711 117.586C44.7069 117.611 43.7969 120.476 43.7969 120.476H71.7132C71.7137 120.476 71.5963 120.105 71.3858 119.629Z" fill="#E3DDD1"/>
<path d="M67.8886 118.599C67.0634 118.586 60.7492 118.593 57.756 118.597C54.7634 118.593 48.4486 118.586 47.6234 118.599C46.536 118.615 45.7534 120.476 45.7534 120.476H69.7587C69.7581 120.476 68.976 118.615 67.8886 118.599ZM57.8565 120.725L45.416 120.476L47.2365 132.613C47.2365 132.613 47.5739 133.947 48.6192 133.947H67.095C68.1402 133.947 68.4781 132.613 68.4781 132.613L70.2981 120.476L57.8565 120.725Z" fill="#D1C5B0"/>
<path d="M71.7148 120.476C71.7148 120.983 71.3069 121.396 70.8032 121.396H44.7085C44.3495 121.396 44.0374 121.185 43.8911 120.881C43.8292 120.755 43.797 120.617 43.7969 120.476C43.7969 120.316 43.8363 120.166 43.9079 120.035C43.9495 119.958 44.0021 119.887 44.0637 119.824C44.229 119.659 44.4563 119.557 44.7085 119.557H70.8032C71.3074 119.556 71.7148 119.966 71.7148 120.476Z" fill="#E3DDD1"/>
<path d="M57.9621 119.885C57.9489 119.822 57.9219 119.764 57.8831 119.714C57.791 119.598 57.6368 119.535 57.4847 119.57L48.781 121.396L45.2484 122.137L43.2473 122.557L43.751 120.915L43.8921 120.881C43.8302 120.755 43.7979 120.617 43.7978 120.476C43.7978 120.317 43.8373 120.166 43.9089 120.035L43.3378 120.176C43.2699 120.193 43.2074 120.227 43.1564 120.275C43.1054 120.323 43.0676 120.384 43.0468 120.452L42.2705 122.98C42.2273 123.119 42.261 123.269 42.3568 123.377C42.4547 123.481 42.5994 123.531 42.7384 123.5L45.1136 123.003L52.7031 121.41L52.7668 121.396L57.6489 120.372C57.6642 120.366 57.6773 120.364 57.6905 120.361C57.8847 120.295 58.0052 120.092 57.9621 119.885Z" fill="url(#paint1_linear_494_21624)"/>
<path d="M57.5732 119.885C57.5864 119.82 57.6148 119.763 57.6522 119.714C57.7443 119.598 57.8985 119.535 58.0506 119.57L66.7543 121.396L70.2869 122.137L72.288 122.557L71.7843 120.915L71.6432 120.881C71.7032 120.759 71.7374 120.621 71.7374 120.476C71.7374 120.317 71.698 120.166 71.6264 120.035L72.1974 120.176C72.2654 120.193 72.3279 120.227 72.3789 120.275C72.4299 120.323 72.4676 120.384 72.4885 120.452L73.2648 122.98C73.308 123.119 73.2743 123.269 73.1785 123.377C73.0806 123.481 72.9359 123.531 72.7969 123.5L70.4217 123.003L62.8322 121.41L62.768 121.396L57.8859 120.372C57.8706 120.366 57.8574 120.364 57.8443 120.361C57.6501 120.295 57.5301 120.092 57.5732 119.885Z" fill="url(#paint2_linear_494_21624)"/>
<path d="M58.4955 131.83C58.4955 132.096 58.2665 132.311 57.9839 132.311C57.7023 132.311 57.4733 132.096 57.4733 131.83V123.242C57.4733 122.976 57.7023 122.761 57.9839 122.761C58.267 122.761 58.4955 122.976 58.4955 123.242V131.83ZM50.1133 131.733C50.1502 131.996 49.9528 132.237 49.6712 132.271C49.3918 132.305 49.1355 132.12 49.1002 131.856L47.9339 123.338C47.8981 123.075 48.096 122.833 48.3754 122.799C48.6554 122.765 48.9118 122.951 48.9476 123.215L50.1133 131.733ZM52.8176 131.79C52.836 132.054 52.6223 132.283 52.3412 132.301C52.0586 132.318 51.8155 132.118 51.7976 131.852L51.2039 123.283C51.1854 123.017 51.3986 122.788 51.6802 122.771C51.9623 122.754 52.206 122.955 52.2239 123.22L52.8176 131.79ZM55.7176 131.803C55.7307 132.069 55.5118 132.293 55.2297 132.305C54.9481 132.318 54.7081 132.112 54.6965 131.847L54.2776 123.268C54.2644 123.002 54.4833 122.778 54.7644 122.766C55.0465 122.753 55.286 122.959 55.2986 123.224L55.7176 131.803ZM65.8544 131.733C65.8186 131.996 66.016 132.237 66.296 132.271C66.5754 132.305 66.8328 132.12 66.8686 131.856L68.0344 123.338C68.0702 123.075 67.8728 122.833 67.5933 122.799C67.3123 122.765 67.0565 122.951 67.0202 123.215L65.8544 131.733ZM63.1502 131.79C63.1323 132.054 63.3455 132.283 63.627 132.301C63.9097 132.318 64.1523 132.118 64.1707 131.852L64.7644 123.283C64.7828 123.017 64.5691 122.788 64.287 122.771C64.006 122.754 63.7633 122.955 63.7444 123.22L63.1502 131.79ZM60.2507 131.803C60.2376 132.069 60.456 132.293 60.7376 132.305C61.0197 132.318 61.2586 132.112 61.2718 131.847L61.6907 123.268C61.7033 123.002 61.4849 122.778 61.2033 122.766C60.9212 122.753 60.6818 122.959 60.6691 123.224L60.2507 131.803Z" fill="#E3DDD1"/>
<defs>
<linearGradient id="paint0_linear_494_21624" x1="74.4892" y1="84.2547" x2="75.3708" y2="84.499" gradientUnits="userSpaceOnUse">
<stop stop-color="#6C696A" stop-opacity="0.1335"/>
<stop offset="1" stop-color="#231F20" stop-opacity="0.2"/>
</linearGradient>
<linearGradient id="paint1_linear_494_21624" x1="42.2511" y1="121.534" x2="57.9706" y2="121.534" gradientUnits="userSpaceOnUse">
<stop offset="0.213" stop-color="#EBEAE2"/>
<stop offset="1" stop-color="#EBEADB"/>
</linearGradient>
<linearGradient id="paint2_linear_494_21624" x1="73.284" y1="121.534" x2="57.5644" y2="121.534" gradientUnits="userSpaceOnUse">
<stop offset="0.213" stop-color="#EBEAE2"/>
<stop offset="1" stop-color="#EBEADB"/>
</linearGradient>
</defs>
</svg>
