<svg width="195" height="141" viewBox="0 0 195 141" fill="none" xmlns="http://www.w3.org/2000/svg">
<path d="M132.033 139.276C138.689 137.159 144.66 134.996 151.844 130.891C159.253 126.657 192.166 106.509 196.446 71.637C197.568 62.0798 196.637 52.3887 193.719 43.2331C192.396 39.2867 189.652 31.3606 182.726 23.522C174.248 13.9207 164.574 10.1994 158.901 8.09489C146.966 3.66511 136.956 3.89848 132.189 4.05683C127.044 4.22769 117.964 4.61108 107.643 9.19921C100.91 12.1913 96.7238 15.6043 90.5556 20.705C80.7832 28.7936 79.4972 32.1607 62.4016 48.863C57.7079 53.447 53.8498 57.06 47.9601 60.6188C43.8767 63.0858 40.5755 64.4652 34.4852 66.9822C19.5153 73.1706 15.2531 74.4236 10.3546 77.9074C0.827908 84.6875 1.44497 92.0815 1.0354 93.6734C-0.0296601 97.7445 -0.27623 101.992 0.310458 106.163C1.55965 114.526 5.98713 119.994 8.73536 123.303C12.5077 127.803 17.0789 131.541 22.2103 134.321C25.7726 136.233 29.4623 137.889 33.2524 139.276H132.033Z" fill="#EFEDEF"/>
<path d="M107.023 6.42434C117.773 1.64857 127.23 1.24567 132.592 1.06835C137.554 0.904264 147.981 0.662047 160.416 5.27662C166.324 7.46923 176.4 11.3455 185.232 21.3446C192.444 29.5091 195.302 37.7663 196.68 41.8758C199.718 51.4125 200.688 61.5064 199.52 71.4612C195.065 107.786 160.78 128.771 153.063 133.182" stroke="#6A8D99" stroke-miterlimit="10"/>
<path d="M24.3202 139.317H10.2186L8.36328 117.277H26.1756L24.3202 139.317Z" fill="#FFE3CB"/>
<path d="M10.2188 139.317C11.3135 135.617 12.451 131.931 13.595 128.248C14.1592 126.403 14.7511 124.568 15.3299 122.728L17.075 117.213C17.0883 117.171 17.1142 117.134 17.1492 117.108C17.1841 117.082 17.2263 117.068 17.2695 117.068C17.3128 117.068 17.3549 117.082 17.3898 117.108C17.4248 117.134 17.4508 117.171 17.464 117.213L19.2094 122.728C19.7878 124.568 20.3808 126.403 20.9447 128.247L22.653 133.775L24.3203 139.317L22.4621 133.839L20.6451 128.347C20.0339 126.518 19.4518 124.679 18.855 122.846L17.075 117.341H17.464L15.6837 122.846C15.0874 124.679 14.5042 126.517 13.8932 128.346C12.687 132.009 11.4742 135.67 10.2188 139.317Z" fill="#904D24"/>
<path d="M8.36328 117.277C9.92575 120.918 11.4467 124.576 12.9614 128.236L15.215 133.735L17.4587 139.238H17.0803L19.3237 133.735C20.0748 131.902 20.8117 130.063 21.5769 128.236L23.8563 122.748L26.1757 117.277L24.042 122.826L21.8683 128.358C21.1491 130.204 20.4016 132.039 19.6684 133.879L17.4587 139.396C17.4434 139.434 17.4172 139.467 17.3835 139.49C17.3498 139.513 17.3101 139.525 17.2695 139.525C17.2289 139.525 17.1892 139.513 17.1555 139.49C17.1218 139.467 17.0956 139.434 17.0803 139.396L14.8709 133.879L12.6713 128.358C11.2173 124.672 9.76951 120.983 8.36328 117.277Z" fill="#904D24"/>
<path d="M9.29102 129.43C10.6208 129.344 11.9505 129.304 13.2803 129.27C14.61 129.232 15.9398 129.227 17.2695 129.222C18.5992 129.226 19.929 129.232 21.2587 129.27L23.2534 129.328C23.9182 129.362 24.5831 129.383 25.248 129.43C24.5831 129.477 23.9182 129.497 23.2534 129.532L21.2587 129.59C19.929 129.628 18.5992 129.633 17.2695 129.638C15.9397 129.633 14.61 129.628 13.2803 129.589C11.9505 129.556 10.6208 129.516 9.29102 129.43Z" fill="#904D24"/>
<path d="M26.4217 115.285H8.11648C7.82455 115.285 7.58789 115.525 7.58789 115.823V116.739C7.58789 117.036 7.82455 117.277 8.11648 117.277H26.4217C26.7136 117.277 26.9503 117.036 26.9503 116.739V115.823C26.9503 115.525 26.7136 115.285 26.4217 115.285Z" fill="#904D24"/>
<path d="M53.8582 6.8667H50.5303C49.5298 6.8667 48.7188 7.69192 48.7188 8.70989V12.0959C48.7188 13.1139 49.5298 13.9391 50.5303 13.9391H53.8582C54.8587 13.9391 55.6698 13.1139 55.6698 12.0959V8.70989C55.6698 7.69192 54.8587 6.8667 53.8582 6.8667Z" fill="#DC8758"/>
<path d="M33.315 139.288H30.5L41.9099 87.1055L47.6582 88.6799L33.315 139.288Z" fill="#DC8758"/>
<path d="M71.4131 139.288H74.2285L62.8183 87.1055L57.0703 88.6799L71.4131 139.288Z" fill="#DC8758"/>
<path d="M99.5641 11.0415H4.63544C3.96844 11.0415 3.42773 11.5917 3.42773 12.2703V93.0441C3.42773 93.7227 3.96844 94.2729 4.63544 94.2729H99.5641C100.231 94.2729 100.772 93.7227 100.772 93.0441V12.2703C100.772 11.5917 100.231 11.0415 99.5641 11.0415Z" fill="#FFE3CB"/>
<path d="M60.4979 26.0045C60.3841 26.0044 60.2748 25.9594 60.1929 25.879C60.111 25.7986 60.063 25.689 60.0589 25.5733C60.0548 25.4575 60.0949 25.3447 60.1708 25.2585C60.2468 25.1722 60.3526 25.1193 60.4661 25.1108L68.5308 24.5075C68.647 24.4989 68.7619 24.5376 68.8501 24.6152C68.9383 24.6927 68.9927 24.8027 69.0012 24.921C69.0097 25.0393 68.9718 25.1562 68.8956 25.246C68.8195 25.3358 68.7114 25.3911 68.5952 25.3999L60.5305 26.0032C60.5196 26.0041 60.5087 26.0045 60.4979 26.0045Z" fill="#904D24"/>
<path d="M68.5631 28.3032H60.4984C60.3818 28.3032 60.2699 28.2561 60.1874 28.1721C60.1049 28.0882 60.0586 27.9744 60.0586 27.8557C60.0586 27.737 60.1049 27.6232 60.1874 27.5393C60.2699 27.4553 60.3818 27.4082 60.4984 27.4082H68.5631C68.6797 27.4082 68.7916 27.4553 68.8741 27.5393C68.9566 27.6232 69.0029 27.737 69.0029 27.8557C69.0029 27.9744 68.9566 28.0882 68.8741 28.1721C68.7916 28.2561 68.6797 28.3032 68.5631 28.3032Z" fill="#904D24"/>
<path d="M68.5631 31.2046H60.4984C60.3818 31.2046 60.2699 31.1574 60.1874 31.0735C60.1049 30.9896 60.0586 30.8758 60.0586 30.7571C60.0586 30.6384 60.1049 30.5246 60.1874 30.4406C60.2699 30.3567 60.3818 30.3096 60.4984 30.3096H68.5631C68.6797 30.3096 68.7916 30.3567 68.8741 30.4406C68.9566 30.5246 69.0029 30.6384 69.0029 30.7571C69.0029 30.8758 68.9566 30.9896 68.8741 31.0735C68.7916 31.1574 68.6797 31.2046 68.5631 31.2046Z" fill="#904D24"/>
<path d="M68.5631 33.1548H60.4984C60.3818 33.1548 60.2699 33.1076 60.1874 33.0237C60.1049 32.9398 60.0586 32.826 60.0586 32.7073C60.0586 32.5886 60.1049 32.4748 60.1874 32.3908C60.2699 32.3069 60.3818 32.2598 60.4984 32.2598H68.5631C68.6797 32.2598 68.7916 32.3069 68.8741 32.3908C68.9566 32.4748 69.0029 32.5886 69.0029 32.7073C69.0029 32.826 68.9566 32.9398 68.8741 33.0237C68.7916 33.1076 68.6797 33.1548 68.5631 33.1548Z" fill="#904D24"/>
<path d="M22.266 81.3475C22.1494 81.3474 22.0375 81.3003 21.955 81.2164C21.8725 81.1325 21.8262 81.0186 21.8262 80.9V24.9539C21.8262 24.8352 21.8725 24.7213 21.955 24.6374C22.0375 24.5535 22.1493 24.5063 22.266 24.5063C22.3826 24.5063 22.4945 24.5535 22.577 24.6374C22.6595 24.7213 22.7058 24.8352 22.7058 24.9539V80.9C22.7058 81.0186 22.6595 81.1325 22.577 81.2164C22.4945 81.3003 22.3826 81.3474 22.266 81.3475Z" fill="#904D24"/>
<path d="M91.4722 71.9224H12.7289C12.6122 71.9224 12.5004 71.8752 12.4179 71.7913C12.3354 71.7074 12.2891 71.5935 12.2891 71.4749C12.2891 71.3562 12.3354 71.2423 12.4179 71.1584C12.5004 71.0745 12.6122 71.0273 12.7289 71.0273H91.4722C91.5888 71.0273 91.7007 71.0745 91.7832 71.1584C91.8656 71.2423 91.912 71.3562 91.912 71.4749C91.912 71.5935 91.8656 71.7074 91.7832 71.7913C91.7007 71.8752 91.5888 71.9224 91.4722 71.9224Z" fill="#904D24"/>
<path d="M26.3515 66.4814C26.272 66.4813 26.194 66.4593 26.1258 66.4177C26.0576 66.3761 26.0018 66.3165 25.9642 66.2452C25.9267 66.1739 25.9088 66.0936 25.9126 66.0128C25.9164 65.932 25.9416 65.8537 25.9856 65.7863L33.8872 53.6844C33.9308 53.6192 33.9903 53.5666 34.0598 53.5318C34.1293 53.497 34.2065 53.481 34.2839 53.4855C34.3614 53.491 34.4361 53.5172 34.5004 53.5616C34.5647 53.606 34.6164 53.6669 34.65 53.7381L38.6209 62.1418L49.3907 40.2423C49.4298 40.1607 49.4927 40.0934 49.5709 40.0495C49.649 40.0056 49.7386 39.9873 49.8273 39.9972C49.9158 40.006 49.9997 40.042 50.0677 40.1004C50.1357 40.1588 50.1847 40.2367 50.2083 40.3241L54.0134 54.4411L57.3028 48.5245C57.3431 48.4521 57.4025 48.3925 57.4742 48.3524C57.5459 48.3124 57.6272 48.2935 57.7089 48.2979C57.7906 48.3023 57.8695 48.3298 57.9367 48.3772C58.0039 48.4247 58.0567 48.4903 58.0893 48.5667L62.5499 59.028L65.718 49.978C65.7457 49.8987 65.7948 49.829 65.8597 49.7768C65.9247 49.7247 66.0028 49.6923 66.085 49.6833C66.1673 49.6736 66.2506 49.688 66.3251 49.7249C66.3996 49.7618 66.4622 49.8196 66.5055 49.8915L69.6328 55.0011L80.7247 32.5064C80.7632 32.4284 80.8232 32.3635 80.8975 32.3197C80.9717 32.276 81.0569 32.2553 81.1426 32.2602C81.2283 32.2651 81.3107 32.2954 81.3796 32.3473C81.4486 32.3993 81.5011 32.4706 81.5307 32.5525L83.6439 38.3977L91.0836 24.2042C91.1386 24.0994 91.2321 24.0212 91.3437 23.9867C91.4553 23.9521 91.5758 23.9641 91.6787 24.02C91.7817 24.0758 91.8586 24.171 91.8925 24.2846C91.9265 24.3981 91.9147 24.5207 91.8598 24.6254L83.9581 39.7002C83.9182 39.7764 83.8575 39.8392 83.7832 39.881C83.709 39.9228 83.6245 39.9419 83.5398 39.936C83.4552 39.9301 83.3741 39.8993 83.3062 39.8475C83.2383 39.7958 83.1866 39.7251 83.1573 39.6441L81.0557 33.8313L70.0675 56.1157C70.0324 56.1868 69.9794 56.2472 69.9138 56.2905C69.8483 56.3338 69.7726 56.3586 69.6945 56.3622C69.6166 56.3647 69.5394 56.3466 69.4705 56.3098C69.4015 56.2729 69.3432 56.2185 69.301 56.1518L66.2407 51.1519L63.0043 60.397C62.9747 60.4816 62.9207 60.5552 62.8495 60.6082C62.7782 60.6612 62.6929 60.6912 62.6047 60.6942C62.5165 60.6972 62.4294 60.6731 62.3548 60.6251C62.2802 60.5771 62.2216 60.5074 62.1865 60.425L57.6338 49.7473L54.2541 55.826C54.2112 55.9031 54.1468 55.9656 54.069 56.0054C53.9912 56.0452 53.9035 56.0607 53.8171 56.0498C53.7307 56.0389 53.6494 56.0021 53.5835 55.9441C53.5176 55.8862 53.4701 55.8096 53.447 55.7242L49.6637 41.6876L39.0064 63.358C38.9672 63.4309 38.9099 63.492 38.8403 63.5354C38.7707 63.5788 38.6911 63.6029 38.6095 63.6054C38.5273 63.6047 38.4468 63.5806 38.3774 63.5358C38.3079 63.4909 38.2522 63.4271 38.2165 63.3517L34.1922 54.8348L26.7183 66.2815C26.6782 66.3431 26.6237 66.3935 26.5597 66.4284C26.4956 66.4633 26.4241 66.4815 26.3515 66.4814Z" fill="#904D24"/>
<path d="M14.6371 59.8125C14.5204 59.8125 14.4086 59.7654 14.3261 59.6815C14.2436 59.5975 14.1973 59.4837 14.1973 59.365V32.7073C14.1973 32.5886 14.2436 32.4748 14.3261 32.3908C14.4086 32.3069 14.5204 32.2598 14.6371 32.2598C14.7537 32.2598 14.8656 32.3069 14.9481 32.3908C15.0306 32.4748 15.0769 32.5886 15.0769 32.7073V59.365C15.0769 59.4837 15.0306 59.5975 14.9481 59.6814C14.8656 59.7654 14.7537 59.8125 14.6371 59.8125Z" fill="#904D24"/>
<path d="M74.3072 78.9223H74.3008L33.1583 78.3325C33.0416 78.3308 32.9304 78.2821 32.8491 78.197C32.7678 78.1118 32.723 77.9974 32.7247 77.8787C32.728 77.7606 32.7765 77.6484 32.8597 77.566C32.943 77.4837 33.0546 77.4376 33.1707 77.4375L74.3132 78.0273C74.4294 78.0289 74.5402 78.0771 74.6214 78.1615C74.7027 78.246 74.7479 78.3596 74.7471 78.4778C74.7463 78.596 74.6996 78.709 74.6172 78.7923C74.5348 78.8755 74.4234 78.9223 74.3072 78.9223Z" fill="#904D24"/>
<path d="M67.6285 91.1763H37.0686C36.5518 91.1763 36.1328 91.6025 36.1328 92.1284V94.7287C36.1328 95.2545 36.5518 95.6808 37.0686 95.6808H67.6285C68.1453 95.6808 68.5643 95.2545 68.5643 94.7287V92.1284C68.5643 91.6025 68.1453 91.1763 67.6285 91.1763Z" fill="#DC8758"/>
<path d="M42.7711 34.3947H34.5111C34.4025 34.3947 34.2983 34.3508 34.2215 34.2727C34.1447 34.1945 34.1016 34.0885 34.1016 33.978V23.3615C34.1016 23.251 34.1447 23.145 34.2215 23.0669C34.2983 22.9887 34.4025 22.9448 34.5111 22.9448H45.9617C46.0703 22.9448 46.1745 22.9887 46.2513 23.0669C46.3281 23.145 46.3712 23.251 46.3712 23.3615V31.0861L42.7711 34.3947Z" fill="#C0D6F2"/>
<path d="M46.3716 31.0986H42.7715V34.3945L46.3716 31.0986Z" fill="#A2AEE6"/>
<path d="M41.8727 21.873H38.1947C37.9685 21.873 37.7852 22.0596 37.7852 22.2898V23.7066C37.7852 23.9368 37.9685 24.1234 38.1947 24.1234H41.8727C42.0989 24.1234 42.2823 23.9368 42.2823 23.7066V22.2898C42.2823 22.0596 42.0989 21.873 41.8727 21.873Z" fill="#A2AEE6"/>
<path d="M43.1 26.8398H37.3496V27.2566H43.1V26.8398Z" fill="#A2AEE6"/>
<path d="M43.1 29.3403H37.3496V29.7571H43.1V29.3403Z" fill="#A2AEE6"/>
<path d="M135.816 55.0993L135.385 52.9839C135.144 51.4912 134.298 50.932 134.774 49.4988L135.307 47.8916L136.543 48.0231L135.816 55.0993Z" fill="#1E1D22"/>
<path d="M149.455 49.1919H145.785V55.0522H149.455V49.1919Z" fill="#1E1D22"/>
<path d="M147.663 100.454H125.225V87.7075H147.622L147.663 100.454Z" fill="#065082"/>
<path d="M149.725 55.3662H122.942C121.451 55.3662 120.242 56.5961 120.242 58.1132V83.6054C120.242 85.1225 121.451 86.3524 122.942 86.3524H149.725C151.216 86.3524 152.425 85.1225 152.425 83.6054V58.1132C152.425 56.5961 151.216 55.3662 149.725 55.3662Z" fill="#D6694B"/>
<path d="M144.798 46.0315C142.453 44.9812 139.473 46.3895 137.416 49.259C137.279 49.0833 137.085 48.9627 136.869 48.9185C136.126 48.7865 135.345 49.7214 135.124 51.0067C135.035 51.3859 135.025 51.7798 135.094 52.1632C135.163 52.5467 135.309 52.9114 135.524 53.2341C134.469 57.0453 135.422 60.6919 137.963 61.8298C140.873 63.133 144.761 60.6528 146.649 56.2902C148.536 51.9276 147.708 47.3346 144.798 46.0315Z" fill="#F9977A"/>
<path d="M146.691 56.2903C144.803 60.6529 140.914 63.133 138.005 61.8299C135.619 60.7615 134.634 57.4818 135.396 53.9308L135.395 53.9307L129.476 55.8057L127.628 55.8335C126.927 55.8405 126.234 55.9904 125.59 56.2741C124.947 56.5579 124.366 56.9699 123.881 57.4858C121.362 60.1999 121.322 62.7282 121.322 62.7282L125.642 66.1345L125.102 88.2204C136.549 94.1539 147.703 89.0236 147.703 89.0236L148.063 85.5923C148.376 82.6135 146.161 72.2878 146.161 72.2878L151.345 80.4189L156.96 76.1336C156.734 72.2016 155.845 68.3386 154.333 64.7129C152.848 61.0716 150.14 58.0861 146.691 56.2903Z" fill="#FFBA55"/>
<path d="M138.114 61.8296C136.651 61.1744 135.715 59.6872 135.385 57.8161C135.385 57.8161 135.335 76.2295 141.532 61.842L141.53 61.8409C140.434 62.2915 139.208 62.2874 138.114 61.8296Z" fill="#F9977A"/>
<path d="M141.53 61.8409C140.434 62.2915 139.208 62.2874 138.114 61.8296C136.651 61.1744 135.715 59.6872 135.385 57.8161C135.385 57.8161 135.382 58.8831 135.464 60.3027C135.898 61.3141 136.68 62.1287 137.664 62.5926C138.229 62.8277 138.835 62.9453 139.446 62.9383C140.056 62.9313 140.659 62.8 141.219 62.5521C141.321 62.3246 141.426 62.0886 141.532 61.842L141.53 61.8409Z" fill="#DD765E"/>
<path d="M153.769 96.6812H118.899C118.567 96.6812 118.299 96.9545 118.299 97.2916V99.8433C118.299 100.18 118.567 100.454 118.899 100.454H153.769C154.1 100.454 154.369 100.18 154.369 99.8433V97.2916C154.369 96.9545 154.1 96.6812 153.769 96.6812Z" fill="#D6694B"/>
<path d="M151.286 100.454H121.276C120.944 100.454 120.676 100.727 120.676 101.064V102.224C120.676 102.561 120.944 102.834 121.276 102.834H151.286C151.618 102.834 151.886 102.561 151.886 102.224V101.064C151.886 100.727 151.618 100.454 151.286 100.454Z" fill="#935B50"/>
<path d="M137.954 102.834H134.498V126.569H137.954V102.834Z" fill="#D6694B"/>
<path d="M137.955 128.454L160.523 136.397V133.54L137.955 126.569H134.499L112.322 133.54V136.397L134.499 128.454H137.955Z" fill="#935B50"/>
<path d="M150.169 128.734L149.654 133.968L158.588 138.409H144.869V128.734H150.169Z" fill="#F9977A"/>
<path d="M159.964 138.885V138.853C159.964 138.609 159.898 138.369 159.772 138.16C159.645 137.952 159.465 137.783 159.25 137.673L149.977 132.918C149.887 132.872 149.783 132.859 149.684 132.883C149.585 132.906 149.497 132.964 149.436 133.047L147.624 135.501C147.559 135.589 147.466 135.648 147.361 135.669C147.255 135.69 147.147 135.671 147.055 135.615L144.927 134.316C144.862 134.276 144.787 134.254 144.71 134.253C144.633 134.252 144.558 134.272 144.491 134.31C144.424 134.349 144.369 134.404 144.33 134.472C144.292 134.539 144.271 134.616 144.271 134.694V138.885C144.271 139.002 144.317 139.114 144.398 139.197C144.48 139.28 144.59 139.326 144.705 139.326H159.531C159.588 139.326 159.645 139.315 159.697 139.292C159.75 139.27 159.797 139.238 159.838 139.197C159.878 139.156 159.91 139.107 159.932 139.054C159.953 139.001 159.964 138.943 159.964 138.885Z" fill="#FFBA55"/>
<path d="M123.318 128.734L123.834 133.968L114.9 138.409H128.619V128.734H123.318Z" fill="#F9977A"/>
<path d="M113.521 138.885V138.853C113.521 138.608 113.588 138.368 113.714 138.16C113.841 137.951 114.021 137.783 114.236 137.673L123.509 132.918C123.599 132.871 123.703 132.859 123.802 132.882C123.901 132.906 123.989 132.964 124.05 133.047L125.862 135.501C125.927 135.588 126.02 135.648 126.125 135.669C126.23 135.69 126.339 135.67 126.431 135.614L128.559 134.315C128.624 134.275 128.699 134.254 128.776 134.253C128.853 134.252 128.928 134.271 128.995 134.31C129.061 134.348 129.117 134.404 129.156 134.471C129.194 134.539 129.214 134.615 129.214 134.693V138.885C129.214 139.002 129.169 139.114 129.088 139.196C129.006 139.279 128.896 139.326 128.781 139.326H113.955C113.898 139.326 113.841 139.314 113.789 139.292C113.736 139.27 113.689 139.237 113.648 139.196C113.608 139.156 113.576 139.107 113.554 139.054C113.533 139 113.521 138.943 113.521 138.885Z" fill="#FFBA55"/>
<path d="M138.163 125.69H134.287C133.956 125.69 133.688 125.963 133.688 126.3V128.815C133.688 129.153 133.956 129.426 134.287 129.426H138.163C138.495 129.426 138.763 129.153 138.763 128.815V126.3C138.763 125.963 138.495 125.69 138.163 125.69Z" fill="#E19974"/>
<path d="M187.394 84.6816H183.992V139.589H187.394V84.6816Z" fill="#935B50"/>
<path d="M193.321 82.0269H92.2564C91.9325 82.0269 91.6699 82.294 91.6699 82.6236V84.0849C91.6699 84.4145 91.9325 84.6817 92.2564 84.6817H193.321C193.645 84.6817 193.907 84.4145 193.907 84.0849V82.6236C193.907 82.294 193.645 82.0269 193.321 82.0269Z" fill="#935B50"/>
<path d="M101.857 84.6816H98.4551V139.589H101.857V84.6816Z" fill="#935B50"/>
<path d="M95.7403 84.6816H190.068V91.5612C190.068 91.8777 189.945 92.1813 189.725 92.4051C189.505 92.629 189.207 92.7547 188.895 92.7547H96.9133C96.6022 92.7547 96.3038 92.629 96.0838 92.4051C95.8638 92.1813 95.7402 91.8777 95.7402 91.5612L95.7403 84.6816Z" fill="#C38F86"/>
<path d="M121.597 130.003L123.935 97.7958C124.192 95.1877 127.317 93.0646 129.895 93.3318C132.459 93.5929 135.642 95.5584 135.385 98.1682L130.883 130.949C130.639 133.427 121.34 132.612 121.597 130.003Z" fill="#065EA5"/>
<path d="M151.777 130.116L148.442 97.9999C148.104 95.4013 144.915 93.3796 142.347 93.7294C139.792 94.0726 136.671 96.1393 137.01 98.7395L142.526 131.36C142.846 133.828 152.115 132.716 151.777 130.116Z" fill="#065EA5"/>
<path d="M189.207 81.8203C189.207 81.8203 196.52 35.4043 163.611 39.479V46.654" stroke="#FEC165" stroke-width="0.79412" stroke-linecap="round" stroke-linejoin="round"/>
<path d="M155.568 54.1388H172.231C171.99 52.0628 171.008 50.149 169.473 48.7603C167.937 47.3716 165.954 46.6045 163.9 46.6045C161.845 46.6045 159.862 47.3716 158.326 48.7603C156.791 50.149 155.809 52.0628 155.568 54.1388Z" fill="#FEC165"/>
<path d="M190.516 82.0269H180.214V81.6491C180.214 81.5614 180.248 81.4772 180.309 81.4151C180.37 81.3531 180.453 81.3182 180.539 81.3182H190.19C190.277 81.3182 190.359 81.3531 190.42 81.4151C190.481 81.4772 190.516 81.5614 190.516 81.6491V82.0269Z" fill="#FEC165"/>
<path d="M178.642 82.0325H172.698L170.695 71.3223H180.645L178.642 82.0325Z" fill="#E19974"/>
<path d="M180.417 72.5449L180.645 71.3223H170.695L170.924 72.5449H180.417Z" fill="#D6694B"/>
<path d="M174.428 77.8587L173.172 76.5811L171.916 77.8587L173.172 79.1363L174.428 77.8587Z" fill="#D6694B"/>
<path d="M176.941 77.8587L175.686 76.5811L174.43 77.8587L175.686 79.1363L176.941 77.8587Z" fill="#D6694B"/>
<path d="M179.424 77.8587L178.168 76.5811L176.912 77.8587L178.168 79.1363L179.424 77.8587Z" fill="#D6694B"/>
<path d="M177.986 62.3091C177.986 62.3091 178.508 69.8121 175.448 71.4021C175.448 71.4021 174.389 68.5575 177.986 62.3091Z" fill="#558031"/>
<path d="M168.113 65.5322C168.113 65.5322 173.118 66.4109 175.448 71.4023C175.448 71.4023 169.944 69.5004 168.113 65.5322Z" fill="#849F4C"/>
<path d="M169.889 75.3597C169.889 75.3597 172.434 71.4852 175.449 71.4019C175.449 71.4019 174.995 74.5215 169.889 75.3597Z" fill="#A6B862"/>
<path d="M173.027 63.3784C173.027 63.3784 176.559 66.6593 175.448 71.402C175.448 71.402 173.491 69.292 173.027 63.3784Z" fill="#849F4C"/>
<path d="M175.449 71.4021C175.449 71.4021 176.69 66.7808 182.963 65.5957C182.963 65.5957 181.551 69.8036 175.449 71.4021Z" fill="#A6B862"/>
<path d="M184.624 70.1942C184.624 70.1942 179.838 68.1867 175.449 71.4022C175.449 71.4022 181.284 72.115 184.624 70.1942Z" fill="#849F4C"/>
<path d="M184.581 74.8673C184.581 74.8673 182.27 71.1013 175.449 71.4018L184.581 74.8673Z" fill="#558031"/>
<path d="M165.535 70.7925C165.535 70.7925 171.82 68.4213 175.53 71.2887C175.53 71.2887 172.008 73.2626 165.535 70.7925Z" fill="#558031"/>
<path d="M170.691 63.9263C170.691 63.9263 176.3 67.9621 175.495 71.4053C175.495 71.4053 171.604 68.2311 170.691 63.9263Z" fill="#558031"/>
<path d="M180.529 75.4189C180.529 75.4189 175.905 74.6158 175.449 71.4019C175.449 71.4019 178.827 71.5721 180.529 75.4189Z" fill="#849F4C"/>
<path d="M164.939 80.5215V80.6632C164.939 81.0245 164.798 81.3709 164.547 81.6264C164.295 81.8819 163.955 82.0255 163.6 82.0256H159.577C159.222 82.0255 158.882 81.8819 158.631 81.6264C158.38 81.3709 158.238 81.0245 158.238 80.6632V75.1481C158.238 74.7868 158.38 74.4403 158.631 74.1848C158.882 73.9294 159.222 73.7858 159.577 73.7856H163.6C163.955 73.7858 164.295 73.9294 164.547 74.1848C164.798 74.4403 164.939 74.7868 164.939 75.1481V80.5215Z" fill="#F65B2B"/>
<path d="M167.159 75.1914H164.941V76.0089H166.757V79.7038H164.941V80.5212H167.159C167.212 80.5213 167.264 80.5108 167.313 80.4903C167.361 80.4698 167.406 80.4397 167.443 80.4017C167.48 80.3637 167.51 80.3186 167.53 80.269C167.55 80.2194 167.561 80.1662 167.561 80.1125V75.6001C167.561 75.5464 167.55 75.4933 167.53 75.4436C167.51 75.394 167.48 75.3489 167.443 75.311C167.406 75.273 167.361 75.2429 167.313 75.2224C167.264 75.2019 167.212 75.1913 167.159 75.1914Z" fill="#E5CAF3"/>
<path d="M162.986 76.606H161.858C161.71 76.606 161.59 76.728 161.59 76.8784V78.0268C161.59 78.1773 161.71 78.2992 161.858 78.2992H162.986C163.134 78.2992 163.254 78.1773 163.254 78.0268V76.8784C163.254 76.728 163.134 76.606 162.986 76.606Z" fill="#FFBA55"/>
<path d="M162.422 76.6065V73.7856" stroke="#E5CAF3" stroke-width="0.92034" stroke-miterlimit="10"/>
<path d="M129.586 55.8057C129.356 56.3072 129.114 56.7984 128.876 57.2909L128.168 58.7675C127.933 59.2591 127.708 59.7549 127.493 60.255C127.275 60.7564 127.085 61.2694 126.922 61.7918C126.974 61.2387 127.093 60.6942 127.277 60.171C127.451 59.646 127.659 59.133 127.898 58.6352C128.136 58.1379 128.39 57.6494 128.675 57.1788C128.952 56.7033 129.256 56.2448 129.586 55.8057Z" fill="#E6952A"/>
<path d="M144.689 66.187C144.872 66.6804 145.023 67.1818 145.169 67.6844C145.318 68.1861 145.444 68.6936 145.57 69.201C145.69 69.7102 145.808 70.2196 145.904 70.7346C146.003 71.2488 146.098 71.7642 146.16 72.2877C145.977 71.7944 145.826 71.293 145.68 70.7905C145.531 70.2887 145.405 69.7812 145.279 69.2737C145.16 68.7644 145.041 68.255 144.946 67.74C144.846 67.2258 144.752 66.7104 144.689 66.187Z" fill="#E6952A"/>
<path d="M131.385 73.6113C131.828 74.1867 132.316 74.7241 132.845 75.2183C133.369 75.7102 133.933 76.1561 134.53 76.5513C135.123 76.9526 135.753 77.2941 136.411 77.5708C137.074 77.8496 137.759 78.0737 138.458 78.2409C137.731 78.1874 137.015 78.0358 136.328 77.79C135.982 77.6704 135.644 77.5287 135.315 77.3659C134.99 77.1957 134.673 77.009 134.366 76.8065C133.753 76.4013 133.188 75.9242 132.684 75.3851C132.175 74.8557 131.738 74.2591 131.385 73.6113Z" fill="#E6952A"/>
<path d="M131.381 76.3721C131.679 76.6732 132.01 76.9395 132.367 77.166C132.715 77.4005 133.08 77.6086 133.458 77.7885C134.215 78.1443 135.006 78.422 135.817 78.6178L136.427 78.7627L137.045 78.8677C137.454 78.9575 137.875 78.9686 138.29 79.0341C138.707 79.0758 139.127 79.0901 139.547 79.1209C139.967 79.133 140.389 79.133 140.812 79.1535C140.393 79.2021 139.97 79.2319 139.547 79.2706C139.124 79.27 138.699 79.2819 138.274 79.2684C137.422 79.2353 136.575 79.1166 135.746 78.9141C134.913 78.7135 134.109 78.4053 133.354 77.9969C132.592 77.6006 131.92 77.0472 131.381 76.3721Z" fill="#E6952A"/>
<path d="M126.68 80.3213H104.469C103.902 80.3213 103.357 80.1038 102.941 79.7123C102.525 79.3207 102.27 78.784 102.226 78.2092L101.075 63.1171C101.051 62.8025 101.091 62.4863 101.193 62.1882C101.295 61.8902 101.456 61.6168 101.667 61.3852C101.878 61.1536 102.133 60.9689 102.417 60.8425C102.701 60.7161 103.008 60.6509 103.318 60.6509H127.83C128.14 60.6509 128.447 60.7161 128.731 60.8425C129.016 60.9689 129.271 61.1536 129.482 61.3852C129.692 61.6168 129.854 61.8902 129.955 62.1882C130.057 62.4863 130.097 62.8025 130.073 63.1171L128.923 78.2092C128.879 78.784 128.623 79.3207 128.208 79.7123C127.792 80.1038 127.246 80.3213 126.68 80.3213Z" fill="#A2AEE6"/>
<path d="M115.575 71.3922C116.927 71.3922 118.023 70.9865 118.023 70.4861C118.023 69.9857 116.927 69.5801 115.575 69.5801C114.223 69.5801 113.127 69.9857 113.127 70.4861C113.127 70.9865 114.223 71.3922 115.575 71.3922Z" fill="#4F66D0"/>
<path d="M127.523 80.3213H103.629C103.166 80.3213 102.791 80.7031 102.791 81.1742C102.791 81.6452 103.166 82.0271 103.629 82.0271H127.523C127.986 82.0271 128.361 81.6452 128.361 81.1742C128.361 80.7031 127.986 80.3213 127.523 80.3213Z" fill="#4F66D0"/>
<path d="M151.787 77.5396C151.982 77.9366 152.216 78.3118 152.488 78.6588C152.743 78.9964 153.069 79.2721 153.442 79.4662C153.813 79.6521 154.235 79.7072 154.641 79.6229C154.851 79.5879 155.058 79.533 155.258 79.459C155.462 79.3839 155.654 79.2763 155.864 79.1956C155.691 79.3342 155.51 79.4703 155.321 79.5946C155.122 79.7085 154.909 79.7963 154.689 79.8559C154.577 79.8897 154.463 79.9132 154.348 79.9261L153.995 79.9333C153.759 79.9079 153.528 79.8431 153.313 79.7416C152.898 79.526 152.548 79.2002 152.3 78.7987C152.051 78.4161 151.877 77.9887 151.787 77.5396Z" fill="#DD765E"/>
<path d="M135.939 50.1473C135.993 50.0649 136.065 49.9968 136.149 49.9486C136.234 49.9004 136.329 49.8735 136.426 49.8701C136.525 49.8692 136.624 49.8948 136.711 49.9445C136.794 49.9924 136.864 50.0625 136.911 50.1473C136.763 50.0663 136.598 50.0235 136.429 50.0225C136.26 50.0324 136.094 50.0747 135.939 50.1473Z" fill="#DD765E"/>
<path d="M135.939 51.6568C136.056 51.3832 136.157 51.1025 136.24 50.8164C136.284 50.6762 136.32 50.5332 136.347 50.3883C136.381 50.2435 136.397 50.0962 136.425 49.9443C136.488 50.2482 136.473 50.5632 136.383 50.8597C136.3 51.1576 136.148 51.4309 135.939 51.6568Z" fill="#DD765E"/>
<path d="M149.301 50.8619C149.531 50.615 149.709 50.3225 149.823 50.0027C149.938 49.6828 149.986 49.3425 149.966 49.0028C149.946 48.663 149.857 48.3312 149.705 48.0279C149.554 47.7245 149.342 47.4561 149.084 47.2394C148.989 47.1566 148.89 47.0693 148.786 46.9773C147.82 46.1181 147.826 45.6326 147.062 45.1084C145.969 44.2693 144.597 43.899 143.239 44.0769C141.918 44.1201 141.429 42.8912 139.758 43.2942C137.727 43.7839 137.49 44.004 136.424 44.6689C134.927 45.6024 134.902 48.9323 135.814 49.4157C136.35 49.6999 137.1 48.9417 137.416 49.259C137.732 49.5763 137.277 50.6306 136.91 51.4814C136.652 52.0787 136.281 52.7074 136.182 52.9836L135.393 53.9306C135.393 53.9306 133.805 58.4588 137.299 61.3386C140.79 64.2184 145.131 59.2142 145.131 59.2142V57.8162C144.076 58.0762 143.026 57.7492 142.166 57.4608C140.992 57.0482 139.948 56.3253 139.139 55.3662C138.591 54.7472 138.164 54.2214 137.854 53.8202C137.688 53.605 137.572 53.3542 137.514 53.0866C137.457 52.8191 137.461 52.5418 137.525 52.2758C137.616 51.8206 137.735 51.3718 137.882 50.932C138.158 50.1487 138.378 49.525 138.908 49.2838C139.377 49.0705 139.625 49.3669 140.474 49.4486C141.861 49.5822 142.179 48.8842 143.336 49.0091C143.751 49.0539 143.805 49.154 145.442 50.053C147.868 51.3858 148.174 51.3996 148.411 51.3715C148.755 51.3066 149.068 51.1273 149.301 50.8619ZM138.44 57.3234C138.872 57.2761 139.245 57.305 140.193 57.8162C140.661 58.1148 141.111 58.443 141.538 58.7988C142.147 59.22 142.007 59.5729 142.004 59.6309C141.983 59.9651 141.356 60.2322 140.852 60.2901C140.226 60.3619 139.731 60.0948 138.764 59.5576C137.959 59.1104 137.555 58.88 137.504 58.532C137.494 58.2504 137.582 57.9742 137.754 57.7528C137.925 57.5314 138.168 57.3792 138.44 57.3234Z" fill="#1E1D22"/>
<path d="M148.575 59.4352C148.551 59.0638 148.64 58.3427 149.132 56.9594C149.773 55.1564 150.414 52.8445 150.742 51.6134C150.814 51.3439 150.828 51.0618 150.784 50.7862C150.74 50.5105 150.638 50.2477 150.486 50.0154L148.829 47.4868C148.803 47.448 148.769 47.4162 148.728 47.3946C148.687 47.3729 148.642 47.362 148.596 47.3628C148.55 47.3637 148.505 47.3763 148.465 47.3994C148.426 47.4226 148.392 47.4556 148.368 47.4953L148.252 47.6874C148.224 47.7327 148.21 47.7851 148.211 47.8384C148.212 47.8916 148.228 47.9435 148.257 47.9878L149.672 50.1468L148.272 49.0249C148.234 48.9939 148.187 48.9746 148.138 48.9692C148.089 48.9638 148.04 48.9726 147.996 48.9944C147.951 49.0163 147.914 49.0504 147.888 49.0929C147.862 49.1354 147.848 49.1845 147.848 49.2346C147.844 49.2788 147.851 49.3233 147.868 49.3643C147.884 49.4054 147.91 49.4417 147.944 49.4704L148.938 50.3265C149.031 50.4066 149.104 50.5086 149.149 50.6236C149.195 50.7386 149.212 50.8631 149.2 50.9865L149.138 51.6035C149.088 52.0795 148.936 52.5386 148.693 52.9481C148.449 53.3577 148.12 53.7077 147.728 53.9733C147.146 54.3718 146.622 54.8522 146.172 55.4001C145.512 56.2183 145.072 57.1961 144.893 58.2388C144.714 59.2814 144.803 60.3534 145.151 61.3507L145.19 61.4645L149.942 78.6223C150.079 79.1175 150.325 79.5745 150.662 79.9585L151.325 80.7151C151.637 81.0712 152.02 81.3562 152.448 81.5513C152.876 81.7464 153.34 81.8473 153.809 81.8473C154.609 81.8473 155.383 81.5539 155.988 81.0207C156.593 80.4876 156.989 79.7505 157.104 78.9445L157.222 78.1073C157.332 77.3329 157.175 76.5436 156.778 75.8736C154.938 72.7686 149.543 63.4598 148.575 59.4352Z" fill="#F9977A"/>
<path d="M149.672 50.147C149.825 50.2954 149.973 50.447 150.118 50.6016L150.133 50.6168L150.128 50.6411C150.009 51.1981 149.873 51.7504 149.723 52.2989C149.574 52.8477 149.414 53.3934 149.223 53.9308C149.32 53.3679 149.447 52.8132 149.586 52.2618C149.724 51.71 149.877 51.1624 150.046 50.6189L150.055 50.6582C149.924 50.491 149.796 50.3206 149.672 50.147Z" fill="#DD765E"/>
<path d="M141.558 52.8273C141.641 52.4757 141.482 52.1357 141.204 52.0679C140.926 52.0001 140.633 52.2301 140.55 52.5817C140.467 52.9333 140.626 53.2732 140.904 53.341C141.182 53.4088 141.475 53.1788 141.558 52.8273Z" fill="#1E1D22"/>
<path d="M140.193 50.9122C140.193 50.9122 141.954 50.5937 142.884 51.399" stroke="#1E1D22" stroke-width="1.04747" stroke-linecap="round" stroke-linejoin="round"/>
<path d="M143.238 53.396C143.008 53.8052 142.894 54.2713 142.909 54.7424C142.902 55.2104 142.948 55.6777 143.045 56.1352L143.135 56.4828C143.178 56.6296 143.163 56.788 143.092 56.9232C143.02 57.0476 142.914 57.1482 142.787 57.213C142.672 57.2752 142.548 57.3169 142.419 57.3361C142.173 57.3529 141.926 57.314 141.697 57.2223C141.467 57.1306 141.261 56.9882 141.092 56.8056C141.468 57.0696 141.926 57.1842 142.38 57.1277C142.479 57.1099 142.573 57.0719 142.657 57.016C142.741 56.9601 142.813 56.8876 142.868 56.8027C142.888 56.7631 142.899 56.7198 142.901 56.6756C142.903 56.6315 142.896 56.5873 142.881 56.5459L142.785 56.2005C142.684 55.72 142.656 55.2265 142.702 54.7373C142.722 54.2403 142.911 53.766 143.238 53.396Z" fill="#DD765E"/>
<path d="M139.498 52.0865C139.734 51.9367 139.999 51.8386 140.275 51.7985C140.55 51.7583 140.831 51.7769 141.099 51.8532C141.638 51.9995 142.109 52.334 142.43 52.7979C142.194 52.6579 141.971 52.5198 141.739 52.4064C141.511 52.2914 141.273 52.2004 141.028 52.1348C140.783 52.0695 140.532 52.0332 140.279 52.0267C140.017 52.018 139.756 52.038 139.498 52.0865Z" fill="#1E1D22"/>
<path d="M145.104 54.7082C145.284 54.3967 145.231 54.0244 144.984 53.8767C144.738 53.729 144.392 53.8618 144.211 54.1733C144.031 54.4848 144.085 54.857 144.331 55.0048C144.578 55.1525 144.924 55.0197 145.104 54.7082Z" fill="#1E1D22"/>
<path d="M146.499 53.7588C146.499 53.7588 145.45 52.286 144.23 52.2085" stroke="#1E1D22" stroke-width="1.04747" stroke-linecap="round" stroke-linejoin="round"/>
<path d="M146.199 55.095C146.047 54.8782 145.872 54.6788 145.678 54.5002C145.491 54.3263 145.286 54.175 145.065 54.0492C144.843 53.9231 144.61 53.8203 144.368 53.7425C144.123 53.6602 143.869 53.6021 143.604 53.5363C144.151 53.429 144.718 53.521 145.206 53.796C145.451 53.9306 145.666 54.1156 145.837 54.3392C146.008 54.5628 146.131 54.8202 146.199 55.095Z" fill="#1E1D22"/>
<path d="M144.971 57.8517C145.064 57.1048 145.314 56.3873 145.705 55.7483C145.903 55.429 146.141 55.137 146.412 54.8795C146.684 54.6251 146.995 54.4176 147.333 54.2651C147.028 54.4656 146.746 54.6999 146.492 54.9637C146.241 55.2262 146.02 55.5166 145.832 55.8294C145.639 56.14 145.472 56.4663 145.332 56.805C145.189 57.1454 145.068 57.4951 144.971 57.8517Z" fill="#DD765E"/>
<path d="M137.99 57.8516C138.219 58.5352 138.695 59.1041 139.322 59.4418C139.95 59.7794 140.68 59.8603 141.364 59.6678" fill="#1E1D22"/>
<path d="M112.498 133.101H110.741C110.317 133.101 109.973 133.451 109.973 133.882V138.548C109.973 138.98 110.317 139.33 110.741 139.33H112.498C112.922 139.33 113.266 138.98 113.266 138.548V133.882C113.266 133.451 112.922 133.101 112.498 133.101Z" fill="#D6694B"/>
<path d="M161.031 139.33H162.788C163.213 139.33 163.557 138.98 163.557 138.548V133.882C163.557 133.45 163.213 133.1 162.788 133.1H161.031C160.607 133.1 160.263 133.45 160.263 133.882V138.548C160.263 138.98 160.607 139.33 161.031 139.33Z" fill="#D6694B"/>
<path d="M124.48 115.2C124.568 115.671 124.643 116.142 124.74 116.61C124.825 117.079 124.914 117.546 125.015 118.011C125.218 118.94 125.421 119.867 125.683 120.775C125.927 121.686 126.241 122.576 126.62 123.437C126.809 123.866 127.037 124.276 127.301 124.663C127.558 125.058 127.88 125.406 128.253 125.69C127.828 125.467 127.45 125.161 127.142 124.789C126.838 124.413 126.569 124.01 126.339 123.583C125.891 122.728 125.539 121.825 125.289 120.89C125.033 119.963 124.838 119.02 124.706 118.067C124.566 117.118 124.49 116.16 124.48 115.2Z" fill="#065082"/>
<path d="M125.578 110.555C125.665 111.027 125.741 111.498 125.838 111.965C125.922 112.434 126.012 112.902 126.112 113.367C126.315 114.295 126.519 115.222 126.78 116.131C127.025 117.041 127.338 117.931 127.718 118.793C127.907 119.222 128.135 119.632 128.398 120.018C128.655 120.414 128.977 120.761 129.351 121.045C128.926 120.823 128.548 120.516 128.24 120.144C127.935 119.769 127.666 119.365 127.437 118.938C126.989 118.083 126.637 117.18 126.387 116.245C126.13 115.319 125.935 114.376 125.804 113.422C125.663 112.473 125.588 111.515 125.578 110.555Z" fill="#065082"/>
<path d="M194.615 140.163H5.39199C5.28337 140.163 5.17919 140.119 5.10238 140.041C5.02557 139.963 4.98242 139.857 4.98242 139.746C4.98242 139.636 5.02557 139.53 5.10238 139.452C5.17919 139.374 5.28337 139.33 5.39199 139.33H194.615C194.723 139.33 194.827 139.374 194.904 139.452C194.981 139.53 195.024 139.636 195.024 139.746C195.024 139.857 194.981 139.963 194.904 140.041C194.827 140.119 194.723 140.163 194.615 140.163Z" fill="#935B50"/>
</svg>
