<svg width="200" height="114" viewBox="0 0 200 114" fill="none" xmlns="http://www.w3.org/2000/svg">
<g clip-path="url(#clip0_494_21734)">
<path opacity="0.11" d="M94.6465 113.339C118.809 113.339 138.396 112.121 138.396 110.618C138.396 109.114 118.809 107.896 94.6465 107.896C70.484 107.896 50.8965 109.114 50.8965 110.618C50.8965 112.121 70.484 113.339 94.6465 113.339Z" fill="#2A94F4"/>
<path d="M61.3127 108.82C61.3127 108.82 42.9377 105.699 41.3856 76.2427C39.8335 46.786 58.9273 32.9352 76.5314 39.0409C82.5314 41.1217 88.8127 35.5309 80.9377 27.0291C72.4064 17.8233 84.1773 -8.78547 127.667 2.94255C160.823 11.8857 149.959 35.3102 138.219 52.4188C127.552 67.9511 150.844 63.3271 149.25 90.6294C147.427 121.978 61.3127 108.82 61.3127 108.82Z" fill="#0085A1"/>
<path d="M78.1758 64.525H54.832L55.2799 37.4119H77.8424L78.1758 64.525Z" fill="#F7F7F7"/>
<path d="M53.6348 64.5249H103.958V67.9508H53.6348V64.5249ZM69.8848 77.4614H87.6973V79.4582H69.8848V77.4614Z" fill="#606060"/>
<path d="M53.6348 111.038L75.3118 65.9121L77.5827 67.0261L56.4264 111.048L53.6348 111.038ZM103.947 111.038L82.2702 65.9121L80.0098 67.0261L101.156 111.048L103.947 111.038Z" fill="#606060"/>
<path d="M66.6869 59.176C71.5826 59.176 75.5514 55.492 75.5514 50.9475C75.5514 46.403 71.5826 42.719 66.6869 42.719C61.7911 42.719 57.8223 46.403 57.8223 50.9475C57.8223 55.492 61.7911 59.176 66.6869 59.176Z" fill="#2A94F4"/>
<path d="M66.6875 50.9475H75.5521C75.5521 52.6815 74.9583 54.3734 73.8646 55.7711C72.7708 57.1793 71.2188 58.2197 69.4479 58.7557L66.6875 50.9475Z" fill="#CCE9FF"/>
<path d="M66.6862 50.9475L60.7695 44.8208C62.3945 43.4756 64.4987 42.719 66.6862 42.719C71.5508 42.719 75.5508 46.4287 75.5508 50.9475V50.9896L66.6862 50.9475Z" fill="#0B4870"/>
<path d="M100.541 64.5249H80.8223L81.1973 50.4219H100.249L100.541 64.5249Z" fill="#F7F7F7"/>
<path d="M86.1758 54.5625H88.3216V62.8436H86.1758V54.5625ZM89.8529 55.5503H91.9987V62.8541H89.8529V55.5503Z" fill="#0B4870"/>
<path d="M93.5195 53.5117H95.6654V62.8437H93.5195V53.5117Z" fill="#FBB500"/>
<path d="M84.3633 52.5974H84.5924V62.9593H84.3633V52.5974Z" fill="#0B4870"/>
<path d="M84.3646 62.8435H98.6875V63.0222H84.3646V62.8435ZM56.6875 60.0166H57.4688V60.8048H56.6875V60.0166ZM57.9063 60.2898H60.9167V60.5421H57.9063V60.2898ZM57.9063 61.6455H60.9167V61.8977H57.9063V61.6455ZM57.9063 63.0117H60.9167V63.2639H57.9063V63.0117Z" fill="#0B4870"/>
<path d="M56.6875 61.3828H57.4687V62.171H56.6875V61.3828Z" fill="#2A94F4"/>
<path d="M56.6875 62.7385H57.4687V63.5267H56.6875V62.7385Z" fill="#CCE9FF"/>
<path d="M113.833 23.666L100.229 19.3573C102.468 12.1376 109.999 7.87099 117.281 9.69955C124.874 11.6017 129.562 19.4729 127.676 27.1339C125.791 34.795 117.989 39.524 110.395 37.6219C108.822 37.2331 107.333 36.571 105.979 35.6672L113.833 23.666Z" fill="#FBB500"/>
<path d="M110.291 25.0743L102.281 37.4118C99.6348 35.6674 97.6244 33.0927 96.541 30.0976C95.4681 27.092 95.3848 23.8237 96.3119 20.7656L110.291 25.0743Z" fill="#FBB500"/>
<path d="M119 58.8815L116.375 56.9268L136.979 28.7417C137.385 28.1848 138.167 28.0587 138.729 28.479L139.344 28.9414C139.896 29.3513 140.021 30.1394 139.604 30.7069L119 58.8815Z" fill="#F2F2F2"/>
<path d="M120.323 60.1529L117.812 58.0406L140.052 31.1482C140.49 30.6122 141.281 30.5386 141.813 30.9905L142.396 31.4845C142.927 31.9258 143 32.7245 142.552 33.2605L120.323 60.1529Z" fill="#F7F7F7"/>
<path d="M139.684 29.9907C139.827 29.7727 139.459 29.2747 138.864 28.8783C138.269 28.482 137.67 28.3375 137.528 28.5555C137.385 28.7735 137.752 29.2715 138.348 29.6678C138.943 30.0642 139.541 30.2087 139.684 29.9907Z" fill="#D3D3D3"/>
<path d="M142.657 32.5786C142.799 32.3606 142.432 31.8626 141.837 31.4662C141.241 31.0699 140.643 30.9253 140.5 31.1434C140.358 31.3614 140.725 31.8594 141.32 32.2557C141.916 32.652 142.514 32.7966 142.657 32.5786Z" fill="#D3D3D3"/>
<path d="M128.051 105.72L128.395 107.874C128.531 108.736 128.031 109.566 127.208 109.839L123.541 111.059H132.093L131.062 105.72H128.051Z" fill="#FCD2B1"/>
<path d="M131.874 109.84L127.645 109.619C127.645 109.619 122.322 110.449 122.291 111.616H132.843L131.874 109.84Z" fill="#0E538C"/>
<path d="M105.343 105.72L104.468 108.421C104.281 109.009 103.812 109.472 103.229 109.671L99.0723 111.059H107.624L108.833 105.72H105.343Z" fill="#FCD2B1"/>
<path d="M107.792 109.84L103.167 109.619C103.167 109.619 97.8437 110.449 97.8125 111.616H108.365L107.792 109.84Z" fill="#0E538C"/>
<path d="M126.906 55.897C126.906 55.897 128.989 57.2947 129.593 62.6542C130.197 68.0138 129.354 71.9021 129.833 75.0338C130.312 78.1655 131.249 106.624 131.249 106.624H126.708L119.135 55.9285L126.906 55.897Z" fill="#FBB500"/>
<path d="M117.02 55.3191H125.061C125.061 55.3191 126.051 61.3618 124.311 64.8928C122.561 68.4238 121.624 69.3696 121.124 71.4188C120.624 73.4681 108.52 106.624 108.52 106.624H104.645L117.02 55.3191Z" fill="#FBB500"/>
<path d="M128.615 38.2944C128.615 38.2944 136.698 49.9174 135.771 53.0595C134.844 56.2017 125.562 52.7233 125.562 52.7233V50.7686L131.917 51.5778L127.094 43.2547L128.615 38.2944Z" fill="#FCD2B1"/>
<path d="M114.854 44.3686C115.334 41.8674 118.209 38.1262 118.209 38.1262H129.594L126.594 53.8792C126.396 54.888 128.875 55.9389 126.198 55.9389H116.907C116.448 55.9389 116.084 55.5711 116.084 55.1087V49.4339C116.084 48.6772 115.875 47.9206 115.448 47.29C114.74 46.2076 114.719 45.0727 114.854 44.3686Z" fill="#2A94F4"/>
<path d="M120.04 29.5508L119.02 31.9889C119.02 31.9889 118.415 33.7964 118.77 34.8578C119.176 36.0769 120.988 36.0663 120.988 36.0663L120.447 39.0404H125.061V29.6349L120.04 29.5508Z" fill="#FFE3CA"/>
<path d="M120.301 30.5492C119.468 29.9817 119.312 28.8257 119.958 28.0481C120.864 26.9656 122.426 25.6625 124.645 25.8202C126.833 25.9778 128.937 27.3335 128.989 30.4967C129.02 32.609 129.541 34.0697 131.02 36.718C132.406 39.2086 130.187 42.0145 130.499 44.316C130.812 46.6174 131.187 46.5754 131.249 48.5721C131.489 56.4223 123.989 56.1491 120.176 55.8758C116.437 55.6026 115.051 47.8154 117.624 44.8204C120.197 41.8253 119.333 38.3994 119.593 36.9912C120.218 33.5758 121.822 32.9032 121.572 31.1902C121.103 31.0431 120.666 30.8014 120.301 30.5492Z" fill="#0E538C"/>
<path d="M97.9259 26.0938C97.9051 23.7187 99.8218 24.654 99.926 25.1164C99.9468 25.211 100.176 25.2741 100.27 25.9677C100.363 26.6508 100.863 27.5861 100.957 27.3443C101.145 26.8609 101.374 26.1568 101.541 26.3145C102.061 26.8399 101.77 27.8278 101.509 28.4373C101.363 28.7841 101.416 29.1834 101.645 29.4777L108.509 38.1266H118.072C120.041 38.5154 119.072 42.6559 116.707 42.5613C114.634 42.4773 109.27 42.2461 106.926 40.7643C104.582 39.272 99.4989 28.9732 99.4989 28.9732C98.4572 28.1746 97.9259 26.2829 97.9259 26.0938Z" fill="#FCD2B1"/>
</g>
<defs>
<clipPath id="clip0_494_21734">
<rect width="200" height="113.497" fill="white"/>
</clipPath>
</defs>
</svg>
