<svg width="200" height="204" viewBox="0 0 200 204" fill="none" xmlns="http://www.w3.org/2000/svg">
<path d="M29.0488 144.042C39.6588 149.702 48.8219 158.617 58.5524 177.198C58.5524 177.198 80.4815 210.895 137.786 183.012C156.737 173.786 174.751 159.987 188.794 144.042H29.0488Z" fill="#CCE9FF"/>
<path d="M55.0639 131.974C55.0639 131.974 66.8937 148.642 56.6809 157.377C46.4681 166.086 45.3901 156.266 45.3901 156.266C45.3901 156.266 39.9717 156.55 50.8369 145.412C55.9717 140.166 55.0639 131.974 55.0639 131.974Z" fill="#0E538C"/>
<path d="M30.1272 102.644C30.1272 102.644 18.0705 115.565 34.1839 133.422C50.2974 151.304 47.8009 160.762 47.8009 160.762C47.8009 160.762 70.269 129.675 30.1272 102.644Z" fill="#2A94F4"/>
<path d="M45.4175 159.935C52.9069 161.305 46.836 141.433 35.6019 135.386C24.3395 129.339 14.2969 128.744 7.9707 122.904C7.99907 122.904 8.48134 153.139 45.4175 159.935Z" fill="#FFBE55"/>
<path d="M169.446 132.026H82.2121C81.2192 132.026 80.3965 131.276 80.3965 130.372V13.0758C80.3965 12.1713 81.2192 11.4219 82.2121 11.4219H169.446C170.439 11.4219 171.262 12.1713 171.262 13.0758V130.372C171.262 131.302 170.439 132.026 169.446 132.026Z" fill="#0E538C"/>
<path d="M169.447 132.026H82.2129L171.263 13.0762V130.372C171.263 131.303 170.44 132.026 169.447 132.026Z" fill="#0E538C"/>
<path d="M156.879 89.5161H161.588V122.154H156.879V89.5161Z" fill="#CCE9FF"/>
<path d="M147.604 93.1602H152.313V122.129H147.604V93.1602Z" fill="#FFBE55"/>
<path d="M137.475 97.915H142.184V122.129H137.475V97.915Z" fill="#CCE9FF"/>
<path d="M127.121 103.91H131.83V122.129H127.121V103.91ZM105.816 106.262L104.795 105.926L113.674 83.2368L132.937 78.6111L139.859 53.6995L154.696 47.7301L158.043 28.3745L159.093 28.5296L155.689 48.4278L140.767 54.4231L133.816 79.4122L114.525 84.0637L105.816 106.262Z" fill="#FFBE55"/>
<path d="M135.632 77.3447C136.653 78.4817 136.455 80.1356 135.235 81.0401C133.987 81.9704 132.171 81.7895 131.178 80.6783C130.157 79.5671 130.355 77.8874 131.575 76.9829C132.795 76.0526 134.611 76.2077 135.632 77.3447Z" fill="white"/>
<path d="M135.547 81.4277C134.072 82.513 131.916 82.3321 130.724 80.9884C129.533 79.6446 129.731 77.6806 131.207 76.5952C132.682 75.5099 134.838 75.6908 136.029 77.0346C137.249 78.3525 137.022 80.3423 135.547 81.4277ZM131.887 77.3447C130.895 78.0941 130.724 79.4379 131.547 80.3423C132.37 81.2468 133.845 81.4018 134.838 80.6524C135.831 79.903 136.001 78.5592 135.178 77.6548C134.384 76.7503 132.909 76.5952 131.887 77.3447Z" fill="#FFBE55"/>
<path d="M142.638 52.5366C143.659 53.6736 143.461 55.3275 142.241 56.232C140.992 57.1623 139.177 56.9814 138.184 55.8702C137.163 54.7331 137.361 53.0793 138.581 52.1748C139.801 51.2445 141.617 51.4254 142.638 52.5366Z" fill="white"/>
<path d="M142.553 56.6196C141.078 57.7049 138.922 57.524 137.73 56.1803C136.539 54.8365 136.737 52.8725 138.212 51.7871C139.688 50.7018 141.844 50.8827 143.035 52.2265C144.255 53.5702 144.028 55.5342 142.553 56.6196ZM138.893 52.5624C137.9 53.3118 137.73 54.6556 138.553 55.5601C139.376 56.4645 140.851 56.6196 141.844 55.8702C142.837 55.1207 143.007 53.777 142.184 52.8725C141.39 51.9422 139.915 51.813 138.893 52.5624Z" fill="#FFBE55"/>
<path d="M157.247 46.4121C158.269 47.5491 158.07 49.203 156.85 50.1075C155.602 51.0378 153.786 50.8569 152.793 49.7457C151.772 48.6086 151.971 46.9548 153.191 46.0503C154.41 45.12 156.254 45.275 157.247 46.4121Z" fill="white"/>
<path d="M157.192 50.4951C155.716 51.5804 153.56 51.3995 152.369 50.0558C151.177 48.712 151.376 46.748 152.851 45.6626C154.326 44.5773 156.482 44.7582 157.674 46.1019C158.865 47.4199 158.667 49.4097 157.192 50.4951ZM153.532 46.412C152.539 47.1615 152.369 48.5052 153.192 49.4097C154.014 50.3142 155.489 50.4692 156.482 49.7198C157.475 48.9704 157.645 47.6266 156.823 46.7222C156.028 45.7918 154.525 45.6626 153.532 46.412Z" fill="#FFBE55"/>
<path d="M116.454 82.2031C117.475 83.3401 117.277 84.994 116.057 85.8985C114.809 86.8288 112.993 86.6479 112 85.5367C111.007 84.4255 111.178 82.7458 112.397 81.8413C113.617 80.911 115.433 81.0919 116.454 82.2031Z" fill="white"/>
<path d="M116.369 86.2861C114.894 87.3714 112.738 87.1905 111.547 85.8468C110.355 84.503 110.554 82.539 112.029 81.4536C113.504 80.3683 115.66 80.5492 116.852 81.893C118.071 83.2367 117.844 85.2007 116.369 86.2861ZM112.71 82.2289C111.717 82.9783 111.547 84.3221 112.369 85.2266C113.192 86.131 114.667 86.2861 115.66 85.5367C116.653 84.7872 116.823 83.4435 116.001 82.539C115.206 81.6087 113.731 81.4795 112.71 82.2289Z" fill="#FFBE55"/>
<path d="M118.582 51.3217H90.4401C90.2132 51.3217 90.043 51.1667 90.043 50.96V46.2051C90.043 45.9983 90.2132 45.8433 90.4401 45.8433H118.582C118.809 45.8433 118.979 45.9983 118.979 46.2051V50.96C118.979 51.1408 118.809 51.3217 118.582 51.3217Z" fill="#CCE9FF"/>
<path d="M118.582 41.7607H90.4401C90.2132 41.7607 90.043 41.6057 90.043 41.3989V36.644C90.043 36.4373 90.2132 36.2822 90.4401 36.2822H118.582C118.809 36.2822 118.979 36.4373 118.979 36.644V41.3989C118.979 41.6057 118.809 41.7607 118.582 41.7607Z" fill="#2A94F4"/>
<path d="M84.8224 55.4824C84.8224 55.4824 83.9713 63.0282 85.5032 64.9147C85.5032 64.9147 81.4465 64.1136 80.5103 62.8474C79.6025 61.5553 84.8224 55.4824 84.8224 55.4824Z" fill="#FFBE55"/>
<path d="M110.1 79.5411C110.1 79.5411 111.575 78.6366 111.802 78.5074C112.029 78.3782 112.795 78.4041 113.646 78.4816C114.497 78.585 115.632 79.0501 115.689 79.1793C115.745 79.3085 115.887 79.3861 115.831 79.7479C115.774 80.0838 115.518 80.3681 115.518 80.3681C115.518 80.3681 115.66 80.8332 115.32 81.1175C115.32 81.1175 115.433 81.5568 114.979 81.841C114.979 81.841 115.093 82.2804 114.753 82.4612C114.753 82.4612 113.987 82.4354 113.703 82.5129C113.419 82.5905 111.859 82.4354 110.384 82.0995C110.384 82.0736 108.738 81.7635 110.1 79.5411Z" fill="#FFE3CA"/>
<path d="M109.219 79.6703C109.219 79.6703 110.156 79.5669 110.723 79.3343C111.29 79.1018 110.61 81.9444 110.61 81.9444C110.61 81.9444 109.219 81.0657 108.312 81.0399C107.432 81.0399 109.219 79.6703 109.219 79.6703Z" fill="#FFE3CA"/>
<path d="M70.9782 155.801C70.9782 155.801 73.8718 159.651 74.8647 160.452C74.8647 160.452 76.8789 161.408 76.9356 162.158C77.0491 163.605 77.1342 164.432 74.4959 164.509C71.8576 164.587 70.1838 164.509 69.7016 163.036C69.2193 161.563 68.3682 160.426 68.3682 160.426L68.1696 164.225H67.5739C67.5739 164.225 67.3186 160.401 67.2618 159.858C67.2335 159.315 66.8363 157.222 68.0845 156.292C69.3611 155.413 70.9782 155.801 70.9782 155.801Z" fill="#0B4870"/>
<path d="M75.2334 160.659C75.2334 160.659 73.815 161.021 72.0845 160.633C70.3823 160.245 68.737 156.524 68.2547 156.214L67.8008 154.715H71.1199C71.1199 154.715 71.1483 155.827 71.6873 156.783C72.2547 157.713 75.2334 160.659 75.2334 160.659Z" fill="#FFE3CA"/>
<path d="M89.7031 154.353C89.7031 154.353 90.1286 155.284 90.9513 156.266C91.547 156.989 93.4194 159.909 94.2421 160.116C95.0648 160.323 97.5896 160.736 97.8165 162.028C98.0435 163.321 98.157 164.225 95.6605 164.328C93.1641 164.432 91.5187 164.561 90.3272 162.959C89.1357 161.357 87.235 160.194 87.235 160.194V164.354H86.2421C86.2421 164.354 85.7882 160.013 85.5329 159.703C85.2775 159.393 84.5967 156.059 86.9229 154.328C89.2492 152.622 89.7031 154.353 89.7031 154.353Z" fill="#0B4870"/>
<path d="M94.2419 160.116C94.2419 160.116 92.0008 160.633 91.1497 160.116C90.2986 159.599 87.3766 155.103 86.4121 154.845C86.4121 154.845 87.3483 153.113 89.7029 154.379C89.7029 154.354 93.5894 159.367 94.2419 160.116Z" fill="#FFE3CA"/>
<path d="M69.703 91.9452C69.703 91.9452 66.5541 95.6922 65.703 100.111C64.8519 104.556 66.2136 119.441 66.1853 121.612C66.1569 123.808 64.0576 130.63 64.5115 134.765C64.9654 138.9 67.2916 156.136 67.2916 156.136L72.7668 156.033C72.7668 156.033 71.6604 137.427 71.9441 135.695C72.2278 133.964 73.1073 126.599 73.2207 125.876C73.3342 125.152 79.4619 106.287 79.4619 103.083C79.4619 99.8786 77.3058 86.7251 69.703 91.9452Z" fill="#FFBE55"/>
<path d="M85.5606 93.4182C85.5606 93.4182 90.7521 111.456 91.3479 113.937C91.972 116.443 93.1918 119.699 93.1351 120.165C93.0784 120.63 92.4826 128.331 92.4826 128.331L91.0074 154.534H85.5323C85.5323 154.534 83.7734 137.866 83.4897 134.507C83.206 131.147 85.5039 125.953 84.9365 124.506C84.3691 123.085 75.9153 106.623 75.9153 106.623C75.9153 106.623 69.5606 88.1723 85.5606 93.4182Z" fill="#FFBE55"/>
<path d="M83.9441 66.4136C83.9441 66.4136 86.015 66.5945 87.5753 68.1191C89.1356 69.6438 90.6107 72.0988 91.0363 72.8999C91.4334 73.7268 97.1923 81.2727 97.5044 81.4535C97.8164 81.6344 100.313 81.0142 102.327 80.8592C105.618 80.6008 110.526 79.0761 110.526 79.0761L111.263 82.4614C111.263 82.4614 99.1781 86.0276 96.3696 85.3815C92.9654 84.6063 85.1072 75.4324 85.1072 75.4324C85.1072 75.4324 79.2349 69.2045 83.9441 66.4136Z" fill="#2A94F4"/>
<path d="M80.34 65.0955C80.34 65.0955 83.035 66.2584 83.9712 66.4134C84.9074 66.5943 88.5102 70.8582 89.1627 72.4346C89.7868 73.9851 89.1627 76.3367 87.8577 79.1018C86.5528 81.8669 87.7726 82.7713 87.1769 85.5364C86.5811 88.2757 86.5811 95.7957 86.6946 97.3203C86.8081 98.845 69.418 101.739 65.957 98.9484C65.957 98.9484 68.3116 91.8935 71.0918 89.2577C71.6875 88.6891 71.6308 84.8645 71.2053 83.9084C70.8081 82.9522 66.1556 75.8457 66.1556 75.8457C66.1556 75.8457 65.8152 68.6358 67.8294 67.2145C69.5882 65.9741 74.3542 65.5348 75.2336 65.2506C76.0847 64.9921 78.5811 64.8629 80.34 65.0955Z" fill="#2A94F4"/>
<path d="M81.1909 70.5483L82.8363 68.8169L81.4178 64.2429C81.3895 64.217 80.9356 66.7754 81.1909 70.5483Z" fill="#0E538C"/>
<path d="M70.9503 66.4136C70.9503 66.4136 67.5744 65.535 65.617 68.9203C63.6879 72.3314 64.1701 74.1403 63.7162 75.6909C63.2623 77.2155 61.4751 87.4489 61.3616 87.8882C61.2482 88.3275 59.546 93.5218 59.7446 95.1239C59.9716 96.7261 61.5602 108.82 61.5035 109.234C61.4184 109.647 64.5957 108.846 64.5957 108.846C64.5957 108.846 64.4538 96.4936 64.5673 95.4599C64.6808 94.4521 64.7943 89.0769 65.617 87.7073C66.468 86.3377 68.5389 77.9133 68.9645 77.0605C69.4751 76.2077 73.8155 67.5248 70.9503 66.4136Z" fill="#EEA886"/>
<path d="M81.6174 62.2789C81.6174 62.2789 81.0783 66.7754 81.1918 68.2226C81.1918 68.2226 78.4117 70.7809 75.2344 65.2508C75.2344 65.2508 76.5677 62.9767 75.5748 59.8756C74.5535 56.7746 81.6174 62.2789 81.6174 62.2789Z" fill="#FFE3CA"/>
<path d="M81.1907 68.2225V70.5483L78.1836 68.1191L81.1907 68.2225Z" fill="#FFE3CA"/>
<path d="M81.1916 70.5485L79.8582 69.0497L75.3476 64.9667L73.6738 65.6644L81.1916 70.5485ZM82.8086 68.8171L84.8795 69.334L81.3901 64.2173L82.8086 68.8171Z" fill="#0E538C"/>
<path d="M79.8572 69.0494L77.9848 71.7886L73.6161 65.5608L75.4884 64.6821L79.8572 69.0494ZM89.4175 80.1097C89.4175 80.1097 90.0983 76.0267 89.3891 73.5717C89.3891 73.5717 88.9919 75.5616 88.0274 78.6884L89.4175 80.1097ZM68.5664 79.567C68.5664 79.567 70.4104 73.9594 70.5239 73.6751C70.5239 73.6751 70.4104 78.8176 69.6728 81.376C69.6728 81.3501 68.9919 80.2648 68.5664 79.567Z" fill="#0E538C"/>
<path d="M79.347 47.0064C79.347 47.0064 84.2832 46.8772 85.191 52.2265C86.0988 57.5499 83.9995 62.2531 83.1768 63.0025C82.3541 63.7519 77.4179 63.1834 76.2548 60.4183C75.0917 57.6532 73.3895 55.6376 73.6449 53.2343C73.9002 50.831 73.2761 46.903 79.347 47.0064Z" fill="#FFE3CA"/>
<path d="M85.4185 54.242C85.4185 54.242 86.7519 47.6007 80.1703 46.3861C73.6171 45.1974 71.2909 49.2804 70.6668 51.7095C70.0426 54.1387 70.7802 61.0126 70.7802 61.0126C70.7802 61.0126 75.149 64.5012 77.759 65.4057C77.759 65.4057 75.5746 58.0925 76.3972 52.8724C76.3972 52.8724 81.7306 53.6477 85.2767 52.8466C85.3051 52.8466 85.3902 53.9578 85.4185 54.242Z" fill="#FFBE55"/>
<path d="M81.504 63.2866C81.504 63.2866 79.7735 63.2866 77.4473 61.8911C77.4473 61.8911 79.0927 63.7776 81.3905 64.4495C81.3905 64.4495 81.504 63.5191 81.504 63.2866Z" fill="#FCD2B1"/>
<path d="M52.6465 100.449L71.7406 97.6057L74.0518 110.485L54.9577 113.328L52.6465 100.449Z" fill="#0B4870"/>
<path d="M60.8515 113.11C60.8515 113.11 60.5394 112.671 60.5111 112.412C60.5111 112.412 60.5111 111.947 60.4827 111.611C60.4827 111.508 60.4543 111.404 60.4543 111.353C60.3976 111.12 60.199 110.603 60.2274 109.983C60.2557 109.363 61.1919 106.753 61.1919 106.753L62.894 106.804L64.4827 106.649C64.4827 106.649 66.4118 109.983 66.4401 110.577V110.732C66.4118 111.223 66.1848 111.585 66.1281 111.844C66.0997 111.947 65.8728 112.851 65.5891 112.981C65.1919 113.162 64.8515 113.136 64.5962 113.007C64.5962 113.007 63.8302 113.317 63.2628 113.187C63.2628 113.187 62.5536 113.498 61.9295 113.162C61.9579 113.162 61.1919 113.42 60.8515 113.11Z" fill="#FFE3CA"/>
<path d="M70.9502 66.4136C70.9502 66.4136 67.5744 65.535 65.6169 68.9203C63.6878 72.3314 63.6878 73.7786 63.4325 75.4324C63.1772 77.0088 60.8226 86.3119 60.7091 86.7512C60.5956 87.1905 59.8297 93.0049 59.7729 95.1239C59.7446 96.7261 60.1417 107.295 60.085 107.709C59.9999 108.122 65.4467 106.985 65.4467 106.985C65.4467 106.985 64.851 97.243 64.9644 96.2351C65.0779 95.2273 65.3049 90.1365 65.8722 88.6376C66.5247 86.8804 69.0495 78.0425 69.5034 77.1638C69.9006 76.3111 73.8155 67.5248 70.9502 66.4136Z" fill="#2A94F4"/>
<path d="M126.894 65.7158L128.171 71.6078L129.448 77.4997C129.448 77.4997 122.1 75.4065 113.76 76.9054L113.192 74.2953L112.625 71.6853C120.994 70.1865 126.894 65.7158 126.894 65.7158Z" fill="#FFBE55"/>
<path d="M114.951 83.3399L115.689 83.0298L112.341 76.5952L110.469 77.3963L113.306 82.849C113.618 83.4692 114.27 83.6242 114.951 83.3399V83.3399Z" fill="#2A94F4"/>
<mask id="mask0_494_21880" style="mask-type:luminance" maskUnits="userSpaceOnUse" x="110" y="76" width="6" height="8">
<path d="M114.951 83.3399L115.689 83.0298L112.341 76.5952L110.469 77.3963L113.306 82.849C113.618 83.4692 114.27 83.6242 114.951 83.3399V83.3399Z" fill="white"/>
</mask>
<g mask="url(#mask0_494_21880)">
<path d="M110.469 76.5952H110.554V83.6501H110.469V76.5952ZM110.554 76.5952H110.639V83.6501H110.554V76.5952ZM110.639 76.5952H110.724V83.6501H110.639V76.5952ZM110.724 76.5952H110.809V83.6501H110.724V76.5952ZM110.809 76.5952H110.894V83.6501H110.809V76.5952Z" fill="#2A94F4"/>
</g>
<mask id="mask1_494_21880" style="mask-type:luminance" maskUnits="userSpaceOnUse" x="110" y="76" width="6" height="8">
<path d="M114.951 83.3399L115.689 83.0298L112.341 76.5952L110.469 77.3963L113.306 82.849C113.618 83.4692 114.27 83.6242 114.951 83.3399V83.3399Z" fill="white"/>
</mask>
<g mask="url(#mask1_494_21880)">
<path d="M110.895 76.5952H110.98V83.6501H110.895V76.5952Z" fill="#2A94F4"/>
</g>
<mask id="mask2_494_21880" style="mask-type:luminance" maskUnits="userSpaceOnUse" x="110" y="76" width="6" height="8">
<path d="M114.951 83.3399L115.689 83.0298L112.341 76.5952L110.469 77.3963L113.306 82.849C113.618 83.4692 114.27 83.6242 114.951 83.3399V83.3399Z" fill="white"/>
</mask>
<g mask="url(#mask2_494_21880)">
<path d="M110.951 76.5952H111.036V83.6501H110.951V76.5952Z" fill="#2A94F4"/>
</g>
<mask id="mask3_494_21880" style="mask-type:luminance" maskUnits="userSpaceOnUse" x="110" y="76" width="6" height="8">
<path d="M114.951 83.3399L115.689 83.0298L112.341 76.5952L110.469 77.3963L113.306 82.849C113.618 83.4692 114.27 83.6242 114.951 83.3399V83.3399Z" fill="white"/>
</mask>
<g mask="url(#mask3_494_21880)">
<path d="M111.035 76.5952H111.12V83.6501H111.035V76.5952ZM111.12 76.5952H111.205V83.6501H111.12V76.5952ZM111.205 76.5952H111.29V83.6501H111.205V76.5952ZM111.29 76.5952H111.376V83.6501H111.29V76.5952Z" fill="#2A94F4"/>
</g>
<mask id="mask4_494_21880" style="mask-type:luminance" maskUnits="userSpaceOnUse" x="110" y="76" width="6" height="8">
<path d="M114.951 83.3399L115.689 83.0298L112.341 76.5952L110.469 77.3963L113.306 82.849C113.618 83.4692 114.27 83.6242 114.951 83.3399V83.3399Z" fill="white"/>
</mask>
<g mask="url(#mask4_494_21880)">
<path d="M111.348 76.5952H111.433V83.6501H111.348V76.5952ZM111.433 76.5952H111.518V83.6501H111.433V76.5952ZM111.518 76.5952H111.603V83.6501H111.518V76.5952Z" fill="#2A94F4"/>
</g>
<mask id="mask5_494_21880" style="mask-type:luminance" maskUnits="userSpaceOnUse" x="110" y="76" width="6" height="8">
<path d="M114.951 83.3399L115.689 83.0298L112.341 76.5952L110.469 77.3963L113.306 82.849C113.618 83.4692 114.27 83.6242 114.951 83.3399V83.3399Z" fill="white"/>
</mask>
<g mask="url(#mask5_494_21880)">
<path d="M111.604 76.5952H111.689V83.6501H111.604V76.5952ZM111.689 76.5952H111.774V83.6501H111.689V76.5952ZM111.774 76.5952H111.859V83.6501H111.774V76.5952Z" fill="#2A94F4"/>
</g>
<mask id="mask6_494_21880" style="mask-type:luminance" maskUnits="userSpaceOnUse" x="110" y="76" width="6" height="8">
<path d="M114.951 83.3399L115.689 83.0298L112.341 76.5952L110.469 77.3963L113.306 82.849C113.618 83.4692 114.27 83.6242 114.951 83.3399V83.3399Z" fill="white"/>
</mask>
<g mask="url(#mask6_494_21880)">
<path d="M111.83 76.5952H111.915V83.6501H111.83V76.5952ZM111.915 76.5952H112V83.6501H111.915V76.5952ZM112 76.5952H112.085V83.6501H112V76.5952ZM112.085 76.5952H112.17V83.6501H112.085V76.5952Z" fill="#2A94F4"/>
</g>
<mask id="mask7_494_21880" style="mask-type:luminance" maskUnits="userSpaceOnUse" x="110" y="76" width="6" height="8">
<path d="M114.951 83.3399L115.689 83.0298L112.341 76.5952L110.469 77.3963L113.306 82.849C113.618 83.4692 114.27 83.6242 114.951 83.3399V83.3399Z" fill="white"/>
</mask>
<g mask="url(#mask7_494_21880)">
<path d="M112.17 76.5952H112.255V83.6501H112.17V76.5952Z" fill="#2A94F4"/>
</g>
<mask id="mask8_494_21880" style="mask-type:luminance" maskUnits="userSpaceOnUse" x="110" y="76" width="6" height="8">
<path d="M114.951 83.3399L115.689 83.0298L112.341 76.5952L110.469 77.3963L113.306 82.849C113.618 83.4692 114.27 83.6242 114.951 83.3399V83.3399Z" fill="white"/>
</mask>
<g mask="url(#mask8_494_21880)">
<path d="M112.229 76.5952H112.314V83.6501H112.229V76.5952Z" fill="#2A94F4"/>
</g>
<mask id="mask9_494_21880" style="mask-type:luminance" maskUnits="userSpaceOnUse" x="110" y="76" width="6" height="8">
<path d="M114.951 83.3399L115.689 83.0298L112.341 76.5952L110.469 77.3963L113.306 82.849C113.618 83.4692 114.27 83.6242 114.951 83.3399V83.3399Z" fill="white"/>
</mask>
<g mask="url(#mask9_494_21880)">
<path d="M112.312 76.5952H112.398V83.6501H112.312V76.5952ZM112.398 76.5952H112.483V83.6501H112.398V76.5952ZM112.483 76.5952H112.568V83.6501H112.483V76.5952ZM112.568 76.5952H112.653V83.6501H112.568V76.5952ZM112.653 76.5952H112.738V83.6501H112.653V76.5952Z" fill="#2A94F4"/>
</g>
<mask id="mask10_494_21880" style="mask-type:luminance" maskUnits="userSpaceOnUse" x="110" y="76" width="6" height="8">
<path d="M114.951 83.3399L115.689 83.0298L112.341 76.5952L110.469 77.3963L113.306 82.849C113.618 83.4692 114.27 83.6242 114.951 83.3399V83.3399Z" fill="white"/>
</mask>
<g mask="url(#mask10_494_21880)">
<path d="M112.709 76.5952H112.794V83.6501H112.709V76.5952ZM112.794 76.5952H112.879V83.6501H112.794V76.5952Z" fill="#2A94F4"/>
</g>
<mask id="mask11_494_21880" style="mask-type:luminance" maskUnits="userSpaceOnUse" x="110" y="76" width="6" height="8">
<path d="M114.951 83.3399L115.689 83.0298L112.341 76.5952L110.469 77.3963L113.306 82.849C113.618 83.4692 114.27 83.6242 114.951 83.3399V83.3399Z" fill="white"/>
</mask>
<g mask="url(#mask11_494_21880)">
<path d="M112.881 76.5952H112.966V83.6501H112.881V76.5952ZM112.966 76.5952H113.051V83.6501H112.966V76.5952ZM113.051 76.5952H113.136V83.6501H113.051V76.5952ZM113.136 76.5952H113.221V83.6501H113.136V76.5952Z" fill="#2A94F4"/>
</g>
<mask id="mask12_494_21880" style="mask-type:luminance" maskUnits="userSpaceOnUse" x="110" y="76" width="6" height="8">
<path d="M114.951 83.3399L115.689 83.0298L112.341 76.5952L110.469 77.3963L113.306 82.849C113.618 83.4692 114.27 83.6242 114.951 83.3399V83.3399Z" fill="white"/>
</mask>
<g mask="url(#mask12_494_21880)">
<path d="M113.191 76.5952H113.277V83.6501H113.191V76.5952ZM113.277 76.5952H113.362V83.6501H113.277V76.5952ZM113.362 76.5952H113.447V83.6501H113.362V76.5952Z" fill="#2A94F4"/>
</g>
<mask id="mask13_494_21880" style="mask-type:luminance" maskUnits="userSpaceOnUse" x="110" y="76" width="6" height="8">
<path d="M114.951 83.3399L115.689 83.0298L112.341 76.5952L110.469 77.3963L113.306 82.849C113.618 83.4692 114.27 83.6242 114.951 83.3399V83.3399Z" fill="white"/>
</mask>
<g mask="url(#mask13_494_21880)">
<path d="M113.447 76.5952H113.532V83.6501H113.447V76.5952ZM113.532 76.5952H113.617V83.6501H113.532V76.5952Z" fill="#2A94F4"/>
</g>
<mask id="mask14_494_21880" style="mask-type:luminance" maskUnits="userSpaceOnUse" x="110" y="76" width="6" height="8">
<path d="M114.951 83.3399L115.689 83.0298L112.341 76.5952L110.469 77.3963L113.306 82.849C113.618 83.4692 114.27 83.6242 114.951 83.3399V83.3399Z" fill="white"/>
</mask>
<g mask="url(#mask14_494_21880)">
<path d="M113.59 76.5952H113.675V83.6501H113.59V76.5952ZM113.675 76.5952H113.76V83.6501H113.675V76.5952ZM113.76 76.5952H113.845V83.6501H113.76V76.5952ZM113.845 76.5952H113.93V83.6501H113.845V76.5952ZM113.93 76.5952H114.015V83.6501H113.93V76.5952Z" fill="#2A94F4"/>
</g>
<mask id="mask15_494_21880" style="mask-type:luminance" maskUnits="userSpaceOnUse" x="110" y="76" width="6" height="8">
<path d="M114.951 83.3399L115.689 83.0298L112.341 76.5952L110.469 77.3963L113.306 82.849C113.618 83.4692 114.27 83.6242 114.951 83.3399V83.3399Z" fill="white"/>
</mask>
<g mask="url(#mask15_494_21880)">
<path d="M114.016 76.5952H114.101V83.6501H114.016V76.5952Z" fill="#2A94F4"/>
</g>
<mask id="mask16_494_21880" style="mask-type:luminance" maskUnits="userSpaceOnUse" x="110" y="76" width="6" height="8">
<path d="M114.951 83.3399L115.689 83.0298L112.341 76.5952L110.469 77.3963L113.306 82.849C113.618 83.4692 114.27 83.6242 114.951 83.3399V83.3399Z" fill="white"/>
</mask>
<g mask="url(#mask16_494_21880)">
<path d="M114.072 76.5952H114.157V83.6501H114.072V76.5952Z" fill="#2A94F4"/>
</g>
<mask id="mask17_494_21880" style="mask-type:luminance" maskUnits="userSpaceOnUse" x="110" y="76" width="6" height="8">
<path d="M114.951 83.3399L115.689 83.0298L112.341 76.5952L110.469 77.3963L113.306 82.849C113.618 83.4692 114.27 83.6242 114.951 83.3399V83.3399Z" fill="white"/>
</mask>
<g mask="url(#mask17_494_21880)">
<path d="M114.156 76.5952H114.241V83.6501H114.156V76.5952ZM114.241 76.5952H114.326V83.6501H114.241V76.5952ZM114.326 76.5952H114.412V83.6501H114.326V76.5952ZM114.412 76.5952H114.497V83.6501H114.412V76.5952Z" fill="#2A94F4"/>
</g>
<mask id="mask18_494_21880" style="mask-type:luminance" maskUnits="userSpaceOnUse" x="110" y="76" width="6" height="8">
<path d="M114.951 83.3399L115.689 83.0298L112.341 76.5952L110.469 77.3963L113.306 82.849C113.618 83.4692 114.27 83.6242 114.951 83.3399V83.3399Z" fill="white"/>
</mask>
<g mask="url(#mask18_494_21880)">
<path d="M114.469 76.5952H114.554V83.6501H114.469V76.5952ZM114.554 76.5952H114.639V83.6501H114.554V76.5952ZM114.639 76.5952H114.724V83.6501H114.639V76.5952Z" fill="#2A94F4"/>
</g>
<mask id="mask19_494_21880" style="mask-type:luminance" maskUnits="userSpaceOnUse" x="110" y="76" width="6" height="8">
<path d="M114.951 83.3399L115.689 83.0298L112.341 76.5952L110.469 77.3963L113.306 82.849C113.618 83.4692 114.27 83.6242 114.951 83.3399V83.3399Z" fill="white"/>
</mask>
<g mask="url(#mask19_494_21880)">
<path d="M114.725 76.5952H114.81V83.6501H114.725V76.5952ZM114.81 76.5952H114.895V83.6501H114.81V76.5952ZM114.895 76.5952H114.98V83.6501H114.895V76.5952Z" fill="#2A94F4"/>
</g>
<mask id="mask20_494_21880" style="mask-type:luminance" maskUnits="userSpaceOnUse" x="110" y="76" width="6" height="8">
<path d="M114.951 83.3399L115.689 83.0298L112.341 76.5952L110.469 77.3963L113.306 82.849C113.618 83.4692 114.27 83.6242 114.951 83.3399V83.3399Z" fill="white"/>
</mask>
<g mask="url(#mask20_494_21880)">
<path d="M114.951 76.5952H115.036V83.6501H114.951V76.5952ZM115.036 76.5952H115.121V83.6501H115.036V76.5952ZM115.121 76.5952H115.206V83.6501H115.121V76.5952ZM115.206 76.5952H115.292V83.6501H115.206V76.5952Z" fill="#2A94F4"/>
</g>
<mask id="mask21_494_21880" style="mask-type:luminance" maskUnits="userSpaceOnUse" x="110" y="76" width="6" height="8">
<path d="M114.951 83.3399L115.689 83.0298L112.341 76.5952L110.469 77.3963L113.306 82.849C113.618 83.4692 114.27 83.6242 114.951 83.3399V83.3399Z" fill="white"/>
</mask>
<g mask="url(#mask21_494_21880)">
<path d="M115.291 76.5952H115.376V83.6501H115.291V76.5952Z" fill="#2A94F4"/>
</g>
<mask id="mask22_494_21880" style="mask-type:luminance" maskUnits="userSpaceOnUse" x="110" y="76" width="6" height="8">
<path d="M114.951 83.3399L115.689 83.0298L112.341 76.5952L110.469 77.3963L113.306 82.849C113.618 83.4692 114.27 83.6242 114.951 83.3399V83.3399Z" fill="white"/>
</mask>
<g mask="url(#mask22_494_21880)">
<path d="M115.348 76.5952H115.433V83.6501H115.348V76.5952Z" fill="#2A94F4"/>
</g>
<mask id="mask23_494_21880" style="mask-type:luminance" maskUnits="userSpaceOnUse" x="110" y="76" width="6" height="8">
<path d="M114.951 83.3399L115.689 83.0298L112.341 76.5952L110.469 77.3963L113.306 82.849C113.618 83.4692 114.27 83.6242 114.951 83.3399V83.3399Z" fill="white"/>
</mask>
<g mask="url(#mask23_494_21880)">
<path d="M115.434 76.5952H115.519V83.65H115.434V76.5952ZM115.519 76.5952H115.604V83.65H115.519V76.5952ZM115.604 76.5952H115.689V83.65H115.604V76.5952Z" fill="#2A94F4"/>
</g>
<path d="M108.029 77.9908L115.377 76.7504L114.185 71.2461L106.895 72.7708L108.029 77.9908Z" fill="#2A94F4"/>
<mask id="mask24_494_21880" style="mask-type:luminance" maskUnits="userSpaceOnUse" x="106" y="71" width="10" height="7">
<path d="M108.029 77.9908L115.377 76.7504L114.185 71.2461L106.895 72.7708L108.029 77.9908Z" fill="white"/>
</mask>
<g mask="url(#mask24_494_21880)">
<path d="M106.895 71.2461H107.036V77.9908H106.895V71.2461Z" fill="#2A94F4"/>
</g>
<mask id="mask25_494_21880" style="mask-type:luminance" maskUnits="userSpaceOnUse" x="106" y="71" width="10" height="7">
<path d="M108.029 77.9908L115.377 76.7504L114.185 71.2461L106.895 72.7708L108.029 77.9908Z" fill="white"/>
</mask>
<g mask="url(#mask25_494_21880)">
<path d="M107.008 71.2461H107.15V77.9908H107.008V71.2461ZM107.15 71.2461H107.292V77.9908H107.15V71.2461Z" fill="#2A94F4"/>
</g>
<mask id="mask26_494_21880" style="mask-type:luminance" maskUnits="userSpaceOnUse" x="106" y="71" width="10" height="7">
<path d="M108.029 77.9908L115.377 76.7504L114.185 71.2461L106.895 72.7708L108.029 77.9908Z" fill="white"/>
</mask>
<g mask="url(#mask26_494_21880)">
<path d="M107.264 71.2461H107.406V77.9908H107.264V71.2461ZM107.406 71.2461H107.547V77.9908H107.406V71.2461ZM107.547 71.2461H107.689V77.9908H107.547V71.2461Z" fill="#2A94F4"/>
</g>
<mask id="mask27_494_21880" style="mask-type:luminance" maskUnits="userSpaceOnUse" x="106" y="71" width="10" height="7">
<path d="M108.029 77.9908L115.377 76.7504L114.185 71.2461L106.895 72.7708L108.029 77.9908Z" fill="white"/>
</mask>
<g mask="url(#mask27_494_21880)">
<path d="M107.66 71.2461H107.802V77.9908H107.66V71.2461ZM107.802 71.2461H107.944V77.9908H107.802V71.2461Z" fill="#2A94F4"/>
</g>
<mask id="mask28_494_21880" style="mask-type:luminance" maskUnits="userSpaceOnUse" x="106" y="71" width="10" height="7">
<path d="M108.029 77.9908L115.377 76.7504L114.185 71.2461L106.895 72.7708L108.029 77.9908Z" fill="white"/>
</mask>
<g mask="url(#mask28_494_21880)">
<path d="M107.916 71.2461H108.058V77.9908H107.916V71.2461ZM108.058 71.2461H108.2V77.9908H108.058V71.2461ZM108.2 71.2461H108.342V77.9908H108.2V71.2461Z" fill="#2A94F4"/>
</g>
<mask id="mask29_494_21880" style="mask-type:luminance" maskUnits="userSpaceOnUse" x="106" y="71" width="10" height="7">
<path d="M108.029 77.9908L115.377 76.7504L114.185 71.2461L106.895 72.7708L108.029 77.9908Z" fill="white"/>
</mask>
<g mask="url(#mask29_494_21880)">
<path d="M108.312 71.2461H108.454V77.9908H108.312V71.2461ZM108.454 71.2461H108.596V77.9908H108.454V71.2461Z" fill="#2A94F4"/>
</g>
<mask id="mask30_494_21880" style="mask-type:luminance" maskUnits="userSpaceOnUse" x="106" y="71" width="10" height="7">
<path d="M108.029 77.9908L115.377 76.7504L114.185 71.2461L106.895 72.7708L108.029 77.9908Z" fill="white"/>
</mask>
<g mask="url(#mask30_494_21880)">
<path d="M108.568 71.2461H108.71V77.9908H108.568V71.2461ZM108.71 71.2461H108.852V77.9908H108.71V71.2461ZM108.852 71.2461H108.994V77.9908H108.852V71.2461Z" fill="#2A94F4"/>
</g>
<mask id="mask31_494_21880" style="mask-type:luminance" maskUnits="userSpaceOnUse" x="106" y="71" width="10" height="7">
<path d="M108.029 77.9908L115.377 76.7504L114.185 71.2461L106.895 72.7708L108.029 77.9908Z" fill="white"/>
</mask>
<g mask="url(#mask31_494_21880)">
<path d="M108.965 71.2461H109.107V77.9908H108.965V71.2461ZM109.107 71.2461H109.249V77.9908H109.107V71.2461Z" fill="#2A94F4"/>
</g>
<mask id="mask32_494_21880" style="mask-type:luminance" maskUnits="userSpaceOnUse" x="106" y="71" width="10" height="7">
<path d="M108.029 77.9908L115.377 76.7504L114.185 71.2461L106.895 72.7708L108.029 77.9908Z" fill="white"/>
</mask>
<g mask="url(#mask32_494_21880)">
<path d="M109.221 71.2461H109.363V77.9908H109.221V71.2461ZM109.363 71.2461H109.504V77.9908H109.363V71.2461ZM109.504 71.2461H109.646V77.9908H109.504V71.2461Z" fill="#2A94F4"/>
</g>
<mask id="mask33_494_21880" style="mask-type:luminance" maskUnits="userSpaceOnUse" x="106" y="71" width="10" height="7">
<path d="M108.029 77.9908L115.377 76.7504L114.185 71.2461L106.895 72.7708L108.029 77.9908Z" fill="white"/>
</mask>
<g mask="url(#mask33_494_21880)">
<path d="M109.617 71.2461H109.759V77.9908H109.617V71.2461ZM109.759 71.2461H109.901V77.9908H109.759V71.2461Z" fill="#2A94F4"/>
</g>
<mask id="mask34_494_21880" style="mask-type:luminance" maskUnits="userSpaceOnUse" x="106" y="71" width="10" height="7">
<path d="M108.029 77.9908L115.377 76.7504L114.185 71.2461L106.895 72.7708L108.029 77.9908Z" fill="white"/>
</mask>
<g mask="url(#mask34_494_21880)">
<path d="M109.873 71.2461H110.015V77.9908H109.873V71.2461ZM110.015 71.2461H110.157V77.9908H110.015V71.2461ZM110.157 71.2461H110.299V77.9908H110.157V71.2461Z" fill="#2A94F4"/>
</g>
<mask id="mask35_494_21880" style="mask-type:luminance" maskUnits="userSpaceOnUse" x="106" y="71" width="10" height="7">
<path d="M108.029 77.9908L115.377 76.7504L114.185 71.2461L106.895 72.7708L108.029 77.9908Z" fill="white"/>
</mask>
<g mask="url(#mask35_494_21880)">
<path d="M110.27 71.2461H110.411V77.9908H110.27V71.2461ZM110.411 71.2461H110.553V77.9908H110.411V71.2461Z" fill="#2A94F4"/>
</g>
<mask id="mask36_494_21880" style="mask-type:luminance" maskUnits="userSpaceOnUse" x="106" y="71" width="10" height="7">
<path d="M108.029 77.9908L115.377 76.7504L114.185 71.2461L106.895 72.7708L108.029 77.9908Z" fill="white"/>
</mask>
<g mask="url(#mask36_494_21880)">
<path d="M110.525 71.2461H110.667V77.9908H110.525V71.2461ZM110.667 71.2461H110.809V77.9908H110.667V71.2461ZM110.809 71.2461H110.951V77.9908H110.809V71.2461Z" fill="#2A94F4"/>
</g>
<mask id="mask37_494_21880" style="mask-type:luminance" maskUnits="userSpaceOnUse" x="106" y="71" width="10" height="7">
<path d="M108.029 77.9908L115.377 76.7504L114.185 71.2461L106.895 72.7708L108.029 77.9908Z" fill="white"/>
</mask>
<g mask="url(#mask37_494_21880)">
<path d="M110.924 71.2461H111.066V77.9908H110.924V71.2461ZM111.066 71.2461H111.208V77.9908H111.066V71.2461ZM111.208 71.2461H111.349V77.9908H111.208V71.2461Z" fill="#2A94F4"/>
</g>
<mask id="mask38_494_21880" style="mask-type:luminance" maskUnits="userSpaceOnUse" x="106" y="71" width="10" height="7">
<path d="M108.029 77.9908L115.377 76.7504L114.185 71.2461L106.895 72.7708L108.029 77.9908Z" fill="white"/>
</mask>
<g mask="url(#mask38_494_21880)">
<path d="M111.32 71.2461H111.462V77.9908H111.32V71.2461ZM111.462 71.2461H111.604V77.9908H111.462V71.2461Z" fill="#2A94F4"/>
</g>
<mask id="mask39_494_21880" style="mask-type:luminance" maskUnits="userSpaceOnUse" x="106" y="71" width="10" height="7">
<path d="M108.029 77.9908L115.377 76.7504L114.185 71.2461L106.895 72.7708L108.029 77.9908Z" fill="white"/>
</mask>
<g mask="url(#mask39_494_21880)">
<path d="M111.576 71.2461H111.718V77.9908H111.576V71.2461ZM111.718 71.2461H111.86V77.9908H111.718V71.2461ZM111.86 71.2461H112.002V77.9908H111.86V71.2461Z" fill="#2A94F4"/>
</g>
<mask id="mask40_494_21880" style="mask-type:luminance" maskUnits="userSpaceOnUse" x="106" y="71" width="10" height="7">
<path d="M108.029 77.9908L115.377 76.7504L114.185 71.2461L106.895 72.7708L108.029 77.9908Z" fill="white"/>
</mask>
<g mask="url(#mask40_494_21880)">
<path d="M111.973 71.2461H112.115V77.9908H111.973V71.2461ZM112.115 71.2461H112.256V77.9908H112.115V71.2461Z" fill="#2A94F4"/>
</g>
<mask id="mask41_494_21880" style="mask-type:luminance" maskUnits="userSpaceOnUse" x="106" y="71" width="10" height="7">
<path d="M108.029 77.9908L115.377 76.7504L114.185 71.2461L106.895 72.7708L108.029 77.9908Z" fill="white"/>
</mask>
<g mask="url(#mask41_494_21880)">
<path d="M112.229 71.2461H112.37V77.9908H112.229V71.2461ZM112.37 71.2461H112.512V77.9908H112.37V71.2461ZM112.512 71.2461H112.654V77.9908H112.512V71.2461Z" fill="#2A94F4"/>
</g>
<mask id="mask42_494_21880" style="mask-type:luminance" maskUnits="userSpaceOnUse" x="106" y="71" width="10" height="7">
<path d="M108.029 77.9908L115.377 76.7504L114.185 71.2461L106.895 72.7708L108.029 77.9908Z" fill="white"/>
</mask>
<g mask="url(#mask42_494_21880)">
<path d="M112.625 71.2461H112.767V77.9908H112.625V71.2461ZM112.767 71.2461H112.909V77.9908H112.767V71.2461Z" fill="#2A94F4"/>
</g>
<mask id="mask43_494_21880" style="mask-type:luminance" maskUnits="userSpaceOnUse" x="106" y="71" width="10" height="7">
<path d="M108.029 77.9908L115.377 76.7504L114.185 71.2461L106.895 72.7708L108.029 77.9908Z" fill="white"/>
</mask>
<g mask="url(#mask43_494_21880)">
<path d="M112.881 71.2461H113.023V77.9908H112.881V71.2461ZM113.023 71.2461H113.165V77.9908H113.023V71.2461ZM113.165 71.2461H113.306V77.9908H113.165V71.2461Z" fill="#2A94F4"/>
</g>
<mask id="mask44_494_21880" style="mask-type:luminance" maskUnits="userSpaceOnUse" x="106" y="71" width="10" height="7">
<path d="M108.029 77.9908L115.377 76.7504L114.185 71.2461L106.895 72.7708L108.029 77.9908Z" fill="white"/>
</mask>
<g mask="url(#mask44_494_21880)">
<path d="M113.277 71.2461H113.419V77.9908H113.277V71.2461ZM113.419 71.2461H113.561V77.9908H113.419V71.2461Z" fill="#2A94F4"/>
</g>
<mask id="mask45_494_21880" style="mask-type:luminance" maskUnits="userSpaceOnUse" x="106" y="71" width="10" height="7">
<path d="M108.029 77.9908L115.377 76.7504L114.185 71.2461L106.895 72.7708L108.029 77.9908Z" fill="white"/>
</mask>
<g mask="url(#mask45_494_21880)">
<path d="M113.533 71.2461H113.675V77.9908H113.533V71.2461ZM113.675 71.2461H113.817V77.9908H113.675V71.2461ZM113.817 71.2461H113.959V77.9908H113.817V71.2461Z" fill="#2A94F4"/>
</g>
<mask id="mask46_494_21880" style="mask-type:luminance" maskUnits="userSpaceOnUse" x="106" y="71" width="10" height="7">
<path d="M108.029 77.9908L115.377 76.7504L114.185 71.2461L106.895 72.7708L108.029 77.9908Z" fill="white"/>
</mask>
<g mask="url(#mask46_494_21880)">
<path d="M113.93 71.2461H114.072V77.9908H113.93V71.2461ZM114.072 71.2461H114.213V77.9908H114.072V71.2461Z" fill="#2A94F4"/>
</g>
<mask id="mask47_494_21880" style="mask-type:luminance" maskUnits="userSpaceOnUse" x="106" y="71" width="10" height="7">
<path d="M108.029 77.9908L115.377 76.7504L114.185 71.2461L106.895 72.7708L108.029 77.9908Z" fill="white"/>
</mask>
<g mask="url(#mask47_494_21880)">
<path d="M114.186 71.2461H114.327V77.9908H114.186V71.2461ZM114.327 71.2461H114.469V77.9908H114.327V71.2461ZM114.469 71.2461H114.611V77.9908H114.469V71.2461Z" fill="#2A94F4"/>
</g>
<mask id="mask48_494_21880" style="mask-type:luminance" maskUnits="userSpaceOnUse" x="106" y="71" width="10" height="7">
<path d="M108.029 77.9908L115.377 76.7504L114.185 71.2461L106.895 72.7708L108.029 77.9908Z" fill="white"/>
</mask>
<g mask="url(#mask48_494_21880)">
<path d="M114.582 71.2461H114.724V77.9908H114.582V71.2461ZM114.724 71.2461H114.866V77.9908H114.724V71.2461Z" fill="#2A94F4"/>
</g>
<mask id="mask49_494_21880" style="mask-type:luminance" maskUnits="userSpaceOnUse" x="106" y="71" width="10" height="7">
<path d="M108.029 77.9908L115.377 76.7504L114.185 71.2461L106.895 72.7708L108.029 77.9908Z" fill="white"/>
</mask>
<g mask="url(#mask49_494_21880)">
<path d="M114.838 71.2461H114.98V77.9908H114.838V71.2461ZM114.98 71.2461H115.122V77.9908H114.98V71.2461ZM115.122 71.2461H115.263V77.9908H115.122V71.2461Z" fill="#2A94F4"/>
</g>
<mask id="mask50_494_21880" style="mask-type:luminance" maskUnits="userSpaceOnUse" x="106" y="71" width="10" height="7">
<path d="M108.029 77.9908L115.377 76.7504L114.185 71.2461L106.895 72.7708L108.029 77.9908Z" fill="white"/>
</mask>
<g mask="url(#mask50_494_21880)">
<path d="M115.234 71.2461H115.376V77.9908H115.234V71.2461Z" fill="#2A94F4"/>
</g>
<path d="M115.46 79.1535C115.46 79.1535 113.276 78.9726 113.191 79.2827C113.105 79.5928 113.304 79.7479 113.304 79.7479L112.368 80.0322C112.368 80.0322 111.857 80.549 112.623 80.8849C112.623 80.8849 112.113 81.3242 112.879 81.5827C112.879 81.5827 112.68 82.022 113.02 82.177C113.361 82.3579 114.779 82.4096 114.779 82.4096C114.779 82.4096 115.091 82.3062 115.006 81.7894C115.006 81.7894 115.46 81.531 115.347 81.0658C115.347 81.0658 115.659 80.8074 115.545 80.3164C115.545 80.3164 116.226 79.6962 115.715 79.1277C115.687 79.1794 115.545 79.1535 115.46 79.1535Z" fill="#FFE3CA"/>
</svg>
