<svg width="170" height="146" viewBox="0 0 170 146" fill="none" xmlns="http://www.w3.org/2000/svg">
<g clip-path="url(#clip0_61_180)">
<path d="M104.864 106.629L94.316 99.8415C72.5395 102.468 58.5384 110.186 58.5384 110.186C58.5384 110.186 51.3142 102.868 26.4066 96.9134L9.33691 103.716C9.69578 100.949 10.1171 98.5257 10.6268 97.0955C13.6972 88.354 19.7496 82.541 28.0137 79.0427C42.8342 72.7546 44.4092 73.7161 46.3056 73.2072C47.4704 72.8931 48.4053 73.2805 48.2664 74.5126C48.2352 74.8402 48.1364 75.1784 48.0635 75.5008C47.6579 77.2379 48.0947 79.5004 49.6707 80.4677C53.4657 82.8063 57.4616 83.3382 61.0036 80.6342C61.9469 79.9173 63.0604 79.5851 62.5379 76.9883C62.4131 76.3798 62.1687 75.7193 62.4443 75.1628C62.6805 74.6506 63.361 74.4165 63.9162 74.3201C66.2623 73.8806 67.15 74.4871 68.233 74.5699C72.4263 74.8798 77.1121 75.8964 81.1263 77.035C85.9098 78.4018 89.7363 80.4045 93.9208 82.9123C97.4106 85.0031 99.361 88.4305 101.098 92.1075C103.283 96.7364 104.536 101.641 104.864 106.629Z" fill="#0E7C9F"/>
<path d="M3.28558 116.377L7.45408 117.556C6.82311 118.513 6.35249 119.687 5.9801 120.726C1.19618 119.382 -2 118.451 -2 118.357C-2 117.996 5.05954 110.817 5.28192 110.595L3.14078 116.087C3.09422 116.206 3.16146 116.341 3.28558 116.377ZM81.3386 128.81L57.6879 132.394C57.6879 132.394 53.9693 137.064 48.5907 132.394C48.5907 132.394 40.3313 130.16 30.4893 127.475C30.8141 126.085 30.852 124.921 30.7583 124.14L51.8021 130.056L81.1058 125.702C81.0438 126.72 81.1731 127.817 81.3386 128.81ZM116 123.555L106.515 124.993C106.334 123.969 106.112 122.976 105.755 122.019L109.878 121.326L109.875 117.346L116 123.555Z" fill="#FFCE6F"/>
<path d="M57.9612 51.2505C57.9866 51.0377 57.8347 50.8447 57.6222 50.8193L54.5999 50.4572C54.1645 50.405 53.8822 49.9704 54.0122 49.5516L56.2661 42.2758C56.3296 42.0711 56.215 41.8537 56.0103 41.7907C55.8041 41.7232 55.5883 41.8415 55.525 42.0462L53.2712 49.322C52.9974 50.2057 53.5932 51.1187 54.5077 51.2272L57.5297 51.5893C57.7385 51.6162 57.9354 51.4656 57.9612 51.2505ZM78.4597 38.7493C79.8494 38.2069 81.0579 37.1464 81.7753 35.839C81.8785 35.6516 81.8096 35.4154 81.622 35.3128C81.4343 35.2097 81.1984 35.2778 81.0953 35.4662C80.4639 36.6161 79.4006 37.5497 78.1778 38.0271C77.7032 38.2119 77.979 38.9395 78.4597 38.7493ZM34.738 42.6592C33.374 42.4891 32.0652 41.7328 31.2363 40.6362C31.1067 40.4656 30.8637 40.4326 30.693 40.5611C30.5221 40.6901 30.4884 40.9334 30.6176 41.1045C31.5842 42.3829 33.051 43.2306 34.642 43.4292C34.8549 43.4558 35.0484 43.3045 35.075 43.0925C35.1015 42.8797 34.9506 42.6856 34.738 42.6592ZM63.18 53.786C62.9944 53.6778 62.7572 53.7418 62.65 53.9277C61.2836 56.2954 58.4025 57.3453 55.8402 56.4256C55.6373 56.355 55.4166 56.4581 55.344 56.6598C55.2718 56.8614 55.3765 57.0839 55.5781 57.156C58.4755 58.1939 61.756 57.0281 63.322 54.3158C63.4291 54.1299 63.3654 53.8927 63.18 53.786ZM61.9575 32.9744C63.4404 31.1727 66.089 30.8636 67.947 32.2765C68.1176 32.4066 68.3607 32.3735 68.4905 32.2024C68.62 32.0317 68.587 31.7884 68.4163 31.6589C66.2291 29.9955 63.1061 30.3579 61.3586 32.4817C61.2225 32.6468 61.2461 32.8916 61.4114 33.0277C61.5772 33.1638 61.8214 33.1402 61.9575 32.9744ZM49.2366 33.4986C49.4075 33.6291 49.6505 33.5956 49.7801 33.4244C49.9096 33.2538 49.8766 33.0105 49.7059 32.8809C47.538 31.2326 44.4098 31.5625 42.6482 33.7038C42.5121 33.8688 42.5357 34.1136 42.7011 34.2498C42.8668 34.3859 43.111 34.3622 43.2471 34.1964C44.73 32.3948 47.3786 32.0857 49.2366 33.4986ZM51.0958 39.0358C50.38 38.8926 49.6474 38.8208 48.9119 38.8037C48.363 38.1335 47.2709 38.1757 46.7459 38.93C45.8047 39.0653 44.8792 39.2988 43.999 39.6362C43.5982 39.7898 43.7102 40.3863 44.1377 40.3863C44.3251 40.3863 44.9795 40.0182 46.5156 39.7531C46.5835 40.6011 47.4555 41.092 48.261 40.8167C48.8226 40.6247 49.1762 40.1184 49.1839 39.5841C49.7768 39.612 50.3661 39.681 50.9439 39.7967C51.1512 39.8388 51.3581 39.7027 51.4003 39.4924C51.4422 39.2821 51.3058 39.078 51.0958 39.0358ZM69.0258 39.629C68.3564 39.3378 67.6555 39.1128 66.9402 38.9408C66.5464 38.171 65.4702 37.9785 64.7961 38.6065C63.8475 38.5398 62.8936 38.5725 61.962 38.7158C61.7505 38.7488 61.6052 38.9469 61.6377 39.1582C61.6702 39.37 61.8658 39.5163 62.0804 39.4828C62.8423 39.3652 63.6204 39.3295 64.3973 39.3621C64.2845 40.2051 65.033 40.8694 65.8787 40.7704C66.468 40.7015 66.9206 40.2815 67.0411 39.7608C68.3747 40.1158 68.6531 40.3726 68.8709 40.3726C69.2909 40.3726 69.4096 39.7957 69.0258 39.629Z" fill="black"/>
<path d="M11.5217 94.8433C14.812 87.3558 20.3934 82.2687 28.014 79.0428C42.8223 72.7593 44.4161 73.7143 46.306 73.2071C47.006 73.0184 47.8217 73.0409 48.1507 73.6836L47.5393 78.1204C47.5073 78.3529 47.6877 78.5613 47.9241 78.5613C48.1148 78.5613 48.2811 78.4206 48.3078 78.2261C50.2286 64.2484 49.7048 68.4093 49.7658 67.6123C53.4587 69.6425 57.4417 69.9362 61.3717 68.5841C61.8319 70.0785 61.6713 70.6139 62.5623 78.9747C62.5821 79.1748 62.7507 79.3247 62.9478 79.3247C63.1777 79.3247 63.3569 79.1267 63.3343 78.8985L62.9178 74.6745C63.2092 74.4911 63.5676 74.3807 63.9166 74.3202C66.2641 73.88 67.1468 74.4868 68.2334 74.5699C72.4265 74.8798 77.1121 75.8964 81.1267 77.035C84.3669 77.9609 87.217 79.1987 90.036 80.6965C88.6205 75.9178 84.8615 72.6228 83.7064 68.0737C82.1104 61.6906 86.1886 55.2476 87.9036 49.1421C92.0465 34.2263 83.0578 14.2072 61.3681 9.37007C58.8196 8.81353 55.985 8.33507 53.6446 9.30239H53.6394C50.5417 8.48939 47.7785 9.24664 44.8081 10.5143C37.6307 13.5777 31.2855 18.633 26.4642 25.1395C23.1511 29.6071 19.2244 35.6091 18.2674 42.3756C17.8658 45.239 18.124 48.182 18.1998 50.8376C18.4387 58.6397 11.7719 64.2117 8.45829 70.6224C4.6772 77.9383 4.03935 91.767 11.5217 94.8433ZM74.9895 36.4517C74.9663 36.8456 75.4818 37.0167 75.702 36.6805C76.0377 36.1593 77.6563 34.1749 78.0919 33.6954C81.0229 31.0337 84.4133 32.4398 85.2722 35.5757C85.7316 40.0681 81.7404 44.0054 77.1363 43.8502C76.9549 43.8446 76.7764 43.9797 76.7421 44.1686C75.8147 49.3033 73.2957 57.1659 69.596 61.6403C62.6673 69.9908 53.0641 71.5185 44.7669 62.556C39.3256 56.6834 38.2747 52.5798 36.7351 47.2989C36.683 47.1206 36.5131 47.0053 36.3275 47.0211C34.2363 47.2129 32.1741 47.8392 29.7236 46.7695C27.6416 45.4274 26.6422 42.5951 27.4916 40.309C28.9623 36.3501 33.6466 36.1882 36.4865 39.2238C36.527 39.2681 36.5768 39.2968 36.6293 39.3181C36.9188 39.5323 37.3143 39.2719 37.2392 38.925C37.2009 38.7482 37.1731 38.567 37.1415 38.3875C37.1507 36.6658 37.9988 34.847 39.4874 33.4195C42.5952 30.4542 47.2267 29.7867 51.0285 27.6255C52.9112 26.549 54.8096 24.4634 56.1983 22.0761C59.3067 25.0492 59.7862 25.4835 64.7851 27.1262C66.6211 27.7347 68.5194 28.3693 70.2046 29.3262C72.6178 30.689 75.1455 33.2738 74.9895 36.4517ZM109.771 109.317L94.5248 99.5166C94.4491 99.4679 94.3585 99.445 94.2686 99.4577C74.2142 101.877 60.5632 108.689 58.6003 109.713C57.2496 108.484 49.2776 101.982 26.4991 96.5377C26.4212 96.5184 26.3397 96.525 26.2655 96.555C6.86266 104.281 8.21739 103.733 8.11269 103.792C8.03728 103.835 7.97116 103.909 7.94238 103.981L3.14314 115.948C3.05702 116.163 3.1781 116.404 3.39836 116.466L7.04373 117.49C6.05809 119.053 5.53923 120.873 4.90178 122.617C4.17369 124.617 3.26707 127.104 4.93504 128.928C5.89144 129.964 7.4233 130.385 8.77612 130.017C9.28453 131.121 10.3313 131.964 11.5366 132.211C12.5573 132.413 13.7686 132.131 14.6799 131.506C14.6866 131.506 14.6932 131.51 14.6999 131.51C14.7441 131.51 14.7869 131.5 14.8281 131.486C15.7208 134.603 19.2375 135.299 21.3886 133.263C21.8946 134.959 23.4567 136.38 25.3728 136.38C26.6289 136.38 27.9177 135.79 28.4338 134.526C29.0648 132.971 30.4807 129.2 30.8672 127.564C31.1804 126.223 31.2369 125.12 31.1567 124.267L51.7184 130.042C51.7705 130.056 51.8257 130.061 51.8802 130.052L80.7166 125.773C80.6454 127.192 80.9072 128.658 81.1637 130.046C81.6723 132.779 81.8701 135.875 84.5137 136.735C85.861 137.172 87.4011 136.776 88.3936 135.794C90.3059 137.169 93.0853 136.606 94.271 134.176C94.3135 134.154 94.3503 134.123 94.3816 134.088C95.4044 135.096 96.8615 135.549 98.1518 135.198C99.4807 134.833 100.562 133.72 100.967 132.409C101.784 133.198 102.918 133.665 104.054 133.665C106.076 133.665 107.981 132.023 107.722 130.042C107.488 128.246 107.247 126.883 106.991 125.44C106.944 125.193 106.705 123.516 106.158 122.001L109.618 121.487C109.809 121.459 109.949 121.296 109.949 121.104C109.949 121.052 109.945 109.579 109.947 109.632C109.943 109.505 109.868 109.38 109.771 109.317ZM108.426 109.375C96.4544 110.711 62.6682 115.355 54.0216 123.729C54.4187 122.637 58.1852 112.282 58.8482 110.46C60.2856 109.699 73.9324 102.717 94.2229 100.244L108.426 109.375ZM26.4382 97.3209C48.7634 102.673 56.831 109.185 58.0825 110.295L52.6639 125.19C50.7425 119.495 45.1843 116.618 39.6187 114.372C35.2234 112.594 33.7854 112.4 9.43081 104.096L26.4382 97.3209ZM5.50644 128.404C4.15718 126.928 4.94012 124.779 5.63088 122.883C6.70818 119.919 7.97495 115.313 11.0328 116.121C12.3251 116.461 12.9419 117.581 12.6263 118.652C12.6134 118.705 12.5044 119.431 12.0791 120.651L12.08 120.651C12.0644 120.703 9.79884 126.516 8.68063 129.227C7.58811 129.571 6.28231 129.244 5.50644 128.404ZM11.6903 131.45C10.6575 131.239 9.77413 130.478 9.40634 129.501C10.45 126.972 12.7095 121.207 12.7962 120.957L12.7946 120.956C13.472 119.267 14.0923 117.556 14.8294 116.701C15.3868 116.05 16.1502 115.688 16.828 115.76C18.6709 115.946 19.3066 118.764 18.7428 120.381C18.5904 120.939 19.0507 119.642 14.4636 130.701C13.705 131.331 12.6012 131.633 11.6903 131.45ZM17.7534 133.549C16.5329 133.24 15.5849 132.04 15.448 130.629C15.4463 130.611 15.4394 130.596 15.4354 130.578C15.879 129.032 19.237 121.511 19.5207 120.488C20.1071 119.166 20.6252 117.586 21.6979 117.074C22.6715 116.613 24.0219 117.174 24.677 118.191C25.9618 120.172 24.9681 122.915 24.2359 125.166C23.228 127.383 22.2107 130.031 21.2712 132.224C20.5165 133.32 19.0446 133.879 17.7534 133.549ZM30.1122 127.386C29.7375 128.971 28.3278 132.724 27.7153 134.233C27.212 135.467 25.5885 135.856 24.3883 135.445C23.1261 135.014 22.158 133.804 22.0057 132.481C23.231 129.617 24.7434 125.583 26.1924 122.927C26.5451 122.222 27.0915 121.509 27.8718 121.565C30.6206 121.606 30.732 124.733 30.1122 127.386ZM84.7531 135.997C82.5364 135.276 82.3778 132.332 81.9266 129.904C81.4165 127.142 80.7809 123.306 83.5166 122.586C84.6536 122.284 85.7329 122.79 86.0826 123.782C86.3693 124.596 86.5347 125.308 86.6667 126.049C86.676 126.101 87.623 132.769 87.9216 135.154C87.1368 135.991 85.8396 136.349 84.7531 135.997ZM91.6287 135.604C90.6497 135.926 89.4842 135.695 88.689 135.036C87.3595 124.443 86.7985 122.788 87.103 121.227C87.3909 119.795 88.5197 118.875 89.8962 119.425C90.8494 119.805 91.9096 120.887 92.299 122.382C92.3881 122.742 93.6042 132.862 93.6785 133.604C93.3774 134.431 92.5645 135.296 91.6287 135.604ZM97.9474 134.45C96.733 134.78 95.3169 134.2 94.5032 133.04C94.472 132.995 94.4308 132.962 94.3862 132.935C93.1573 121.474 92.3147 119.528 93.2662 118.168C93.9511 117.201 95.4317 117.157 96.4115 117.672C98.1476 118.576 98.7792 120.745 99.1902 122.669C99.2007 122.749 99.4091 123.213 100.358 131.562C100.24 132.885 99.231 134.097 97.9474 134.45ZM106.953 130.143C107.126 131.463 105.904 132.601 104.655 132.835C103.342 133.079 101.904 132.501 101.123 131.424C101.079 131.036 100.202 124.123 100.132 122.537C99.9827 120.254 99.8847 119.279 101.414 118.8C104.198 117.93 105.754 122.381 106.175 125.278C106.175 125.278 106.717 128.327 106.953 130.143ZM105.866 121.26C104.973 119.209 103.467 117.446 101.313 118.022C100.119 118.346 99.4647 119.023 99.3165 120.209C99.0917 119.594 98.8281 119.049 98.4613 118.516C96.7425 116.022 93.7624 116.122 92.6316 117.722C92.1313 118.438 92.0439 119.348 92.0871 120.212C91.107 118.952 89.5413 118.063 88.0723 118.705C87.2119 119.082 86.5651 119.967 86.3421 121.076C86.2486 121.555 86.2331 122.116 86.2591 122.599C84.791 121.009 81.3063 121.458 80.7886 124.979L51.8484 129.273L31.0366 123.428C30.6504 121.678 29.4209 120.788 27.8517 120.788C27.0544 120.788 26.4297 121.181 25.9585 121.828C26.2439 120.049 26.0217 118.186 24.65 116.996C23.4235 115.93 21.7727 115.795 20.6302 116.886C20.2261 117.269 19.9093 117.776 19.6622 118.275C19.2032 115.165 16.7367 114.179 14.8333 115.633C14.2067 116.111 13.7679 116.775 13.4113 117.483C13.2393 116.749 12.7158 116.031 11.8568 115.61C10.3958 114.894 8.80401 115.189 7.51218 116.816L4.02411 115.836L8.52546 104.611C38.5012 114.723 36.3379 113.882 39.3279 115.092C45.0767 117.412 50.918 120.481 52.2355 126.544C52.3201 126.93 52.8437 126.897 52.9832 126.584C56.4296 116.694 98.7661 111.24 109.174 110.074V120.769L105.866 121.26Z" fill="black"/>
<path d="M129.274 18.736C134.939 18.736 139.149 13.1738 137.286 7.4307C136.918 6.29886 136.375 5.46932 135.467 4.65709C135.257 4.46945 134.941 4.71467 135.072 4.96461C139.411 13.2247 131.183 19.3496 124.995 16.3421C124.068 15.8922 123.241 15.1143 122.536 14.0301C122.37 13.7723 121.971 13.9804 122.087 14.2651C123.17 16.9007 126.038 18.736 129.274 18.736ZM152.868 29.1948C157.474 29.1948 160.88 24.6724 159.371 20.0197C159.076 19.1111 158.62 18.4151 157.891 17.7632C157.68 17.5747 157.365 17.8217 157.496 18.0707C160.956 24.6566 154.418 29.5899 149.44 27.1724C148.701 26.8136 148.041 26.1927 147.478 25.3266C147.312 25.0693 146.913 25.2769 147.03 25.5617C147.906 27.6943 150.227 29.1948 152.868 29.1948Z" fill="black"/>
<path d="M140.346 36.6997V36.8624C140.295 39.2087 139.131 41.4051 137.119 42.7374L137.117 42.7368C136.123 43.4014 136.136 43.246 134.942 43.3646C130.733 43.8024 131.045 43.7264 130.359 43.4596C127.28 42.2176 125.546 39.2094 125.782 36.259C126.03 32.5028 129.169 29.5229 133.02 29.506C137.047 29.4856 140.326 32.7062 140.346 36.6997Z" fill="#FFCE6F"/>
<path d="M128.352 17.571C132.964 17.571 136.703 13.8615 136.703 9.28552C136.703 4.70955 132.964 1 128.352 1C123.739 1 120 4.70955 120 9.28552C120 13.8615 123.739 17.571 128.352 17.571Z" fill="#FFCE6F"/>
<path d="M152.124 28.207C155.842 28.207 158.855 25.2175 158.855 21.5298C158.855 17.842 155.842 14.8525 152.124 14.8525C148.407 14.8525 145.394 17.842 145.394 21.5298C145.394 25.2175 148.407 28.207 152.124 28.207Z" fill="#FFCE6F"/>
<path d="M135.512 36.9146C135.035 35.8866 133.914 35.7808 133.013 35.6959C132.214 35.6202 131.364 35.4439 131.119 34.7081C131.009 34.3793 131.069 33.9889 131.28 33.6637C131.856 32.7716 132.969 32.8321 132.935 32.8394H132.937C132.939 32.8394 132.941 32.8381 132.943 32.8381C133.889 32.8629 134.595 33.533 134.811 34.2997C134.849 34.4351 134.989 34.5141 135.125 34.4756C135.26 34.4374 135.339 34.2971 135.3 34.1619C135.04 33.2365 134.24 32.4724 133.188 32.3419L133.185 31.5894C133.184 31.4493 133.07 31.3364 132.93 31.3364H132.929C132.789 31.337 132.675 31.4516 132.676 31.592L132.68 32.3314C131.183 32.4492 130.273 33.7781 130.637 34.869C130.976 35.8876 132.06 36.1164 132.966 36.202C133.817 36.2826 134.697 36.3655 135.051 37.1288C135.404 37.8883 134.907 39.0323 133.614 39.3203C132.452 39.5776 131.165 38.9236 130.683 37.8303C130.626 37.7017 130.477 37.6436 130.348 37.7001C130.219 37.7569 130.161 37.9071 130.218 38.0354C130.688 39.1028 131.801 39.8124 132.95 39.8722L132.953 40.4453C132.954 40.5853 133.067 40.6983 133.207 40.6983H133.209C133.349 40.6976 133.462 40.583 133.462 40.4427L133.459 39.8601C133.547 39.8491 133.636 39.836 133.724 39.8165C135.307 39.4646 136.008 37.9801 135.512 36.9146ZM128.268 12.8472L128.271 13.5325C128.272 13.6726 128.386 13.7855 128.526 13.7855H128.527C128.667 13.7849 128.781 13.6703 128.78 13.5299L128.776 12.8309C130.749 12.6079 131.736 10.8008 131.133 9.50401C130.594 8.34573 129.322 8.22559 128.3 8.12928C127.373 8.04146 126.386 7.83547 126.099 6.97296C125.772 5.99148 126.733 4.75251 128.184 4.77743C128.195 4.77865 128.204 4.78339 128.214 4.78339H128.215C129.171 4.77752 130.114 5.47666 130.398 6.48327C130.436 6.61875 130.576 6.69743 130.712 6.65923C130.847 6.62104 130.926 6.48066 130.888 6.3455C130.591 5.29258 129.677 4.41995 128.467 4.28407L128.463 3.38875C128.462 3.2487 128.348 3.13574 128.208 3.13574H128.207C128.067 3.1364 127.953 3.25098 127.954 3.39136L127.958 4.27268C126.251 4.38627 125.203 5.8957 125.616 7.13358C125.998 8.27978 127.226 8.53834 128.252 8.6353C129.237 8.72834 130.256 8.82464 130.672 9.71817C131.085 10.6081 130.506 11.9451 128.999 12.2799C127.653 12.5793 126.159 11.8202 125.6 10.5523C125.544 10.4233 125.394 10.3652 125.265 10.422C125.136 10.4788 125.078 10.629 125.135 10.7573C125.673 11.9782 126.953 12.7929 128.268 12.8472ZM152.007 24.4415L152.01 24.9528C152.011 25.0928 152.124 25.2058 152.264 25.2058H152.265C152.406 25.2051 152.519 25.0905 152.518 24.9502L152.516 24.4289C154.103 24.2232 154.91 22.7602 154.41 21.6852C153.582 19.9039 150.857 21.1561 150.355 19.6507C150.256 19.3523 150.31 18.9981 150.501 18.703C151.028 17.8887 152.046 17.9439 152.013 17.9512H152.014C152.016 17.9512 152.018 17.95 152.02 17.95C152.883 17.9727 153.528 18.5832 153.726 19.2848C153.764 19.4202 153.904 19.4992 154.039 19.4607C154.175 19.4225 154.253 19.2822 154.215 19.147C153.981 18.3155 153.275 17.5952 152.266 17.4622L152.263 16.7775C152.262 16.6375 152.148 16.5245 152.008 16.5245H152.007C151.867 16.5252 151.753 16.6398 151.754 16.7802L151.757 17.4469C150.377 17.5665 149.533 18.7907 149.873 19.8113C150.19 20.762 151.197 20.9755 152.039 21.0548C152.819 21.1289 153.626 21.2053 153.949 21.8994C154.268 22.5864 153.819 23.6312 152.635 23.895C151.57 24.1307 150.393 23.5317 149.952 22.5308C149.895 22.4021 149.746 22.3437 149.616 22.4005C149.488 22.4573 149.43 22.6075 149.486 22.7358C149.921 23.7218 150.946 24.3793 152.007 24.4415Z" fill="black"/>
</g>
<defs>
<clipPath id="clip0_61_180">
<rect width="170" height="146" fill="white"/>
</clipPath>
</defs>
</svg>
