<svg width="170" height="147" viewBox="0 0 170 147" fill="none" xmlns="http://www.w3.org/2000/svg">
<path d="M95.8495 98.4084C94.2075 99.167 93.2465 99.6656 93.0934 101.628C92.9088 104.039 93.0582 106.972 93.2359 110.852C93.2888 112.38 93.4049 113.6 92.9298 115.043C92.5021 116.348 92.0374 117.642 91.4725 118.899C91.0184 119.907 90.4323 120.952 89.5769 121.609C89.4818 121.18 89.8693 120.846 90.1736 120.57C91.7543 119.128 91.7717 117.319 89.4397 116.671C88.6847 116.464 87.3753 116.687 86.6308 116.793C87.597 116.454 88.4998 114.719 88.03 113.531C87.56 112.343 86.4935 111.627 85.4691 111.478C82.5253 111.038 76.0816 115.298 73.6368 116.905C74.603 116.273 75.374 113.531 75.5429 112.454C75.7435 111.139 75.0677 109.505 73.9905 108.731C73.5471 108.418 72.5756 108.28 72.0476 108.396C71.4561 108.529 71.0338 109.054 70.7276 109.579C69.4076 111.812 69.6874 114.518 69.001 116.963C68.8479 117.679 68.8373 118.729 68.4097 119.318C67.6599 120.358 66.1393 120.389 64.8932 120.66C54.3619 122.917 48.0129 124.268 47.4536 124.405C43.223 124.254 39.9192 120.711 40.2518 116.146C40.2834 115.7 40.4629 111.425 41.2074 111.595C34.5664 109.983 26.6526 110.455 19 113.446C20.2407 106.126 22.4214 98.9707 25.4732 92.2024C28.1026 86.3624 32.976 82.1455 38.8842 79.6525C42.01 78.3317 45.1463 77.0057 48.3987 76.019C51.5297 75.0513 53.0203 74.9347 53.4569 74.7884C54.2418 74.5036 54.528 74.7545 54.5498 75.3242C54.5848 76.5032 54.2685 77.6931 55.5847 79.4562C57.9453 82.607 62.2828 83.1832 65.0886 81.7954C69.6692 79.5326 68.1274 76.0774 68.0665 76.0774C71.2844 75.9134 74.2662 75.875 81.7099 77.8119C80.1319 79.5434 79.636 79.6404 79.9992 81.021C80.5166 82.9942 82.3646 84.3945 83.8904 85.5827C88.3308 89.0459 93.8241 90.4052 99.366 91.1575C99.4504 91.8365 98.112 97.3659 95.8495 98.4084Z" fill="#0E7C9F"/>
<path d="M116.329 88.6193C113.663 95.7187 98.7132 135.541 98.4626 136.208L79.6827 132.959C81.2867 132.732 80.7217 132.824 88.4618 130.906C89.1035 130.746 89.8016 130.545 90.1713 129.993C90.8012 129.075 90.2258 127.582 89.2934 126.925C89.1394 126.816 88.8571 126.816 88.8673 126.569C88.904 126.125 89.8972 125.653 90.3356 125.207C91.0362 124.483 91.1028 123.354 90.6385 122.649C90.3563 122.235 89.5655 122.201 89.5655 121.463C89.5758 121.091 89.8992 120.818 90.1713 120.57C91.7558 119.138 91.77 117.32 89.4371 116.671C88.6825 116.465 87.3733 116.687 86.6289 116.795C87.5992 116.455 88.4977 114.717 88.0305 113.53C87.5582 112.344 86.4954 111.627 85.4686 111.478C82.5386 111.036 76.1096 115.277 73.635 116.903C74.6053 116.274 75.3754 113.53 75.5448 112.452C75.7451 111.137 75.0673 109.507 73.9892 108.729C73.5477 108.419 72.5774 108.28 72.0487 108.399C71.4582 108.527 71.0321 109.054 70.7292 109.58C69.4098 111.813 69.687 114.515 68.9991 116.965C68.8502 117.677 68.8348 118.729 68.4087 119.317C67.6592 120.359 66.1395 120.39 64.892 120.658C63.3107 120.999 61.7295 121.339 60.1533 121.674C65.2411 109.533 75.0622 86.0662 77.5368 79.8926C77.8807 79.0313 78.8151 78.5671 79.7084 78.8044C79.7606 78.8184 81.0441 79.164 80.9919 79.1499L116.329 88.6193ZM139.575 72.5688C139.493 73.0279 139.241 73.4095 139.026 73.8118C138.729 74.3607 119.932 113.664 119.907 113.716C119.684 114.164 120.509 113.053 104.634 132.175C109.923 119.757 103.878 133.887 123.988 85.8341C124.847 85.0228 137.962 72.8491 138.466 72.3729C138.669 72.169 138.881 71.8987 139.108 71.8158C139.268 71.7495 139.412 71.8093 139.482 71.9086C139.621 72.0737 139.611 72.3729 139.575 72.5688Z" fill="#FFCE6F"/>
<path d="M33.697 32.2311C31.7155 32 29.8384 30.8877 28.4021 29.6396C26.1885 27.7159 25.2669 24.8288 25.3967 23.7028C25.5126 22.6976 26.3255 22.1571 27.2593 22.3135C27.7148 22.3899 28.1135 22.6179 28.4796 22.8711C31.4562 24.9302 32.7469 28.7486 33.697 32.2311Z" fill="#E5DFDF"/>
<path d="M35.2414 35.3408C35.9048 35.3408 36.4427 34.8004 36.4427 34.1339C36.4427 33.4673 35.9048 32.927 35.2414 32.927C34.5779 32.927 34.04 33.4673 34.04 34.1339C34.04 34.8004 34.5779 35.3408 35.2414 35.3408Z" fill="#E5DFDF"/>
<path d="M39.8306 26.9592C38.3619 26.4926 37.1007 25.3732 36.1936 24.2156C34.7955 22.4316 34.5175 20.1071 34.78 19.2725C35.0144 18.5273 35.7095 18.2371 36.3946 18.493C36.7289 18.6179 36.9979 18.8494 37.2386 19.0952C39.1955 21.0941 39.6176 24.179 39.8306 26.9592Z" fill="#E5DFDF"/>
<path d="M40.7236 29.561C41.2359 29.561 41.6513 29.1437 41.6513 28.629C41.6513 28.1143 41.2359 27.697 40.7236 27.697C40.2112 27.697 39.7959 28.1143 39.7959 28.629C39.7959 29.1437 40.2112 29.561 40.7236 29.561Z" fill="#E5DFDF"/>
<path d="M40.1544 60.9844C42.3495 63.9968 41.8435 64.4511 42.7051 66.6316C44.5085 71.2011 49.8382 73.3533 54.34 71.1614C54.2371 74.1683 53.9628 77.4048 53.84 78.7534C53.8199 78.9723 53.9804 79.1659 54.1982 79.1858C54.4074 79.2073 54.6082 79.0509 54.6286 78.826C54.8969 75.8805 55.4684 68.7193 54.9866 65.8474C54.9318 65.522 54.5132 65.4185 54.3063 65.6421C52.4003 67.6941 49.2111 67.8612 47.1022 66.0196C44.5944 63.8296 45.3685 60.3082 47.7971 59.7311C48.9716 59.4516 50.3971 60.2027 50.6641 61.4058C50.7113 61.6181 50.9203 61.751 51.1302 61.7092C51.342 61.6654 51.4796 61.4594 51.44 61.2461C50.8203 57.9244 49.6985 55.373 48.0177 53.4709C51.5553 51.7939 54.0888 46.1379 54.9445 41.6603C55.4485 41.8737 55.9548 42.124 56.5142 42.2975C60.0491 43.3948 65.5469 43.2522 67.6371 40.1511L67.7394 40.2606C74.4684 47.2032 79.1872 57.8302 74.5601 65.9217C73.9033 67.07 73.1097 68.2307 71.76 68.9402C67.6853 71.0832 63.1452 70.5935 58.6483 69.6433C58.4377 69.5997 58.2246 69.7357 58.1793 69.9508C58.1344 70.1659 58.2713 70.3766 58.4853 70.422C61.4472 71.0479 64.3731 71.4769 67.3522 71.1124C67.4253 73.0228 67.9794 79.6564 68.0422 80.2521C68.0638 80.4564 68.2355 80.608 68.4355 80.608C68.6726 80.608 68.8545 80.4019 68.8299 80.168C68.7547 79.457 68.187 72.5339 68.1384 70.9868C69.5541 70.7351 70.8954 70.2931 72.1275 69.6453C73.6567 68.8412 74.5305 67.5709 75.247 66.3181C80.0796 57.8667 75.2435 46.8625 68.312 39.7109L68.039 39.4186C68.1468 39.1773 68.2431 38.9281 68.3145 38.6663C69.5483 34.1348 68.5245 29.4091 65.7061 26.6268C62.4212 23.3841 56.9411 22.6926 52.9589 25.0178C48.3628 27.7026 46.5541 33.2279 43.3433 37.2943C41.4112 39.741 39.3053 41.292 37.9798 44.3026C37.0029 46.5218 34.1579 54.168 38.5646 59.3931C39.0683 59.9904 39.7392 60.4157 40.1544 60.9844Z" fill="black"/>
<path d="M62.2527 47.5719C64.2015 50.4448 66.3509 50.4282 67.8201 51.2759C68.4016 51.6116 69.0782 52.254 69.0717 52.9597C69.0632 53.8587 68.611 54.7787 68.1485 55.6442C68.0066 55.9099 68.1999 56.2302 68.4971 56.2302C68.6383 56.2302 68.7749 56.1542 68.8463 56.0205C69.3555 55.0678 69.8536 54.0471 69.8638 52.9672C69.8734 51.9191 69.0181 51.0497 68.2146 50.5859C66.571 49.6377 64.7129 49.7857 62.907 47.1236C62.7839 46.9423 62.538 46.8952 62.3568 47.0191C62.176 47.1428 62.1294 47.3903 62.2527 47.5719ZM67.1131 45.2719C65.761 44.8553 64.9164 45.7315 65.1601 46.7831C65.3871 47.7597 67.0322 49.5239 68.2023 49.5239C68.6799 49.5239 69.1366 49.2647 69.3632 48.8459C69.6641 48.2901 69.4036 47.6424 69.2637 47.2946C68.8732 46.3233 68.0692 45.567 67.1131 45.2719ZM59.4765 54.6764C60.035 54.774 60.6025 54.4986 60.8625 54.0179C61.1633 53.4618 60.9028 52.8144 60.7629 52.4666C60.3724 51.4955 59.5685 50.7395 58.6124 50.4441C57.2772 50.0299 56.4133 50.8907 56.6593 51.9551C56.8731 52.8775 58.3435 54.4783 59.4765 54.6764ZM68.5556 42.8014C66.2679 42.0307 63.0763 42.4152 62.2317 44.6471C62.154 44.8523 62.2567 45.0822 62.4613 45.1603C62.6656 45.238 62.8943 45.1354 62.9722 44.9296C63.6488 43.139 66.4381 42.9271 68.3039 43.5559C68.5109 43.6264 68.7355 43.5133 68.8052 43.305C68.8747 43.0968 68.7629 42.8714 68.5556 42.8014ZM58.3504 46.7771C58.2549 46.5792 58.0185 46.4966 57.8215 46.5923C55.513 47.7142 53.6504 49.6206 52.5763 51.9606C52.4848 52.1601 52.5715 52.3963 52.7703 52.4885C52.9701 52.5804 53.2044 52.4925 53.2957 52.2936C54.2784 50.1522 56.0537 48.3352 58.1664 47.3085C58.3632 47.2128 58.4457 46.9748 58.3504 46.7771ZM48.5875 62.1663C48.61 61.9479 48.4516 61.7525 48.234 61.7301C48.0192 61.7049 47.8219 61.8666 47.7998 62.0852C47.5632 64.3897 50.2703 64.5215 49.8923 64.4338C50.1091 64.4338 50.2861 64.2583 50.2883 64.0402C50.2906 63.8203 50.1151 63.6405 49.8965 63.638C49.1169 63.63 48.5082 62.9465 48.5875 62.1663ZM64.6933 60.8036C64.4898 60.7243 64.2602 60.8242 64.18 61.0287C64.1002 61.2332 64.2005 61.4641 64.4041 61.5445C66.2116 62.2568 68.3599 62.3428 70.2953 61.6847C70.5026 61.6145 70.6136 61.3886 70.5434 61.1806C70.4735 60.9726 70.2486 60.8602 70.0416 60.9313C68.3267 61.5138 66.3777 61.4677 64.6933 60.8036ZM139.107 71.816C138.881 71.8985 138.666 72.1718 138.512 72.3266H138.507C137.3 71.13 136.109 70.0727 134.769 69.0103C129.092 69.5908 123.81 72.7912 120.733 78.2526C119.823 79.9141 119.468 81.1458 119.331 81.4658C119.157 81.9506 118.988 82.4045 119.024 82.8171C119.029 82.8584 119.039 82.8945 119.044 82.9358C119.659 83.9822 119.615 84.2161 120.045 85.1329C121.123 84.8286 122.438 84.9265 123.988 85.8291V85.8343C103.57 134.621 110.171 119.174 104.633 132.175C104.633 132.18 104.628 132.18 104.628 132.186C104.628 132.186 100.449 139.226 98.4622 136.209C99.4736 133.449 116.308 88.6709 116.328 88.6194V88.6143C116.328 88.6143 117.293 86.4532 119.213 85.4629C119.046 84.5345 118.498 83.9028 118.305 83.2555C116.571 80.3929 113.865 78.1404 110.614 77.2676C107.289 76.3739 103.642 76.8978 100.151 77.3707C93.8832 78.2136 89.5114 78.811 83.8819 75.9833C80.7817 79.4358 81.1643 78.952 80.9915 79.15C80.9393 79.136 80.1179 78.9142 80.1701 78.9283C80.2011 78.8032 79.8561 79.2429 83.4968 75.22C83.62 75.0859 83.81 75.0549 83.9692 75.1374C90.1028 78.3107 94.5687 77.2516 101.419 76.4011C104.489 75.9988 107.744 75.6738 110.819 76.4991C113.939 77.3366 116.434 79.2669 118.356 81.8887C118.458 81.5268 118.531 81.3734 118.705 80.8727C121.29 73.5277 127.707 68.8716 134.851 68.2005C134.954 68.1953 135.057 68.2211 135.134 68.2882C136.545 69.4022 137.793 70.5059 139.061 71.7592C139.082 71.7747 139.097 71.7953 139.107 71.816Z" fill="black"/>
<path d="M87.8902 116.116C88.7848 114.985 89.1272 113.489 88.2159 112.387C87.2989 111.277 85.5416 110.999 84.2797 111.298C81.5628 111.942 78.0072 113.094 75.2382 115.073C76.2347 112.828 76.4753 110.353 74.7554 108.745C73.2405 107.327 70.9166 107.584 69.9376 109.869C69.2946 111.368 69.4341 113.052 69.1267 114.554C69.0401 114.973 68.5209 118.596 68.1651 119.213C59.7554 121.407 49.0117 123.63 46.7636 124.017C46.7259 123.929 46.678 123.842 46.6468 123.755C44.9035 118.935 39.8973 109.341 39.8729 109.285C39.8601 108.947 39.847 108.606 39.8376 108.282C39.8311 108.062 39.6383 107.89 39.4302 107.896C39.2116 107.903 39.0394 108.086 39.0459 108.305C39.1552 112.057 39.4495 116.893 40.7661 121.025C41.465 123.218 42.5897 125.376 44.8692 125.105C47.5504 124.789 50.2487 124.121 52.8629 123.586C58.07 122.522 63.3167 121.301 68.4568 119.959C68.883 119.847 69.1535 119.36 69.791 115.381C69.8421 115.062 69.8805 114.822 69.9023 114.714C70.2797 112.874 69.9934 109.645 71.8944 108.819C72.6101 108.508 73.5637 108.717 74.2159 109.327C76.6167 111.572 74.0751 115.709 73.5414 116.515C73.279 116.911 73.8123 117.353 74.1495 117.018C76.8812 114.303 81.265 112.83 84.4617 112.072C85.6163 111.799 86.9981 112.16 87.6067 112.896C88.0374 113.417 88.08 114.081 87.7326 114.87C87.3806 115.67 86.6642 116.383 85.7667 116.827C82.9531 118.219 80.1982 119.389 77.5783 120.305C77.3717 120.377 77.2624 120.603 77.3344 120.811C77.4063 121.018 77.6314 121.128 77.8385 121.056C80.4889 120.13 83.274 118.947 86.1167 117.541C86.3446 117.428 86.5605 117.297 86.7671 117.156C86.9652 117.172 88.0023 116.771 89.0185 116.853C89.738 116.912 90.3597 117.231 90.6805 117.707C91.2546 118.559 90.8254 119.829 90.098 120.518C89.4036 121.175 88.4525 121.443 87.4458 121.727C84.5099 122.553 81.9047 123.922 79.3636 124.138C79.1455 124.157 78.9839 124.349 79.0024 124.568C79.021 124.788 79.2142 124.95 79.4303 124.931C81.1738 124.782 82.9601 124.125 84.6876 123.489C87.7922 122.346 88.3691 122.341 88.8451 122.133C89.4811 121.863 90.5525 122.736 90.672 123.474C90.7923 124.211 90.3817 125.056 89.6272 125.628C88.7237 126.312 87.5515 126.564 85.9628 127.052C84.5585 127.484 83.1063 127.93 81.6383 128.066C81.4205 128.086 81.26 128.279 81.2801 128.498C81.3006 128.723 81.5015 128.879 81.7105 128.858C83.5598 128.687 85.307 128.073 87.0936 127.541C87.1503 127.548 87.2088 127.546 87.2673 127.526C87.7692 127.356 88.6666 127.422 89.1514 127.666C89.9637 128.067 90.3656 128.973 90.2674 129.466C90.14 130.014 89.3907 130.507 88.8757 130.752C88.7503 130.778 88.621 130.801 88.4575 130.831C87.9146 130.937 60.6963 136.132 44.841 139.159H31.63C28.4304 137.379 25.7644 134.136 24.3734 128.866C22.7021 122.512 22.9696 120.715 21.8478 112.558C21.7988 112.203 21.3465 112.09 21.1369 112.378C20.3187 112.588 19.5573 112.827 19.002 113.457C19.579 114.034 20.4765 114.403 21.3414 114.493C21.9382 118.463 21.7255 121.913 23.6079 129.069C24.6772 133.121 26.6091 136.72 30.1266 139.159H20.4734C20.2548 139.159 20.0773 139.338 20.0773 139.557C20.0773 139.777 20.2548 139.955 20.4734 139.955H44.8737C45.0977 139.957 89.0947 140.394 89.0396 140.394C89.2567 140.394 89.4337 140.218 89.4357 140C89.4377 139.78 89.2622 139.6 89.0436 139.598L48.8759 139.199C90.6902 131.215 89.0809 131.534 89.1684 131.493C89.964 131.122 90.8427 130.488 91.041 129.635C91.24 128.648 90.4799 127.25 89.1662 126.819C91.976 125.495 92.1677 122.689 90.053 121.551C92.9042 119.716 92.1134 115.466 87.8902 116.116ZM123.698 24.1321C123.853 22.9896 124.015 21.8084 123.868 20.6173C123.699 19.2362 123.115 18.0835 122.223 17.3721C122.052 17.2354 121.803 17.2646 121.666 17.4363C121.531 17.6083 121.559 17.8584 121.731 17.9952C122.459 18.5761 122.939 19.5419 123.082 20.7147C123.216 21.8029 123.062 22.9321 122.913 24.0238C122.758 25.1619 122.578 26.1594 121.952 26.8429C121.159 27.7082 119.864 27.8044 118.915 27.6059C117.53 27.3168 116.796 26.7698 111.084 23.2595C109.544 22.3141 107.79 21.3523 106.043 22.1872C105.845 22.2816 105.761 22.5191 105.855 22.7176C105.948 22.9153 106.185 23.0006 106.383 22.9059C107.821 22.2183 109.428 23.1749 110.671 23.9382C116.24 27.3605 117.176 28.0555 118.754 28.3851C120.121 28.6706 121.621 28.3794 122.534 27.3818C123.38 26.4591 123.556 25.1689 123.698 24.1321Z" fill="black"/>
<path d="M120.084 22.1774C120.602 22.2749 120.738 21.4877 120.225 21.3947C118.988 21.1693 117.86 20.3337 117.281 19.2138C117.18 19.0191 116.942 18.9423 116.747 19.044C116.553 19.1455 116.477 19.3855 116.578 19.5804C117.268 20.9142 118.611 21.9094 120.084 22.1774Z" fill="black"/>
<path d="M149.663 64.0382C148.246 59.7626 144.59 56.6062 140.771 56.3741C138.219 56.2142 135.77 57.2457 133.481 58.3134C131.276 59.3378 129.894 61.2312 127.423 61.1604C126.884 61.1449 126.36 61.0211 125.872 60.8147C129.495 59.515 130.013 56.6499 128.331 54.9351C126.84 53.4255 124.631 53.6847 123.434 55.4457C122.374 57.0042 122.48 59.0004 123.962 60.4899C121.673 60.8664 119.275 60.5054 117.119 60.1752C114.531 59.7832 111.302 58.7724 110.609 56.1936C109.896 53.5581 112.406 50.9328 115.142 50.0148C117.941 49.0704 121.083 49.1893 123.962 48.1168C126.092 47.3238 128.068 45.5006 128.639 43.3202L131.817 41.5821C132.693 41.0972 132.895 39.9363 132.418 39.0343L131.288 36.8681C134.053 34.8801 135.119 31.3913 134.369 28.3632C133.82 26.1145 131.94 24.0618 129.528 23.0148C130.826 21.0137 130.816 18.1873 129.44 16.2171C127.972 14.1128 125.6 13.1225 123.423 13.6641C122.776 11.0131 120.672 8.76439 118.064 7.99075C115.363 7.18097 112.303 7.9237 110.337 9.83204C104.094 5.95254 96.0681 8.72997 95.4949 12.9318C92.8612 11.8176 89.5036 12.8646 88.0404 15.3713C86.7415 17.6045 87.142 20.7351 88.7592 22.6383C82.6932 22.1223 78.4768 28.5391 80.8324 34.6709C83.1311 40.6549 90.7851 44.0309 97.6614 41.3707C102.526 44.5239 107.743 44.1912 108.437 44.2795C111.744 44.2795 114.515 43.4075 115.276 40.1484C116.917 42.0221 119.7 42.8826 122.258 41.8246L124.055 43.5575C125.077 44.5474 125.837 44.8557 127.582 43.903L127.597 43.8927C126.919 45.3729 125.39 46.7397 123.69 47.3741C120.921 48.4014 117.751 48.2899 114.891 49.2618C111.816 50.2933 109.012 53.3156 109.844 56.3999C110.481 58.7724 112.955 60.3506 117.001 60.9643C119.429 61.3305 122.155 61.7431 124.774 61.1397C125.533 61.6297 126.447 61.9289 127.402 61.9546C130.165 62.0394 131.659 60.046 133.814 59.0354C136.012 58.009 138.348 57.0137 140.725 57.1684C144.231 57.385 147.594 60.3145 148.908 64.291C153.19 77.2365 144.426 91.9305 133.132 98.5581L133.506 96.0411C133.65 95.087 132.926 94.1999 131.848 94.0142L129.522 93.6325C129.497 93.6845 129.148 94.4065 129.173 94.3546C129.173 94.3597 129.178 94.3597 129.178 94.3597C128.707 95.3436 125.594 101.841 124.399 104.335C124.629 104.45 124.453 104.36 130.411 103.447C130.796 103.386 131.191 103.319 131.561 103.128C132.731 102.496 132.764 101.038 132.988 99.5638C145.189 92.7443 154.093 77.4428 149.663 64.0382ZM125.857 37.6314C126.114 35.9603 125.995 34.2017 125.503 32.5306C125.441 32.3191 125.22 32.1953 125.01 32.2624C124.799 32.3242 124.681 32.546 124.743 32.7523C125.612 35.7011 124.986 37.613 125.025 37.9667C124.387 39.8173 122.499 41.2441 120.543 41.4584C118.556 41.6853 116.431 40.6538 115.368 38.9466C115.358 38.895 115.332 38.8435 115.302 38.8022C114.701 38.0079 114.562 36.8991 114.942 35.981C115.024 35.7747 114.927 35.5426 114.726 35.4601C114.521 35.3776 114.29 35.4704 114.208 35.6767C113.736 36.8217 113.9 38.1936 114.619 39.2045C114.49 40.7311 113.751 42.036 112.663 42.6188C111.549 43.2119 110.178 43.5008 108.381 43.4802C104.397 43.4647 100.957 42.5311 98.1389 40.726C98.029 40.5053 95.8433 37.8108 96.4754 34.1552C96.8707 31.8549 98.4212 29.8074 100.429 28.9357C102.539 28.0177 105.116 28.4406 106.687 29.9672C108.319 31.5506 108.694 34.2377 107.544 36.0893C107.426 36.275 107.483 36.5174 107.667 36.636C107.857 36.7546 108.099 36.6979 108.217 36.5122C109.557 34.3512 109.131 31.2257 107.241 29.3947C105.231 27.4498 101.697 26.9604 98.9243 28.8687C97.0753 24.3152 99.0212 19.2735 103.134 17.0527C103.324 16.9495 103.396 16.7071 103.293 16.5111C103.191 16.3203 102.954 16.2481 102.759 16.3512C101.635 16.9598 100.639 17.785 99.8176 18.7598C98.9243 18.1151 97.7025 17.9965 96.7013 18.4865C96.5062 18.5845 96.4241 18.8217 96.5217 19.0177C96.614 19.2137 96.8502 19.2961 97.0505 19.1982C97.7692 18.8475 98.6779 18.9351 99.335 19.3891C97.3622 22.16 96.9942 25.4666 97.9078 28.389C96.1674 26.9759 93.7237 26.424 91.5623 27.0119C89.2161 27.6566 87.1214 29.5804 85.8175 32.2933C85.725 32.4893 85.8072 32.7265 86.0023 32.8246C86.2265 32.9268 86.4464 32.8219 86.5311 32.6389C87.7376 30.1322 89.6473 28.3632 91.7677 27.7804C93.9444 27.1873 96.4446 27.8939 97.9899 29.5443C98.0105 29.565 98.031 29.5701 98.0464 29.5856C95.0982 32.3956 94.7577 36.9923 97.184 40.7001C90.8472 43.0228 83.722 39.9835 81.5717 34.3873C79.1006 27.9399 84.5168 21.883 90.0324 23.7007C90.0734 23.7111 90.1146 23.7162 90.1505 23.7162C91.0608 24.192 92.1135 24.4229 93.1486 24.3042C93.3694 24.2836 93.5234 24.0876 93.5029 23.871C93.4824 23.6492 93.2821 23.4893 93.0665 23.5151C91.424 23.6846 90.414 22.9234 90.2018 22.8704C88.1123 21.4572 87.3833 18.0739 88.7233 15.7736C90.058 13.4836 93.3694 12.5964 95.6643 13.9013C95.9358 14.0542 96.2657 13.8506 96.2547 13.5403C96.1026 9.68755 103.819 6.86365 109.762 10.4148C109.382 10.7971 109.063 11.0267 108.561 11.7197C107.955 12.5553 107.832 13.2566 108.191 13.8034C108.449 14.2016 108.803 14.3649 109.777 14.5254C111.138 14.7627 112.38 15.7375 112.95 17.001C113.036 17.2104 113.289 17.2924 113.469 17.2022C113.669 17.1145 113.761 16.8773 113.669 16.6762C112.991 15.1546 111.549 14.0303 109.911 13.7415C109.445 13.6652 109.01 13.6121 108.853 13.3701C108.643 13.0504 108.982 12.4933 109.202 12.189C109.676 11.5355 109.798 11.5131 110.681 10.616C112.406 8.77471 115.353 8.0114 117.838 8.75406C120.307 9.48646 122.278 11.6887 122.735 14.2366C122.776 14.4626 123.01 14.6227 123.254 14.5409C125.205 13.8653 127.433 14.7266 128.793 16.6762C130.067 18.4968 129.995 21.1633 128.624 22.9065C127.222 22.855 125.821 23.675 125.225 24.9747C125.133 25.1707 125.22 25.4079 125.42 25.5007C125.597 25.5896 125.847 25.5153 125.944 25.3048C126.463 24.1856 127.813 23.4997 129.014 23.7472C129.076 23.7575 129.137 23.7524 129.194 23.7369C131.396 24.6859 133.106 26.5374 133.604 28.5592C134.184 30.8905 133.547 33.4538 131.946 35.2383C130.391 36.9577 128.07 37.8214 125.857 37.6314ZM124.938 60.2784C122.297 58.2618 123.812 54.962 125.867 54.7495C128.451 54.5498 130.44 58.7241 124.938 60.2784Z" fill="black"/>
</svg>
