<svg width="24" height="24" viewBox="0 0 24 24" fill="none" xmlns="http://www.w3.org/2000/svg">
<path fill-rule="evenodd" clip-rule="evenodd" d="M4.7579 4.47288C3.53983 4.63135 2.57344 5.58293 2.38923 6.80523C1.87026 10.2487 1.87026 13.7513 2.38923 17.1948C2.57344 18.4171 3.53983 19.3686 4.7579 19.5271C9.60411 20.1576 14.3959 20.1576 19.2421 19.5271C20.4602 19.3686 21.4266 18.4171 21.6108 17.1948C22.1297 13.7513 22.1297 10.2487 21.6108 6.80523C21.4266 5.58293 20.4602 4.63135 19.2421 4.47288C14.3959 3.84237 9.60411 3.84237 4.7579 4.47288ZM10 9.49897V14.501C10 14.8943 10.4413 15.1325 10.7783 14.9211L14.7659 12.4201C15.078 12.2243 15.078 11.7757 14.7659 11.5799L10.7783 9.07888C10.4413 8.86752 10 9.10572 10 9.49897Z" fill="#0E1117"/>
</svg>
