<svg width="170" height="147" viewBox="0 0 170 147" fill="none" xmlns="http://www.w3.org/2000/svg">
<g clip-path="url(#clip0_61_145)">
<path d="M19.1562 130.55H13.6027L0 62.1143H5.55289L19.1562 130.55Z" fill="#FFCE6F"/>
<path d="M96.0817 82.9492L95.9491 82.2994C89.8866 51.7534 97.3363 89.2787 92.191 63.382L91.9391 62.1155H3.63281L17.2337 130.551H105.54L96.0817 82.9492ZM10.1615 67.1681H87.4188L97.3013 116.885H20.0441L10.1615 67.1681ZM27.0367 125.591C25.6117 125.591 24.2662 124.411 24.0275 122.952C23.7823 121.5 24.7367 120.313 26.1618 120.313C27.5802 120.313 28.9323 121.5 29.1776 122.952C29.4162 124.411 28.4617 125.591 27.0367 125.591Z" fill="#0E7C9F"/>
<path d="M66.3067 130.55L52.5652 146.342H29.665L43.4065 130.55H66.3067Z" fill="#0E7C9F"/>
<path d="M47.3069 130.55L33.5675 146.342H29.6621L43.4082 130.55H47.3069Z" fill="#FFCE6F"/>
<path d="M70.2635 142.363V146.342H32.1875L33.9486 142.363H70.2635Z" fill="#FFCE6F"/>
<path d="M70.2628 142.363H53.7383V146.342H70.2628V142.363Z" fill="#0E7C9F"/>
<path d="M60.5066 108.105L61.1303 112.128H51.5624L50.9387 108.105C54.113 108.499 57.6182 108.478 60.5066 108.105ZM74.7592 95.3884H73.6059L73.5993 95.3221C73.1684 92.5703 71.8627 89.6992 69.9471 87.0404H73.4667C73.5662 87.0404 73.6721 87.047 73.7716 87.0668C74.6266 87.1995 75.3689 87.9023 75.5015 88.7378L76.2704 93.6843C76.4162 94.6192 75.7467 95.3884 74.7592 95.3884ZM33.7776 95.3221L33.7842 95.3884H32.6309C31.6566 95.3884 30.7353 94.6192 30.5895 93.6843L29.8273 88.7378C29.6814 87.8028 30.3641 87.0404 31.3384 87.0404H34.8513C33.7644 89.6992 33.3467 92.5703 33.7776 95.3221ZM55.3295 74.8487L55.6929 77.1925C52.6098 76.3232 49.2659 76.23 46.1702 77.1925L45.8069 74.8487C45.6975 74.1438 46.207 73.5798 46.9416 73.5798H53.8103C54.5449 73.5798 55.2202 74.1438 55.3295 74.8487Z" fill="#0E7C9F"/>
<path d="M69.0191 94.6605C69.9103 100.408 63.7498 105.074 55.2551 105.074C46.7605 105.074 39.1527 100.408 38.2614 94.6605C37.3703 88.9135 43.5325 84.2571 52.0271 84.2571C60.5218 84.2571 68.1279 88.9135 69.0191 94.6605Z" fill="#0E7C9F"/>
<path d="M88.7413 9.05664H38.5508V39.4946H88.7413V9.05664Z" fill="#FFCE6F"/>
<path d="M131.091 129.736C131.458 129.736 131.542 129.215 131.19 129.103C129.738 128.641 128.546 127.392 128.153 125.92C128.107 125.747 127.93 125.648 127.756 125.69C127.583 125.736 127.481 125.914 127.527 126.087C127.893 127.457 128.87 128.649 130.114 129.332C129.831 130.63 129.877 135.15 130.768 144.606C130.784 144.774 130.925 144.9 131.091 144.9C131.284 144.9 131.432 144.734 131.414 144.545C130.38 133.577 130.586 130.443 130.718 129.612C130.892 129.68 130.988 129.736 131.091 129.736Z" fill="black"/>
<path d="M159.437 112.055C159.59 112.018 159.694 111.877 159.685 111.72C159.679 111.634 159.171 102.694 159.413 64.1992C159.473 54.8142 147.85 51.7807 140.49 50.8018C140.71 50.3547 140.59 50.3352 140.788 46.1667C140.788 45.7668 140.814 45.6633 140.77 45.3538C144.526 43.2263 147.547 39.6681 149.007 37.2314C149.238 36.8461 149.934 34.9892 150.248 34.8285C150.495 34.7354 151.16 35.3589 151.674 35.5297C152.877 35.9124 154.529 35.6463 155.688 34.8822C158.14 33.2705 159.704 28.8607 157.875 26.2472C158.916 23.648 159.459 20.8198 157.061 19.4003C157.604 19.4666 158.188 19.2943 158.645 18.9627C159.348 18.4455 159.759 17.6101 159.991 16.768C161.251 12.3315 158.305 7.99783 154.085 7.65729C152.024 7.49819 149.889 8.43316 148.676 10.1107C148.822 9.08293 149.492 8.22091 149.936 7.28607C150.984 5.07972 149.853 3.57801 148.073 3.7983C146.458 4.01255 144.448 5.84694 143.46 7.1932L143.858 6.56986C143.599 5.6151 142.598 4.9321 141.617 5.04484C139.561 5.28539 138.64 8.30249 136.541 8.22091C138.189 7.33091 138.781 5.02371 137.985 3.32816C137.188 1.63214 135.243 0.621969 133.362 0.668274C131.481 0.705342 129.703 1.66928 128.396 3.02237C126.088 5.41347 124.342 10.1359 124.479 13.4974C123.961 16.0311 124.305 18.7276 125.444 21.0491C123.848 26.6004 123.671 37.4522 128.765 43.7922C129.408 44.5909 130.115 45.244 130.864 45.75C130.536 48.0493 130.495 48.3337 130.493 48.3558C130.386 49.0748 130.113 49.7825 130.108 50.5903C117.829 52.2595 100.018 60.2347 92.1917 63.3819C92.8499 66.6866 93.255 68.7208 93.2389 68.6401C93.5058 68.5066 94.2182 67.9762 94.4386 67.8112C95.2141 68.3152 95.9962 68.9451 96.7452 69.6943C99.1348 72.0343 100.934 75.3582 101.232 78.7386C100.182 79.7883 98.0267 81.3713 95.9498 82.2993L96.0824 82.9491C96.1023 82.9491 96.1288 82.9359 96.1486 82.9293C97.819 82.18 99.2307 81.2252 100.225 80.456C104.387 83.2011 108.411 84.0565 108.583 84.0963C108.667 84.1243 108.812 84.0732 108.875 84.01C108.943 83.9417 113.059 79.3577 112.998 79.425C112.852 82.1422 112.558 84.8383 112.121 87.4674C110.476 85.2951 110.517 84.7525 109.768 84.3445C108.466 83.6305 106.701 84.9301 107.142 87.1088C107.253 87.6596 107.475 88.167 107.708 88.6308C106.347 88.3501 105.235 88.0418 103.78 87.9195C101.164 87.7026 100.278 89.8743 101.412 91.3251C100.102 92.1162 100.032 93.8266 101.984 94.8088C101.966 94.8411 101.943 94.8648 101.927 94.8992C101.458 95.8951 102.159 97.3395 104.424 97.7633C103.884 98.2407 103.827 99.144 104.998 99.994C105.881 100.636 107.177 100.798 108.525 100.755C107.763 102.746 106.892 104.738 105.92 106.681C105.835 106.852 105.915 107.063 106.097 107.13C107.692 107.725 108.681 108.102 110.253 108.69C108.028 121.628 108.641 126.513 106.545 143.225C106.523 143.402 106.649 143.564 106.827 143.586C106.996 143.61 107.166 143.489 107.189 143.305C109.254 126.836 108.689 121.658 110.872 108.921C118.948 111.928 127.434 114.742 138.821 114.742C143.914 114.742 149.595 114.172 156.07 112.812L161.03 143.316C161.099 143.743 161.739 143.638 161.669 143.213L156.705 112.68C157.602 112.486 158.51 112.28 159.437 112.055ZM136.54 8.22157C136.54 8.22137 136.54 8.22104 136.541 8.22091L136.549 8.23353C136.539 8.2328 136.531 8.23174 136.521 8.231L136.54 8.22157ZM129.27 43.3856C124.105 36.9576 124.26 24.6361 126.898 18.9956C129.63 21.4408 132.992 20.4328 136.169 18.5834C138.318 17.332 143.84 14.2617 145.215 16.7542C145.766 17.7528 144.466 18.9244 144.381 20.0615C144.297 21.1987 144.536 22.4051 145.273 23.275C146.008 24.1425 147.157 24.8338 148.191 24.3686C148.243 24.3101 148.301 24.2477 148.2 24.3658C146.76 26.0623 145.955 29.0326 146.761 31.1074C147.297 32.4882 148.229 32.72 148.796 32.3864C149.482 31.9822 149.376 30.9533 149.449 30.1444C149.822 29.4853 150.017 29.2466 150.362 28.8537C151.738 27.3248 153.317 25.0559 155.442 25.3635C157.171 25.6219 158.798 27.7801 157.636 31.1362C157.636 31.1369 157.636 31.1369 157.636 31.1369C157.295 32.1321 156.618 33.4952 155.332 34.3409C154.34 34.9929 152.884 35.2332 151.874 34.9132C151.352 34.7395 150.704 33.9674 150.022 34.2204C149.344 34.4723 148.765 36.3751 148.451 36.898C147.006 39.3093 143.993 42.8526 140.255 44.9028C136.184 47.1452 132.233 47.0661 129.27 43.3856ZM131.135 48.4435C131.143 48.3839 131.35 46.9321 131.464 46.1253C134.221 47.6493 137.369 47.1246 140.148 45.6947C140.148 46.1201 140.198 44.3564 139.981 50.2196C139.973 50.6139 139.72 50.7431 139.653 50.8044C138.018 52.1004 135.511 53.442 132.829 52.5061C132.008 52.2205 130.884 51.771 130.76 50.9099C130.76 49.619 130.975 49.5195 131.135 48.4435ZM113.699 78.5336C113.699 78.5332 113.699 78.5331 113.699 78.5328L115.51 66.4085C115.537 66.2317 115.415 66.0667 115.238 66.0401C115.06 66.0148 114.896 66.1359 114.869 66.3127L113.067 78.3782L108.84 83.0813C108.426 81.1985 106.888 75.5415 102.724 71.173C98.6872 66.9293 94.4253 64.5754 92.881 63.8063C97.7625 61.8967 117.422 52.977 130.171 51.2369C130.451 52.2581 131.617 52.7714 132.616 53.1186C135.221 54.027 137.801 53.0743 139.956 51.3868C148.599 52.4633 158.82 55.5615 158.765 64.1952C158.732 69.5056 158.676 78.8699 158.666 84.181C157.315 82.8224 153.604 79.6401 147.806 78.8418C141.872 78.0254 136.418 80.0545 134.612 80.8287C135.18 78.9393 136.888 73.1938 139.517 63.8877C139.565 63.7155 139.465 63.5361 139.293 63.4875C139.122 63.4396 138.942 63.5387 138.893 63.7116C135.644 75.2111 133.803 81.27 133.784 81.3296C133.737 81.488 133.807 81.6717 134.008 81.7286C134.379 82.0538 136.36 83.7302 139.321 85.2275C139.119 86.1585 138.837 86.9702 138.449 87.3063C135.337 90.0106 121.723 90.1925 114.057 89.8716C113.591 89.3135 113.123 88.7446 112.665 88.1686C113.215 85.0315 113.564 81.7915 113.699 78.5336ZM105.353 99.4495C104.436 98.7857 104.344 98.1141 105.891 97.8882C106.62 97.9063 107.35 97.8548 108.076 97.8481C108.496 97.8435 108.502 97.2138 108.084 97.1999C107.377 97.1703 106.618 97.1406 105.852 97.2388C104.793 97.2291 104.018 97.0705 103.344 96.7247C102.859 96.4734 102.205 95.831 102.513 95.1764C102.868 94.4266 103.873 94.4492 104.848 94.4726C105.206 94.4845 105.599 94.4619 106.823 94.5775C107.003 94.5891 107.159 94.4629 107.176 94.2847C107.193 94.1067 107.062 93.948 106.884 93.9312C106.219 93.869 105.701 93.8367 105.251 93.8308C104.293 93.8125 103.144 93.7275 102.413 94.2961C100.22 93.2975 100.683 91.2372 104.616 91.3624C104.983 91.3709 105.35 91.3935 105.717 91.422C106.158 91.4423 106.185 90.8075 105.768 90.7758C104.547 90.6798 103.192 90.6428 102.038 91.0418C101.084 90.086 101.582 88.3867 103.725 88.5658C105.434 88.7088 106.76 89.1449 108.507 89.4432C108.681 89.4658 108.851 89.3538 108.881 89.1777C108.911 89.0009 108.792 88.8338 108.616 88.8034C108.58 88.7973 108.549 88.7901 108.513 88.7839C108.209 88.201 107.902 87.6008 107.777 86.9806C107.449 85.3595 108.634 84.4616 109.457 84.9137C110.179 85.3071 109.521 85.446 113.565 90.2953C114.2 91.0058 114.238 91.2349 114.498 91.2349C114.765 91.2349 114.926 90.9207 114.748 90.7039L114.613 90.5419C118.688 90.6865 135.125 91.0546 138.873 87.7965C140.021 86.8047 140.33 83.2497 140.408 81.7422C144.161 80.5972 148.962 81.1991 152.781 83.8619C152.9 84.9195 153.471 91.6276 149.31 95.3253C139.039 104.458 113.95 99.4974 113.698 99.4469C113.669 99.441 113.639 99.4384 113.61 99.4417C111.992 99.5593 107.327 100.887 105.353 99.4495ZM106.66 106.648C107.621 104.7 108.485 102.706 109.236 100.714C110.905 100.582 112.834 100.157 113.614 100.092C114.408 100.25 121.071 101.535 128.792 101.535C136.227 101.535 144.642 100.344 149.74 95.8097C152.415 93.4329 153.256 89.9842 153.471 87.36C156.047 86.8432 157.89 85.9776 158.701 85.5426C158.72 103.754 158.963 110.171 159.024 111.488C137.137 116.74 125.36 113.638 106.66 106.648ZM63.8433 57.9513C63.8499 57.9712 64.6718 59.6488 66.1233 62.1154H66.8193C66.8193 62.0624 66.806 62.0027 66.7729 61.9496C65.2882 59.4233 64.4332 57.6861 64.3934 57.6198C64.1614 57.3015 63.7903 56.8904 63.3528 56.4064C61.9741 54.888 59.8929 52.5871 60.0322 50.7504C60.0517 50.2698 60.1446 49.7028 60.622 49.643C60.7664 49.6168 61.1064 49.7224 61.6535 50.3808C61.7924 50.5728 62.5377 51.6025 62.4896 51.536C62.7415 51.8833 63.2659 51.503 63.0145 51.1553C62.9661 51.0885 62.1409 49.9492 62.1929 50.021C61.6228 49.1192 61.3445 48.3699 61.2782 47.5809C61.2252 46.9907 61.4572 46.1288 62.1399 46.0492C63.076 45.9284 63.6506 47.1042 64.1813 47.9986C64.4067 48.3699 64.6453 48.8076 64.9369 49.3911C65.023 49.5502 65.2153 49.6165 65.3744 49.5369C65.5334 49.4508 65.5997 49.2585 65.5202 49.0993C65.2153 48.5025 64.9701 48.0451 64.7381 47.6604C64.2391 46.821 63.7028 45.8092 62.8425 45.4917C62.7241 44.593 62.8923 43.6027 63.8123 43.495C65.0976 43.3585 66.4281 45.6329 67.025 46.7799C67.1087 46.9398 67.3058 46.9997 67.4623 46.9172C67.6209 46.8343 67.6827 46.6388 67.5998 46.4795C67.0526 45.4312 66.3438 44.2006 65.3859 43.4348C65.707 42.146 67.4146 41.6631 68.3873 43.5786C69.0255 44.8191 69.3364 45.8654 69.8546 47.2463C69.0476 48.5439 68.4861 49.8295 68.2186 51.6286C68.1923 51.8061 68.3147 51.9712 68.4918 51.9971C68.6714 52.0282 68.8338 51.9013 68.8601 51.7245C69.0578 50.3931 69.4759 49.17 70.1031 48.0905C70.4093 47.566 70.7566 46.9709 71.23 46.5222C71.7135 46.0638 72.2884 45.8229 72.8064 45.8779C73.2968 45.9239 73.8421 46.326 73.8729 46.8505C73.8933 47.1983 73.7049 47.5641 73.5386 47.8872C72.5639 49.7785 71.8835 51.9826 71.1553 54.2039C71.0256 54.5939 71.5982 54.819 71.7585 54.4256C73.1612 56.2025 75.576 59.1819 78.2594 62.1154H79.0216C79.0216 62.0359 78.9951 61.9563 78.9355 61.8966C76.013 58.7208 73.378 55.4419 72.0076 53.6888C72.6114 51.8455 73.2365 49.889 74.1147 48.1838C74.3092 47.8069 74.5509 47.3374 74.5201 46.8129C74.4733 46.0094 73.7474 45.3146 72.867 45.2317C72.0836 45.1581 71.1454 45.507 70.3062 46.5939C69.8585 45.3593 69.5342 44.3907 68.9643 43.2833C67.7806 40.9508 65.4654 41.3363 64.8254 43.069C63.4907 42.3979 61.9858 43.1776 62.1854 45.3997C62.1427 45.402 62.1045 45.394 62.0603 45.3994C60.9749 45.5368 60.125 46.8811 60.9667 49.0463C60.2885 48.8318 59.444 49.298 59.3826 50.7106C59.2235 52.8125 61.424 55.2394 62.8756 56.844C63.2932 57.3081 63.6577 57.7127 63.8433 57.9513ZM42.6933 130.55C42.6933 130.729 42.8383 130.874 43.0172 130.874H67.6872C67.8662 130.874 68.0112 130.729 68.0112 130.55C68.0112 130.37 67.8662 130.225 67.6872 130.225H43.0172C42.8383 130.225 42.6933 130.37 42.6933 130.55ZM17.286 129.138L9.10771 87.9947C9.07278 87.8192 8.90126 87.702 8.72681 87.7402C8.55103 87.7751 8.43714 87.9454 8.47214 88.1216L16.6504 129.265C16.7351 129.69 17.3696 129.56 17.286 129.138ZM89.0253 146.018H16.9682C16.7893 146.018 16.6442 146.163 16.6442 146.342C16.6442 146.522 16.7893 146.667 16.9682 146.667H89.0253C89.2043 146.667 89.3492 146.522 89.3492 146.342C89.3492 146.163 89.2043 146.018 89.0253 146.018ZM163.383 57.0128C163.224 57.0951 163.162 57.2907 163.244 57.45C166.34 63.4558 166.308 70.9011 163.161 76.8811C163.046 77.0983 163.207 77.3564 163.447 77.3564C163.564 77.3564 163.677 77.2935 163.735 77.1828C166.979 71.019 167.012 63.3438 163.82 57.1521C163.738 56.9941 163.544 56.9313 163.383 57.0128ZM169.444 61.4465C169.402 61.2723 169.226 61.1694 169.052 61.2076C168.878 61.2503 168.772 61.4258 168.814 61.5993C169.694 65.221 169.49 69.1495 168.239 72.6611C168.094 73.0676 168.706 73.2825 168.85 72.8787C170.143 69.2499 170.354 65.1892 169.444 61.4465Z" fill="black"/>
<path d="M131.589 32.6469C132.055 33.1028 132.658 33.3599 133.191 33.5872C133.587 33.7543 133.838 33.1587 133.445 32.9901C132.942 32.7758 132.421 32.5537 132.041 32.1833C131.73 31.879 131.48 31.3739 131.623 30.9303C131.732 30.5934 132.053 30.3104 132.347 30.0264C133.599 28.7993 134.487 27.1779 134.846 25.4619C134.883 25.2865 134.771 25.1149 134.595 25.078C134.421 25.0404 134.249 25.1531 134.212 25.3285C133.878 26.9209 133.055 28.4244 131.893 29.5627C131.53 29.9142 131.161 30.2505 131.007 30.7316C130.806 31.3538 131.034 32.1056 131.589 32.6469ZM136.862 32.4413C137.486 32.5169 138.105 31.64 138.245 30.4826C138.386 29.3248 137.994 28.325 137.371 28.2494C136.747 28.1737 136.128 29.0508 135.988 30.2084C135.847 31.3658 136.239 32.3657 136.862 32.4413ZM127.846 27.2539C127.225 27.1612 126.583 28.0212 126.411 29.1746C126.239 30.3277 126.603 31.3376 127.224 31.4304C127.845 31.523 128.488 30.6633 128.66 29.5101C128.832 28.3567 128.468 27.3466 127.846 27.2539ZM154.621 30.6584C154.925 29.7583 154.174 28.7365 153.772 29.1801C153.652 29.3128 153.662 29.5181 153.795 29.6379C154.011 29.8335 154.1 30.1753 154.007 30.4512C153.914 30.727 153.636 30.9452 153.346 30.9705C153.168 30.9861 153.036 31.1427 153.051 31.3215C153.103 31.9222 154.322 31.5483 154.621 30.6584ZM126.885 23.4443C128.056 23.0279 129.394 23.1561 130.464 23.7855C130.617 23.8757 130.816 23.8251 130.908 23.6703C130.998 23.5155 130.947 23.3173 130.793 23.226C129.558 22.5008 128.017 22.3532 126.669 22.8329C126.5 22.8932 126.412 23.0784 126.471 23.2474C126.532 23.4158 126.718 23.5058 126.885 23.4443ZM136.915 24.3333C138.203 23.8237 139.806 24.1293 140.815 25.0786C140.945 25.2012 141.151 25.1952 141.273 25.0643C141.396 24.9342 141.39 24.7289 141.259 24.6059C140.055 23.4734 138.213 23.1218 136.676 23.7298C136.51 23.7958 136.428 23.9843 136.494 24.1507C136.56 24.3178 136.75 24.3994 136.915 24.3333ZM148.2 24.3658C148.197 24.3671 148.194 24.3673 148.191 24.3687C148.142 24.4241 148.098 24.476 148.2 24.3658ZM132.715 39.819C133.129 39.819 133.152 39.2009 132.738 39.1708C131.26 39.0673 129.958 38.0378 129.558 36.5457C129.512 36.3735 129.334 36.2725 129.161 36.3165C128.988 36.3631 128.885 36.5412 128.932 36.7141C129.156 37.5514 129.648 38.3161 130.316 38.8671C131.068 39.4885 132.081 39.819 132.715 39.819ZM135.892 55.8033C136.297 55.6689 136.099 55.055 135.689 55.1869C133.981 55.7476 131.996 55.3533 130.633 54.1819C130.497 54.0653 130.292 54.0802 130.175 54.2169C130.059 54.3529 130.074 54.5575 130.21 54.674C131.74 55.9883 133.968 56.4348 135.892 55.8033ZM31.3205 82.6024C31.3196 82.6252 31.3144 82.6471 31.3188 82.6707L32.0014 87.0404H32.651C32.651 86.9288 31.9727 82.6779 31.9606 82.6006C33.1738 82.4451 33.9714 81.4458 33.7804 80.2147C33.574 78.8832 32.2831 77.8052 30.8872 77.8052C29.4996 77.8052 28.5432 78.8832 28.7497 80.2147C28.9414 81.4515 30.0584 82.4541 31.3205 82.6024ZM74.9086 80.2147C74.702 78.8832 73.4112 77.8052 72.0152 77.8052C70.6277 77.8052 69.6712 78.8832 69.8777 80.2147C70.0695 81.4518 71.187 82.4546 72.4493 82.6024C72.448 82.6252 72.4427 82.6471 72.4462 82.6707L73.1289 87.0404H73.4669C73.5664 87.0404 73.6723 87.047 73.7718 87.0668C73.7785 87.0404 73.7785 87.0138 73.7718 86.9872L73.0881 82.6007C74.3015 82.4454 75.0994 81.446 74.9086 80.2147ZM33.5799 95.4445C34.8492 103.63 43.3518 108.715 55.7695 108.715C63.2167 108.715 68.9321 106.831 71.8627 103.408C73.7259 101.233 74.4211 98.5203 73.9288 95.3448C72.552 86.4658 62.1574 76.1442 50.8195 76.1442C45.6856 76.1442 41.0029 78.3102 37.6341 82.244C34.3994 86.0203 32.8837 90.9552 33.5799 95.4445ZM38.1264 82.6655C41.3698 78.8787 45.8778 76.793 50.8195 76.793C61.6639 76.793 71.9782 86.9961 73.288 95.4445C73.7502 98.4238 73.1048 100.961 71.3704 102.987C68.5648 106.262 63.0245 108.066 55.7695 108.066C46.3057 108.066 35.6748 104.724 34.2207 95.3448C33.5531 91.0406 35.0129 86.3007 38.1264 82.6655Z" fill="black"/>
<path d="M43.8415 93.7038C44.0185 93.676 44.1396 93.5109 44.1124 93.3334C44.0104 92.6775 44.1736 92.0604 44.5713 91.5961C45.9476 89.99 49.088 91.1006 49.4495 93.4331C49.4744 93.5931 49.6123 93.7077 49.7696 93.7077C49.7861 93.7077 49.8029 93.7064 49.8194 93.7038C49.9965 93.676 50.1175 93.5109 50.0903 93.3334C49.6541 90.5197 45.8479 89.1092 44.079 91.1739C43.5564 91.7845 43.3405 92.5868 43.4715 93.4331C43.499 93.6099 43.6693 93.7329 43.8415 93.7038ZM57.1654 93.7038C57.3424 93.676 57.4634 93.5109 57.4362 93.3334C57.3343 92.6775 57.4975 92.0604 57.8952 91.5961C59.2713 89.9899 62.4116 91.1009 62.773 93.4331C62.7979 93.5931 62.9359 93.7077 63.0931 93.7077C63.1096 93.7077 63.1264 93.7064 63.143 93.7038C63.32 93.676 63.4411 93.5109 63.4138 93.3334C62.9778 90.5198 59.1717 89.1092 57.4029 91.1739C56.8802 91.7845 56.6643 92.5868 56.7954 93.4331C56.823 93.6099 56.9902 93.7329 57.1654 93.7038ZM56.3379 99.3801C56.776 98.8686 56.9572 98.1983 56.8479 97.4926C56.8204 97.3164 56.6563 97.1966 56.4776 97.2218C56.3009 97.2497 56.1799 97.4155 56.2071 97.5923C56.287 98.1077 56.1586 98.5927 55.8455 98.9585C54.753 100.233 52.254 99.3357 51.9681 97.4926C51.9405 97.3164 51.7764 97.1966 51.5978 97.2218C51.4211 97.2497 51.3001 97.4155 51.3273 97.5923C51.6896 99.9258 54.8566 101.11 56.3379 99.3801ZM64.0203 112.776C64.1993 112.776 64.3443 112.631 64.3443 112.451C64.3443 112.272 64.1993 112.127 64.0203 112.127H48.8912C48.7123 112.127 48.5673 112.272 48.5673 112.451C48.5673 112.631 48.7123 112.776 48.8912 112.776H64.0203ZM48.3602 30.6622L53.0937 16.9539C53.1519 16.7843 53.0623 16.5998 52.893 16.5414C52.7237 16.4819 52.5392 16.5725 52.4807 16.7415L47.7472 30.451C47.6067 30.8586 48.2197 31.068 48.3602 30.6622ZM46.6274 23.6805C46.7535 23.8073 46.9594 23.8074 47.0857 23.6805C47.2122 23.5542 47.2122 23.349 47.0857 23.222L44.7011 20.8359L47.0857 18.4504C47.2122 18.3241 47.2122 18.1182 47.0857 17.9919C46.9594 17.865 46.7536 17.865 46.6274 17.9919L44.0137 20.6066C43.8871 20.7329 43.8871 20.9382 44.0137 21.0651L46.6274 23.6805ZM53.4575 29.7213C53.712 29.7213 53.6106 29.6523 56.3003 27.0114C56.4268 26.8851 56.4268 26.6799 56.3003 26.5529L53.6866 23.9375C53.5604 23.8107 53.3545 23.8107 53.2283 23.9375C53.1018 24.0638 53.1018 24.2691 53.2283 24.396L55.6129 26.7822L53.2283 29.1676C53.0239 29.3716 53.1712 29.7213 53.4575 29.7213ZM64.5893 19.8523H76.1086C76.2875 19.8523 76.4325 19.7073 76.4325 19.5279V16.0817C76.4325 15.9023 76.2875 15.7573 76.1086 15.7573H64.5893C64.4104 15.7573 64.2653 15.9023 64.2653 16.0817V19.5279C64.2653 19.7073 64.4104 19.8523 64.5893 19.8523ZM64.9133 16.4061H75.7846V19.2034H64.9133V16.4061ZM64.5893 24.0262H83.0503C83.2292 24.0262 83.3742 23.8812 83.3742 23.7018C83.3742 23.5225 83.2292 23.3775 83.0503 23.3775H64.5893C64.4104 23.3775 64.2653 23.5225 64.2653 23.7018C64.2653 23.8812 64.4104 24.0262 64.5893 24.0262ZM64.5893 27.4614H83.0503C83.2292 27.4614 83.3742 27.3164 83.3742 27.137C83.3742 26.9576 83.2292 26.8126 83.0503 26.8126H64.5893C64.4104 26.8126 64.2653 26.9576 64.2653 27.137C64.2653 27.3164 64.4104 27.4614 64.5893 27.4614ZM64.5893 30.8965H75.6312C75.8101 30.8965 75.9551 30.7515 75.9551 30.5721C75.9551 30.3928 75.8101 30.2478 75.6312 30.2478H64.5893C64.4104 30.2478 64.2653 30.3928 64.2653 30.5721C64.2653 30.7515 64.4104 30.8965 64.5893 30.8965ZM20.9616 57.0439C21.2129 57.0439 21.3722 56.7649 21.2357 56.5465L5.80305 31.9883C5.70782 31.8362 5.50886 31.7908 5.35606 31.886C5.20466 31.9812 5.15897 32.1813 5.2542 32.3335C21.6973 58.3801 20.6164 57.0439 20.9616 57.0439ZM23.8944 55.2211C23.9009 55.2211 23.9074 55.2204 23.9135 55.2204C24.0925 55.2101 24.2287 55.0566 24.2184 54.8779C23.8607 48.7568 24.2132 42.5903 25.2653 36.5501C25.2961 36.374 25.1779 36.2057 25.0016 36.1753C24.8255 36.1454 24.6572 36.2627 24.6264 36.4388C23.5659 42.5282 23.2109 48.7445 23.5711 54.9154C23.5811 55.0877 23.7242 55.2211 23.8944 55.2211ZM17.4569 57.6473C17.5287 57.4835 17.4543 57.2925 17.2905 57.2206C12.3451 55.0462 7.66009 52.2858 3.3654 49.0164C3.22203 48.907 3.01876 48.9349 2.91099 49.078C2.80254 49.2204 2.8301 49.4237 2.97248 49.5319C7.30794 52.833 12.0376 55.6193 17.0297 57.8138C17.195 57.887 17.3854 57.8105 17.4569 57.6473Z" fill="black"/>
</g>
<defs>
<clipPath id="clip0_61_145">
<rect width="170" height="146" fill="white" transform="translate(0 0.666748)"/>
</clipPath>
</defs>
</svg>
