<svg width="200" height="195" viewBox="0 0 200 195" fill="none" xmlns="http://www.w3.org/2000/svg">
<path d="M180.089 41.2734C138.298 -9.73691 39.3579 -12.588 10.2658 27.871C-5.76384 50.1637 0.934542 83.4873 4.23952 99.9293C10.3216 130.187 25.3193 149.666 28.5941 153.798C36.5405 163.824 55.842 188.177 84.8829 193.743C134.504 203.255 196.419 154.827 199.85 100.188C201.827 68.6878 183.702 45.6835 180.089 41.2734Z" fill="#F4F7FA"/>
<path d="M191.085 166.75L12.5728 165.229V169.731C12.5728 170.953 13.3514 171.992 14.4058 172.177L64.8838 181.043C65.4829 181.148 66.0904 181.176 66.6949 181.126L189.145 171.018C190.238 170.927 191.085 169.885 191.085 168.629V166.75H191.085Z" fill="#BFC8D6"/>
<path d="M126.304 159.535L14.419 167.772C12.4169 167.919 10.7891 166.353 10.7891 164.274V80.9559C10.7891 78.8764 12.4169 77.1904 14.419 77.1904H126.304C127.953 77.1904 129.287 78.7144 129.287 80.5944V155.912C129.287 157.792 127.953 159.414 126.304 159.535Z" fill="#BFC8D6"/>
<path d="M128.088 159.535L16.2028 167.772C14.2006 167.919 12.5728 166.353 12.5728 164.274V80.9559C12.5728 78.8764 14.2006 77.1904 16.2028 77.1904H128.088C129.737 77.1904 131.071 78.7144 131.071 80.5944V155.912C131.071 157.792 129.737 159.414 128.088 159.535Z" fill="#BFC8D6"/>
<path d="M124.602 154.225L20.3927 161.379C18.7634 161.491 17.4395 160.206 17.4395 158.508V85.5634C17.4395 83.8657 18.7635 82.4836 20.3927 82.4766L124.602 82.0274C125.963 82.0215 127.063 83.2703 127.063 84.8166V151.256C127.063 152.802 125.962 154.132 124.602 154.225Z" fill="#97A6B7"/>
<path d="M76.0968 79.4687C76.0968 80.2429 75.5209 80.8723 74.8098 80.8745C74.0978 80.8768 73.52 80.2496 73.52 79.4737C73.52 78.6978 74.0978 78.0684 74.8098 78.0679C75.5209 78.0673 76.0968 78.6945 76.0968 79.4687Z" fill="white"/>
<path opacity="0.48" d="M16.2023 167.772L127.521 159.577L128.088 159.535C128.845 159.48 129.533 159.106 130.058 158.538C122.048 158.1 117.072 155.257 113.863 152.32C107.417 146.421 108.535 140.604 101.584 136.725C92.9148 131.888 86.098 138.017 79.5192 131.969C75.5309 128.303 77.489 125.568 72.5813 120.089C67.1457 114.02 63.6068 116.06 58.1441 110.598C51.237 103.692 54.6914 98.3184 48.7417 93.3599C41.5239 87.3445 33.7398 92.9121 26.869 87.1431C23.9056 84.6549 22.2794 81.0375 21.4304 77.1904H16.2028C14.2006 77.1904 12.5728 78.8764 12.5728 80.9559V164.274C12.5728 166.353 14.2003 167.919 16.2023 167.772Z" fill="white"/>
<path d="M132.547 159.078L12.5728 167.747L64.8838 176.935C65.4828 177.04 66.0903 177.068 66.6948 177.018L191.085 166.75L134.456 159.137C133.822 159.052 133.184 159.032 132.547 159.078Z" fill="#D8DEE8"/>
<path d="M30.0791 167.822L129.961 160.497L160.874 164.619L61.8522 172.45L30.0791 167.822Z" fill="#BFC8D6"/>
<path d="M142.618 137.144C142.618 146.362 135.099 154.312 125.693 154.909L20.9224 161.561C32.0009 160.857 40.8471 152.193 40.8471 142.197V27.2119L142.618 31.1053V137.144Z" fill="url(#paint0_linear_1001_438)"/>
<path d="M135.395 94.0596L56.6587 95.1508V91.9914L135.395 91.0928V94.0596Z" fill="#D8DEE8"/>
<path d="M50.2354 95.2398L53.8011 95.1904V92.0239L50.2354 92.0646V95.2398Z" fill="#D8DEE8"/>
<path d="M135.395 98.9581L56.6587 100.367V97.2078L135.395 95.9912V98.9581Z" fill="#D8DEE8"/>
<path d="M50.2354 100.483L53.8011 100.419V97.2524L50.2354 97.3075V100.483Z" fill="url(#paint1_linear_1001_438)"/>
<path d="M135.395 103.858L56.6587 105.585V102.425L135.395 100.891V103.858Z" fill="#D8DEE8"/>
<path d="M50.2354 105.726L53.8011 105.647V102.481L50.2354 102.55V105.726Z" fill="url(#paint2_linear_1001_438)"/>
<path d="M135.395 108.756L56.6587 110.802V107.642L135.395 105.79V108.756Z" fill="#D8DEE8"/>
<path d="M50.2354 110.969L53.8011 110.876V107.709L50.2354 107.793V110.969Z" fill="#D8DEE8"/>
<path d="M135.394 118.553L50.2354 121.453V118.278L135.394 115.586V118.553Z" fill="#D8DEE8"/>
<path d="M135.394 123.453L50.2354 126.697V123.522L135.394 120.486V123.453Z" fill="#D8DEE8"/>
<path d="M135.394 128.352L50.2354 131.94V128.765L135.394 125.385V128.352Z" fill="#D8DEE8"/>
<path d="M135.394 133.25L50.2354 137.182V134.007L135.394 130.283V133.25Z" fill="#D8DEE8"/>
<path d="M50.2354 63.0098L135.335 63.3436V66.6334H50.2354V63.0098Z" fill="#D8DEE8"/>
<path d="M50.2354 57.4434L135.335 58.29V61.5798L50.2354 61.067V57.4434Z" fill="#D8DEE8"/>
<path d="M50.2354 48.5195L135.335 50.1884V56.5264L50.2354 55.5008V48.5195Z" fill="#BFC8D6"/>
<path d="M50.2354 73.0476L135.335 72.8467V74.414L50.2354 74.6772V73.0476Z" fill="#D8DEE8"/>
<path d="M50.2354 76.1578L135.335 75.8379V77.4052L50.2354 77.7875V76.1578Z" fill="#D8DEE8"/>
<path d="M50.2354 79.268L135.335 78.8291V80.3964L50.2354 80.8977V79.268Z" fill="#D8DEE8"/>
<path d="M50.2354 82.3782L135.335 81.8203V83.3876L50.2354 84.0079V82.3782Z" fill="#D8DEE8"/>
<path d="M105.41 147.688L135.395 145.94V147.616L105.41 149.364V147.688Z" fill="#D8DEE8"/>
<path d="M90.8888 150.428L60.9043 152.237V150.562L90.8888 148.753V150.428Z" fill="#D8DEE8"/>
<path d="M92.5991 184.165V188.535C92.5991 189.947 101.42 191.091 112.301 191.091C123.183 191.091 132.004 189.947 132.004 188.535V184.165H92.5991Z" fill="url(#paint3_linear_1001_438)"/>
<path d="M132.004 184.165C132.004 185.577 123.183 186.722 112.301 186.722C101.42 186.722 92.5991 185.577 92.5991 184.165C92.5991 182.753 101.42 181.608 112.301 181.608C123.183 181.608 132.004 182.753 132.004 184.165Z" fill="url(#paint4_linear_1001_438)"/>
<path d="M112.302 186.898C102.665 186.898 92.5879 185.977 92.5879 184.202C92.5879 184.105 92.6227 183.933 92.7202 183.933C92.8176 183.933 92.7758 184.067 92.7758 184.165C92.7758 185.291 100.795 186.545 112.302 186.545C123.809 186.545 131.828 185.291 131.828 184.165C131.828 184.067 131.844 183.976 131.942 183.976C132.039 183.976 132.016 184.106 132.016 184.203C132.016 185.979 121.938 186.898 112.302 186.898Z" fill="url(#paint5_linear_1001_438)"/>
<path d="M110.44 184.307C110.633 184.173 110.839 184.041 111.059 183.911C111.277 183.781 111.561 183.663 111.905 183.558C112.251 183.453 112.684 183.368 113.204 183.301C113.724 183.235 114.374 183.2 115.15 183.196C115.911 183.192 116.625 183.217 117.294 183.269C117.961 183.321 118.549 183.399 119.057 183.502C119.564 183.606 119.977 183.734 120.295 183.886C120.612 184.039 120.8 184.214 120.861 184.411L123.08 184.433C123.241 184.434 123.383 184.447 123.505 184.473C123.629 184.498 123.689 184.53 123.689 184.568L123.69 184.751L120.838 184.724C120.738 184.947 120.483 185.152 120.073 185.338C119.666 185.523 119.144 185.684 118.51 185.82L117.471 185.676C117.378 185.661 117.301 185.643 117.241 185.621C117.182 185.6 117.153 185.576 117.152 185.55C117.152 185.515 117.233 185.475 117.393 185.43C117.554 185.385 117.735 185.329 117.937 185.262C118.139 185.196 118.337 185.117 118.532 185.027C118.726 184.937 118.855 184.828 118.923 184.703L112.191 184.636C112.014 184.766 111.815 184.894 111.597 185.02C111.377 185.145 111.086 185.258 110.723 185.359C110.361 185.459 109.909 185.541 109.369 185.603C108.826 185.666 108.148 185.699 107.326 185.703C106.709 185.706 106.109 185.683 105.52 185.633C104.932 185.583 104.41 185.509 103.953 185.41C103.497 185.311 103.122 185.188 102.829 185.042C102.537 184.895 102.373 184.728 102.339 184.538L100.513 184.519C100.352 184.518 100.209 184.505 100.081 184.481C99.9553 184.457 99.8912 184.424 99.891 184.384L99.8901 184.201L102.387 184.225C102.498 184.032 102.724 183.865 103.07 183.722C103.416 183.579 103.838 183.452 104.337 183.341L105.173 183.455C105.427 183.491 105.553 183.533 105.554 183.581C105.554 183.607 105.502 183.639 105.397 183.677C105.29 183.715 105.167 183.761 105.022 183.815C104.88 183.868 104.74 183.93 104.607 184.002C104.471 184.074 104.37 184.155 104.302 184.246L110.44 184.307ZM104.279 184.556C104.329 184.676 104.441 184.779 104.611 184.866C104.78 184.953 104.991 185.024 105.245 185.08C105.499 185.136 105.784 185.177 106.1 185.203C106.418 185.229 106.75 185.241 107.097 185.24C107.502 185.238 107.854 185.22 108.155 185.187C108.455 185.154 108.718 185.11 108.947 185.053C109.174 184.997 109.374 184.931 109.543 184.857C109.712 184.782 109.862 184.701 109.997 184.614L104.279 184.556ZM118.934 184.393C118.884 184.271 118.761 184.165 118.571 184.073C118.381 183.982 118.137 183.905 117.842 183.843C117.546 183.781 117.201 183.735 116.807 183.704C116.415 183.674 115.981 183.66 115.507 183.662C115.086 183.664 114.721 183.683 114.417 183.719C114.114 183.755 113.85 183.802 113.626 183.863C113.403 183.923 113.212 183.993 113.057 184.073C112.901 184.153 112.755 184.239 112.621 184.33L118.934 184.393Z" fill="#FCB048"/>
<path d="M112.305 181.885C103.52 181.885 94.3728 182.658 92.9097 184.154C92.9669 184.207 93.0201 184.263 93.0696 184.323C94.3028 183.284 101.856 182.238 112.305 182.238C123.022 182.238 130.696 183.338 131.626 184.403C131.671 184.344 131.72 184.289 131.773 184.236C130.564 182.686 121.246 181.885 112.305 181.885Z" fill="url(#paint6_linear_1001_438)"/>
<path d="M87.1226 179.574V183.944C87.1226 185.356 95.9436 186.501 106.825 186.501C117.706 186.501 126.527 185.356 126.527 183.944V179.574H87.1226Z" fill="url(#paint7_linear_1001_438)"/>
<path d="M126.527 179.574C126.527 180.986 117.706 182.131 106.825 182.131C95.9436 182.131 87.1226 180.986 87.1226 179.574C87.1226 178.162 95.9436 177.018 106.825 177.018C117.706 177.018 126.527 178.162 126.527 179.574Z" fill="url(#paint8_linear_1001_438)"/>
<path d="M106.825 182.307C97.1883 182.307 87.1113 181.387 87.1113 179.612C87.1113 179.514 87.1461 179.343 87.2436 179.343C87.3411 179.343 87.2992 179.477 87.2992 179.574C87.2992 180.7 95.3183 181.955 106.825 181.955C118.332 181.955 126.351 180.7 126.351 179.574C126.351 179.477 126.368 179.385 126.465 179.385C126.563 179.385 126.539 179.515 126.539 179.613C126.539 181.388 116.462 182.307 106.825 182.307Z" fill="url(#paint9_linear_1001_438)"/>
<path d="M104.963 179.717C105.156 179.583 105.362 179.451 105.582 179.321C105.8 179.19 106.085 179.073 106.429 178.968C106.775 178.863 107.208 178.777 107.727 178.711C108.247 178.645 108.897 178.61 109.673 178.606C110.434 178.602 111.148 178.626 111.817 178.678C112.484 178.73 113.073 178.808 113.581 178.912C114.087 179.015 114.5 179.144 114.819 179.296C115.135 179.449 115.324 179.623 115.385 179.82L117.603 179.843C117.764 179.844 117.907 179.857 118.028 179.882C118.152 179.907 118.212 179.939 118.212 179.978L118.213 180.161L115.361 180.133C115.261 180.357 115.006 180.562 114.597 180.747C114.189 180.933 113.668 181.094 113.033 181.23L111.994 181.085C111.901 181.071 111.825 181.053 111.765 181.031C111.705 181.009 111.676 180.986 111.676 180.96C111.675 180.924 111.756 180.884 111.917 180.84C112.077 180.794 112.259 180.739 112.461 180.672C112.662 180.606 112.86 180.527 113.056 180.437C113.249 180.346 113.379 180.238 113.446 180.112L106.715 180.046C106.538 180.176 106.338 180.304 106.12 180.429C105.9 180.555 105.61 180.668 105.247 180.768C104.884 180.869 104.433 180.95 103.892 181.013C103.35 181.076 102.671 181.109 101.85 181.113C101.233 181.116 100.632 181.093 100.044 181.043C99.4555 180.993 98.933 180.919 98.4765 180.82C98.02 180.72 97.6459 180.598 97.3521 180.451C97.0605 180.305 96.8966 180.137 96.8627 179.947L95.0363 179.929C94.8753 179.928 94.7329 179.915 94.6048 179.891C94.4788 179.866 94.4147 179.834 94.4145 179.793L94.4136 179.611L96.9106 179.634C97.0211 179.442 97.2473 179.274 97.5933 179.132C97.9392 178.989 98.3617 178.862 98.8605 178.75L99.6968 178.865C99.9507 178.901 100.077 178.943 100.077 178.991C100.077 179.016 100.026 179.048 99.9207 179.087C99.8137 179.125 99.6901 179.171 99.5458 179.224C99.4037 179.278 99.2637 179.34 99.1299 179.412C98.9941 179.484 98.8934 179.565 98.8257 179.656L104.963 179.717ZM98.8024 179.966C98.8525 180.085 98.9645 180.189 99.1341 180.275C99.3038 180.362 99.5146 180.434 99.7687 180.49C100.023 180.546 100.308 180.586 100.624 180.613C100.942 180.639 101.274 180.651 101.62 180.649C102.025 180.647 102.378 180.63 102.679 180.597C102.978 180.564 103.242 180.52 103.471 180.463C103.697 180.407 103.897 180.341 104.066 180.266C104.235 180.192 104.385 180.111 104.521 180.023L98.8024 179.966ZM113.457 179.802C113.407 179.681 113.285 179.575 113.094 179.483C112.904 179.392 112.66 179.315 112.365 179.253C112.07 179.191 111.725 179.144 111.33 179.114C110.938 179.084 110.505 179.07 110.03 179.072C109.609 179.074 109.244 179.093 108.941 179.128C108.638 179.164 108.374 179.212 108.149 179.272C107.927 179.332 107.735 179.402 107.581 179.482C107.424 179.563 107.278 179.648 107.144 179.739L113.457 179.802Z" fill="#FCB048"/>
<path d="M106.828 177.294C98.0428 177.294 88.8957 178.067 87.4326 179.564C87.4899 179.617 87.5431 179.673 87.5925 179.732C88.8258 178.693 96.3787 177.647 106.828 177.647C117.545 177.647 125.219 178.748 126.149 179.812C126.194 179.754 126.243 179.698 126.296 179.645C125.087 178.096 115.769 177.294 106.828 177.294Z" fill="url(#paint10_linear_1001_438)"/>
<path d="M91.8481 174.998V179.368C91.8481 180.78 100.669 181.924 111.551 181.924C122.432 181.924 131.253 180.78 131.253 179.368V174.998H91.8481Z" fill="url(#paint11_linear_1001_438)"/>
<path d="M131.253 174.998C131.253 176.41 122.432 177.555 111.551 177.555C100.669 177.555 91.8481 176.41 91.8481 174.998C91.8481 173.586 100.669 172.441 111.551 172.441C122.432 172.441 131.253 173.586 131.253 174.998Z" fill="url(#paint12_linear_1001_438)"/>
<path d="M111.551 177.731C101.914 177.731 91.8369 176.811 91.8369 175.035C91.8369 174.938 91.8717 174.767 91.9692 174.767C92.0667 174.767 92.0248 174.901 92.0248 174.998C92.0248 176.124 100.044 177.379 111.551 177.379C123.058 177.379 131.077 176.124 131.077 174.998C131.077 174.901 131.093 174.809 131.191 174.809C131.288 174.809 131.265 174.939 131.265 175.037C131.265 176.812 121.187 177.731 111.551 177.731Z" fill="url(#paint13_linear_1001_438)"/>
<path d="M109.689 175.14C109.882 175.006 110.088 174.874 110.308 174.744C110.526 174.614 110.81 174.496 111.154 174.391C111.501 174.286 111.933 174.201 112.453 174.134C112.973 174.068 113.623 174.033 114.399 174.029C115.16 174.025 115.874 174.05 116.543 174.102C117.21 174.154 117.798 174.232 118.306 174.335C118.813 174.439 119.226 174.567 119.544 174.719C119.861 174.872 120.049 175.047 120.11 175.244L122.329 175.266C122.49 175.267 122.632 175.28 122.754 175.306C122.878 175.331 122.938 175.363 122.938 175.402L122.939 175.584L120.087 175.557C119.987 175.78 119.732 175.985 119.322 176.171C118.915 176.356 118.393 176.517 117.758 176.653L116.72 176.509C116.627 176.495 116.55 176.476 116.491 176.454C116.431 176.433 116.402 176.409 116.401 176.383C116.401 176.348 116.482 176.308 116.642 176.263C116.803 176.218 116.984 176.162 117.186 176.095C117.388 176.029 117.586 175.951 117.781 175.86C117.975 175.77 118.105 175.661 118.172 175.536L111.44 175.469C111.263 175.599 111.064 175.727 110.846 175.853C110.626 175.978 110.335 176.091 109.972 176.192C109.61 176.292 109.158 176.374 108.618 176.436C108.075 176.499 107.397 176.532 106.575 176.536C105.958 176.539 105.358 176.516 104.769 176.466C104.181 176.417 103.659 176.342 103.202 176.243C102.746 176.144 102.371 176.021 102.078 175.875C101.786 175.728 101.622 175.561 101.588 175.371L99.7619 175.352C99.6009 175.351 99.4585 175.338 99.3304 175.314C99.2044 175.29 99.1403 175.257 99.14 175.217L99.1392 175.034L101.636 175.058C101.747 174.865 101.973 174.697 102.319 174.555C102.665 174.412 103.087 174.285 103.586 174.174L104.422 174.288C104.676 174.324 104.802 174.366 104.803 174.414C104.803 174.44 104.751 174.472 104.646 174.51C104.539 174.548 104.416 174.594 104.271 174.647C104.129 174.701 103.989 174.763 103.855 174.835C103.72 174.907 103.619 174.988 103.551 175.079L109.689 175.14ZM103.528 175.389C103.578 175.509 103.69 175.612 103.86 175.699C104.029 175.786 104.24 175.857 104.494 175.913C104.749 175.969 105.034 176.01 105.349 176.036C105.667 176.062 106 176.074 106.346 176.073C106.751 176.071 107.103 176.053 107.404 176.02C107.704 175.987 107.967 175.943 108.196 175.886C108.423 175.83 108.623 175.764 108.792 175.69C108.961 175.615 109.111 175.534 109.247 175.447L103.528 175.389ZM118.183 175.226C118.133 175.104 118.01 174.998 117.82 174.906C117.63 174.815 117.386 174.738 117.091 174.676C116.795 174.614 116.45 174.568 116.056 174.537C115.664 174.507 115.23 174.493 114.756 174.495C114.335 174.497 113.97 174.516 113.667 174.552C113.363 174.588 113.099 174.635 112.875 174.695C112.652 174.756 112.461 174.826 112.306 174.906C112.15 174.986 112.004 175.071 111.87 175.163L118.183 175.226Z" fill="#FCB048"/>
<path d="M111.553 172.718C102.768 172.718 93.6213 173.491 92.1582 174.987C92.2155 175.04 92.2687 175.096 92.3181 175.156C93.5514 174.117 101.104 173.071 111.553 173.071C122.271 173.071 129.945 174.171 130.874 175.236C130.92 175.177 130.969 175.121 131.022 175.069C129.813 173.519 120.494 172.718 111.553 172.718Z" fill="url(#paint14_linear_1001_438)"/>
<path d="M94.7168 170.407V174.777C94.7168 176.189 103.538 177.334 114.419 177.334C125.3 177.334 134.122 176.189 134.122 174.777V170.407H94.7168Z" fill="url(#paint15_linear_1001_438)"/>
<path d="M114.419 172.965C125.3 172.965 134.122 171.82 134.122 170.408C134.122 168.996 125.3 167.851 114.419 167.851C103.538 167.851 94.7168 168.996 94.7168 170.408C94.7168 171.82 103.538 172.965 114.419 172.965Z" fill="url(#paint16_linear_1001_438)"/>
<path d="M114.419 173.141C104.782 173.141 94.7051 172.221 94.7051 170.445C94.7051 170.348 94.7399 170.176 94.8374 170.176C94.9349 170.176 94.893 170.31 94.893 170.408C94.893 171.534 102.912 172.788 114.419 172.788C125.926 172.788 133.945 171.534 133.945 170.408C133.945 170.31 133.961 170.219 134.059 170.219C134.156 170.219 134.133 170.349 134.133 170.447C134.133 172.222 124.056 173.141 114.419 173.141Z" fill="url(#paint17_linear_1001_438)"/>
<path d="M112.557 170.55C112.75 170.416 112.956 170.284 113.176 170.154C113.394 170.024 113.679 169.906 114.023 169.801C114.369 169.696 114.802 169.611 115.322 169.544C115.841 169.478 116.491 169.443 117.267 169.439C118.028 169.436 118.743 169.46 119.411 169.512C120.078 169.564 120.667 169.642 121.175 169.745C121.681 169.849 122.094 169.977 122.413 170.129C122.729 170.282 122.918 170.457 122.979 170.654L125.197 170.676C125.358 170.677 125.501 170.69 125.623 170.716C125.746 170.741 125.807 170.773 125.807 170.812L125.808 170.994L122.956 170.967C122.856 171.191 122.601 171.395 122.191 171.581C121.783 171.767 121.262 171.927 120.627 172.063L119.588 171.919C119.495 171.905 119.419 171.887 119.359 171.864C119.299 171.843 119.27 171.819 119.27 171.793C119.27 171.758 119.35 171.718 119.511 171.673C119.671 171.628 119.853 171.572 120.055 171.505C120.257 171.439 120.454 171.361 120.65 171.27C120.843 171.18 120.973 171.072 121.04 170.946L114.309 170.879C114.132 171.009 113.932 171.137 113.714 171.263C113.494 171.388 113.204 171.501 112.841 171.602C112.478 171.702 112.027 171.784 111.486 171.847C110.944 171.909 110.265 171.942 109.444 171.946C108.827 171.949 108.226 171.926 107.638 171.876C107.05 171.827 106.527 171.752 106.071 171.653C105.614 171.554 105.24 171.431 104.946 171.285C104.655 171.139 104.491 170.971 104.457 170.781L102.63 170.762C102.47 170.761 102.327 170.748 102.199 170.724C102.073 170.7 102.009 170.667 102.009 170.627L102.008 170.444L104.505 170.468C104.615 170.275 104.841 170.108 105.187 169.965C105.533 169.822 105.956 169.695 106.455 169.584L107.291 169.698C107.545 169.734 107.671 169.776 107.671 169.824C107.671 169.85 107.62 169.882 107.515 169.92C107.408 169.958 107.284 170.004 107.14 170.058C106.998 170.111 106.858 170.173 106.724 170.245C106.588 170.317 106.488 170.398 106.42 170.489L112.557 170.55ZM106.397 170.799C106.447 170.919 106.559 171.022 106.728 171.109C106.898 171.196 107.109 171.267 107.363 171.323C107.617 171.379 107.902 171.42 108.218 171.446C108.536 171.472 108.868 171.485 109.215 171.483C109.619 171.481 109.972 171.463 110.273 171.431C110.572 171.398 110.836 171.353 111.065 171.297C111.292 171.24 111.491 171.175 111.66 171.1C111.829 171.025 111.979 170.944 112.115 170.857L106.397 170.799ZM121.051 170.636C121.001 170.514 120.879 170.408 120.689 170.317C120.498 170.225 120.254 170.148 119.959 170.086C119.664 170.024 119.319 169.978 118.924 169.948C118.532 169.917 118.099 169.903 117.624 169.905C117.203 169.908 116.838 169.926 116.535 169.962C116.232 169.998 115.968 170.045 115.743 170.106C115.521 170.166 115.329 170.236 115.175 170.316C115.018 170.396 114.872 170.482 114.739 170.573L121.051 170.636Z" fill="#FCB048"/>
<path d="M114.422 168.127C105.637 168.127 96.4895 168.9 95.0264 170.397C95.0837 170.45 95.1369 170.506 95.1863 170.565C96.4195 169.526 103.972 168.48 114.421 168.48C125.139 168.48 132.813 169.581 133.742 170.645C133.788 170.587 133.837 170.531 133.89 170.479C132.681 168.929 123.363 168.127 114.422 168.127Z" fill="url(#paint18_linear_1001_438)"/>
<path d="M92.5991 165.455V169.825C92.5991 171.237 101.42 172.381 112.301 172.381C123.183 172.381 132.004 171.237 132.004 169.825V165.455H92.5991Z" fill="url(#paint19_linear_1001_438)"/>
<path d="M132.004 165.455C132.004 166.867 123.183 168.012 112.301 168.012C101.42 168.012 92.5991 166.867 92.5991 165.455C92.5991 164.043 101.42 162.898 112.301 162.898C123.183 162.898 132.004 164.043 132.004 165.455Z" fill="url(#paint20_linear_1001_438)"/>
<path d="M112.302 168.188C102.665 168.188 92.5879 167.268 92.5879 165.493C92.5879 165.395 92.6227 165.224 92.7202 165.224C92.8176 165.224 92.7758 165.358 92.7758 165.455C92.7758 166.581 100.795 167.836 112.302 167.836C123.809 167.836 131.828 166.581 131.828 165.455C131.828 165.358 131.844 165.266 131.942 165.266C132.039 165.266 132.016 165.396 132.016 165.494C132.016 167.269 121.938 168.188 112.302 168.188Z" fill="url(#paint21_linear_1001_438)"/>
<path d="M110.44 165.597C110.633 165.463 110.839 165.331 111.059 165.201C111.277 165.071 111.561 164.953 111.905 164.848C112.251 164.743 112.684 164.658 113.204 164.591C113.724 164.525 114.374 164.49 115.15 164.486C115.911 164.483 116.625 164.507 117.294 164.559C117.961 164.611 118.549 164.689 119.057 164.792C119.564 164.896 119.977 165.024 120.295 165.176C120.612 165.329 120.8 165.504 120.861 165.701L123.08 165.723C123.241 165.724 123.383 165.737 123.505 165.763C123.629 165.788 123.689 165.82 123.689 165.859L123.69 166.041L120.838 166.014C120.738 166.237 120.483 166.442 120.073 166.628C119.666 166.814 119.144 166.974 118.51 167.11L117.471 166.966C117.378 166.951 117.301 166.933 117.241 166.911C117.182 166.89 117.153 166.866 117.152 166.84C117.152 166.805 117.233 166.765 117.393 166.72C117.554 166.675 117.735 166.619 117.937 166.552C118.139 166.486 118.337 166.408 118.532 166.317C118.726 166.227 118.855 166.119 118.923 165.993L112.191 165.926C112.014 166.056 111.815 166.184 111.597 166.31C111.377 166.435 111.086 166.548 110.723 166.649C110.361 166.749 109.909 166.831 109.369 166.894C108.826 166.956 108.148 166.989 107.326 166.993C106.709 166.997 106.109 166.973 105.52 166.923C104.932 166.874 104.41 166.799 103.953 166.7C103.497 166.601 103.122 166.478 102.829 166.332C102.537 166.186 102.373 166.018 102.339 165.828L100.513 165.809C100.352 165.808 100.209 165.795 100.081 165.771C99.9553 165.747 99.8912 165.714 99.891 165.674L99.8901 165.491L102.387 165.515C102.498 165.322 102.724 165.155 103.07 165.012C103.416 164.869 103.838 164.742 104.337 164.631L105.173 164.745C105.427 164.781 105.553 164.823 105.554 164.871C105.554 164.897 105.502 164.929 105.397 164.967C105.29 165.005 105.167 165.051 105.022 165.104C104.88 165.158 104.74 165.22 104.607 165.292C104.471 165.364 104.37 165.445 104.302 165.536L110.44 165.597ZM104.279 165.846C104.329 165.966 104.441 166.069 104.611 166.156C104.78 166.243 104.991 166.314 105.245 166.37C105.499 166.426 105.784 166.467 106.1 166.493C106.418 166.519 106.75 166.531 107.097 166.53C107.502 166.528 107.854 166.51 108.155 166.477C108.455 166.444 108.718 166.4 108.947 166.343C109.174 166.287 109.374 166.221 109.543 166.147C109.712 166.072 109.862 165.991 109.997 165.904L104.279 165.846ZM118.934 165.683C118.884 165.561 118.761 165.455 118.571 165.363C118.381 165.272 118.137 165.195 117.842 165.133C117.546 165.071 117.201 165.025 116.807 164.994C116.415 164.964 115.981 164.95 115.507 164.952C115.086 164.954 114.721 164.973 114.417 165.009C114.114 165.045 113.85 165.092 113.626 165.153C113.403 165.213 113.212 165.283 113.057 165.363C112.901 165.443 112.755 165.529 112.621 165.62L118.934 165.683Z" fill="#FCB048"/>
<path d="M112.305 163.175C103.52 163.175 94.3728 163.948 92.9097 165.444C92.9669 165.497 93.0201 165.553 93.0696 165.613C94.3028 164.574 101.856 163.528 112.305 163.528C123.022 163.528 130.696 164.628 131.626 165.693C131.671 165.634 131.72 165.579 131.773 165.526C130.564 163.976 121.246 163.175 112.305 163.175Z" fill="url(#paint22_linear_1001_438)"/>
<path d="M87.1226 160.864V165.234C87.1226 166.646 95.9436 167.791 106.825 167.791C117.706 167.791 126.527 166.646 126.527 165.234V160.864H87.1226Z" fill="url(#paint23_linear_1001_438)"/>
<path d="M106.825 163.422C117.706 163.422 126.527 162.277 126.527 160.865C126.527 159.453 117.706 158.308 106.825 158.308C95.9436 158.308 87.1226 159.453 87.1226 160.865C87.1226 162.277 95.9436 163.422 106.825 163.422Z" fill="url(#paint24_linear_1001_438)"/>
<path d="M106.825 163.598C97.1883 163.598 87.1113 162.678 87.1113 160.902C87.1113 160.805 87.1461 160.633 87.2436 160.633C87.3411 160.633 87.2992 160.767 87.2992 160.865C87.2992 161.991 95.3183 163.245 106.825 163.245C118.332 163.245 126.351 161.991 126.351 160.865C126.351 160.767 126.368 160.676 126.465 160.676C126.563 160.676 126.539 160.806 126.539 160.904C126.539 162.679 116.462 163.598 106.825 163.598Z" fill="url(#paint25_linear_1001_438)"/>
<path d="M104.963 161.007C105.156 160.873 105.362 160.741 105.582 160.611C105.8 160.481 106.085 160.363 106.429 160.258C106.775 160.153 107.208 160.068 107.727 160.001C108.247 159.935 108.897 159.9 109.673 159.896C110.434 159.893 111.148 159.917 111.817 159.969C112.484 160.021 113.073 160.099 113.581 160.202C114.087 160.306 114.5 160.434 114.819 160.586C115.135 160.739 115.324 160.914 115.385 161.111L117.603 161.133C117.764 161.134 117.907 161.147 118.028 161.173C118.152 161.198 118.212 161.23 118.212 161.269L118.213 161.451L115.361 161.424C115.261 161.648 115.006 161.852 114.597 162.038C114.189 162.224 113.668 162.384 113.033 162.52L111.994 162.376C111.901 162.362 111.825 162.344 111.765 162.322C111.705 162.3 111.676 162.276 111.676 162.25C111.675 162.215 111.756 162.175 111.917 162.13C112.077 162.085 112.259 162.029 112.461 161.962C112.662 161.896 112.86 161.818 113.056 161.727C113.249 161.637 113.379 161.529 113.446 161.403L106.715 161.336C106.538 161.466 106.338 161.594 106.12 161.72C105.9 161.845 105.61 161.958 105.247 162.059C104.884 162.159 104.433 162.241 103.892 162.304C103.35 162.366 102.671 162.399 101.85 162.403C101.233 162.407 100.632 162.383 100.044 162.333C99.4555 162.284 98.933 162.209 98.4765 162.11C98.02 162.011 97.6459 161.888 97.3521 161.742C97.0605 161.596 96.8966 161.428 96.8627 161.238L95.0363 161.219C94.8753 161.218 94.7329 161.205 94.6048 161.181C94.4788 161.157 94.4147 161.124 94.4145 161.084L94.4136 160.901L96.9106 160.925C97.0211 160.732 97.2473 160.565 97.5933 160.422C97.9392 160.279 98.3617 160.152 98.8605 160.041L99.6968 160.156C99.9507 160.191 100.077 160.233 100.077 160.281C100.077 160.307 100.026 160.339 99.9207 160.377C99.8137 160.416 99.6901 160.461 99.5458 160.515C99.4037 160.568 99.2637 160.63 99.1299 160.702C98.9941 160.774 98.8934 160.855 98.8257 160.946L104.963 161.007ZM98.8024 161.256C98.8525 161.376 98.9645 161.479 99.1341 161.566C99.3038 161.653 99.5146 161.724 99.7687 161.78C100.023 161.836 100.308 161.877 100.624 161.903C100.942 161.929 101.274 161.942 101.62 161.94C102.025 161.938 102.378 161.92 102.679 161.888C102.978 161.855 103.242 161.81 103.471 161.754C103.697 161.697 103.897 161.632 104.066 161.557C104.235 161.482 104.385 161.401 104.521 161.314L98.8024 161.256ZM113.457 161.093C113.407 160.971 113.285 160.865 113.094 160.773C112.904 160.682 112.66 160.605 112.365 160.543C112.07 160.481 111.725 160.435 111.33 160.404C110.938 160.374 110.505 160.36 110.03 160.362C109.609 160.364 109.244 160.383 108.941 160.419C108.638 160.455 108.374 160.502 108.149 160.563C107.927 160.623 107.735 160.693 107.581 160.773C107.424 160.853 107.278 160.938 107.144 161.03L113.457 161.093Z" fill="#FCB048"/>
<path d="M106.828 158.584C98.0428 158.584 88.8957 159.358 87.4326 160.854C87.4899 160.907 87.5431 160.963 87.5925 161.022C88.8258 159.983 96.3787 158.937 106.828 158.937C117.545 158.937 125.219 160.038 126.149 161.102C126.194 161.044 126.243 160.988 126.296 160.936C125.087 159.386 115.769 158.584 106.828 158.584Z" fill="url(#paint26_linear_1001_438)"/>
<path d="M91.8481 156.288V160.658C91.8481 162.07 100.669 163.215 111.551 163.215C122.432 163.215 131.253 162.07 131.253 160.658V156.288H91.8481Z" fill="url(#paint27_linear_1001_438)"/>
<path d="M111.551 158.845C122.432 158.845 131.253 157.7 131.253 156.288C131.253 154.876 122.432 153.731 111.551 153.731C100.669 153.731 91.8481 154.876 91.8481 156.288C91.8481 157.7 100.669 158.845 111.551 158.845Z" fill="url(#paint28_linear_1001_438)"/>
<path d="M111.551 159.021C101.914 159.021 91.8369 158.101 91.8369 156.326C91.8369 156.228 91.8717 156.057 91.9692 156.057C92.0667 156.057 92.0248 156.191 92.0248 156.288C92.0248 157.414 100.044 158.669 111.551 158.669C123.058 158.669 131.077 157.414 131.077 156.288C131.077 156.191 131.093 156.099 131.191 156.099C131.288 156.099 131.265 156.229 131.265 156.327C131.265 158.102 121.187 159.021 111.551 159.021Z" fill="url(#paint29_linear_1001_438)"/>
<path d="M109.689 156.431C109.882 156.297 110.088 156.165 110.308 156.034C110.526 155.904 110.81 155.787 111.154 155.682C111.501 155.576 111.933 155.491 112.453 155.425C112.973 155.358 113.623 155.323 114.399 155.32C115.16 155.316 115.874 155.34 116.543 155.392C117.21 155.444 117.798 155.522 118.306 155.626C118.813 155.729 119.226 155.858 119.544 156.01C119.861 156.163 120.049 156.337 120.11 156.534L122.329 156.557C122.49 156.558 122.632 156.571 122.754 156.596C122.878 156.621 122.938 156.653 122.938 156.692L122.939 156.875L120.087 156.847C119.987 157.071 119.732 157.276 119.322 157.461C118.915 157.647 118.393 157.808 117.758 157.944L116.72 157.799C116.627 157.785 116.55 157.767 116.491 157.745C116.431 157.723 116.402 157.699 116.401 157.674C116.401 157.638 116.482 157.598 116.642 157.553C116.803 157.508 116.984 157.452 117.186 157.386C117.388 157.32 117.586 157.241 117.781 157.151C117.975 157.06 118.105 156.952 118.172 156.826L111.44 156.76C111.263 156.89 111.064 157.017 110.846 157.143C110.626 157.269 110.335 157.382 109.972 157.482C109.61 157.583 109.158 157.664 108.618 157.727C108.075 157.79 107.397 157.823 106.575 157.827C105.958 157.83 105.358 157.807 104.769 157.757C104.181 157.707 103.659 157.633 103.202 157.534C102.746 157.434 102.371 157.312 102.078 157.165C101.786 157.019 101.622 156.851 101.588 156.661L99.7619 156.643C99.6009 156.641 99.4585 156.629 99.3304 156.605C99.2044 156.58 99.1403 156.548 99.14 156.507L99.1392 156.325L101.636 156.348C101.747 156.156 101.973 155.988 102.319 155.845C102.665 155.702 103.087 155.575 103.586 155.464L104.422 155.579C104.676 155.615 104.802 155.656 104.803 155.704C104.803 155.73 104.751 155.762 104.646 155.801C104.539 155.839 104.416 155.885 104.271 155.938C104.129 155.992 103.989 156.054 103.855 156.126C103.72 156.197 103.619 156.278 103.551 156.369L109.689 156.431ZM103.528 156.679C103.578 156.799 103.69 156.902 103.86 156.989C104.029 157.076 104.24 157.147 104.494 157.203C104.749 157.259 105.034 157.3 105.349 157.326C105.667 157.353 106 157.365 106.346 157.363C106.751 157.361 107.103 157.344 107.404 157.311C107.704 157.278 107.967 157.233 108.196 157.177C108.423 157.12 108.623 157.055 108.792 156.98C108.961 156.906 109.111 156.825 109.247 156.737L103.528 156.679ZM118.183 156.516C118.133 156.395 118.01 156.288 117.82 156.197C117.63 156.106 117.386 156.029 117.091 155.967C116.795 155.904 116.45 155.858 116.056 155.828C115.664 155.798 115.23 155.784 114.756 155.786C114.335 155.788 113.97 155.807 113.667 155.842C113.363 155.878 113.099 155.926 112.875 155.986C112.652 156.046 112.461 156.116 112.306 156.196C112.15 156.276 112.004 156.362 111.87 156.453L118.183 156.516Z" fill="#FCB048"/>
<path d="M111.553 154.008C102.768 154.008 93.6213 154.781 92.1582 156.277C92.2155 156.33 92.2687 156.386 92.3181 156.446C93.5514 155.407 101.104 154.361 111.553 154.361C122.271 154.361 129.945 155.461 130.874 156.526C130.92 156.467 130.969 156.411 131.022 156.359C129.813 154.809 120.494 154.008 111.553 154.008Z" fill="url(#paint30_linear_1001_438)"/>
<path d="M89.3906 151.698V156.068C89.3906 157.48 98.2117 158.625 109.093 158.625C119.974 158.625 128.795 157.48 128.795 156.068V151.698H89.3906Z" fill="url(#paint31_linear_1001_438)"/>
<path d="M109.093 154.255C119.974 154.255 128.795 153.11 128.795 151.698C128.795 150.286 119.974 149.141 109.093 149.141C98.2117 149.141 89.3906 150.286 89.3906 151.698C89.3906 153.11 98.2117 154.255 109.093 154.255Z" fill="url(#paint32_linear_1001_438)"/>
<path d="M109.093 154.431C99.4564 154.431 89.3794 153.511 89.3794 151.735C89.3794 151.638 89.4142 151.466 89.5117 151.466C89.6092 151.466 89.5673 151.6 89.5673 151.698C89.5673 152.824 97.5864 154.078 109.093 154.078C120.6 154.078 128.619 152.824 128.619 151.698C128.619 151.6 128.636 151.509 128.733 151.509C128.831 151.509 128.807 151.639 128.807 151.737C128.807 153.512 118.73 154.431 109.093 154.431Z" fill="url(#paint33_linear_1001_438)"/>
<path d="M107.231 151.84C107.424 151.706 107.63 151.574 107.85 151.444C108.068 151.314 108.353 151.196 108.697 151.091C109.043 150.986 109.476 150.901 109.996 150.834C110.515 150.768 111.165 150.733 111.941 150.729C112.703 150.726 113.417 150.75 114.085 150.802C114.752 150.854 115.341 150.932 115.849 151.035C116.355 151.139 116.768 151.267 117.087 151.419C117.403 151.572 117.592 151.747 117.653 151.944L119.871 151.966C120.032 151.967 120.175 151.98 120.297 152.006C120.42 152.031 120.48 152.063 120.481 152.102L120.482 152.284L117.63 152.257C117.529 152.481 117.275 152.685 116.865 152.871C116.457 153.057 115.936 153.217 115.301 153.353L114.262 153.209C114.169 153.195 114.093 153.177 114.033 153.155C113.973 153.133 113.944 153.109 113.944 153.083C113.944 153.048 114.024 153.008 114.185 152.963C114.345 152.918 114.527 152.862 114.729 152.796C114.931 152.729 115.128 152.651 115.324 152.56C115.517 152.47 115.647 152.362 115.714 152.236L108.983 152.169C108.806 152.299 108.606 152.427 108.388 152.553C108.168 152.678 107.878 152.792 107.515 152.892C107.152 152.992 106.701 153.074 106.16 153.137C105.618 153.199 104.939 153.233 104.118 153.237C103.501 153.24 102.9 153.216 102.312 153.167C101.724 153.117 101.201 153.042 100.745 152.943C100.288 152.844 99.9139 152.721 99.6202 152.575C99.3286 152.429 99.1647 152.261 99.1307 152.071L97.3044 152.052C97.1434 152.051 97.001 152.039 96.8729 152.014C96.7469 151.99 96.6827 151.957 96.6825 151.917L96.6816 151.734L99.1787 151.758C99.2892 151.565 99.5153 151.398 99.8614 151.255C100.207 151.112 100.63 150.985 101.129 150.874L101.965 150.989C102.219 151.024 102.345 151.066 102.345 151.114C102.345 151.14 102.294 151.172 102.189 151.21C102.082 151.249 101.958 151.295 101.814 151.348C101.672 151.401 101.532 151.464 101.398 151.535C101.262 151.607 101.161 151.688 101.094 151.779L107.231 151.84ZM101.071 152.089C101.121 152.209 101.233 152.312 101.402 152.399C101.572 152.486 101.783 152.557 102.037 152.613C102.291 152.669 102.576 152.71 102.892 152.736C103.21 152.762 103.542 152.775 103.889 152.773C104.293 152.771 104.646 152.754 104.947 152.721C105.246 152.688 105.51 152.643 105.739 152.587C105.965 152.53 106.165 152.465 106.334 152.39C106.503 152.315 106.653 152.234 106.789 152.147L101.071 152.089ZM115.725 151.926C115.675 151.804 115.553 151.698 115.363 151.607C115.172 151.515 114.928 151.438 114.633 151.376C114.338 151.314 113.993 151.268 113.599 151.238C113.206 151.207 112.773 151.193 112.298 151.195C111.877 151.198 111.512 151.216 111.209 151.252C110.906 151.288 110.642 151.335 110.417 151.396C110.195 151.456 110.003 151.526 109.849 151.606C109.692 151.686 109.546 151.772 109.413 151.863L115.725 151.926Z" fill="#FCB048"/>
<path d="M109.096 149.417C100.311 149.417 91.1638 150.191 89.7007 151.687C89.7579 151.74 89.8112 151.796 89.8606 151.855C91.0939 150.816 98.6468 149.77 109.096 149.77C119.813 149.77 127.487 150.871 128.417 151.935C128.462 151.877 128.511 151.821 128.564 151.768C127.356 150.219 118.037 149.417 109.096 149.417Z" fill="url(#paint34_linear_1001_438)"/>
<path d="M154.382 189.428C154.382 189.428 154.549 190.756 154.437 191.201C154.325 191.646 150.463 191.968 149.152 191.813C147.841 191.658 149.933 190.319 150.768 190.068C151.603 189.817 154.382 189.428 154.382 189.428Z" fill="url(#paint35_linear_1001_438)"/>
<path d="M152.438 187.211L152.845 189.876C152.845 189.876 153.883 190.343 154.382 189.882L154.437 187.092L152.438 187.211Z" fill="url(#paint36_linear_1001_438)"/>
<path d="M174.209 187.093C174.209 187.093 173.39 187.701 173.608 188.429C173.827 189.157 175.739 192.075 177.102 192.904C178.464 193.732 178.037 192.006 177.641 190.932C177.244 189.857 176.231 187.49 175.835 187.093C175.44 186.696 174.209 187.093 174.209 187.093Z" fill="url(#paint37_linear_1001_438)"/>
<path d="M172.736 184.165C173.132 185.269 173.513 186.176 173.811 186.846C174.47 188.327 174.831 188.883 175.239 189.365C175.595 189.785 176.437 190.681 176.664 190.531C176.894 190.38 176.277 189.291 175.089 186.102C174.917 185.639 174.372 184.165 174.372 184.165L172.736 184.165Z" fill="url(#paint38_linear_1001_438)"/>
<path d="M144.35 138.027C144.067 140.802 143.796 145.11 144.201 150.338C144.73 157.149 146.092 161.459 147.8 168.722C148.844 173.16 150.25 179.693 151.523 187.863C151.819 188.032 152.687 188.476 153.806 188.31C154.432 188.217 154.901 187.968 155.178 187.789C158.517 177.585 157.531 171.261 155.919 167.321C155.232 165.641 154.399 164.316 153.954 161.735C153.365 158.319 154.093 156.41 155.132 148.498C155.873 142.859 155.744 141.987 155.252 141.141C153.283 137.76 147.26 137.826 144.35 138.027Z" fill="url(#paint39_linear_1001_438)"/>
<path d="M123.581 109.47C123.581 109.47 123.112 107.631 122.332 107.146C121.552 106.661 120.449 106.142 120.197 105.929C119.944 105.716 119.649 106.353 120.377 106.841C121.105 107.328 121.105 107.328 121.105 107.328C121.12 107.463 121.1 107.567 121.075 107.641C120.96 107.986 120.566 108.223 120.08 108.267C118.212 108.659 117.483 108.678 117.198 108.594C117.156 108.582 116.993 108.529 116.925 108.601C116.815 108.717 117.012 109.084 117.097 109.213C117.602 109.985 119.356 110.32 120.669 109.717C121.149 109.496 121.333 109.26 121.683 109.319C122.239 109.413 122.58 110.147 122.782 110.754L123.581 109.47Z" fill="url(#paint40_linear_1001_438)"/>
<path d="M155.845 139.213C157.891 149.779 159.899 155.328 161.419 158.467C161.793 159.241 163.044 161.738 164.226 165.318C165.272 168.487 165.708 170.818 165.931 171.845C166.637 175.083 168.38 179.812 173.07 186.014C173.129 186.049 173.929 186.501 174.693 186.098C175.08 185.893 175.273 185.568 175.35 185.416C174.737 179.487 174.033 174.504 173.422 170.658C173.293 169.851 172.729 166.322 171.843 161.66C171.497 159.835 170.989 157.162 170.381 154.416C169.624 150.997 168.463 146.345 166.673 140.771C163.064 140.251 159.454 139.733 155.845 139.213Z" fill="url(#paint41_linear_1001_438)"/>
<path d="M122.074 110.053C122.606 109.58 123.138 109.107 123.67 108.635C123.864 108.831 126.704 111.602 130.673 110.762C133.405 110.184 134.982 107.939 135.991 106.507C139.024 102.205 137.21 99.0476 140.475 96.1239C141.382 95.3122 143.161 94.3291 144.324 94.6288C147.095 95.3431 148.69 103.676 146.008 110.23C145.467 111.553 142.486 118.837 135.725 119.626C130.266 120.264 124.478 116.417 122.074 110.053Z" fill="url(#paint42_linear_1001_438)"/>
<path d="M154.102 97.4227C152.942 96.3502 150.722 95.1138 149.609 92.2397C149.274 91.3746 148.087 88.3093 149.838 85.9646C150.878 84.5727 152.808 83.6275 154.51 83.9621C155.965 84.2481 156.192 85.261 158.663 87.2996C159.625 88.093 161.171 89.3684 162.892 90.0775C165.84 91.2926 167.612 90.1493 170.572 90.2796C174.208 90.44 178.432 92.4692 180.467 95.4203C184.079 100.658 178.847 105.971 182.803 112.107C184.1 114.117 184.739 113.666 187.809 117.558C190.884 121.454 192.421 123.402 192.148 125.79C191.768 129.103 188.199 132.268 184.838 132.483C181.555 132.694 179.468 130.111 177.797 131.241C176.608 132.045 177.288 133.609 176.024 135.488C174.396 137.911 171.195 138.394 170.678 138.472C165.879 139.196 159.409 133.569 156.661 126.902C151.706 114.881 160.41 103.253 154.102 97.4227Z" fill="url(#paint43_linear_1001_438)"/>
<path opacity="0.3" d="M155.92 167.321C155.233 165.641 154.4 164.316 153.955 161.735C153.366 158.319 154.094 156.41 155.133 148.498C155.873 142.859 155.745 141.987 155.252 141.141C154.182 139.304 151.914 138.489 149.6 138.156C149.631 138.274 149.662 138.393 149.687 138.508C150.902 144.054 146.267 147.437 148.358 153.533C149.388 156.539 151.033 157.227 151.416 160.713C151.775 163.979 150.473 164.659 150.751 167.628C151.167 172.065 154.319 173.138 155.139 176.536C155.672 178.744 155.223 181.973 151.33 186.646C151.395 187.048 151.46 187.452 151.524 187.863C151.819 188.032 152.688 188.477 153.807 188.311C154.433 188.218 154.901 187.969 155.178 187.79C158.518 177.585 157.531 171.261 155.92 167.321Z" fill="url(#paint44_linear_1001_438)"/>
<path opacity="0.15" d="M143.703 102.608C138.706 106.554 139.263 114.124 136.191 114.508C135.252 114.625 135.304 113.906 133.066 113.178C129.793 112.114 128.255 113.189 125.952 112.38C124.999 112.046 123.758 111.33 122.537 109.643C122.382 109.78 122.228 109.916 122.074 110.053C124.478 116.418 130.266 120.264 135.725 119.627C142.486 118.838 145.467 111.554 146.008 110.231C147.266 107.155 147.583 103.688 147.278 100.801C146.125 101.137 144.872 101.684 143.703 102.608Z" fill="url(#paint45_linear_1001_438)"/>
<path d="M140.079 96.6236C140.385 96.148 141.359 94.8301 145.49 93.8588C147.561 93.372 151.389 92.538 156.315 93.5819C163.081 95.0155 167.295 99.0754 168.881 100.782C167.582 101.628 163.998 104.208 162.223 109.103C161.671 110.626 160.04 115.833 162.373 120.71C163.717 123.52 166.095 125.63 167.902 127.232C170.611 129.636 172.014 130.005 172.922 132.158C173.911 134.503 172.915 135.646 174.143 137.252C175.462 138.975 177.008 138.174 179.244 139.918C181.534 141.703 180.719 143.173 182.803 145.146C185.832 148.013 189.847 147.082 190.034 148.372C190.195 149.482 187.341 150.988 184.917 151.598C180.116 152.808 175.928 150.778 174.683 150.152C171.235 148.42 171.83 147.299 169.202 145.978C164.8 143.767 161.792 146.228 151.766 146.481C146.337 146.618 143.592 146.649 142.088 144.812C140.715 143.134 141.437 141.294 142.261 133.363C142.261 133.363 142.261 133.363 142.261 133.362C142.526 130.713 143.081 125.167 143.084 122.007C143.086 120.139 142.438 117.087 141.143 110.984C141.066 110.624 140.365 107.326 139.799 102.922C139.289 98.955 139.362 97.737 140.079 96.6236Z" fill="url(#paint46_linear_1001_438)"/>
<g opacity="0.15">
<path d="M182.803 145.146C180.719 143.173 181.534 141.703 179.244 139.918C177.008 138.174 175.462 138.976 174.143 137.252C172.915 135.647 173.911 134.503 172.922 132.159C172.014 130.005 170.611 129.636 167.902 127.233C166.095 125.63 163.717 123.52 162.373 120.71C160.04 115.833 161.671 110.627 162.223 109.103C163.998 104.208 167.582 101.628 168.881 100.782C168.756 100.648 168.608 100.494 168.451 100.333C159.894 101.508 154.905 106.453 154.288 107.917C152.862 111.301 155.12 112.544 155.178 122.304C155.206 126.97 154.703 128.812 156.216 130.759C157.947 132.986 159.942 132.297 162.446 135.209C164.369 137.446 164.061 138.864 165.857 139.807C167.789 140.82 169.019 139.639 171.197 140.103C174.836 140.879 175.614 145.075 178.02 147.371C179.839 149.107 183.203 150.321 189.836 149.018C189.99 148.795 190.064 148.577 190.034 148.372C189.847 147.082 185.832 148.013 182.803 145.146Z" fill="url(#paint47_linear_1001_438)"/>
</g>
<path d="M153.537 88.2925C153.537 88.2925 153.969 91.7422 155.242 92.5327C156.516 93.3227 158.574 94.3552 158.801 94.6355C159.027 94.9153 150.913 95.7879 146.892 93.7586C148.217 93.4822 148.577 93.3806 148.577 93.3806C148.937 93.2789 149.608 93.0898 150.28 92.7066C150.738 92.4459 151.476 91.9366 152.153 90.9749L152.138 89.0647L153.537 88.2925Z" fill="url(#paint48_linear_1001_438)"/>
<path d="M153.731 89.5144C153.731 89.5144 152.901 90.654 151.599 90.179C150.433 89.7538 151.129 86.743 152.054 86.3996C152.362 86.285 152.929 86.3357 153.307 86.5719C153.573 86.738 154.284 87.6213 153.877 88.6112C154.171 88.5258 154.431 88.6033 154.495 88.7492C154.578 88.9342 154.328 89.1861 154.272 89.2432C154.076 89.441 153.84 89.4963 153.731 89.5144Z" fill="url(#paint49_linear_1001_438)"/>
<path d="M154.893 110.435L148.299 108.106C148.177 108.067 148.08 107.974 148.036 107.854L146.942 104.878C146.829 104.571 147.1 104.26 147.42 104.329L153.616 105.669C153.758 105.7 154.073 105.792 154.17 106.055L155.397 109.684C155.509 110.008 155.219 110.54 154.893 110.435Z" fill="url(#paint50_linear_1001_438)"/>
<path d="M154.792 110.473L148.42 108.435C148.298 108.396 148.2 108.303 148.156 108.182L147.063 105.207C146.95 104.9 147.22 104.588 147.54 104.658L153.737 105.998C153.878 106.029 153.994 106.131 154.041 106.268L155.311 109.942C155.423 110.265 155.118 110.577 154.792 110.473Z" fill="url(#paint51_linear_1001_438)"/>
<path d="M158.021 110.343C158.021 110.343 156.909 108.12 156.243 107.676C155.576 107.231 152.578 107.038 151.743 107.135C150.908 107.231 150.846 107.854 151.544 108.321C152.242 108.787 154.22 109.32 154.564 109.72C154.909 110.121 157.354 111.232 158.021 110.343Z" fill="url(#paint52_linear_1001_438)"/>
<path d="M156.869 110.494C155.949 112.42 160.103 116.942 164.737 119.104C165.681 119.545 172.461 122.708 175.507 119.72C178.024 117.25 176.437 112.106 175.87 110.27C173.088 101.252 164.416 96.6245 160.781 94.9526C158.022 101.739 159.608 104.779 160.233 105.729C160.886 106.721 162.713 108.808 164.655 110.649C166.022 111.943 166.873 112.574 166.757 112.774C166.613 113.023 165.005 112.542 158.769 109.464C158.044 109.577 157.184 109.836 156.869 110.494Z" fill="url(#paint53_linear_1001_438)"/>
<path d="M73.9264 92.5454C77.7733 96.7776 86.9818 106.909 83.6411 114.234C83.1828 115.239 82.6897 116.32 81.6078 116.719C78.4451 117.886 75.6135 111.246 68.5042 109.942C64.8707 109.275 63.6247 110.666 62.4042 109.49C58.6817 105.901 65.5155 90.0352 70.7634 90.2861C71.714 90.3317 72.4293 90.8983 73.9264 92.5454Z" fill="url(#paint54_linear_1001_438)"/>
<path d="M51.1902 189.571C50.8536 189.88 50.8325 190.603 50.8187 191.076C50.8124 191.287 50.8094 191.392 50.8374 191.465C51.0416 191.996 52.0939 191.988 53.749 192.056C56.3645 192.162 57.1505 192.32 57.3303 191.92C57.4987 191.546 57.0011 190.981 56.9452 190.919C56.6444 190.584 56.2937 190.477 55.6177 190.299C54.3667 189.971 53.5246 189.8 53.2696 189.749C51.6775 189.426 51.4112 189.368 51.1902 189.571Z" fill="url(#paint55_linear_1001_438)"/>
<path d="M53.0245 186.962L53.127 189.939C53.0455 190.079 52.1419 190.461 51.4619 190.056L50.9482 187.107L53.0245 186.962Z" fill="url(#paint56_linear_1001_438)"/>
<path d="M73.2216 189.155C72.772 189.601 72.6292 190.46 72.9759 190.905C73.3166 191.342 73.8791 191.058 75.4246 191.186C77.08 191.324 77.4921 191.739 78.6355 191.488C79.0974 191.386 79.9176 191.124 79.9196 190.798C79.9211 190.569 79.5181 190.429 78.1753 189.898C76.2695 189.145 76.2798 189.11 75.8714 189.02C74.8455 188.793 73.8154 188.565 73.2216 189.155Z" fill="url(#paint57_linear_1001_438)"/>
<path d="M74.4278 186.507L75.1123 189.318C75.0415 189.463 74.1697 189.913 73.4608 189.561L72.3687 186.81L74.4278 186.507Z" fill="url(#paint58_linear_1001_438)"/>
<path d="M70.263 125.526C69.8874 134.829 69.9655 145.317 70.8835 156.755C71.7905 168.06 73.3593 178.314 75.1846 187.355C74.1083 187.584 73.0321 187.813 71.9558 188.042C69.3975 185.389 66.2118 181.257 64.8703 175.585C64.0378 172.066 64.4715 170.303 64.0532 166.006C63.3873 159.164 61.496 155.497 59.6369 149.909C57.9663 144.888 56.0663 137.549 55.355 127.836C60.3243 127.066 65.2938 126.296 70.263 125.526Z" fill="url(#paint59_linear_1001_438)"/>
<path opacity="0.3" d="M68.7844 169.005C67.5984 164.312 65.315 163.071 65.2329 158.641C65.1748 155.507 66.3009 155.251 66.2256 152.251C66.1115 147.702 63.4458 145.317 62.1063 142.455C60.6916 139.433 60.1489 134.578 63.9586 126.502C61.0907 126.947 58.2228 127.391 55.355 127.835C56.0663 137.549 57.9663 144.888 59.6369 149.909C61.4961 155.497 63.3873 159.164 64.0532 166.006C64.4715 170.303 64.0378 172.066 64.8703 175.585C66.2118 181.256 69.3975 185.388 71.9558 188.042C72.2296 187.984 72.5033 187.925 72.777 187.867C70.0113 184.567 69.0351 181.62 68.7864 179.228C68.3818 175.337 69.9801 173.737 68.7844 169.005Z" fill="url(#paint60_linear_1001_438)"/>
<path d="M59.5047 124.947C58.226 136.736 57.0509 148.752 55.9938 160.989C55.2005 170.171 54.4941 179.241 53.869 188.195C52.7781 188.271 51.687 188.347 50.596 188.423C49.6525 186.418 48.4201 183.362 47.6705 179.491C46.76 174.788 47.1747 172.047 46.9231 167.21C46.6407 161.785 45.8761 160.566 44.7728 153.683C42.5336 139.714 41.414 132.73 44.9602 128.611C46.1114 127.274 49.6738 123.956 59.5047 124.947Z" fill="url(#paint61_linear_1001_438)"/>
<path d="M36.846 98.3471C35.427 94.5756 37.6821 90.419 41.6253 89.589C46.1094 88.6452 51.4785 88.0077 57.5132 88.2553C62.9037 88.4764 67.5891 89.353 71.3901 90.3642C71.8851 90.4959 72.258 90.9017 72.3482 91.4059C72.8322 94.11 73.3162 96.8141 73.8002 99.5182C73.9232 102.504 73.9634 106.548 73.6288 111.326C73.2943 116.104 72.966 116.176 72.1987 122.921C70.948 133.918 71.4724 136.791 69.2626 138.112C67.8253 138.972 67.3052 137.935 59.9699 137.209C55.0512 136.722 52.541 136.496 50.0503 137.34C46.6586 138.488 45.5241 140.415 44.1247 139.788C42.7828 139.187 42.6116 136.871 42.4488 132.832C42.1976 126.602 42.2122 122.367 42.1889 120.851C42.0819 113.896 40.3198 108.586 38.063 101.786C37.6601 100.572 37.2512 99.4239 36.846 98.3471Z" fill="url(#paint62_linear_1001_438)"/>
<path d="M56.8511 81.3657C56.7727 83.1144 56.5039 84.4901 56.2689 85.4296C55.9997 86.5061 55.8325 86.7789 55.6261 86.9966C55.3153 87.3243 54.8567 87.5886 52.319 88.0764C50.9381 88.3418 50.7632 88.3232 50.7259 88.4568C50.544 89.1088 54.1409 91.5555 58.0093 91.2177C60.377 91.0111 62.5864 89.7841 62.4926 89.0732C62.3982 88.3576 60.0307 88.6129 59.3992 87.2938C58.96 86.3762 59.5729 85.1393 60.2736 84.1252C59.7113 82.9218 57.4133 82.5692 56.8511 81.3657Z" fill="url(#paint63_linear_1001_438)"/>
<path d="M61.176 82.2889C61.7698 81.5818 61.8725 80.2975 61.2767 79.4505C60.764 78.7216 59.904 78.5758 59.389 78.4883C57.8969 78.2351 55.9693 78.761 55.2368 80.1076C54.803 80.9057 55.5569 82.6521 55.6729 82.9649C55.8042 83.3188 56.0694 83.4519 56.3067 83.7267C56.6355 84.108 57.1498 84.7136 57.988 85.7253C58.0722 85.4444 58.1961 85.0977 58.3833 84.7247C58.4554 84.5811 58.7441 84.0208 59.16 83.5656C59.9931 82.6532 60.613 82.9592 61.176 82.2889Z" fill="url(#paint64_linear_1001_438)"/>
<path d="M56.7622 84.8473C56.7622 84.8473 57.663 86.519 59.6349 86.4958C61.4004 86.4749 61.868 82.5431 60.7888 81.6461C60.4287 81.3468 59.684 81.1908 59.0645 81.3294C58.6985 81.4113 58.5684 81.5547 57.9678 81.6767C57.4138 81.7894 57.2628 81.7207 57.0904 81.8506C56.8749 82.0133 56.7011 82.4309 56.9842 83.6027C56.6666 83.2451 56.2707 83.0931 55.978 83.2127C55.9313 83.2319 55.8062 83.3076 55.7315 83.4285C55.4615 83.866 55.8425 84.4635 56.7622 84.8473Z" fill="url(#paint65_linear_1001_438)"/>
<path d="M57.0235 81.6103C57.105 81.6781 56.8288 81.9808 56.7857 82.4278C56.7017 83.2955 57.5265 84.3863 58.4198 84.5226C58.9479 84.6031 59.1109 84.2909 59.9935 84.2449C60.54 84.2164 60.9886 84.3096 61.2699 84.387C61.4949 85.3554 61.1848 86.2925 60.5237 86.6998C59.812 87.1383 58.9506 86.8035 58.5904 86.6635C58.3495 86.5698 57.5773 86.2714 57.205 85.5288C56.817 84.7551 57.2611 84.3248 56.7972 83.7907C56.5632 83.5214 56.244 83.3932 55.9537 82.8803C55.8749 82.741 55.8238 82.6187 55.793 82.5367C56.2724 82.08 56.9055 81.5121 57.0235 81.6103Z" fill="url(#paint66_linear_1001_438)"/>
<path d="M60.6124 84.7066C60.6124 84.7066 60.2219 84.885 59.5672 84.8131C59.5354 84.8095 59.4997 84.817 59.4947 84.8334C59.4763 84.8949 59.8827 85.1965 60.2766 85.1082C60.5564 85.0453 60.7847 84.7958 60.7511 84.7274C60.7369 84.6986 60.6744 84.6989 60.6124 84.7066Z" fill="url(#paint67_linear_1001_438)"/>
<path opacity="0.3" d="M66.4103 134.503C62.8022 132.964 62.8226 129.778 59.4527 128.449C54.644 126.553 49.3324 130.961 48.5027 129.739C47.6393 128.468 53.9835 124.567 53.1388 120.721C52.4674 117.664 48.0385 118.207 45.6657 114.023C43.4147 110.054 45.5956 106.384 43.6027 105.005C42.888 104.511 41.6275 104.316 39.2378 105.368C40.9052 110.572 42.101 115.162 42.1886 120.851C42.2119 122.367 42.1973 126.602 42.4484 132.832C42.6112 136.871 42.7825 139.187 44.1244 139.788C45.5237 140.415 46.6584 138.488 50.05 137.34C52.5406 136.496 55.0508 136.722 59.9695 137.209C67.3049 137.935 67.825 138.972 69.2623 138.112C70.1984 137.553 70.6432 136.711 70.9408 135.095C69.4703 135.254 67.9103 135.142 66.4103 134.503Z" fill="url(#paint68_linear_1001_438)"/>
<path d="M44.5559 136.601C44.5559 136.601 45.9114 138.182 48.5095 137.956C48.5095 137.956 46.8151 139.086 46.5892 141.797C46.3633 144.508 41.8448 141.345 44.5559 136.601Z" fill="url(#paint69_linear_1001_438)"/>
<path d="M44.33 139.086C42.7132 140.265 36.5941 135.607 33.2597 131.405C26.7697 123.225 25.4791 110.039 30.7745 100.227C33.6816 94.8408 39.4673 88.8077 42.7484 90.0606C45.7942 91.2236 46.0681 98.4302 45.4595 102.938C44.2001 112.268 38.8313 112.623 39.1337 118.979C39.422 125.038 44.7571 131.457 44.7818 137.73C44.7832 138.083 44.7691 138.766 44.33 139.086Z" fill="url(#paint70_linear_1001_438)"/>
<path d="M70.4494 102.486C77.0396 105.225 79.8663 109.09 81.06 111.144C81.8218 112.454 83.0651 114.652 82.2389 116.091C81.4619 117.444 79.215 117.498 78.1126 117.328C72.5055 116.461 70.0898 105.722 69.8599 104.65L70.4494 102.486Z" fill="url(#paint71_linear_1001_438)"/>
<path d="M70.7632 102.712C70.7632 102.712 69.8596 100.001 68.2781 99.549C66.6966 99.0972 65.113 99.3231 64.7752 99.7749C64.4373 100.227 65.2019 101.013 66.74 101.524C68.2781 102.034 68.7299 103.842 69.8596 104.067C70.9891 104.293 70.7632 102.712 70.7632 102.712Z" fill="url(#paint72_linear_1001_438)"/>
<path d="M126.2 127.987C126.2 136.837 119.28 143.798 110.436 143.527C101.231 143.244 93.4902 135.295 93.4902 125.782C93.4902 116.269 101.231 109.364 110.436 110.322C119.28 111.243 126.2 119.138 126.2 127.987Z" fill="url(#paint73_linear_1001_438)"/>
<path d="M128.59 127.224C128.59 136.074 121.67 143.035 112.826 142.764C103.621 142.481 95.8804 134.532 95.8804 125.019C95.8804 115.507 103.621 108.601 112.826 109.56C121.67 110.48 128.59 118.375 128.59 127.224Z" fill="url(#paint74_linear_1001_438)"/>
<path d="M127.895 127.177C127.895 135.637 121.274 142.281 112.826 142.007C104.049 141.723 96.6797 134.137 96.6797 125.073C96.6797 116.009 104.049 109.416 112.826 110.315C121.274 111.181 127.895 118.717 127.895 127.177Z" fill="url(#paint75_linear_1001_438)"/>
<path d="M127.398 127.144C127.398 135.325 120.992 141.742 112.826 141.468C104.353 141.183 97.249 133.856 97.249 125.112C97.249 116.368 104.353 109.998 112.826 110.856C120.992 111.683 127.398 118.964 127.398 127.144Z" fill="url(#paint76_linear_1001_438)"/>
<path d="M112.742 113.639C113.177 113.681 113.528 114.072 113.528 114.513V116.019C114.397 116.116 115.267 116.267 116.139 116.472C116.781 116.623 117.42 116.803 118.053 117.011C118.433 117.136 118.692 117.52 118.653 117.915L118.468 119.804C118.419 120.305 117.924 120.599 117.458 120.391C117.04 120.205 116.612 120.046 116.173 119.913C115.408 119.681 114.6 119.53 113.751 119.46L113.529 119.442V123.756C115.795 124.39 117.46 125.243 118.536 126.316C119.607 127.384 120.14 128.715 120.14 130.313C120.14 132.041 119.55 133.425 118.366 134.468C117.176 135.518 115.506 136.108 113.348 136.235V137.898C113.348 138.339 112.996 138.683 112.561 138.666L112.547 138.665C112.111 138.648 111.757 138.275 111.757 137.832V136.192L111.407 136.176C110.395 136.13 109.426 136.027 108.5 135.866C107.814 135.747 107.144 135.593 106.491 135.404C106.095 135.29 105.824 134.913 105.86 134.509L106.078 132.081C106.125 131.556 106.652 131.251 107.151 131.448C107.733 131.677 108.322 131.87 108.918 132.028C109.847 132.273 110.789 132.43 111.743 132.5L111.757 127.701C109.581 127.163 107.952 126.365 106.882 125.309C105.807 124.248 105.267 122.89 105.267 121.238C105.267 119.529 105.852 118.21 107.018 117.284C108.178 116.363 109.826 115.905 111.953 115.906V114.366C111.953 113.923 112.307 113.598 112.742 113.639ZM111.953 119.397C111.281 119.446 110.756 119.631 110.381 119.951C110.005 120.273 109.817 120.704 109.817 121.246C109.817 121.76 109.991 122.189 110.339 122.533C110.686 122.877 111.224 123.152 111.953 123.357V119.397ZM113.348 128.086V132.486C114.079 132.487 114.639 132.313 115.031 131.963C115.421 131.613 115.616 131.12 115.616 130.482C115.616 129.9 115.435 129.417 115.072 129.034C114.708 128.649 114.134 128.333 113.348 128.086Z" fill="url(#paint77_linear_1001_438)"/>
<path opacity="0.3" d="M110.188 129.147C110.681 124.284 115.15 122.226 114.567 117.753C114.207 114.996 112.118 112.672 109.787 110.858C102.716 111.6 97.249 117.454 97.249 125.111C97.249 133.856 104.353 141.183 112.826 141.467C113.648 141.495 114.451 141.452 115.233 141.35C111.868 138.002 109.766 133.325 110.188 129.147Z" fill="url(#paint78_linear_1001_438)"/>
<path d="M76.0764 40.2777C76.0764 54.2995 64.7777 66.4218 50.7971 67.3563C36.7688 68.2941 25.3613 57.6194 25.3613 43.5108C25.3613 29.4022 36.7687 17.2731 50.7971 16.4222C64.7777 15.5742 76.0764 26.2559 76.0764 40.2777Z" fill="url(#paint79_linear_1001_438)"/>
<path d="M49.9037 55.6703C48.8041 55.7423 47.7811 55.2307 47.2119 54.3168L37.6529 38.967C36.757 37.5286 37.2397 35.5583 38.7305 34.5667C40.22 33.5757 42.1531 33.9377 43.0478 35.3755L49.6771 46.0306L58.4244 28.2157C59.2094 26.6169 61.0955 25.8834 62.6359 26.5769C64.1761 27.2701 64.7889 29.127 64.0049 30.7248L52.701 53.7655C52.1834 54.8205 51.1544 55.5465 50.014 55.6611C49.9772 55.6648 49.9404 55.6679 49.9037 55.6703Z" fill="url(#paint80_linear_1001_438)"/>
<path d="M78.1995 40.2777C78.1995 54.2995 66.9008 66.4218 52.9201 67.3563C38.8918 68.2941 27.4844 57.6194 27.4844 43.5108C27.4844 29.4022 38.8918 17.2731 52.9201 16.4222C66.9008 15.5742 78.1995 26.2559 78.1995 40.2777Z" fill="url(#paint81_linear_1001_438)"/>
<path d="M52.0272 55.6703C50.9276 55.7423 49.9046 55.2307 49.3355 54.3168L39.7764 38.967C38.8806 37.5286 39.3633 35.5583 40.854 34.5667C42.3436 33.5757 44.2767 33.9377 45.1713 35.3755L51.8007 46.0306L60.5479 28.2157C61.3329 26.6169 63.219 25.8834 64.7594 26.5769C66.2996 27.2701 66.9125 29.127 66.1285 30.7248L54.8246 53.7655C54.3069 54.8205 53.2779 55.5465 52.1376 55.6611C52.1008 55.6648 52.064 55.6679 52.0272 55.6703Z" fill="white"/>
<path d="M175.251 28.6693C175.251 26.6564 173.606 24.9539 171.58 24.8657L118.982 22.578C116.703 22.4787 114.803 24.1391 114.803 26.2868V68.2694C114.803 70.4171 116.697 72.143 118.976 72.1244L120.208 72.1109L120.266 72.0189L171.541 71.0052C173.568 70.9887 175.251 70.0294 175.251 68.0165V28.6693ZM129.245 32.0835C127.287 32.0169 125.693 30.451 125.693 28.5861C125.693 26.7213 127.287 25.275 129.245 25.3554C131.196 25.4355 132.772 27.0008 132.772 28.8518C132.772 30.7028 131.196 32.1498 129.245 32.0835ZM146.01 32.6532C144.12 32.5889 142.582 31.0517 142.582 29.22C142.582 27.3882 144.12 25.9664 146.01 26.044C147.893 26.1213 149.413 27.658 149.413 29.4764C149.413 31.2947 147.893 32.7172 146.01 32.6532ZM162.193 33.2031C160.368 33.1411 158.883 31.6315 158.883 29.8317C158.883 28.0319 160.368 26.6338 162.193 26.7088C164.01 26.7835 165.479 28.2924 165.479 30.0792C165.479 31.8661 164.01 33.2648 162.193 33.2031Z" fill="url(#paint82_linear_1001_438)"/>
<path d="M176.35 35.9558V28.6691C176.35 26.6592 174.752 25.0021 172.731 24.9141L120.318 22.6338C119.361 22.5922 118.467 22.8444 117.764 23.3345C116.803 24.0029 116.177 25.0602 116.177 26.2973V35.9558H176.35ZM163.355 26.7567C165.167 26.8312 166.633 28.3374 166.633 30.1236C166.633 31.9079 165.167 33.3041 163.355 33.2426C161.535 33.1807 160.053 31.6738 160.053 29.8766C160.053 28.0776 161.535 26.6819 163.355 26.7567ZM147.214 26.0938C149.091 26.1708 150.608 27.7046 150.608 29.5223C150.608 31.3379 149.091 32.7579 147.214 32.6941C145.329 32.6301 143.794 31.0956 143.794 29.2666C143.794 27.4356 145.329 26.0163 147.214 26.0938ZM130.492 25.4069C132.437 25.4868 134.01 27.0493 134.01 28.8994C134.01 30.7476 132.437 32.1921 130.492 32.126C128.539 32.0596 126.948 30.4965 126.948 28.6345C126.948 26.7704 128.539 25.3267 130.492 25.4069Z" fill="url(#paint83_linear_1001_438)"/>
<path d="M116.177 33.7612V68.2577C116.177 70.402 117.962 72.1293 120.235 72.1108L172.701 71.6852C174.723 71.6687 176.35 70.0277 176.35 68.0169V35.6682L116.177 33.7612Z" fill="white"/>
<path d="M155.194 40.657C155.194 40.1789 154.844 39.7829 154.354 39.7699L149.163 39.6351C148.668 39.6219 148.05 39.9991 148.05 40.4808V45.3426C148.05 45.8242 148.691 46.2262 149.187 46.2359L154.234 46.3327C154.724 46.3422 155.194 45.9622 155.194 45.484L155.194 40.657Z" fill="#BFC8D6"/>
<path d="M164.26 40.8889C164.26 40.4153 163.857 40.0221 163.377 40.0093L158.522 39.8826C158.036 39.8697 157.666 40.2489 157.666 40.7258V45.5397C157.666 46.0166 158.03 46.4087 158.516 46.4181L163.392 46.5114C163.873 46.5207 164.26 46.1427 164.26 45.6691V40.8889Z" fill="#BFC8D6"/>
<path d="M173.328 41.1227C173.328 40.6539 172.91 40.2635 172.439 40.251L167.626 40.1214C167.15 40.1087 166.733 40.4788 166.733 40.951V45.7172C166.733 46.1894 167.132 46.5822 167.608 46.5916L172.433 46.6863C172.904 46.6955 173.328 46.3244 173.328 45.8556V41.1227H173.328Z" fill="#BFC8D6"/>
<path d="M155.194 49.4862C155.194 49.0081 154.844 48.6155 154.354 48.6071L149.163 48.5197C148.668 48.5112 148.05 48.8921 148.05 49.3736V54.2354C148.05 54.7171 148.691 55.1153 149.187 55.1202L154.234 55.1697C154.724 55.1746 155.194 54.7912 155.194 54.3131L155.194 49.4862Z" fill="#BFC8D6"/>
<path d="M164.26 49.6326C164.26 49.1591 163.857 48.7691 163.377 48.7609L158.522 48.6803C158.036 48.6721 157.666 49.0543 157.666 49.5312V54.3451C157.666 54.8221 158.03 55.2106 158.516 55.2154L163.392 55.2627C163.873 55.2674 164.26 54.8864 164.26 54.4128V49.6326Z" fill="#BFC8D6"/>
<path d="M173.328 49.7792C173.328 49.3103 172.91 48.9234 172.439 48.9153L167.626 48.8312C167.15 48.8231 166.733 49.1964 166.733 49.6686V54.4349C166.733 54.907 167.132 55.2964 167.608 55.3011L172.433 55.3505C172.904 55.3551 173.328 54.9808 173.328 54.512V49.7792H173.328Z" fill="#BFC8D6"/>
<path d="M126.893 49.0378C126.893 48.5449 126.435 48.1353 125.914 48.1264L120.665 48.0334C120.138 48.0244 119.749 48.4166 119.749 48.9131V53.926C119.749 54.4226 120.12 54.8312 120.647 54.8364L125.942 54.8922C126.463 54.8974 126.893 54.5056 126.893 54.0127L126.893 49.0378Z" fill="#BFC8D6"/>
<path d="M136.51 49.1855C136.51 48.6976 136.138 48.2969 135.628 48.2882L130.374 48.1989C129.858 48.1901 129.366 48.5801 129.366 49.0716V54.0328C129.366 54.5243 129.879 54.929 130.395 54.9341L135.58 54.9849C136.091 54.9899 136.51 54.5981 136.51 54.1102L136.51 49.1855Z" fill="#BFC8D6"/>
<path d="M145.851 49.3464C145.851 48.8633 145.472 48.4613 144.972 48.4528L139.759 48.362C139.253 48.3534 138.708 48.7363 138.708 49.2229V54.1348C138.708 54.6214 139.266 55.0226 139.772 55.0276L144.898 55.0828C145.398 55.0877 145.851 54.7051 145.851 54.2221V49.3464H145.851Z" fill="#BFC8D6"/>
<path d="M155.194 58.3153C155.194 57.8372 154.844 57.448 154.354 57.4443L149.163 57.4043C148.668 57.4006 148.05 57.785 148.05 58.2667V63.1285C148.05 63.6101 148.691 64.0045 149.187 64.0046L154.234 64.007C154.724 64.0071 155.194 63.6205 155.194 63.1423L155.194 58.3153Z" fill="#BFC8D6"/>
<path d="M164.26 58.3761C164.26 57.9025 163.857 57.5157 163.377 57.5121L158.522 57.4776C158.036 57.4739 157.666 57.8594 157.666 58.3363V63.1502C157.666 63.6272 158.03 64.0123 158.516 64.0125L163.392 64.0138C163.873 64.0139 164.26 63.6299 164.26 63.1563V58.3761Z" fill="#BFC8D6"/>
<path d="M126.893 58.1376C126.893 57.6448 126.435 57.2396 125.914 57.2357L120.665 57.1934C120.138 57.1895 119.749 57.5858 119.749 58.0824V63.0953C119.749 63.5919 120.12 63.9966 120.647 63.9967L125.942 64.0016C126.463 64.0017 126.893 63.6055 126.893 63.1127L126.893 58.1376Z" fill="#BFC8D6"/>
<path d="M136.51 58.1934C136.51 57.7055 136.138 57.3084 135.628 57.3046L130.374 57.2647C129.858 57.2608 129.366 57.6548 129.366 58.1462V63.1075C129.366 63.599 129.879 63.9996 130.395 63.9997L135.58 64.0013C136.091 64.0014 136.51 63.606 136.51 63.1181L136.51 58.1934Z" fill="#BFC8D6"/>
<path d="M145.851 58.2641C145.851 57.7811 145.472 57.3828 144.972 57.3791L139.759 57.3369C139.253 57.3332 138.708 57.7202 138.708 58.2068V63.1187C138.708 63.6053 139.266 64.0023 139.772 64.0024L144.898 64.0091C145.398 64.0092 145.851 63.6229 145.851 63.1398V58.2641H145.851Z" fill="#BFC8D6"/>
<path d="M130.164 16.3823C126.878 16.2161 124.159 18.8911 123.896 22.7908L126.671 22.9116C126.898 20.5815 128.407 18.857 130.164 18.9411C132.063 19.0321 133.661 21.2384 133.661 23.7719C133.661 26.3052 132.063 28.3796 130.164 28.3075C129.175 28.2699 128.265 27.6517 127.617 26.7117C127.241 27.2288 126.594 28.419 127.207 29.8959C128.09 30.4768 129.097 30.824 130.164 30.8616C133.597 30.9829 136.372 27.86 136.372 23.8887C136.372 19.9172 133.597 16.556 130.164 16.3823Z" fill="#BFC8D6"/>
<path d="M146.868 17.2189C143.696 17.0584 141.071 19.6888 140.817 23.5202L143.496 23.6368C143.715 21.3474 145.172 19.6518 146.868 19.733C148.701 19.8208 150.244 21.9874 150.244 24.4768C150.244 26.9661 148.701 29.0054 146.868 28.9358C145.913 28.8996 145.035 28.2928 144.409 27.3696C144.046 27.878 143.421 29.0477 144.013 30.4983C144.866 31.0685 145.838 31.4091 146.868 31.4454C150.183 31.5624 152.862 28.492 152.862 24.5895C152.862 20.6871 150.183 17.3866 146.868 17.2189Z" fill="#BFC8D6"/>
<path d="M163.049 18.0461C159.987 17.8913 157.454 20.4775 157.209 24.2413L159.795 24.3539C160.005 22.1046 161.412 20.4377 163.049 20.5161C164.818 20.6008 166.307 22.7284 166.307 25.1742C166.307 27.6199 164.818 29.6245 163.049 29.5573C162.127 29.5223 161.279 28.9268 160.675 28.0203C160.326 28.5199 159.722 29.6695 160.293 31.0941C161.116 31.6538 162.055 31.9877 163.049 32.0228C166.248 32.1358 168.834 29.1173 168.834 25.283C168.834 21.4486 166.248 18.208 163.049 18.0461Z" fill="#BFC8D6"/>
<path opacity="0.3" d="M176.35 66.6941V68.0178C176.35 70.0277 174.752 71.6704 172.731 71.6869L120.266 72.1109C117.994 72.1294 116.177 70.4021 116.177 68.2587V26.2971C116.177 25.06 116.788 23.9814 117.748 23.313C119.835 24.0633 122.522 26.1577 123.898 31.8343C126.325 41.8379 128.413 46.1104 137.771 45.8977C143.752 45.7617 148.338 46.037 151.197 48.6729C152.732 50.0859 153.776 52.1851 154.271 55.2732C154.561 57.0801 155.859 58.2324 157.711 59.0773C159.525 59.9073 161.882 60.4417 164.334 61.0179C168.837 62.073 173.877 63.27 176.35 66.6941Z" fill="#BFC8D6"/>
<defs>
<linearGradient id="paint0_linear_1001_438" x1="109.302" y1="47.8004" x2="42.6328" y2="185.674" gradientUnits="userSpaceOnUse">
<stop stop-color="white"/>
<stop offset="0.9964" stop-color="#EBEFF2"/>
</linearGradient>
<linearGradient id="paint1_linear_1001_438" x1="49.2811" y1="91.4523" x2="55.659" y2="108.731" gradientUnits="userSpaceOnUse">
<stop stop-color="#FF9085"/>
<stop offset="1" stop-color="#FB6FBB"/>
</linearGradient>
<linearGradient id="paint2_linear_1001_438" x1="50.9976" y1="101.338" x2="57.3548" y2="118.56" gradientUnits="userSpaceOnUse">
<stop stop-color="#FF9085"/>
<stop offset="1" stop-color="#FB6FBB"/>
</linearGradient>
<linearGradient id="paint3_linear_1001_438" x1="89.2305" y1="187.628" x2="134.563" y2="187.628" gradientUnits="userSpaceOnUse">
<stop stop-color="#FCB148"/>
<stop offset="0.0521" stop-color="#FDBA46"/>
<stop offset="0.1424" stop-color="#FFC244"/>
<stop offset="0.3183" stop-color="#FFC444"/>
<stop offset="0.4849" stop-color="#FDB946"/>
<stop offset="0.7754" stop-color="#F99C4D"/>
<stop offset="0.8658" stop-color="#F8924F"/>
<stop offset="1" stop-color="#F8924F"/>
</linearGradient>
<linearGradient id="paint4_linear_1001_438" x1="112.105" y1="182.522" x2="114.495" y2="202.528" gradientUnits="userSpaceOnUse">
<stop stop-color="#FFDB44"/>
<stop offset="1" stop-color="#FEEF06"/>
</linearGradient>
<linearGradient id="paint5_linear_1001_438" x1="112.001" y1="181.629" x2="112.735" y2="187.774" gradientUnits="userSpaceOnUse">
<stop stop-color="#FFDB44"/>
<stop offset="1" stop-color="#FEEF06"/>
</linearGradient>
<linearGradient id="paint6_linear_1001_438" x1="112.692" y1="187.13" x2="111.961" y2="181.007" gradientUnits="userSpaceOnUse">
<stop offset="0.0036" stop-color="#F36F56"/>
<stop offset="0.3059" stop-color="#F99C4C"/>
<stop offset="0.545" stop-color="#FDB946"/>
<stop offset="0.6817" stop-color="#FFC444"/>
<stop offset="0.8038" stop-color="#FFC244"/>
<stop offset="0.8667" stop-color="#FEBA46"/>
<stop offset="0.916" stop-color="#FCAD49"/>
<stop offset="0.958" stop-color="#F99A4D"/>
<stop offset="0.9955" stop-color="#F58152"/>
<stop offset="1" stop-color="#F57E53"/>
</linearGradient>
<linearGradient id="paint7_linear_1001_438" x1="83.7539" y1="183.038" x2="129.087" y2="183.038" gradientUnits="userSpaceOnUse">
<stop stop-color="#FCB148"/>
<stop offset="0.0521" stop-color="#FDBA46"/>
<stop offset="0.1424" stop-color="#FFC244"/>
<stop offset="0.3183" stop-color="#FFC444"/>
<stop offset="0.4849" stop-color="#FDB946"/>
<stop offset="0.7754" stop-color="#F99C4D"/>
<stop offset="0.8658" stop-color="#F8924F"/>
<stop offset="1" stop-color="#F8924F"/>
</linearGradient>
<linearGradient id="paint8_linear_1001_438" x1="106.629" y1="177.931" x2="109.019" y2="197.938" gradientUnits="userSpaceOnUse">
<stop stop-color="#FFDB44"/>
<stop offset="1" stop-color="#FEEF06"/>
</linearGradient>
<linearGradient id="paint9_linear_1001_438" x1="106.525" y1="177.039" x2="107.259" y2="183.183" gradientUnits="userSpaceOnUse">
<stop stop-color="#FFDB44"/>
<stop offset="1" stop-color="#FEEF06"/>
</linearGradient>
<linearGradient id="paint10_linear_1001_438" x1="107.215" y1="182.539" x2="106.483" y2="176.417" gradientUnits="userSpaceOnUse">
<stop offset="0.0036" stop-color="#F36F56"/>
<stop offset="0.3059" stop-color="#F99C4C"/>
<stop offset="0.545" stop-color="#FDB946"/>
<stop offset="0.6817" stop-color="#FFC444"/>
<stop offset="0.8038" stop-color="#FFC244"/>
<stop offset="0.8667" stop-color="#FEBA46"/>
<stop offset="0.916" stop-color="#FCAD49"/>
<stop offset="0.958" stop-color="#F99A4D"/>
<stop offset="0.9955" stop-color="#F58152"/>
<stop offset="1" stop-color="#F57E53"/>
</linearGradient>
<linearGradient id="paint11_linear_1001_438" x1="88.4795" y1="178.461" x2="133.812" y2="178.461" gradientUnits="userSpaceOnUse">
<stop stop-color="#FCB148"/>
<stop offset="0.0521" stop-color="#FDBA46"/>
<stop offset="0.1424" stop-color="#FFC244"/>
<stop offset="0.3183" stop-color="#FFC444"/>
<stop offset="0.4849" stop-color="#FDB946"/>
<stop offset="0.7754" stop-color="#F99C4D"/>
<stop offset="0.8658" stop-color="#F8924F"/>
<stop offset="1" stop-color="#F8924F"/>
</linearGradient>
<linearGradient id="paint12_linear_1001_438" x1="111.354" y1="173.355" x2="113.744" y2="193.362" gradientUnits="userSpaceOnUse">
<stop stop-color="#FFDB44"/>
<stop offset="1" stop-color="#FEEF06"/>
</linearGradient>
<linearGradient id="paint13_linear_1001_438" x1="111.251" y1="172.463" x2="111.984" y2="178.607" gradientUnits="userSpaceOnUse">
<stop stop-color="#FFDB44"/>
<stop offset="1" stop-color="#FEEF06"/>
</linearGradient>
<linearGradient id="paint14_linear_1001_438" x1="111.94" y1="177.963" x2="111.209" y2="171.84" gradientUnits="userSpaceOnUse">
<stop offset="0.0036" stop-color="#F36F56"/>
<stop offset="0.3059" stop-color="#F99C4C"/>
<stop offset="0.545" stop-color="#FDB946"/>
<stop offset="0.6817" stop-color="#FFC444"/>
<stop offset="0.8038" stop-color="#FFC244"/>
<stop offset="0.8667" stop-color="#FEBA46"/>
<stop offset="0.916" stop-color="#FCAD49"/>
<stop offset="0.958" stop-color="#F99A4D"/>
<stop offset="0.9955" stop-color="#F58152"/>
<stop offset="1" stop-color="#F57E53"/>
</linearGradient>
<linearGradient id="paint15_linear_1001_438" x1="91.3482" y1="173.871" x2="136.681" y2="173.871" gradientUnits="userSpaceOnUse">
<stop stop-color="#FCB148"/>
<stop offset="0.0521" stop-color="#FDBA46"/>
<stop offset="0.1424" stop-color="#FFC244"/>
<stop offset="0.3183" stop-color="#FFC444"/>
<stop offset="0.4849" stop-color="#FDB946"/>
<stop offset="0.7754" stop-color="#F99C4D"/>
<stop offset="0.8658" stop-color="#F8924F"/>
<stop offset="1" stop-color="#F8924F"/>
</linearGradient>
<linearGradient id="paint16_linear_1001_438" x1="114.223" y1="168.765" x2="116.613" y2="188.772" gradientUnits="userSpaceOnUse">
<stop stop-color="#FFDB44"/>
<stop offset="1" stop-color="#FEEF06"/>
</linearGradient>
<linearGradient id="paint17_linear_1001_438" x1="114.119" y1="167.872" x2="114.853" y2="174.017" gradientUnits="userSpaceOnUse">
<stop stop-color="#FFDB44"/>
<stop offset="1" stop-color="#FEEF06"/>
</linearGradient>
<linearGradient id="paint18_linear_1001_438" x1="114.809" y1="173.372" x2="114.077" y2="167.25" gradientUnits="userSpaceOnUse">
<stop offset="0.0036" stop-color="#F36F56"/>
<stop offset="0.3059" stop-color="#F99C4C"/>
<stop offset="0.545" stop-color="#FDB946"/>
<stop offset="0.6817" stop-color="#FFC444"/>
<stop offset="0.8038" stop-color="#FFC244"/>
<stop offset="0.8667" stop-color="#FEBA46"/>
<stop offset="0.916" stop-color="#FCAD49"/>
<stop offset="0.958" stop-color="#F99A4D"/>
<stop offset="0.9955" stop-color="#F58152"/>
<stop offset="1" stop-color="#F57E53"/>
</linearGradient>
<linearGradient id="paint19_linear_1001_438" x1="89.2305" y1="168.918" x2="134.563" y2="168.918" gradientUnits="userSpaceOnUse">
<stop stop-color="#FCB148"/>
<stop offset="0.0521" stop-color="#FDBA46"/>
<stop offset="0.1424" stop-color="#FFC244"/>
<stop offset="0.3183" stop-color="#FFC444"/>
<stop offset="0.4849" stop-color="#FDB946"/>
<stop offset="0.7754" stop-color="#F99C4D"/>
<stop offset="0.8658" stop-color="#F8924F"/>
<stop offset="1" stop-color="#F8924F"/>
</linearGradient>
<linearGradient id="paint20_linear_1001_438" x1="112.105" y1="163.812" x2="114.495" y2="183.819" gradientUnits="userSpaceOnUse">
<stop stop-color="#FFDB44"/>
<stop offset="1" stop-color="#FEEF06"/>
</linearGradient>
<linearGradient id="paint21_linear_1001_438" x1="112.001" y1="162.92" x2="112.735" y2="169.064" gradientUnits="userSpaceOnUse">
<stop stop-color="#FFDB44"/>
<stop offset="1" stop-color="#FEEF06"/>
</linearGradient>
<linearGradient id="paint22_linear_1001_438" x1="112.692" y1="168.42" x2="111.961" y2="162.297" gradientUnits="userSpaceOnUse">
<stop offset="0.0036" stop-color="#F36F56"/>
<stop offset="0.3059" stop-color="#F99C4C"/>
<stop offset="0.545" stop-color="#FDB946"/>
<stop offset="0.6817" stop-color="#FFC444"/>
<stop offset="0.8038" stop-color="#FFC244"/>
<stop offset="0.8667" stop-color="#FEBA46"/>
<stop offset="0.916" stop-color="#FCAD49"/>
<stop offset="0.958" stop-color="#F99A4D"/>
<stop offset="0.9955" stop-color="#F58152"/>
<stop offset="1" stop-color="#F57E53"/>
</linearGradient>
<linearGradient id="paint23_linear_1001_438" x1="83.7539" y1="164.328" x2="129.087" y2="164.328" gradientUnits="userSpaceOnUse">
<stop stop-color="#FCB148"/>
<stop offset="0.0521" stop-color="#FDBA46"/>
<stop offset="0.1424" stop-color="#FFC244"/>
<stop offset="0.3183" stop-color="#FFC444"/>
<stop offset="0.4849" stop-color="#FDB946"/>
<stop offset="0.7754" stop-color="#F99C4D"/>
<stop offset="0.8658" stop-color="#F8924F"/>
<stop offset="1" stop-color="#F8924F"/>
</linearGradient>
<linearGradient id="paint24_linear_1001_438" x1="106.629" y1="159.222" x2="109.019" y2="179.229" gradientUnits="userSpaceOnUse">
<stop stop-color="#FFDB44"/>
<stop offset="1" stop-color="#FEEF06"/>
</linearGradient>
<linearGradient id="paint25_linear_1001_438" x1="106.525" y1="158.33" x2="107.259" y2="164.474" gradientUnits="userSpaceOnUse">
<stop stop-color="#FFDB44"/>
<stop offset="1" stop-color="#FEEF06"/>
</linearGradient>
<linearGradient id="paint26_linear_1001_438" x1="107.215" y1="163.829" x2="106.483" y2="157.707" gradientUnits="userSpaceOnUse">
<stop offset="0.0036" stop-color="#F36F56"/>
<stop offset="0.3059" stop-color="#F99C4C"/>
<stop offset="0.545" stop-color="#FDB946"/>
<stop offset="0.6817" stop-color="#FFC444"/>
<stop offset="0.8038" stop-color="#FFC244"/>
<stop offset="0.8667" stop-color="#FEBA46"/>
<stop offset="0.916" stop-color="#FCAD49"/>
<stop offset="0.958" stop-color="#F99A4D"/>
<stop offset="0.9955" stop-color="#F58152"/>
<stop offset="1" stop-color="#F57E53"/>
</linearGradient>
<linearGradient id="paint27_linear_1001_438" x1="88.4795" y1="159.752" x2="133.812" y2="159.752" gradientUnits="userSpaceOnUse">
<stop stop-color="#FCB148"/>
<stop offset="0.0521" stop-color="#FDBA46"/>
<stop offset="0.1424" stop-color="#FFC244"/>
<stop offset="0.3183" stop-color="#FFC444"/>
<stop offset="0.4849" stop-color="#FDB946"/>
<stop offset="0.7754" stop-color="#F99C4D"/>
<stop offset="0.8658" stop-color="#F8924F"/>
<stop offset="1" stop-color="#F8924F"/>
</linearGradient>
<linearGradient id="paint28_linear_1001_438" x1="111.354" y1="154.645" x2="113.744" y2="174.652" gradientUnits="userSpaceOnUse">
<stop stop-color="#FFDB44"/>
<stop offset="1" stop-color="#FEEF06"/>
</linearGradient>
<linearGradient id="paint29_linear_1001_438" x1="111.251" y1="153.753" x2="111.984" y2="159.897" gradientUnits="userSpaceOnUse">
<stop stop-color="#FFDB44"/>
<stop offset="1" stop-color="#FEEF06"/>
</linearGradient>
<linearGradient id="paint30_linear_1001_438" x1="111.94" y1="159.253" x2="111.209" y2="153.13" gradientUnits="userSpaceOnUse">
<stop offset="0.0036" stop-color="#F36F56"/>
<stop offset="0.3059" stop-color="#F99C4C"/>
<stop offset="0.545" stop-color="#FDB946"/>
<stop offset="0.6817" stop-color="#FFC444"/>
<stop offset="0.8038" stop-color="#FFC244"/>
<stop offset="0.8667" stop-color="#FEBA46"/>
<stop offset="0.916" stop-color="#FCAD49"/>
<stop offset="0.958" stop-color="#F99A4D"/>
<stop offset="0.9955" stop-color="#F58152"/>
<stop offset="1" stop-color="#F57E53"/>
</linearGradient>
<linearGradient id="paint31_linear_1001_438" x1="86.022" y1="155.161" x2="131.355" y2="155.161" gradientUnits="userSpaceOnUse">
<stop stop-color="#FCB148"/>
<stop offset="0.0521" stop-color="#FDBA46"/>
<stop offset="0.1424" stop-color="#FFC244"/>
<stop offset="0.3183" stop-color="#FFC444"/>
<stop offset="0.4849" stop-color="#FDB946"/>
<stop offset="0.7754" stop-color="#F99C4D"/>
<stop offset="0.8658" stop-color="#F8924F"/>
<stop offset="1" stop-color="#F8924F"/>
</linearGradient>
<linearGradient id="paint32_linear_1001_438" x1="108.897" y1="150.055" x2="111.287" y2="170.062" gradientUnits="userSpaceOnUse">
<stop stop-color="#FFDB44"/>
<stop offset="1" stop-color="#FEEF06"/>
</linearGradient>
<linearGradient id="paint33_linear_1001_438" x1="108.793" y1="149.162" x2="109.527" y2="155.307" gradientUnits="userSpaceOnUse">
<stop stop-color="#FFDB44"/>
<stop offset="1" stop-color="#FEEF06"/>
</linearGradient>
<linearGradient id="paint34_linear_1001_438" x1="109.483" y1="154.662" x2="108.752" y2="148.54" gradientUnits="userSpaceOnUse">
<stop offset="0.0036" stop-color="#F36F56"/>
<stop offset="0.3059" stop-color="#F99C4C"/>
<stop offset="0.545" stop-color="#FDB946"/>
<stop offset="0.6817" stop-color="#FFC444"/>
<stop offset="0.8038" stop-color="#FFC244"/>
<stop offset="0.8667" stop-color="#FEBA46"/>
<stop offset="0.916" stop-color="#FCAD49"/>
<stop offset="0.958" stop-color="#F99A4D"/>
<stop offset="0.9955" stop-color="#F58152"/>
<stop offset="1" stop-color="#F57E53"/>
</linearGradient>
<linearGradient id="paint35_linear_1001_438" x1="151.038" y1="180.883" x2="152.373" y2="204.913" gradientUnits="userSpaceOnUse">
<stop stop-color="#444B8C"/>
<stop offset="0.9964" stop-color="#26264F"/>
</linearGradient>
<linearGradient id="paint36_linear_1001_438" x1="152.438" y1="188.589" x2="154.437" y2="188.589" gradientUnits="userSpaceOnUse">
<stop stop-color="#FFC444"/>
<stop offset="0.9964" stop-color="#F36F56"/>
</linearGradient>
<linearGradient id="paint37_linear_1001_438" x1="175.2" y1="179.541" x2="176.535" y2="203.57" gradientUnits="userSpaceOnUse">
<stop stop-color="#444B8C"/>
<stop offset="0.9964" stop-color="#26264F"/>
</linearGradient>
<linearGradient id="paint38_linear_1001_438" x1="172.736" y1="187.356" x2="176.711" y2="187.356" gradientUnits="userSpaceOnUse">
<stop stop-color="#FFC444"/>
<stop offset="0.9964" stop-color="#F36F56"/>
</linearGradient>
<linearGradient id="paint39_linear_1001_438" x1="143.259" y1="171.638" x2="156.732" y2="153.555" gradientUnits="userSpaceOnUse">
<stop stop-color="#AA80F9"/>
<stop offset="0.9964" stop-color="#6165D7"/>
</linearGradient>
<linearGradient id="paint40_linear_1001_438" x1="122.912" y1="85.4961" x2="118.138" y2="127.574" gradientUnits="userSpaceOnUse">
<stop stop-color="#FFC444"/>
<stop offset="0.9964" stop-color="#F36F56"/>
</linearGradient>
<linearGradient id="paint41_linear_1001_438" x1="153.268" y1="173.883" x2="184.825" y2="144.453" gradientUnits="userSpaceOnUse">
<stop stop-color="#AA80F9"/>
<stop offset="0.9964" stop-color="#6165D7"/>
</linearGradient>
<linearGradient id="paint42_linear_1001_438" x1="122.074" y1="107.134" x2="147.386" y2="107.134" gradientUnits="userSpaceOnUse">
<stop offset="0.0036" stop-color="#E38DDD"/>
<stop offset="1" stop-color="#9571F6"/>
</linearGradient>
<linearGradient id="paint43_linear_1001_438" x1="170.089" y1="92.5197" x2="170.682" y2="111.634" gradientUnits="userSpaceOnUse">
<stop stop-color="#444B8C"/>
<stop offset="0.9964" stop-color="#26264F"/>
</linearGradient>
<linearGradient id="paint44_linear_1001_438" x1="144.978" y1="172.919" x2="158.452" y2="154.836" gradientUnits="userSpaceOnUse">
<stop stop-color="#AA80F9"/>
<stop offset="0.9964" stop-color="#6165D7"/>
</linearGradient>
<linearGradient id="paint45_linear_1001_438" x1="122.074" y1="110.248" x2="147.386" y2="110.248" gradientUnits="userSpaceOnUse">
<stop stop-color="#AA80F9"/>
<stop offset="0.9964" stop-color="#6165D7"/>
</linearGradient>
<linearGradient id="paint46_linear_1001_438" x1="139.469" y1="122.528" x2="190.041" y2="122.528" gradientUnits="userSpaceOnUse">
<stop offset="0.0036" stop-color="#E38DDD"/>
<stop offset="1" stop-color="#9571F6"/>
</linearGradient>
<linearGradient id="paint47_linear_1001_438" x1="165.231" y1="93.1531" x2="172.944" y2="140.32" gradientUnits="userSpaceOnUse">
<stop stop-color="#AA80F9"/>
<stop offset="0.9964" stop-color="#6165D7"/>
</linearGradient>
<linearGradient id="paint48_linear_1001_438" x1="153.443" y1="88.9602" x2="148.669" y2="131.038" gradientUnits="userSpaceOnUse">
<stop stop-color="#FFC444"/>
<stop offset="0.9964" stop-color="#F36F56"/>
</linearGradient>
<linearGradient id="paint49_linear_1001_438" x1="152.737" y1="88.88" x2="147.963" y2="130.958" gradientUnits="userSpaceOnUse">
<stop stop-color="#FFC444"/>
<stop offset="0.9964" stop-color="#F36F56"/>
</linearGradient>
<linearGradient id="paint50_linear_1001_438" x1="151.209" y1="107.884" x2="152.541" y2="127.702" gradientUnits="userSpaceOnUse">
<stop stop-color="#311944"/>
<stop offset="0.2251" stop-color="#45204F"/>
<stop offset="1" stop-color="#893976"/>
</linearGradient>
<linearGradient id="paint51_linear_1001_438" x1="147.037" y1="107.571" x2="155.335" y2="107.571" gradientUnits="userSpaceOnUse">
<stop stop-color="#311944"/>
<stop offset="1" stop-color="#893976"/>
</linearGradient>
<linearGradient id="paint52_linear_1001_438" x1="156.772" y1="89.338" x2="151.997" y2="131.416" gradientUnits="userSpaceOnUse">
<stop stop-color="#FFC444"/>
<stop offset="0.9964" stop-color="#F36F56"/>
</linearGradient>
<linearGradient id="paint53_linear_1001_438" x1="156.758" y1="107.918" x2="176.93" y2="108.031" gradientUnits="userSpaceOnUse">
<stop offset="0.0036" stop-color="#E38DDD"/>
<stop offset="1" stop-color="#9571F6"/>
</linearGradient>
<linearGradient id="paint54_linear_1001_438" x1="80.9609" y1="90.9208" x2="75.6495" y2="101.783" gradientUnits="userSpaceOnUse">
<stop stop-color="#FF9085"/>
<stop offset="1" stop-color="#FB6FBB"/>
</linearGradient>
<linearGradient id="paint55_linear_1001_438" x1="57.257" y1="190.53" x2="50.7946" y2="191.113" gradientUnits="userSpaceOnUse">
<stop stop-color="#444B8C"/>
<stop offset="0.9964" stop-color="#26264F"/>
</linearGradient>
<linearGradient id="paint56_linear_1001_438" x1="53.5506" y1="190.794" x2="50.3006" y2="185.114" gradientUnits="userSpaceOnUse">
<stop stop-color="#FFC444"/>
<stop offset="0.9964" stop-color="#F36F56"/>
</linearGradient>
<linearGradient id="paint57_linear_1001_438" x1="79.6227" y1="189.418" x2="72.8881" y2="190.89" gradientUnits="userSpaceOnUse">
<stop stop-color="#444B8C"/>
<stop offset="0.9964" stop-color="#26264F"/>
</linearGradient>
<linearGradient id="paint58_linear_1001_438" x1="75.4545" y1="190.26" x2="71.703" y2="184.73" gradientUnits="userSpaceOnUse">
<stop stop-color="#FFC444"/>
<stop offset="0.9964" stop-color="#F36F56"/>
</linearGradient>
<linearGradient id="paint59_linear_1001_438" x1="77.959" y1="178.092" x2="61.7992" y2="135.727" gradientUnits="userSpaceOnUse">
<stop stop-color="#311944"/>
<stop offset="1" stop-color="#893976"/>
</linearGradient>
<linearGradient id="paint60_linear_1001_438" x1="75.0445" y1="179.204" x2="58.8846" y2="136.838" gradientUnits="userSpaceOnUse">
<stop stop-color="#311944"/>
<stop offset="1" stop-color="#893976"/>
</linearGradient>
<linearGradient id="paint61_linear_1001_438" x1="67.6093" y1="180.391" x2="46.3823" y2="140.323" gradientUnits="userSpaceOnUse">
<stop stop-color="#311944"/>
<stop offset="1" stop-color="#893976"/>
</linearGradient>
<linearGradient id="paint62_linear_1001_438" x1="45.1351" y1="135.994" x2="61.9582" y2="94.9853" gradientUnits="userSpaceOnUse">
<stop stop-color="#FF9085"/>
<stop offset="1" stop-color="#FB6FBB"/>
</linearGradient>
<linearGradient id="paint63_linear_1001_438" x1="53.3263" y1="94.8398" x2="61.7303" y2="79.4878" gradientUnits="userSpaceOnUse">
<stop stop-color="#FFC444"/>
<stop offset="0.9964" stop-color="#F36F56"/>
</linearGradient>
<linearGradient id="paint64_linear_1001_438" x1="54.204" y1="90.1353" x2="59.2093" y2="79.0614" gradientUnits="userSpaceOnUse">
<stop stop-color="#311944"/>
<stop offset="1" stop-color="#6B3976"/>
</linearGradient>
<linearGradient id="paint65_linear_1001_438" x1="58.5064" y1="82.1807" x2="58.4963" y2="98.6775" gradientUnits="userSpaceOnUse">
<stop stop-color="#FFC444"/>
<stop offset="0.9964" stop-color="#F36F56"/>
</linearGradient>
<linearGradient id="paint66_linear_1001_438" x1="55.5355" y1="90.7438" x2="60.5461" y2="79.6583" gradientUnits="userSpaceOnUse">
<stop stop-color="#311944"/>
<stop offset="1" stop-color="#6B3976"/>
</linearGradient>
<linearGradient id="paint67_linear_1001_438" x1="60.2291" y1="84.1473" x2="59.8955" y2="86.1996" gradientUnits="userSpaceOnUse">
<stop stop-color="#FFC444"/>
<stop offset="1" stop-color="#F36F56"/>
</linearGradient>
<linearGradient id="paint68_linear_1001_438" x1="49.289" y1="133.921" x2="74.7851" y2="74.977" gradientUnits="userSpaceOnUse">
<stop stop-color="#FF9085"/>
<stop offset="1" stop-color="#FB6FBB"/>
</linearGradient>
<linearGradient id="paint69_linear_1001_438" x1="44.2837" y1="142.416" x2="48.5023" y2="132.668" gradientUnits="userSpaceOnUse">
<stop stop-color="#FFC444"/>
<stop offset="0.9964" stop-color="#F36F56"/>
</linearGradient>
<linearGradient id="paint70_linear_1001_438" x1="32.8648" y1="131.062" x2="49.6962" y2="90.0569" gradientUnits="userSpaceOnUse">
<stop stop-color="#FF9085"/>
<stop offset="1" stop-color="#FB6FBB"/>
</linearGradient>
<linearGradient id="paint71_linear_1001_438" x1="72.7586" y1="106.374" x2="81.5647" y2="118.14" gradientUnits="userSpaceOnUse">
<stop stop-color="#FF9085"/>
<stop offset="1" stop-color="#FB6FBB"/>
</linearGradient>
<linearGradient id="paint72_linear_1001_438" x1="66.8435" y1="98.693" x2="69.7244" y2="107.486" gradientUnits="userSpaceOnUse">
<stop stop-color="#FFC444"/>
<stop offset="0.9964" stop-color="#F36F56"/>
</linearGradient>
<linearGradient id="paint73_linear_1001_438" x1="104.239" y1="128.679" x2="85.1635" y2="134.801" gradientUnits="userSpaceOnUse">
<stop stop-color="#FCB148"/>
<stop offset="0.0521" stop-color="#FDBA46"/>
<stop offset="0.1424" stop-color="#FFC244"/>
<stop offset="0.3183" stop-color="#FFC444"/>
<stop offset="0.4849" stop-color="#FDB946"/>
<stop offset="0.7754" stop-color="#F99C4D"/>
<stop offset="0.8658" stop-color="#F8924F"/>
<stop offset="1" stop-color="#F8924F"/>
</linearGradient>
<linearGradient id="paint74_linear_1001_438" x1="119.671" y1="109.692" x2="102.641" y2="147.262" gradientUnits="userSpaceOnUse">
<stop stop-color="#FFDB44"/>
<stop offset="1" stop-color="#FEEF06"/>
</linearGradient>
<linearGradient id="paint75_linear_1001_438" x1="116.538" y1="149.362" x2="113.252" y2="131.411" gradientUnits="userSpaceOnUse">
<stop stop-color="#FCB148"/>
<stop offset="0.0521" stop-color="#FDBA46"/>
<stop offset="0.1424" stop-color="#FFC244"/>
<stop offset="0.3183" stop-color="#FFC444"/>
<stop offset="0.4849" stop-color="#FDB946"/>
<stop offset="0.7754" stop-color="#F99C4D"/>
<stop offset="0.8658" stop-color="#F8924F"/>
<stop offset="1" stop-color="#F8924F"/>
</linearGradient>
<linearGradient id="paint76_linear_1001_438" x1="109.571" y1="120.307" x2="123.113" y2="149.053" gradientUnits="userSpaceOnUse">
<stop stop-color="#FCB148"/>
<stop offset="0.0521" stop-color="#FDBA46"/>
<stop offset="0.1424" stop-color="#FFC244"/>
<stop offset="0.3183" stop-color="#FFC444"/>
<stop offset="0.4849" stop-color="#FDB946"/>
<stop offset="0.7754" stop-color="#F99C4D"/>
<stop offset="0.8658" stop-color="#F8924F"/>
<stop offset="1" stop-color="#F8924F"/>
</linearGradient>
<linearGradient id="paint77_linear_1001_438" x1="109.032" y1="114.121" x2="115.841" y2="139.641" gradientUnits="userSpaceOnUse">
<stop stop-color="#FFDB44"/>
<stop offset="1" stop-color="#FEEF06"/>
</linearGradient>
<linearGradient id="paint78_linear_1001_438" x1="105.587" y1="122.167" x2="119.102" y2="150.855" gradientUnits="userSpaceOnUse">
<stop stop-color="#FCB148"/>
<stop offset="0.0521" stop-color="#FDBA46"/>
<stop offset="0.1424" stop-color="#FFC244"/>
<stop offset="0.3183" stop-color="#FFC444"/>
<stop offset="0.4849" stop-color="#FDB946"/>
<stop offset="0.7754" stop-color="#F99C4D"/>
<stop offset="0.8658" stop-color="#F8924F"/>
<stop offset="1" stop-color="#F8924F"/>
</linearGradient>
<linearGradient id="paint79_linear_1001_438" x1="25.3613" y1="41.8943" x2="76.0764" y2="41.8943" gradientUnits="userSpaceOnUse">
<stop stop-color="#444B8C"/>
<stop offset="0.9964" stop-color="#26264F"/>
</linearGradient>
<linearGradient id="paint80_linear_1001_438" x1="37.2026" y1="40.9962" x2="64.3461" y2="40.9962" gradientUnits="userSpaceOnUse">
<stop stop-color="#444B8C"/>
<stop offset="0.9964" stop-color="#26264F"/>
</linearGradient>
<linearGradient id="paint81_linear_1001_438" x1="27.4844" y1="41.8943" x2="78.1995" y2="41.8943" gradientUnits="userSpaceOnUse">
<stop stop-color="#AA80F9"/>
<stop offset="0.9964" stop-color="#6165D7"/>
</linearGradient>
<linearGradient id="paint82_linear_1001_438" x1="114.803" y1="47.3491" x2="175.251" y2="47.3491" gradientUnits="userSpaceOnUse">
<stop stop-color="#311944"/>
<stop offset="1" stop-color="#893976"/>
</linearGradient>
<linearGradient id="paint83_linear_1001_438" x1="116.177" y1="29.2926" x2="176.35" y2="29.2926" gradientUnits="userSpaceOnUse">
<stop stop-color="#FF9085"/>
<stop offset="1" stop-color="#FB6FBB"/>
</linearGradient>
</defs>
</svg>
