<svg width="333" height="320" viewBox="0 0 333 320" fill="none" xmlns="http://www.w3.org/2000/svg">
<path d="M208.888 318.079C208.927 317.873 191.247 318.583 189.902 318.545C189.748 318.541 59.602 318.789 59.4602 318.79C56.5652 318.79 14.5362 318.079 4.52003 318.519C3.39581 318.571 2.50381 317.64 2.6073 316.529C3.61541 305.117 5.32148 280.277 8.31963 271.798C14.7558 253.599 27.2318 240.814 45.6703 233C57.9223 227.857 69.9288 222.79 83.1112 220.593C88.3161 219.76 83.2568 225.127 88.7592 232.496C95.4846 241.433 110.402 244.024 120.022 233.246C122.553 230.361 121.148 226.842 122.672 223.953C124.183 221.014 130.107 222.907 133.063 223.268C142.109 224.38 151.053 226.202 159.816 228.697C169.961 231.579 178.336 235.934 187.305 241.31C194.814 245.821 199.001 253.175 202.736 261.071C211.189 278.958 213.114 298.848 208.888 318.079Z" fill="#E5DFDF"/>
<path d="M330.029 208.285C329.172 209.143 276.799 228.419 276.799 228.419L192.758 207.129C192.952 206.726 200.668 204.298 210.592 201.31L270.109 212.468L300.751 200.102C316.624 204.22 330.406 207.909 330.029 208.285Z" fill="#0E7C9F"/>
<path d="M208.24 181.052C208.675 180.181 255.059 166.897 255.059 166.897C255.059 166.897 312.766 181.269 312.113 181.923C311.46 182.576 271.827 197.166 271.827 197.166L208.24 181.052ZM22.2949 57.459C21.4461 58.7135 20.9504 60.0958 20.9504 61.5597C20.9504 67.1171 27.7528 71.6226 36.1437 71.6226C46.694 71.6226 54.6586 64.355 49.9925 57.459H22.2949Z" fill="#FFCE6F"/>
<path d="M146.181 86.7262C143.544 85.5373 134.458 82.0349 128.074 86.8423C125.386 88.8524 124.51 91.2756 124.429 91.4049C123.059 89.1299 121.509 87.0752 118.497 86.1318C112.373 84.2562 105.793 88.6395 105.858 95.6696C97.9557 89.348 79.1637 87.4136 72.5909 101.111C70.9203 104.575 71.3534 107.548 70.9627 111.023C69.0033 110.912 66.7708 109.892 64.1259 110.519C55.0885 112.658 51.7228 122.342 53.7996 131.392C55.897 140.571 62.9462 146.85 65.4441 153.738C66.5205 156.752 66.3885 159.709 66.297 162.862C63.0789 164.891 61.1791 169.104 61.9932 173.162C63.4248 180.237 71.7607 185.814 83.15 182.261C82.8067 194.377 83.5596 206.111 84.1323 220.529C86.0847 220.573 85.6243 222.01 85.8513 224.186C86.0579 224.005 86.187 223.734 86.1744 223.437C85.7428 209.295 84.6423 195.122 85.1404 180.917C85.1684 180.216 84.4464 179.734 83.835 179.973C80.8107 181.098 76.2614 182.145 71.8156 180.8C67.809 179.598 64.6298 176.367 63.9059 172.775C62.7937 167.251 67.5455 161.091 74.9173 165.253C80.3505 168.279 80.7324 172.775 83.6539 172.775C85.0369 172.775 86.1999 171.65 86.6136 170.435C87.208 168.639 86.872 166.274 86.5618 164.206C84.3505 148.054 86.2952 157.912 81.8188 139.133C87.3257 140.969 92.7449 137.585 93.7994 132.206C98.2277 135.81 104.616 136.339 108.804 132.038C108.83 132.012 110.51 130.035 111.26 128.419C117.647 131.46 125.153 128.424 127.66 121.828C132.024 123.952 136.673 125.108 141.786 124.982C144.53 136.242 148.169 146.199 148.882 157.188C149.748 170.655 149.657 182.054 146.426 194.009C144.985 199.406 143.794 204.659 139.318 207.954C130.195 214.699 111.414 215.231 97.263 204.387C96.8367 204.064 96.229 204.141 95.893 204.568C95.5699 204.994 95.6475 205.615 96.0741 205.938C103.053 211.275 111.764 214.338 120.539 214.713C121.029 219.118 121.664 222.14 122.142 225.375C122.381 224.364 122.808 223.39 123.718 222.881C123.251 220.159 122.842 217.737 122.504 214.752C128.903 214.669 135.292 213.34 140.468 209.531C145.416 205.883 146.75 200.358 148.313 194.513C151.609 182.312 151.699 170.72 150.82 157.072C150.108 146.069 146.539 136.128 143.764 124.826C148.093 124.348 152.565 122.694 155.292 119.152C163.81 108.173 158.935 92.5063 146.181 86.7262ZM145.78 113.608C145.599 113.893 145.276 114.048 144.953 114.048C144.222 114.048 143.72 113.233 144.139 112.548C151.378 101.278 144.896 91.9066 137.883 92.8005C136.61 92.9559 136.323 91.048 137.625 90.8619C146.171 89.8016 154.043 100.67 145.78 113.608Z" fill="black"/>
<path d="M124.638 140.906C124.103 140.964 123.716 141.445 123.776 141.98C124.431 147.973 127.676 153.744 132.457 157.418C134.419 158.928 136.995 160.455 137.376 162.703C137.752 164.912 135.969 167.023 133.986 168.977C133.604 169.354 133.599 169.971 133.976 170.355C134.352 170.736 134.967 170.745 135.354 170.365C137.712 168.042 139.822 165.466 139.297 162.377C138.778 159.323 135.948 157.639 133.643 155.874C129.276 152.516 126.311 147.243 125.712 141.768C125.655 141.234 125.177 140.858 124.638 140.906ZM107.324 140.957C108.58 140.874 108.522 138.955 107.195 139.013C102.475 139.323 97.9201 141.488 94.698 144.951C94.3307 145.345 94.3534 145.962 94.7472 146.328C95.1436 146.695 95.7573 146.672 96.1242 146.279C99.0119 143.175 103.094 141.236 107.324 140.957ZM104.287 150.345C102.854 151.012 102.628 153.558 103.78 156.031C104.932 158.504 107.027 159.968 108.459 159.301C109.891 158.634 110.118 156.088 108.966 153.615C107.813 151.142 105.718 149.678 104.287 150.345ZM134.047 143.341C132.615 144.008 132.388 146.554 133.54 149.027C134.692 151.5 136.788 152.965 138.219 152.298C139.651 151.63 139.878 149.085 138.726 146.612C137.574 144.138 135.479 142.674 134.047 143.341ZM40.6782 318.78H54.1898C52.8387 309.31 51.877 299.787 51.3055 290.238C47.7719 299.748 44.2121 309.27 40.6782 318.78ZM70.4162 167.976C69.9378 167.734 69.3497 167.925 69.1073 168.406C67.0239 172.526 70.2541 177.27 74.0965 177.27C74.5938 177.27 75.0191 176.89 75.0658 176.385C75.115 175.85 74.7212 175.376 74.1848 175.325C71.2702 175.055 69.5252 171.897 70.8465 169.285C71.0889 168.805 70.897 168.218 70.4162 167.976ZM140.469 137.926C137.038 135.657 132.434 135.354 128.736 137.156C128.253 137.392 128.051 137.976 128.287 138.459C128.523 138.941 129.103 139.145 129.589 138.908C132.679 137.403 136.526 137.655 139.393 139.552C139.559 139.66 139.745 139.713 139.93 139.713C140.896 139.713 141.27 138.457 140.469 137.926ZM120.362 176.587C119.833 176.443 119.307 176.759 119.169 177.278C118.127 181.189 119.983 185.668 123.486 187.698C126.995 189.729 131.804 189.099 134.672 186.254C135.053 185.875 135.055 185.258 134.677 184.876C134.297 184.493 133.681 184.492 133.298 184.871C131.028 187.123 127.228 187.611 124.462 186.012C121.695 184.409 120.228 180.87 121.052 177.78C121.191 177.26 120.882 176.726 120.362 176.587ZM331.458 209.526C331.072 208.16 329.604 207.404 328.265 207.908L276.736 227.405L194.613 206.594C193.198 206.235 191.994 207.666 192.591 208.993C194.671 213.61 198.427 224.93 188.399 230.334C186.959 231.11 187.291 233.271 188.907 233.578L232.916 241.83C230.13 247.707 229.22 254.683 228.363 261.458C227.406 268.971 223.381 298.87 220.97 317.141H189.552C186.903 306.953 185.958 296.333 186.79 285.85C183.423 296.558 179.278 307.03 174.403 317.141H151.976C151.439 317.141 151.002 317.578 151.002 318.116C151.002 318.653 151.439 319.09 151.976 319.09H316.28C316.817 319.09 317.254 318.653 317.254 318.116C317.254 317.578 316.817 317.141 316.28 317.141H274.795C274.707 281.095 274.172 277.428 276.201 271.317C279.03 262.792 287.26 259.714 295.449 257.291C305.423 254.339 312.26 250.41 316.349 245.279C318.74 242.285 319.348 238.276 316.296 235.988C315.805 235.618 315.287 235.373 314.769 235.246C314.946 234.618 315.037 233.98 315.039 233.338L323.414 229.958C334.91 225.323 332.478 213.148 331.458 209.526ZM194.541 208.586L276.121 229.259C281.683 240.313 275.751 246.328 274.262 247.599L189.827 231.768C200.626 225.503 196.424 212.936 194.541 208.586ZM306.805 241.112C296.911 246.13 294.831 247.226 286.191 250.836C285.695 251.043 285.46 251.614 285.668 252.111C285.878 252.611 286.45 252.84 286.943 252.634C295.74 248.958 297.791 247.868 307.689 242.848C310.271 241.53 312.723 239.282 313.987 237.096C315.099 237.106 316.409 238.587 316.411 239.795C316.415 241.392 315.94 242.669 314.826 244.065C310.994 248.872 304.474 252.588 294.896 255.423C286.594 257.879 277.476 261.288 274.351 270.703C272.248 277.044 272.758 280.4 272.846 317.141H222.935C224.969 301.739 229.532 267.789 230.296 261.702C231.156 254.899 232.065 247.885 234.895 242.201L274.342 249.597C274.936 249.709 272.416 250.473 313.026 234.151C312.549 237.004 309.338 239.818 306.805 241.112ZM322.685 228.151L277.963 246.199C280.101 242.909 282.044 237.127 278.148 228.955L328.954 209.73C329.218 209.628 329.505 209.783 329.582 210.055C330.746 214.191 332.405 224.232 322.685 228.151Z" fill="black"/>
<path d="M205.567 201.359L269.93 213.426C270.574 213.549 268.709 213.949 307.195 198.551C315.693 195.114 314.426 186.559 313.484 183.033C313.125 181.739 311.732 181.021 310.473 181.5L271.764 196.147L209.911 180.466C208.557 180.117 207.422 181.506 207.985 182.749C209.444 186.094 212.08 194.301 205.052 198.277C203.695 199.035 204.049 201.074 205.567 201.359ZM311.164 183.321C311.353 183.246 311.556 183.371 311.604 183.544C312.604 187.293 313.268 193.993 306.466 196.743L273.499 210.049C275.6 206.277 274.988 201.631 273.171 197.699L311.164 183.321ZM209.992 182.497L271.137 197.997C274.081 203.933 272.864 208.689 269.84 211.426L206.66 199.581C214.042 194.833 211.382 185.923 209.992 182.497Z" fill="black"/>
<path d="M233.97 139.967C235.932 143.358 235.438 148.333 237.535 152.181C240.568 157.745 247.901 159.401 252.709 155.645C250.739 163.745 253.452 171.618 259.097 176.775C257.204 177.08 255.671 178.387 254.988 180.018C254.78 180.514 255.014 181.084 255.51 181.293C255.996 181.498 256.574 181.274 256.785 180.77C257.729 178.516 260.681 177.917 262.432 179.633C262.979 180.174 263.913 179.89 264.069 179.137C264.326 177.891 266.005 177.078 267.869 178.016C268.586 178.378 269.27 178.961 269.959 179.802C270.302 180.22 270.916 180.279 271.33 179.938C271.746 179.598 271.807 178.983 271.466 178.568C268.37 174.79 264.538 175.042 262.828 177.312C262.456 176.828 255.648 173.109 254.237 163.875C253.427 158.568 254.835 153.014 258.099 148.634C261.285 144.359 266.072 141.345 269.557 136.869C269.347 140.881 270.993 144.054 273.906 145.947C278.388 148.861 287.368 149.053 292.71 145.91C298.528 142.482 300.785 135.881 302.743 129.81C303.072 128.782 301.656 128.253 300.992 128.243C298.172 128.213 295.503 127.198 292.677 126.124C285.695 123.47 279 122.088 273.11 128.454C273.452 124.148 271.802 121.515 268.837 118.85C271.782 116.772 272.59 113.136 272.502 109.515C272.343 103.014 269.714 98.8575 264.068 96.2223C261.728 95.1293 259.231 94.478 256.818 93.8495C255.849 93.5972 255.369 94.8067 255.403 95.5117C255.604 99.8994 252.597 104.352 252.695 109.212C252.851 116.959 260.545 122.12 266.972 119.806C268.304 120.96 269.522 122.112 270.292 123.551C271.623 126.035 271.522 129.383 270.02 132.507C266.937 138.921 259.601 142.461 255.518 148.99C255.167 145.478 252.304 140.349 248.436 138.223C244.095 135.831 239.112 136.84 234.47 137.902C233.556 138.109 233.576 139.28 233.97 139.967ZM55.6294 59.7914C55.6294 58.9129 55.4654 58.0143 55.1423 57.1207C54.958 56.6159 54.4001 56.3546 53.894 56.5364C53.3892 56.7194 53.1267 57.2785 53.3097 57.7846C53.5558 58.4649 53.6807 59.1401 53.6807 59.7914C53.6807 64.7982 47.3058 68.871 39.4706 68.871C31.6278 68.871 25.2478 64.7982 25.2478 59.7914C25.2478 59.1376 25.3715 58.4624 25.6176 57.7846C25.8006 57.2785 25.5381 56.7194 25.0333 56.5364C24.5221 56.3534 23.968 56.6159 23.785 57.1207C23.4632 58.013 23.2991 58.9104 23.2991 59.7914C23.2991 65.8722 30.5537 70.8197 39.4706 70.8197C48.3811 70.8197 55.6294 65.8722 55.6294 59.7914ZM29.4822 73.3717L22.9773 81.9049C22.6517 82.3327 22.7337 82.9436 23.1615 83.2705C23.595 83.5986 24.2028 83.5109 24.5272 83.0862L31.0321 74.553C31.3577 74.1252 31.2757 73.5143 30.8478 73.1874C30.4174 72.8631 29.8091 72.9451 29.4822 73.3717ZM41.5114 89.1784C42.0491 89.1456 42.4567 88.6824 42.4227 88.146L41.7083 76.8261C41.6742 76.2885 41.1959 75.8846 40.6746 75.9161C40.1382 75.9502 39.7306 76.4121 39.7647 76.9498L40.479 88.2672C40.5113 88.7946 40.9642 89.2126 41.5114 89.1784ZM51.318 72.3658C50.9748 71.948 50.3601 71.8925 49.9474 72.232C49.5309 72.5741 49.4716 73.1874 49.8136 73.6027C52.1422 76.4336 55.1763 78.6297 58.5891 79.9549C59.0919 80.1483 59.6549 79.9 59.8499 79.3983C60.0443 78.8972 59.7957 78.3331 59.2933 78.1375C56.1923 76.9334 53.4346 74.938 51.318 72.3658ZM38.4079 20.6772C38.4129 20.6772 38.4192 20.6772 38.4243 20.6772C38.9619 20.6683 39.3911 20.2241 39.3822 19.6864L39.0856 1.86664C39.0768 1.33402 38.6426 0.908691 38.1113 0.908691C38.1062 0.908691 38.1012 0.908691 38.0949 0.908691C37.5572 0.917526 37.1281 1.36179 37.1369 1.89945L37.4335 19.7192C37.4424 20.2519 37.8765 20.6772 38.4079 20.6772ZM252.84 87.573C253.033 87.8191 253.319 87.9479 253.61 87.9479C254.41 87.9479 254.879 87.0181 254.377 86.374L249.419 80.023C249.089 79.599 248.477 79.5207 248.053 79.8552C247.629 80.1859 247.553 80.798 247.885 81.2221L252.84 87.573ZM259.578 86.345C259.948 86.345 260.303 86.1329 260.465 85.7732L263.423 79.2582C263.645 78.7685 263.428 78.1905 262.938 77.9683C262.451 77.7449 261.87 77.9608 261.648 78.453L258.691 84.968C258.398 85.6142 258.873 86.345 259.578 86.345Z" fill="black"/>
<path d="M77.0944 57.4591C78.1738 54.7748 78.7682 51.9331 78.7682 48.9849C78.7682 32.7942 61.2673 19.6694 39.679 19.6694C18.0905 19.6694 0.5896 32.7942 0.5896 48.9849C0.5896 51.9331 1.18401 54.7748 2.2634 57.4591H77.0944Z" fill="#0E7C9F"/>
</svg>
