<svg width="26" height="21" viewBox="0 0 26 21" fill="none" xmlns="http://www.w3.org/2000/svg">
<path fill-rule="evenodd" clip-rule="evenodd" d="M12.1246 18.1517C8.92316 16.737 5.42486 16.0987 1.91675 16.2987L1.91653 2.58455L3.51324 2.47062C6.1209 2.28457 8.74068 2.57381 11.245 3.32426L12.1246 3.58785V18.1517ZM13.8746 18.1521C17.0762 16.7371 20.5748 16.0986 24.0831 16.2987L24.0829 2.58455L22.4862 2.47062C19.8785 2.28457 17.2587 2.57381 14.7544 3.32426L13.8746 3.58794V18.1521ZM0.166504 1.22657C0.166499 1.07354 0.284771 0.946526 0.437413 0.935635L3.38869 0.725062C6.20779 0.523919 9.03998 0.836615 11.7473 1.64791L12.916 1.99813C12.9706 2.0145 13.0288 2.0145 13.0834 1.99813L14.2521 1.64791C16.9594 0.836614 19.7916 0.523919 22.6107 0.725061L25.562 0.935635C25.7146 0.946526 25.8329 1.07353 25.8329 1.22656L25.8332 17.8625C25.8332 18.0318 25.6896 18.1655 25.5207 18.1535L24.2739 18.0645C20.4033 17.7883 16.5342 18.6226 13.1213 20.4693C13.0456 20.5102 12.9544 20.5102 12.8787 20.4693C9.46578 18.6226 5.59669 17.7883 1.72602 18.0645L0.479204 18.1535C0.310378 18.1655 0.166782 18.0318 0.166779 17.8625L0.166504 1.22657Z" fill="#212A35"/>
</svg>
