<svg width="161" height="142" viewBox="0 0 161 142" fill="none" xmlns="http://www.w3.org/2000/svg">
<path d="M92.7104 16.2863L36.0683 14.4356C35.7451 14.4251 35.4917 14.155 35.5023 13.8324L35.9343 0.656136C35.9449 0.333539 36.2154 0.0805804 36.5386 0.0911392L93.1807 1.94182C93.5039 1.95237 93.7573 2.22245 93.7467 2.54505L93.3147 15.7213C93.3041 16.0439 93.0336 16.2969 92.7104 16.2863Z" fill="#FF9F46"/>
<path d="M65.972 24.5754L29.9113 35.905C29.6029 36.0019 29.2742 35.8309 29.1771 35.523L26.6203 27.4134C26.5232 27.1055 26.6946 26.7774 27.003 26.6805L63.0636 15.3508C63.3721 15.2539 63.7008 15.425 63.7978 15.7329L66.3547 23.8424C66.4517 24.1503 66.2804 24.4785 65.972 24.5754Z" fill="#E5DFDF"/>
<path d="M84.0283 33.335L80.0626 20.7634C79.9684 20.4565 79.6359 20.2811 79.3284 20.3813L25.2708 37.3626C24.9633 37.4629 24.7939 37.7886 24.888 38.0955L28.4333 49.3454C28.4866 47.5765 27.6867 45.7615 28.1572 44.0274C28.4082 43.1191 29.0859 42.2923 29.9581 42.1921C31.2068 42.0418 32.1919 43.3258 32.8069 44.516C33.7167 46.2886 34.4509 47.7231 34.6517 49.4644C34.6973 49.4501 32.8792 50.0243 83.6455 34.0678C83.953 33.9739 84.1286 33.6419 84.0283 33.335ZM67.1302 38.9286C66.9294 38.9286 66.7411 38.8033 66.6784 38.6029L62.8947 26.5888C62.7037 26.0022 63.5963 25.7059 63.792 26.3069L67.5756 38.321C67.6736 38.6142 67.4529 38.9286 67.1302 38.9286ZM73.8944 36.7175C73.6936 36.7175 73.5116 36.5859 73.4489 36.3855L69.6589 24.3714C69.5773 24.1271 69.7154 23.8577 69.9664 23.7826C70.2111 23.7074 70.4809 23.8452 70.5562 24.0895L74.3462 36.1036C74.4402 36.4165 74.2038 36.7175 73.8944 36.7175Z" fill="#0A5870"/>
<path d="M157.432 83.2656C157.364 82.9502 157.06 82.7461 156.738 82.8079L101.177 93.96C100.861 94.0219 100.657 94.3312 100.719 94.6466L103.321 107.568C103.389 107.889 103.693 108.094 104.015 108.025C104.082 108.011 155.397 97.7109 159.576 96.8795C159.892 96.8177 160.096 96.5084 160.034 96.193L157.432 83.2656ZM142.685 99.9598C142.462 99.9598 142.264 99.8052 142.22 99.5825L139.736 87.2366C139.686 86.983 139.847 86.7356 140.101 86.6799C140.362 86.6304 140.603 86.7975 140.659 87.051L143.144 99.397C143.199 99.6777 142.993 99.9598 142.685 99.9598ZM149.643 98.4753C149.427 98.4753 149.228 98.3207 149.185 98.098L146.7 85.7521C146.645 85.4985 146.812 85.2511 147.066 85.1954C147.32 85.1459 147.568 85.313 147.623 85.5666L150.108 97.9125C150.163 98.1932 149.95 98.4753 149.643 98.4753Z" fill="#FF9F46"/>
<path d="M150.775 72.7727L108.461 82.0348C108.145 82.104 107.833 81.9044 107.763 81.5891L105.646 71.948C105.576 71.6327 105.776 71.3211 106.092 71.2519L148.407 61.9898C148.723 61.9206 149.035 62.1202 149.104 62.4355L151.222 72.0766C151.291 72.3919 151.091 72.7035 150.775 72.7727Z" fill="#E5DFDF"/>
<path d="M139.896 86.3605L97.4259 94.883C97.1089 94.9466 96.8003 94.7417 96.7366 94.4252L94.788 84.7486C94.7242 84.4321 94.9296 84.124 95.2466 84.0604L137.717 75.5379C138.034 75.4743 138.342 75.6793 138.406 75.9957L140.355 85.6724C140.418 85.9888 140.213 86.2969 139.896 86.3605Z" fill="#0A5870"/>
<path d="M65.938 62.5355C65.6887 62.6092 65.5465 62.8705 65.62 63.1193C66.4 65.7538 68.3257 68.0794 70.7711 69.34C71.814 69.8767 73.0406 70.3266 73.3903 71.2919C73.7328 72.2375 73.108 73.3188 72.3819 74.3462C72.1606 74.6596 72.3893 75.0871 72.7661 75.0871C72.9138 75.0871 73.0593 75.0176 73.151 74.8881C74.0241 73.6525 74.7645 72.323 74.2755 70.9724C73.7894 69.6298 72.3554 69.0989 71.2032 68.5052C68.981 67.36 67.2314 65.2467 66.5228 62.853C66.4496 62.6041 66.1882 62.463 65.938 62.5355ZM59.128 60.7557C57.0316 61.2773 55.1598 62.6174 53.9926 64.4325C53.8522 64.6509 53.9157 64.9414 54.1345 65.0815C54.3529 65.2216 54.644 65.1588 54.7846 64.9399C55.8236 63.3244 57.4897 62.1317 59.3555 61.6672C59.6078 61.6047 59.7612 61.3495 59.6983 61.0979C59.636 60.846 59.3809 60.6923 59.128 60.7557ZM58.7474 66.085C58.1597 66.499 58.264 67.6559 58.9803 68.6691C59.6966 69.6824 60.7536 70.1681 61.3412 69.7541C61.9288 69.3401 61.8245 68.1833 61.1082 67.17C60.3919 66.1568 59.335 65.6711 58.7474 66.085ZM71.5148 60.5499C70.9271 60.9639 71.0315 62.1208 71.7477 63.1341C72.464 64.1473 73.5211 64.633 74.1087 64.2191C74.6963 63.8051 74.592 62.6481 73.8757 61.635C73.1594 60.6218 72.1024 60.1359 71.5148 60.5499ZM43.6065 72.9799C43.3753 72.8633 43.0912 72.9557 42.9741 73.1871C42.0816 74.9502 43.2547 77.0712 45.2257 77.2535C45.4978 77.2756 45.7147 77.0776 45.7379 76.8291C45.7618 76.5706 45.5715 76.3417 45.3128 76.3178C44.0047 76.1966 43.2209 74.7828 43.814 73.6111C43.9314 73.3795 43.8382 73.0968 43.6065 72.9799ZM73.8659 58.0424C72.0836 57.4381 70.0102 57.8404 68.5843 59.0663C68.254 59.3505 68.4574 59.8923 68.8917 59.8923C69.0003 59.8923 69.1096 59.8548 69.1985 59.7784C70.3772 58.7654 72.0912 58.4341 73.5633 58.9322C73.8099 59.0149 74.0768 58.8841 74.1603 58.6383C74.2438 58.3928 74.1122 58.1258 73.8659 58.0424ZM129.785 106.517C127.04 108.183 123.201 106.326 120.912 108.075C120.697 108.228 120.404 108.189 120.249 107.983C120.094 107.778 120.131 107.482 120.336 107.327C122.984 105.308 126.826 107.208 129.301 105.712C130.287 105.125 130.795 103.727 130.336 102.886C130.311 102.843 130.299 102.799 130.293 102.756L131.222 102.57C131.823 103.851 131.16 105.694 129.785 106.517Z" fill="black"/>
<path d="M79.2719 45.9067C79.4288 45.7 79.73 45.6624 79.9308 45.8252C81.807 47.2972 82.6352 49.9218 81.9513 52.2018C81.8885 52.4023 81.7003 52.5339 81.4995 52.5339C81.1698 52.5339 80.9584 52.2234 81.0477 51.9263C81.6187 50.0408 80.9034 47.7858 79.3472 46.5644C79.1464 46.4015 79.1088 46.1071 79.2719 45.9067ZM15.9093 76.3653C16.2787 74.0047 16.518 71.7299 15.4043 69.8465C13.0819 65.9135 7.32872 67.4373 4.30546 64.7666C2.17074 62.8727 2.11008 58.9123 3.3001 57.7483C3.57058 57.4834 3.94361 57.3886 4.22589 57.5248L5.64313 58.1385C8.14219 60.6033 11.2645 62.4623 14.6316 63.4374C14.8795 63.5095 15.1421 63.3675 15.2147 63.117C15.287 62.8678 15.1433 62.6071 14.8937 62.535C8.3147 60.6296 3.8047 55.4983 3.26077 52.9456C2.77123 50.6468 4.44541 49.1665 5.56556 49.5766C6.14388 49.7895 6.67035 50.1319 7.10488 50.5629C8.752 54.7879 12.0312 58.4662 16.0572 60.6045C16.2871 60.7266 16.5721 60.6393 16.6938 60.4106C16.816 60.1813 16.7289 59.8968 16.4996 59.7751C12.7974 57.809 9.64075 54.4029 8.01482 50.3055C8.00824 50.2161 7.97666 50.1302 7.91857 50.0554C7.61936 49.2559 7.35141 48.2936 7.43166 47.3217C7.52243 46.2224 8.10997 45.2602 8.92866 44.8706C10.3915 44.1741 12.0703 45.958 12.7317 47.403C12.7383 47.4175 12.7508 47.4266 12.7587 47.4402C13.3859 52.0052 16.3524 56.5421 19.568 58.9364C19.7761 59.0914 20.0711 59.0488 20.2266 58.8407C20.3821 58.6326 20.3392 58.3384 20.1307 58.1832C15.4004 54.6608 11.195 46.262 15.0927 40.5843C17.6609 36.8287 22.8229 36.7454 23.6693 38.999C24.2496 40.5522 22.6902 42.2204 21.9227 43.4402C20.849 45.1548 19.8372 49.1045 20.6287 51.6424C21.4824 54.3804 24.633 54.8169 26.6754 53.4913C28.0791 52.5812 28.9036 50.8574 28.9036 49.3597C28.9559 47.6201 28.1852 45.722 28.6108 44.1527C28.835 43.3423 29.411 42.728 30.0143 42.6586C31.0898 42.5341 31.9603 43.9023 32.3881 44.7301C34.6126 49.0636 34.9633 49.9626 32.5844 58.4565C31.8653 61.0252 31.1213 63.6814 30.8823 66.4684C30.1827 74.5872 31.7721 79.7873 34.2847 101.602C35.7893 114.663 37.2009 128.724 38.9547 140.968H5.42401C8.79066 119.622 12.5677 97.5755 15.9093 76.3653ZM148.764 140.969H129.878C129.928 140.795 129.853 130.69 129.853 126.396C129.847 124.176 129.841 121.881 130.541 119.772C131.823 115.912 135.566 114.514 139.29 113.413C143.831 112.071 146.948 110.283 148.813 107.945C149.458 107.148 149.736 106.374 149.736 105.434C149.736 104.598 149.069 103.619 148.119 103.356C148.611 101.553 147.579 99.81 145.672 99.6695L143.255 100.152C143.181 100.511 143.007 100.876 142.766 101.185C142.058 102.099 141.822 102.144 131.879 107.822C131.65 107.952 131.575 108.242 131.706 108.465C131.838 108.701 132.133 108.761 132.344 108.638C142.266 102.972 142.821 102.796 143.59 101.643C143.695 101.612 143.788 101.544 143.85 101.445C144.568 100.298 146.348 100.329 147.016 101.42C148.045 103.105 146.151 105.145 144.439 106.009C139.854 108.333 138.953 108.804 135.058 110.432C134.816 110.531 134.705 110.803 134.804 111.044C134.907 111.294 135.194 111.397 135.417 111.298C139.354 109.656 140.397 109.112 144.86 106.851C146.031 106.257 147.146 105.236 147.735 104.24C148.245 104.262 148.795 104.93 148.795 105.44C148.795 106.158 148.584 106.733 148.082 107.364C146.341 109.541 143.373 111.23 139.017 112.516C135.231 113.63 131.074 115.182 129.648 119.475C128.899 121.733 128.905 124.101 128.911 126.396C128.911 126.458 128.946 140.808 128.992 140.969H106.239C106.251 140.88 109.622 115.567 109.635 115.473C110.013 112.461 110.403 109.343 111.605 106.789C111.649 106.696 111.661 106.597 111.636 106.498L110.614 106.702C109.461 109.319 109.077 112.386 108.699 115.355C106.163 134.305 106.233 133.812 106.233 133.874C106.227 133.769 106.227 133.664 106.221 133.559C106.041 133.8 100.062 139.583 98.6306 140.969H51.2425L37.3446 120.458C35.9225 107.86 34.6098 95.142 32.9329 83.4825C30.7454 68.3223 31.5941 65.2359 33.726 57.8691C34.4003 60.6092 37.0344 62.6487 39.885 62.8792C40.1019 62.8977 40.7772 64.308 40.9074 64.5307C42.1769 66.7031 42.2872 67.9295 42.221 70.3881C40.4365 71.1551 39.3212 73.3014 39.7363 75.3673C40.1329 77.3528 41.7996 79.0538 43.9683 79.7094C45.9262 80.297 47.8904 79.9878 49.3651 79.5363C49.195 85.4881 49.6183 91.3586 49.805 96.8799C50.0776 96.8861 50.3317 96.9541 50.4556 97.1706C50.5879 97.3731 50.5495 97.5347 50.6167 98.587C50.7282 98.5004 50.7964 98.3644 50.7902 98.2097C50.6028 91.7263 50.0965 85.323 50.3255 78.8868C50.3387 78.5564 50.0195 78.3205 49.6935 78.4291C48.3179 78.9363 46.2608 79.4187 44.2409 78.8064C42.4254 78.2621 40.9879 76.8023 40.6595 75.1818C40.3063 73.4313 41.3844 71.5324 42.9645 71.118C45.034 70.5799 47.0539 72.3427 48.3799 73.9262C48.3951 73.9444 49.3504 74.6916 49.5262 74.7241C49.9909 74.823 50.4432 74.4334 50.5981 73.9818C50.9141 73.0293 50.5424 71.5077 50.4432 70.518C49.9996 65.5066 48.2894 59.1854 47.9958 58.9701C49.1358 59.7989 50.7468 59.904 51.9737 59.2422C53.2067 58.5742 53.9998 57.1639 53.9193 55.766C55.0965 57.1454 57.0173 57.8319 58.7956 57.5227C60.5739 57.2134 62.1477 55.9083 62.7797 54.2197C64.5978 56.9515 68.3526 58.3752 72.1545 56.2732C73.8522 55.3331 73.4123 55.3949 75.234 56.0815C75.7482 56.2732 76.2935 56.3969 76.845 56.4774C77.9576 60.4348 79.0458 64.3047 79.2862 68.1058C79.6828 74.2169 79.6456 79.4002 78.1771 84.8247C77.5175 87.2825 76.9751 89.6553 74.9427 91.1523C70.7874 94.2203 62.2392 94.4265 55.8338 89.5317C55.6294 89.3771 55.332 89.4142 55.1709 89.6183C55.016 89.8286 55.0531 90.1193 55.2638 90.2802C58.4362 92.7048 62.3956 94.1027 66.3921 94.2697C66.6473 96.6327 66.9541 97.7676 67.241 99.9787C67.3401 99.2922 67.3525 98.6056 67.3091 98.0242C67.3153 98.086 67.5508 98.1417 67.9225 98.185C67.688 96.8139 67.4882 95.5715 67.3401 94.2882C70.1945 94.2882 73.2099 93.5967 75.5066 91.9069C77.7582 90.2483 78.3712 87.7273 79.0818 85.0721C80.5874 79.5239 80.6246 74.254 80.228 68.0439C79.9726 64.1082 78.8919 60.3614 77.8425 56.5516C79.5713 56.5763 81.3062 56.032 82.6259 54.8753C85.1168 52.7043 85.7364 48.6962 84.0263 45.8695C82.3223 43.0367 78.4808 41.7254 75.3951 42.9006C75.9122 42.7023 75.441 39.5613 73.1397 37.3709L50.8336 44.3789C50.8212 44.4284 50.815 44.4778 50.815 44.5273C50.8026 44.7809 50.5981 44.9788 50.3441 44.9788H50.3255C50.1272 44.9665 49.9661 44.849 49.898 44.6758L35.6344 49.1601C35.4548 49.4075 35.2937 49.6797 35.145 49.9519C35.073 47.8695 34.1966 46.1933 33.2241 44.2985C32.2762 42.4676 31.1298 41.5769 29.903 41.7254C28.7629 41.8552 27.976 42.913 27.7034 43.9026C27.145 45.9341 28.1214 47.8338 27.9512 49.5313C27.9317 49.5931 27.8921 51.5807 26.1606 52.7043C24.6547 53.6843 22.202 53.5186 21.5258 51.3621C20.8257 49.1168 21.7675 45.4613 22.7217 43.9397C23.4579 42.7588 25.3388 40.7508 24.5496 38.6698C22.9762 34.4712 12.7878 36.3804 12.6406 45.5231C11.5706 44.2345 10.0425 43.2924 8.52635 44.0201C7.10755 44.7012 6.0844 46.486 6.63654 49.0488C6.39488 48.9127 6.14702 48.789 5.89299 48.6962C4.10444 48.0323 1.68796 50.0645 2.34262 53.1435C2.63382 54.5228 3.45791 55.6733 4.16428 56.5392C1.2571 56.1295 0.420284 62.5797 3.68097 65.4708C6.95208 68.3615 12.5577 66.8607 14.5924 70.3263C15.5466 71.9407 15.3235 74.0375 14.9765 76.2209C11.5087 98.2344 8.08256 118.098 4.46789 140.969H1.42556C1.16534 140.969 0.954651 141.179 0.954651 141.439C0.954651 141.699 1.16534 141.909 1.42556 141.909H148.764C149.024 141.909 149.234 141.699 149.234 141.439C149.234 141.179 149.024 140.969 148.764 140.969Z" fill="black"/>
<path d="M106.221 133.552V133.558C106.041 133.8 100.062 139.583 98.6306 140.968H51.2425L37.3446 120.458C37.3371 120.392 35.2069 101.429 35.2069 101.364C39.8106 99.465 44.4082 97.7455 49.3775 96.9166C49.7534 96.8484 50.2659 96.8389 50.4556 97.1702C50.7894 97.6811 50.156 99.9291 51.9427 102.323C53.7024 104.654 56.3172 105.799 59.2045 105.879C62.0095 105.957 64.343 104.739 66.1752 102.663C67.1605 101.556 67.4197 99.5062 67.3091 98.0238C67.3153 98.0857 67.5508 98.1413 67.9225 98.1846C70.4699 98.4861 71.819 98.0902 77.415 99.2114C82.8676 100.306 86.9818 101.611 91.3129 105.186C100.133 112.495 105.261 122.685 106.221 133.552Z" fill="#0A5870"/>
<path d="M82.7722 15.5836C82.7774 15.5836 82.7828 15.5839 82.788 15.5839C83.0406 15.5839 83.2496 15.3833 83.2581 15.1293L83.6708 2.54123C83.6793 2.2818 83.4757 2.06465 83.2158 2.05619C82.968 2.06253 82.7386 2.2513 82.7299 2.51043L82.3172 15.0985C82.3087 15.358 82.5123 15.5751 82.7722 15.5836ZM75.6536 15.4356C75.6588 15.4356 75.6642 15.4359 75.6694 15.4359C75.922 15.4359 76.131 15.2353 76.1395 14.9813L76.5522 2.39325C76.5607 2.13381 76.357 1.91666 76.0972 1.9082C75.8415 1.91092 75.62 2.10331 75.6113 2.36244L75.1986 14.9505C75.1901 15.21 75.3937 15.4271 75.6536 15.4356ZM59.1343 26.1246C59.1976 26.3251 59.383 26.4535 59.5833 26.4535C59.9004 26.4535 60.1278 26.145 60.0323 25.8425L57.48 17.7472C57.4023 17.4999 57.1375 17.3612 56.8897 17.4401C56.642 17.518 56.504 17.782 56.582 18.0293L59.1343 26.1246ZM54.5756 27.6166C54.6388 27.8171 54.8243 27.9454 55.0245 27.9454C55.3417 27.9454 55.569 27.637 55.4735 27.3345L52.9212 19.2395C52.8432 18.9921 52.5785 18.8529 52.331 18.9323C52.0832 19.0103 51.9452 19.2742 52.0233 19.5216L54.5756 27.6166ZM142.828 73.8446C142.884 74.0996 143.137 74.2588 143.388 74.2028C143.642 74.1472 143.803 73.8968 143.747 73.6434L141.669 64.1809C141.613 63.9272 141.36 63.7672 141.108 63.8227C140.854 63.8783 140.694 64.1287 140.749 64.3821L142.828 73.8446ZM137.493 75.0792C137.549 75.3342 137.802 75.4934 138.053 75.4374C138.307 75.3818 138.468 75.1315 138.412 74.8781L136.333 65.4153C136.277 65.1616 136.024 64.9994 135.773 65.0571C135.519 65.1126 135.359 65.363 135.414 65.6164L137.493 75.0792ZM132.485 87.6619C132.74 87.6108 132.905 87.3632 132.854 87.1086L130.941 77.611C130.89 77.3567 130.643 77.1924 130.387 77.2432C130.132 77.2942 129.967 77.5419 130.018 77.7965L131.931 87.294C131.982 87.5479 132.23 87.7133 132.485 87.6619ZM127.129 88.8029C127.384 88.7519 127.549 88.5042 127.498 88.2496L125.585 78.7521C125.534 78.4978 125.286 78.3335 125.031 78.3842C124.776 78.4352 124.612 78.6829 124.663 78.9375L126.575 88.4351C126.626 88.6885 126.874 88.8544 127.129 88.8029ZM64.2247 77.4126C64.1638 77.1604 63.9091 77.004 63.6565 77.0665C63.4039 77.1275 63.2486 77.3815 63.3098 77.6337C63.7255 79.3501 65.0751 80.829 66.7479 81.4017C68.4102 81.9716 70.3872 81.6404 71.7789 80.534C71.9822 80.3721 72.0158 80.0767 71.854 79.8738C71.6924 79.6705 71.3953 79.6376 71.1926 79.7989C70.0541 80.7043 68.4297 80.9837 67.0535 80.5131C65.6769 80.0417 64.5665 78.8248 64.2247 77.4126Z" fill="black"/>
</svg>
