<svg width="165" height="25" viewBox="0 0 165 25" fill="none" xmlns="http://www.w3.org/2000/svg">
<path d="M0.376 0.0919988H14.956V4.412H4.732V9.524H12.724V13.88H4.732V24.5H0.376V0.0919988ZM18.2002 0.163998H22.5202V24.5H18.2002V0.163998ZM41.6143 0.524H45.8983V24.5L32.3983 10.964V24.5H28.1143V0.524L41.6143 13.556V0.524ZM64.0572 0.0919988H69.7452L59.7732 11.612L69.7092 24.5H64.0572L55.8492 13.88V24.5H51.4932V0.0919988H55.8492V9.56L64.0572 0.0919988ZM90.2539 12.332C90.2539 11.252 90.0499 10.232 89.6419 9.272C89.2339 8.312 88.6699 7.484 87.9499 6.788C87.2539 6.068 86.4259 5.504 85.4659 5.096C84.5059 4.664 83.4859 4.448 82.4059 4.448C81.3019 4.448 80.2699 4.664 79.3099 5.096C78.3739 5.504 77.5459 6.068 76.8259 6.788C76.1299 7.484 75.5779 8.312 75.1699 9.272C74.7619 10.232 74.5579 11.252 74.5579 12.332C74.5579 13.436 74.7619 14.468 75.1699 15.428C75.5779 16.364 76.1299 17.192 76.8259 17.912C77.5459 18.608 78.3739 19.16 79.3099 19.568C80.2699 19.976 81.3019 20.18 82.4059 20.18C83.4859 20.18 84.5059 19.976 85.4659 19.568C86.4259 19.16 87.2539 18.608 87.9499 17.912C88.6699 17.192 89.2339 16.364 89.6419 15.428C90.0499 14.468 90.2539 13.436 90.2539 12.332ZM82.4059 0.163998C84.0859 0.163998 85.6579 0.487998 87.1219 1.136C88.6099 1.76 89.9059 2.624 91.0099 3.728C92.1139 4.832 92.9779 6.128 93.6019 7.616C94.2499 9.08 94.5739 10.652 94.5739 12.332C94.5739 14.036 94.2499 15.632 93.6019 17.12C92.9779 18.584 92.1139 19.868 91.0099 20.972C89.9059 22.052 88.6099 22.916 87.1219 23.564C85.6579 24.188 84.0859 24.5 82.4059 24.5C80.7019 24.5 79.1059 24.188 77.6179 23.564C76.1539 22.916 74.8699 22.052 73.7659 20.972C72.6619 19.868 71.7859 18.584 71.1379 17.12C70.5139 15.632 70.2019 14.036 70.2019 12.332C70.2019 10.652 70.5139 9.08 71.1379 7.616C71.7859 6.128 72.6619 4.832 73.7659 3.728C74.8699 2.624 76.1539 1.76 77.6179 1.136C79.1059 0.487998 80.7019 0.163998 82.4059 0.163998ZM109.558 15.68L121.186 0.0919988V24.5H116.83V13.916L109.378 23.78L102.394 13.952V24.5H98.1104V0.0919988L109.558 15.68ZM131.119 20.18H141.307V24.5H126.763V0.0919988H141.307V4.412H131.119V9.524H139.075V13.88H131.119V20.18ZM158.487 0.0919988H164.175L154.203 11.612L164.139 24.5H158.487L150.279 13.88V24.5H145.923V0.0919988H150.279V9.56L158.487 0.0919988Z" fill="white"/>
</svg>
