<svg width="120" height="18" viewBox="0 0 120 18" fill="none" xmlns="http://www.w3.org/2000/svg">
<path d="M0 0.5H10.6814V3.50885H3.19123V7.06932H9.04622V10.1032H3.19123V17.5H0V0.5Z" fill="#0E7C9F"/>
<path d="M13.0581 0.550147H16.223V17.5H13.0581V0.550147Z" fill="#0E7C9F"/>
<path d="M30.2114 0.800886H33.3499V17.5L23.4597 8.07227V17.5H20.3212V0.800886L30.2114 9.87758V0.800886Z" fill="#0E7C9F"/>
<path d="M46.6532 0.5H50.8203L43.5147 8.5236L50.7939 17.5H46.6532L40.64 10.1032V17.5H37.4487V0.5H40.64V7.0944L46.6532 0.5Z" fill="#0E7C9F"/>
<path d="M65.8451 9.02507C65.8451 8.27286 65.6956 7.56244 65.3967 6.89381C65.0978 6.22517 64.6846 5.64848 64.1572 5.16372C63.6473 4.66224 63.0407 4.26942 62.3374 3.98525C61.6341 3.68437 60.8868 3.53392 60.0956 3.53392C59.2868 3.53392 58.5308 3.68437 57.8275 3.98525C57.1417 4.26942 56.5351 4.66224 56.0077 5.16372C55.4978 5.64848 55.0934 6.22517 54.7945 6.89381C54.4956 7.56244 54.3461 8.27286 54.3461 9.02507C54.3461 9.794 54.4956 10.5128 54.7945 11.1814C55.0934 11.8333 55.4978 12.41 56.0077 12.9115C56.5351 13.3963 57.1417 13.7807 57.8275 14.0649C58.5308 14.3491 59.2868 14.4912 60.0956 14.4912C60.8868 14.4912 61.6341 14.3491 62.3374 14.0649C63.0407 13.7807 63.6473 13.3963 64.1572 12.9115C64.6846 12.41 65.0978 11.8333 65.3967 11.1814C65.6956 10.5128 65.8451 9.794 65.8451 9.02507ZM60.0956 0.550147C61.3264 0.550147 62.478 0.775811 63.5506 1.22714C64.6407 1.66175 65.5901 2.26352 66.3989 3.03245C67.2077 3.80138 67.8407 4.70403 68.2979 5.74041C68.7726 6.76008 69.0099 7.85497 69.0099 9.02507C69.0099 10.2119 68.7726 11.3235 68.2979 12.3599C67.8407 13.3795 67.2077 14.2738 66.3989 15.0428C65.5901 15.795 64.6407 16.3968 63.5506 16.8481C62.478 17.2827 61.3264 17.5 60.0956 17.5C58.8472 17.5 57.678 17.2827 56.5879 16.8481C55.5154 16.3968 54.5747 15.795 53.7659 15.0428C52.9571 14.2738 52.3153 13.3795 51.8406 12.3599C51.3835 11.3235 51.1549 10.2119 51.1549 9.02507C51.1549 7.85497 51.3835 6.76008 51.8406 5.74041C52.3153 4.70403 52.9571 3.80138 53.7659 3.03245C54.5747 2.26352 55.5154 1.66175 56.5879 1.22714C57.678 0.775811 58.8472 0.550147 60.0956 0.550147Z" fill="#0E7C9F"/>
<path d="M79.9876 11.3569L88.5064 0.5V17.5H85.3151V10.1283L79.8558 16.9985L74.7392 10.1534V17.5H71.6008V0.5L79.9876 11.3569Z" fill="#0E7C9F"/>
<path d="M95.7829 14.4912H103.247V17.5H92.5916V0.5H103.247V3.50885H95.7829V7.06932H101.611V10.1032H95.7829V14.4912Z" fill="#0E7C9F"/>
<path d="M115.833 0.5H120L112.694 8.5236L119.974 17.5H115.833L109.82 10.1032V17.5H106.628V0.5H109.82V7.0944L115.833 0.5Z" fill="#0E7C9F"/>
</svg>
